<svg xmlns="http://www.w3.org/2000/svg" xmlns:xlink="http://www.w3.org/1999/xlink" width="580" height="269" viewBox="0 0 580 269"><path fill-rule="evenodd" clip-rule="evenodd" d="M4.29 21.687v1.301h.653c.275 0 .471.053.587.159.117.105.175.281.175.526 0 .25-.059.43-.178.54-.118.11-.313.165-.584.165h-2.196c-.279 0-.479-.055-.6-.165-.12-.11-.181-.29-.181-.54 0-.224.057-.394.172-.511.114-.116.281-.174.501-.174h.108v-4.735h-.108c-.216 0-.382-.061-.498-.181-.117-.121-.175-.293-.175-.518 0-.245.062-.424.184-.536.123-.112.322-.168.597-.168h2.622c1.036 0 1.82.199 2.351.596.532.398.797.984.797 1.759 0 .816-.264 1.434-.793 1.853-.529.419-1.314.629-2.355.629h-1.079zm0-3.435v2.005h.901c.499 0 .875-.084 1.127-.254.251-.169.377-.423.377-.761 0-.318-.13-.562-.39-.733-.26-.172-.632-.257-1.114-.257h-.901zM13.728 22.987h1.365c.292 0 .497.053.616.159.118.105.177.281.177.526 0 .25-.06.43-.18.54-.121.11-.325.165-.613.165h-4.304c-.283 0-.485-.055-.606-.165s-.181-.29-.181-.54c0-.249.058-.426.175-.53.116-.103.32-.155.612-.155h1.365v-5.51h-.698c-.288 0-.494-.056-.619-.168-.125-.112-.187-.291-.187-.536 0-.25.061-.43.184-.54.122-.11.33-.165.622-.165h1.898c.118 0 .21.024.276.073.065.049.098.115.098.2v6.646zM20.748 19.711c-.495 0-.902.162-1.221.486-.32.324-.48.737-.48 1.241 0 .508.16.928.48 1.26.319.332.726.498 1.221.498.496 0 .904-.166 1.226-.498.321-.332.482-.752.482-1.26 0-.504-.16-.917-.479-1.241-.32-.323-.729-.486-1.229-.486zm0-1.339c1.029 0 1.862.288 2.501.863.639.576.959 1.314.959 2.216 0 .905-.32 1.646-.959 2.221-.639.576-1.472.864-2.501.864-1.024 0-1.855-.288-2.494-.864-.639-.575-.959-1.316-.959-2.221 0-.902.321-1.64.962-2.216.641-.575 1.472-.863 2.491-.863zM28.111 18.867h1.937c.292 0 .499.053.622.159.122.106.184.281.184.527 0 .249-.063.429-.188.539-.124.11-.331.165-.618.165h-1.937v1.625c0 .457.07.771.21.94.14.169.385.254.736.254.33 0 .72-.095 1.168-.286.449-.19.749-.286.902-.286.173 0 .322.069.447.207.125.137.187.303.187.498 0 .326-.295.623-.885.892-.59.269-1.26.403-2.009.403-.436 0-.819-.059-1.149-.178-.33-.118-.59-.289-.781-.508-.139-.169-.239-.372-.298-.609s-.089-.633-.089-1.187v-1.7650000000000001h-.597c-.287 0-.492-.055-.612-.165-.121-.11-.181-.29-.181-.539 0-.25.059-.427.178-.53.118-.104.323-.156.615-.156h.597v-1.485c0-.292.06-.497.181-.616.12-.118.32-.178.6-.178.279 0 .479.06.6.178.12.119.18.324.18.616v1.485zM38.783 32.502h-3.066v-21.995h3.066v1.092h-1.936v19.811h1.936zM46.952 32.527c-1.134 0-1.99-.23-2.568-.692-.577-.461-.866-1.136-.866-2.024v-5.783c0-1.312-.595-1.968-1.784-1.968v-1.092c.609 0 1.059-.157 1.349-.473.29-.315.435-.811.435-1.488v-5.783c0-.901.284-1.576.853-2.025.57-.448 1.43-.679 2.581-.692v1.092h-.07c-.762 0-1.325.13-1.689.391-.363.26-.545.659-.545 1.196v5.808c0 1.168-.386 2.008-1.156 2.52.394.263.685.603.873 1.022s.283.921.283 1.505v5.808c0 1.058.744 1.587 2.234 1.587h.07v1.091zM54.02 20.307h-3.123v1.136h56.57899999999999v-1.136h-3.123zM62.831 1.61h-1.524l-3.453 11.686-3.015-6.304-3.161 1.575.482.958 2.114-1.015 3.783 7.865 4.031-13.635h44.388v-1.13h-3.376zM64.768 10.792h5.199v1.136h-5.199zM77.13 12.874h1.029c.283 0 .488.053.615.159.127.105.191.279.191.52 0 .237-.062.409-.184.514-.123.106-.33.159-.622.159h-3.745c-.292 0-.5-.053-.623-.159-.122-.105-.184-.277-.184-.514 0-.241.063-.415.188-.52.124-.106.331-.159.619-.159h1.18v-5.358l-.711.184-.273.057-.158.019c-.174 0-.308-.055-.403-.165-.096-.11-.143-.267-.143-.47 0-.148.053-.273.158-.374.106-.102.269-.18.489-.235l1.574-.432.324-.076.21-.026c.169 0 .289.047.361.14.072.093.108.25.108.47v6.266zM89.569 11.927h-2.044v2.101h-1.13v-2.101h-2.025v-1.135h2.025v-2.089h1.13v2.089h2.044z"/><path fill-rule="evenodd" clip-rule="evenodd" fill="#3C7D91" d="M96.169 9.75l.508 3.123.679-2.419c.072-.253.163-.421.273-.501.11-.08.273-.121.488-.121.216 0 .379.039.489.115.11.076.203.245.28.507l.704 2.419.483-3.123h-.108c-.229 0-.402-.059-.521-.178-.118-.118-.178-.292-.178-.52 0-.25.061-.428.181-.534.121-.105.329-.158.626-.158h1.491c.292 0 .5.054.622.162.123.108.184.284.184.53 0 .228-.06.402-.181.52-.12.119-.293.178-.517.178h-.108l-.793 4.005c-.043.22-.14.38-.292.479-.153.1-.375.149-.667.149-.287 0-.508-.05-.66-.149-.152-.1-.262-.259-.33-.479l-.743-2.469-.66 2.469c-.055.212-.165.369-.33.473-.165.104-.389.156-.673.156-.292 0-.512-.05-.66-.149s-.243-.259-.286-.479l-.806-4.006h-.108c-.224 0-.394-.059-.511-.178-.116-.118-.174-.292-.174-.52 0-.246.059-.422.178-.53.118-.108.323-.162.615-.162h1.505c.292 0 .497.054.615.162.119.108.178.284.178.53 0 .228-.058.402-.174.52-.117.119-.287.178-.511.178h-.108z"/><path fill-rule="evenodd" clip-rule="evenodd" d="M62.831 27.125h-1.524l-3.453 11.686-3.015-6.305-3.161 1.576.482.958 2.114-1.016 3.783 7.864 4.031-13.634h44.388v-1.129h-3.376zM64.768 36.305h5.199v1.136h-5.199zM77.13 38.387h1.029c.283 0 .488.053.615.159.127.105.191.279.191.52 0 .237-.062.409-.184.514-.123.106-.33.159-.622.159h-3.745c-.292 0-.5-.053-.623-.159-.122-.105-.184-.277-.184-.514 0-.241.063-.415.188-.52.124-.106.331-.159.619-.159h1.18v-5.357l-.711.184-.273.057-.158.019c-.174 0-.308-.055-.403-.165-.096-.11-.143-.267-.143-.47 0-.148.053-.273.158-.374.106-.102.269-.18.489-.235l1.574-.432.324-.076.21-.026c.169 0 .289.047.361.14.072.093.108.25.108.47v6.265zM84.37 36.305h5.199v1.136h-5.199z"/><path fill-rule="evenodd" clip-rule="evenodd" fill="#3C7D91" d="M96.169 35.264l.508 3.123.679-2.419c.072-.253.163-.421.273-.501.11-.08.273-.121.488-.121.216 0 .379.039.489.115.11.076.203.245.28.507l.704 2.419.483-3.123h-.108c-.229 0-.402-.059-.521-.178-.118-.118-.178-.292-.178-.52 0-.25.061-.428.181-.534.121-.105.329-.158.626-.158h1.491c.292 0 .5.054.622.162.123.108.184.284.184.53 0 .228-.06.402-.181.52-.12.119-.293.178-.517.178h-.108l-.793 4.005c-.043.22-.14.38-.292.479-.153.099-.375.149-.667.149-.287 0-.508-.05-.66-.149-.152-.1-.262-.26-.33-.479l-.743-2.469-.66 2.469c-.055.212-.165.369-.33.473-.165.104-.389.156-.673.156-.292 0-.512-.05-.66-.149-.148-.1-.243-.26-.286-.479l-.806-4.005h-.108c-.224 0-.394-.059-.511-.178-.116-.118-.174-.292-.174-.52 0-.246.059-.422.178-.53.118-.108.323-.162.615-.162h1.505c.292 0 .497.054.615.162.119.108.178.284.178.53 0 .228-.058.402-.174.52-.117.119-.287.178-.511.178h-.108z"/><path fill-rule="evenodd" clip-rule="evenodd" d="M112.391 22.181h1.51l.162.038.061.101-.016.08-.041.104-1.898 3.72c-.03.068-.072.122-.127.162-.055.04-.117.06-.184.06l-.061-.009-.066-.016-.483-.171-.165-.105-.057-.143.003-.105.01-.066.901-3.301c.038-.144.088-.238.149-.283.062-.044.162-.066.302-.066zM128.804 22.987h.108c.228 0 .402.058.52.174.119.117.178.287.178.511 0 .25-.063.43-.187.54-.125.11-.332.165-.619.165h-1.911c-.292 0-.499-.054-.622-.162s-.184-.289-.184-.543c0-.245.061-.421.184-.526.123-.106.33-.159.622-.159h.222l-.26-.743h-2.742l-.273.743h.222c.288 0 .494.054.619.162s.187.282.187.523c0 .25-.062.43-.187.54s-.331.165-.619.165h-1.638c-.292 0-.499-.055-.622-.165-.123-.11-.184-.29-.184-.54 0-.224.06-.394.178-.511.118-.116.292-.174.521-.174h.108l1.701-4.735h-.507c-.288 0-.494-.056-.619-.166s-.188-.287-.188-.533c0-.249.063-.429.188-.539.125-.11.331-.165.619-.165h2.38c.377 0 .641.203.793.609v.019l2.012 5.51zm-3.326-4.735l-.921 2.678h1.841l-.92-2.678zM133.12 20.93v2.057h1.498c.288 0 .492.053.612.159.121.105.181.281.181.526 0 .25-.06.43-.181.54-.12.11-.324.165-.612.165h-3.548c-.292 0-.5-.055-.623-.165-.122-.11-.184-.29-.184-.54 0-.245.061-.421.181-.526.121-.106.329-.159.626-.159h.482v-3.085h-.273c-.288 0-.492-.054-.613-.162-.12-.108-.18-.287-.18-.536 0-.25.058-.428.174-.534.116-.105.323-.158.619-.158h1.352c.114 0 .203.024.267.073.063.048.095.115.095.2v.939c.461-.495.892-.848 1.292-1.06.4-.211.83-.317 1.291-.317.419 0 .751.094.997.282.245.189.368.441.368.759 0 .245-.085.447-.254.606-.169.159-.387.238-.654.238-.19 0-.415-.07-.676-.209-.26-.14-.441-.21-.542-.21-.203 0-.443.091-.718.273s-.601.463-.977.844zM143.092 18.855c.05-.166.13-.289.238-.372.108-.082.246-.124.416-.124.228 0 .391.069.488.207.098.137.146.375.146.714v1.041c0 .258-.053.448-.158.571-.106.123-.269.184-.489.184-.157 0-.288-.036-.394-.108-.106-.072-.218-.209-.336-.412-.169-.288-.392-.501-.667-.638-.275-.138-.611-.207-1.009-.207-.495 0-.9.162-1.216.486-.315.324-.472.737-.472 1.241 0 .529.163.954.488 1.276.326.322.764.482 1.314.482.5 0 .996-.138 1.489-.415.493-.278.794-.416.904-.416.157 0 .287.06.391.181.103.12.155.272.155.454 0 .397-.301.753-.904 1.066s-1.32.47-2.149.47c-1.024 0-1.857-.288-2.498-.864-.641-.575-.961-1.316-.961-2.221 0-.885.317-1.621.952-2.209.635-.588 1.434-.883 2.399-.883.326 0 .643.041.952.121.309.081.616.206.921.375zM151.153 18.239h-1.327v4.735h1.067c.283 0 .486.055.609.165.123.11.184.288.184.533 0 .25-.061.43-.184.54s-.326.165-.609.165h-3.771c-.279 0-.48-.055-.603-.165s-.184-.29-.184-.54c0-.249.06-.428.181-.536s.323-.162.606-.162h1.067v-4.735h-1.327l-.038 1.288v.159c0 .203-.056.362-.168.476-.112.114-.268.172-.467.172-.237 0-.411-.061-.524-.181-.112-.121-.168-.312-.168-.575v-.051l.07-1.898c.013-.376.065-.603.156-.679.091-.076.276-.114.555-.114h5.459c.279 0 .464.038.555.114.091.076.145.303.162.679l.064 1.898v.051c0 .267-.053.459-.159.578-.106.118-.277.178-.514.178-.229 0-.393-.059-.492-.175-.1-.116-.153-.327-.162-.632l-.038-1.288zM159.398 22.987h.102c.228 0 .403.06.524.181.12.12.18.293.18.517 0 .246-.062.422-.187.53s-.331.162-.619.162h-.596c-.212 0-.37-.041-.473-.121-.104-.08-.19-.226-.257-.438-.352.233-.724.411-1.118.534-.393.123-.791.184-1.193.184-.681 0-1.217-.169-1.606-.508-.389-.339-.584-.802-.584-1.39 0-.635.252-1.128.756-1.479.503-.351 1.21-.527 2.12-.527.203 0 .419.01.647.032.229.021.485.055.768.101v-.12c0-.381-.092-.671-.276-.87-.184-.199-.456-.298-.816-.298-.279 0-.635.103-1.069.311-.434.207-.752.311-.956.311-.198 0-.359-.059-.482-.175s-.184-.27-.184-.46c0-.343.251-.615.752-.816.502-.201 1.184-.301 2.047-.301.902 0 1.547.173 1.936.52.39.347.584.935.584 1.765v2.355zm-1.536-1.225c-.211-.047-.406-.082-.584-.105-.178-.023-.343-.035-.495-.035-.465 0-.83.078-1.095.235-.264.157-.397.372-.397.647 0 .246.085.433.254.562.17.129.413.194.73.194.292 0 .567-.043.825-.127.259-.085.512-.216.762-.394v-.977zM167.275 22.974h.083c.237 0 .415.058.533.175.119.116.178.291.178.523 0 .25-.06.43-.181.54s-.325.165-.613.165h-1.561c-.284 0-.488-.055-.613-.165-.124-.11-.187-.29-.187-.54 0-.232.06-.407.181-.523.121-.117.302-.175.543-.175h.076v-1.834c0-.508-.071-.869-.213-1.083-.141-.213-.377-.32-.707-.32-.352 0-.638.128-.861.384-.222.256-.333.596-.333 1.019v1.834h.076c.242 0 .421.058.54.175.118.116.178.291.178.523 0 .25-.062.43-.184.54-.123.11-.326.165-.61.165h-1.574c-.284 0-.487-.055-.609-.165-.123-.11-.184-.29-.184-.54 0-.232.059-.407.177-.523.119-.117.299-.175.54-.175h.076v-3.072h-.108c-.228 0-.402-.058-.52-.175-.119-.116-.178-.286-.178-.511 0-.249.061-.429.184-.539s.33-.165.622-.165h1.079c.119 0 .208.023.27.07.061.046.092.114.092.203v.495c.195-.305.443-.534.746-.689.302-.154.652-.232 1.05-.232.677 0 1.182.206 1.514.616.332.411.498 1.037.498 1.879v2.12zM174.583 26.821h-2.805v-10.53h2.805v1.091h-1.675v8.347h1.675z"/><path fill-rule="evenodd" clip-rule="evenodd" fill="#3C7D91" d="M178.614 19.902l.508 3.123.679-2.419c.072-.253.163-.421.273-.501s.273-.121.488-.121c.216 0 .379.039.489.115.11.076.203.245.28.507l.704 2.419.483-3.123h-.108c-.229 0-.402-.059-.521-.178-.118-.118-.178-.292-.178-.52 0-.25.061-.428.181-.534.121-.105.329-.158.626-.158h1.491c.292 0 .5.054.622.162.123.108.184.284.184.53 0 .228-.06.402-.181.52-.12.119-.293.178-.517.178h-.108l-.793 4.005c-.043.22-.14.38-.292.479-.153.1-.375.149-.667.149-.287 0-.508-.05-.66-.149-.152-.099-.262-.259-.33-.479l-.743-2.469-.66 2.469c-.055.212-.165.369-.33.473s-.389.156-.673.156c-.292 0-.512-.05-.66-.149-.148-.099-.243-.259-.286-.479l-.806-4.005h-.108c-.224 0-.394-.059-.511-.178-.116-.118-.174-.292-.174-.52 0-.246.059-.422.178-.53.118-.108.323-.162.615-.162h1.505c.292 0 .497.054.615.162.119.108.178.284.178.53 0 .228-.058.402-.174.52-.117.119-.287.178-.511.178h-.108z"/><path fill-rule="evenodd" clip-rule="evenodd" d="M189.354 26.821h-2.812v-1.092h1.682v-8.347h-1.682v-1.091h2.812zM196.191 22.181h1.51l.162.038.061.101-.016.08-.041.104-1.898 3.72c-.03.068-.072.122-.127.162-.055.04-.117.06-.184.06l-.061-.009-.066-.016-.483-.171-.165-.105-.057-.143.003-.105.01-.066.901-3.301c.038-.144.088-.238.149-.283.062-.044.162-.066.302-.066z"/><path fill-rule="evenodd" clip-rule="evenodd" fill="#3C7D91" d="M211.141 19.902l.508 3.123.679-2.419c.072-.253.163-.421.273-.501s.273-.121.488-.121c.216 0 .379.039.489.115.11.076.203.245.28.507l.704 2.419.483-3.123h-.108c-.229 0-.402-.059-.521-.178-.118-.118-.178-.292-.178-.52 0-.25.061-.428.181-.534.121-.105.329-.158.626-.158h1.491c.292 0 .5.054.622.162.123.108.184.284.184.53 0 .228-.06.402-.181.52-.12.119-.293.178-.517.178h-.108l-.793 4.005c-.043.22-.14.38-.292.479-.153.1-.375.149-.667.149-.287 0-.508-.05-.66-.149-.152-.099-.262-.259-.33-.479l-.743-2.469-.66 2.469c-.055.212-.165.369-.33.473s-.389.156-.673.156c-.292 0-.512-.05-.66-.149-.148-.099-.243-.259-.286-.479l-.806-4.005h-.108c-.224 0-.395-.059-.511-.178-.116-.118-.174-.292-.174-.52 0-.246.059-.422.178-.53.118-.108.323-.162.615-.162h1.505c.292 0 .497.054.615.162.119.108.178.284.178.53 0 .228-.058.402-.174.52-.117.119-.287.178-.511.178h-.108z"/><path fill-rule="evenodd" clip-rule="evenodd" d="M220.916 22.181h1.51l.162.038.061.101-.016.08-.041.104-1.898 3.72c-.03.068-.072.122-.127.162-.055.04-.117.06-.184.06l-.061-.009-.066-.016-.483-.171-.165-.105-.057-.143.003-.105.01-.066.901-3.301c.038-.144.088-.238.149-.283.062-.044.162-.066.302-.066zM240.754 22.987h.108c.228 0 .402.058.52.174.119.117.178.287.178.511 0 .25-.063.43-.187.54-.125.11-.332.165-.619.165h-1.911c-.292 0-.499-.054-.622-.162s-.184-.289-.184-.543c0-.245.061-.421.184-.526.123-.106.33-.159.622-.159h.222l-.26-.743h-2.742l-.273.743h.222c.288 0 .494.054.619.162s.187.282.187.523c0 .25-.062.43-.187.54s-.331.165-.619.165h-1.638c-.292 0-.499-.055-.622-.165s-.184-.29-.184-.54c0-.224.059-.394.178-.511.118-.116.292-.174.52-.174h.108l1.701-4.735h-.507c-.288 0-.494-.056-.619-.166s-.188-.287-.188-.533c0-.249.063-.429.188-.539.125-.11.331-.165.619-.165h2.38c.377 0 .641.203.793.609v.019l2.013 5.51zm-3.326-4.735l-.921 2.678h1.841l-.92-2.678zM245.07 20.93v2.057h1.498c.288 0 .492.053.612.159.121.105.181.281.181.526 0 .25-.06.43-.181.54-.12.11-.324.165-.612.165h-3.548c-.292 0-.5-.055-.623-.165-.122-.11-.184-.29-.184-.54 0-.245.061-.421.181-.526.121-.106.329-.159.626-.159h.482v-3.085h-.273c-.288 0-.492-.054-.613-.162-.12-.108-.18-.287-.18-.536 0-.25.058-.428.174-.534.116-.105.323-.158.619-.158h1.352c.114 0 .203.024.267.073.063.048.095.115.095.2v.939c.461-.495.892-.848 1.292-1.06.4-.211.83-.317 1.291-.317.419 0 .751.094.997.282.245.189.368.441.368.759 0 .245-.085.447-.254.606-.169.159-.387.238-.654.238-.19 0-.415-.07-.676-.209-.26-.14-.441-.21-.542-.21-.203 0-.443.091-.718.273-.275.183-.601.463-.977.844zM255.042 18.855c.05-.166.13-.289.238-.372.108-.082.246-.124.416-.124.228 0 .391.069.488.207.098.137.146.375.146.714v1.041c0 .258-.053.448-.158.571-.106.123-.269.184-.489.184-.157 0-.288-.036-.394-.108-.106-.072-.218-.209-.336-.412-.169-.288-.392-.501-.667-.638-.275-.138-.611-.207-1.009-.207-.495 0-.9.162-1.216.486-.315.324-.472.737-.472 1.241 0 .529.163.954.488 1.276.326.322.764.482 1.314.482.5 0 .996-.138 1.489-.415.493-.278.794-.416.904-.416.157 0 .287.06.391.181.103.12.155.272.155.454 0 .397-.301.753-.904 1.066s-1.32.47-2.149.47c-1.024 0-1.857-.288-2.498-.864-.641-.575-.961-1.316-.961-2.221 0-.885.317-1.621.952-2.209.635-.588 1.434-.883 2.399-.883.326 0 .643.041.952.121s.616.206.921.375zM263.103 18.239h-1.327v4.735h1.067c.283 0 .486.055.609.165.123.11.184.288.184.533 0 .25-.061.43-.184.54s-.326.165-.609.165h-3.771c-.279 0-.48-.055-.603-.165s-.184-.29-.184-.54c0-.249.06-.428.181-.536.121-.108.323-.162.606-.162h1.067v-4.735h-1.327l-.038 1.288v.159c0 .203-.056.362-.168.476-.112.114-.268.172-.467.172-.237 0-.411-.061-.524-.181-.112-.121-.168-.312-.168-.575v-.051l.07-1.898c.013-.376.065-.603.156-.679.091-.076.276-.114.555-.114h5.459c.279 0 .464.038.555.114.091.076.145.303.162.679l.064 1.898v.051c0 .267-.053.459-.159.578-.106.118-.277.178-.514.178-.229 0-.393-.059-.492-.175-.1-.116-.153-.327-.162-.632l-.038-1.288zM271.349 22.987h.102c.228 0 .403.06.524.181.119.12.18.293.18.517 0 .246-.062.422-.188.53s-.331.162-.618.162h-.597c-.212 0-.37-.041-.473-.121-.104-.08-.19-.226-.257-.438-.353.233-.724.411-1.118.534-.393.123-.791.184-1.193.184-.681 0-1.217-.169-1.606-.508-.389-.339-.584-.802-.584-1.39 0-.635.252-1.128.756-1.479.503-.351 1.21-.527 2.12-.527.203 0 .419.01.647.032.229.021.485.055.768.101v-.12c0-.381-.092-.671-.276-.87-.184-.199-.456-.298-.816-.298-.279 0-.635.103-1.069.311-.434.207-.752.311-.956.311-.198 0-.359-.059-.482-.175-.123-.116-.184-.27-.184-.46 0-.343.251-.615.752-.816.502-.201 1.184-.301 2.047-.301.902 0 1.547.173 1.937.52.39.347.584.935.584 1.765v2.355zm-1.537-1.225c-.211-.047-.406-.082-.584-.105-.178-.023-.343-.035-.495-.035-.465 0-.83.078-1.095.235-.264.157-.397.372-.397.647 0 .246.085.433.254.562.17.129.413.194.73.194.292 0 .567-.043.825-.127.259-.085.512-.216.762-.394v-.977zM279.226 22.974h.083c.236 0 .415.058.532.175.119.116.179.291.179.523 0 .25-.061.43-.182.54s-.325.165-.612.165h-1.562c-.284 0-.488-.055-.613-.165-.124-.11-.187-.29-.187-.54 0-.232.06-.407.181-.523.121-.117.302-.175.543-.175h.076v-1.834c0-.508-.071-.869-.213-1.083-.141-.213-.377-.32-.707-.32-.352 0-.638.128-.861.384-.222.256-.333.596-.333 1.019v1.834h.076c.242 0 .421.058.54.175.118.116.178.291.178.523 0 .25-.062.43-.184.54-.123.11-.326.165-.61.165h-1.573c-.284 0-.487-.055-.609-.165-.123-.11-.184-.29-.184-.54 0-.232.059-.407.177-.523.119-.117.299-.175.54-.175h.076v-3.072h-.108c-.228 0-.402-.058-.52-.175-.119-.116-.179-.286-.179-.511 0-.249.062-.429.185-.539s.33-.165.622-.165h1.079c.118 0 .207.023.27.07.061.046.092.114.092.203v.495c.195-.305.443-.534.746-.689.302-.154.652-.232 1.05-.232.678 0 1.183.206 1.515.616.332.411.498 1.037.498 1.879v2.12zM286.533 26.821h-2.804v-10.53h2.804v1.091h-1.675v8.347h1.675z"/><path fill-rule="evenodd" clip-rule="evenodd" fill="#3C7D91" d="M290.564 19.902l.508 3.123.679-2.419c.072-.253.163-.421.273-.501.109-.08.272-.121.487-.121.217 0 .38.039.489.115.11.076.203.245.28.507l.704 2.419.482-3.123h-.107c-.229 0-.402-.059-.521-.178-.118-.118-.178-.292-.178-.52 0-.25.061-.428.181-.534.121-.105.329-.158.626-.158h1.491c.292 0 .5.054.622.162.123.108.185.284.185.53 0 .228-.061.402-.182.52-.12.119-.293.178-.517.178h-.108l-.793 4.005c-.043.22-.14.38-.292.479-.153.1-.375.149-.667.149-.287 0-.508-.05-.66-.149-.151-.099-.262-.259-.33-.479l-.742-2.469-.66 2.469c-.056.212-.165.369-.33.473s-.39.156-.673.156c-.292 0-.513-.05-.66-.149-.148-.099-.243-.259-.286-.479l-.806-4.005h-.108c-.224 0-.395-.059-.511-.178-.116-.118-.174-.292-.174-.52 0-.246.059-.422.178-.53.118-.108.323-.162.615-.162h1.505c.292 0 .497.054.614.162.119.108.179.284.179.53 0 .228-.059.402-.174.52-.117.119-.287.178-.512.178h-.107z"/><path fill-rule="evenodd" clip-rule="evenodd" d="M301.306 26.821h-2.813v-1.092h1.682v-8.347h-1.682v-1.091h2.813zM308.868 20.943h5.199v1.136h-5.199z"/><path fill-rule="evenodd" clip-rule="evenodd" fill="#3C7D91" d="M320.666 19.902l.508 3.123.68-2.419c.071-.253.163-.421.272-.501.11-.08.273-.121.488-.121.216 0 .379.039.489.115.109.076.202.245.279.507l.704 2.419.483-3.123h-.108c-.229 0-.401-.059-.521-.178-.118-.118-.179-.292-.179-.52 0-.25.062-.428.182-.534.121-.105.329-.158.626-.158h1.491c.292 0 .5.054.622.162s.184.284.184.53c0 .228-.06.402-.181.52-.12.119-.293.178-.518.178h-.107l-.793 4.005c-.043.22-.141.38-.292.479-.153.1-.375.149-.667.149-.287 0-.509-.05-.66-.149-.152-.099-.263-.259-.33-.479l-.743-2.469-.66 2.469c-.055.212-.165.369-.33.473s-.389.156-.673.156c-.292 0-.512-.05-.66-.149-.147-.099-.243-.259-.286-.479l-.806-4.005h-.108c-.224 0-.394-.059-.511-.178-.116-.118-.174-.292-.174-.52 0-.246.059-.422.178-.53.118-.108.323-.162.615-.162h1.505c.292 0 .497.054.615.162.119.108.178.284.178.53 0 .228-.058.402-.174.52-.117.119-.287.178-.511.178h-.107z"/><path fill-rule="evenodd" clip-rule="evenodd" d="M333.185 22.061h-.038c-.576 0-1.01.166-1.302.498-.292.333-.438.822-.438 1.47v5.783c0 .931-.328 1.631-.984 2.101-.576.41-1.348.615-2.316.615h-.135v-1.091h.064c.766 0 1.331-.131 1.695-.391.363-.26.546-.659.546-1.196v-5.808c0-.584.094-1.086.282-1.505.188-.419.479-.759.873-1.022-.398-.262-.688-.599-.87-1.009-.19-.427-.285-.931-.285-1.511v-5.808c0-.537-.183-.936-.546-1.196-.364-.261-.93-.391-1.695-.391h-.064v-1.092h.135c1.062 0 1.877.233 2.443.699.571.479.857 1.151.857 2.018v5.783c0 .677.145 1.173.434 1.488.29.316.738.473 1.344.473v1.092zM338.243 22.181h1.51l.162.038.062.101-.017.08-.041.104-1.897 3.72c-.03.068-.072.122-.127.162-.056.04-.117.06-.185.06l-.061-.009-.066-.016-.482-.171-.165-.105-.058-.143.003-.105.011-.066.9-3.301c.038-.144.088-.238.149-.283.062-.044.163-.066.302-.066zM356.812 26.783c-1.77 0-2.653-.646-2.653-1.936v-2.12c0-.445-.377-.667-1.13-.667v-1.092c.753 0 1.13-.22 1.13-.66v-2.12c0-1.291.884-1.936 2.653-1.936v1.079c-1.017 0-1.523.273-1.523.819v2.145c0 .504-.208.91-.622 1.219.414.339.622.747.622 1.225v2.146c0 .546.507.819 1.523.819v1.079z"/><path fill-rule="evenodd" clip-rule="evenodd" fill="#3C7D91" d="M360.994 19.902l.508 3.123.679-2.419c.072-.253.163-.421.273-.501s.273-.121.488-.121c.216 0 .379.039.488.115.11.076.203.245.28.507l.704 2.419.483-3.123h-.108c-.229 0-.402-.059-.521-.178-.118-.118-.179-.292-.179-.52 0-.25.062-.428.182-.534.121-.105.329-.158.626-.158h1.491c.291 0 .5.054.621.162.123.108.185.284.185.53 0 .228-.061.402-.181.52-.12.119-.294.178-.518.178h-.107l-.794 4.005c-.043.22-.14.38-.292.479-.152.1-.375.149-.667.149-.286 0-.508-.05-.659-.149-.152-.099-.263-.259-.33-.479l-.743-2.469-.66 2.469c-.055.212-.165.369-.33.473s-.389.156-.673.156c-.292 0-.512-.05-.66-.149-.147-.099-.243-.259-.286-.479l-.806-4.005h-.108c-.224 0-.394-.059-.511-.178-.116-.118-.174-.292-.174-.52 0-.246.059-.422.178-.53.118-.108.323-.162.615-.162h1.505c.292 0 .497.054.615.162.119.108.178.284.178.53 0 .228-.058.402-.174.52-.117.119-.287.178-.511.178h-.107z"/><path fill-rule="evenodd" clip-rule="evenodd" d="M370.771 22.181h1.51l.162.038.061.101-.016.08-.041.104-1.898 3.72c-.029.068-.071.122-.127.162-.055.04-.117.06-.184.06l-.062-.009-.065-.016-.483-.171-.165-.105-.057-.143.003-.105.01-.066.901-3.301c.038-.144.088-.238.148-.283.062-.044.162-.066.303-.066zM387.319 17.591c-.448 0-.803.246-1.063.737-.26.491-.39 1.168-.39 2.031 0 .876.129 1.56.387 2.053.258.493.614.74 1.066.74.453 0 .81-.247 1.07-.74s.39-1.177.39-2.053c0-.863-.13-1.54-.39-2.031-.26-.491-.617-.737-1.07-.737zm-.011-1.428c.973 0 1.744.378 2.316 1.133.571.756.857 1.781.857 3.076 0 1.299-.286 2.326-.857 3.081-.572.756-1.344 1.133-2.316 1.133-.966 0-1.73-.377-2.296-1.133-.564-.755-.847-1.782-.847-3.081 0-1.3.282-2.326.847-3.079.565-.752 1.33-1.13 2.296-1.13zM394.797 22.181h1.511l.161.038.062.101-.016.08-.041.104-1.898 3.72c-.03.068-.072.122-.127.162l-.184.06-.062-.009-.066-.016-.482-.171-.165-.105-.057-.143.003-.105.01-.066.9-3.301c.038-.144.089-.238.149-.283.063-.044.162-.066.302-.066zM412.312 23.025h1.028c.283 0 .488.053.615.159.127.105.191.279.191.52 0 .237-.062.409-.185.514-.123.106-.33.159-.622.159h-3.745c-.292 0-.5-.053-.623-.159-.121-.105-.184-.277-.184-.514 0-.241.063-.415.188-.52.124-.106.331-.159.618-.159h1.181v-5.357l-.711.184-.273.057-.158.019c-.174 0-.308-.055-.402-.165-.097-.11-.144-.267-.144-.47 0-.148.054-.273.158-.374.106-.102.27-.18.489-.235l1.574-.432.323-.076.21-.026c.169 0 .289.047.361.14.072.093.108.25.108.47v6.265zM420.918 22.061c-.38 0-.664.056-.85.168-.187.112-.279.279-.279.499v2.12c0 1.29-.885 1.936-2.654 1.936v-1.079c1.017 0 1.524-.273 1.524-.819v-2.146c0-.478.207-.886.622-1.225-.208-.152-.363-.333-.467-.543-.104-.209-.155-.434-.155-.676v-2.146c0-.292-.121-.502-.362-.628-.24-.127-.629-.191-1.162-.191v-1.079c.897 0 1.564.16 2 .479.437.32.654.805.654 1.457v2.12c0 .229.091.398.273.508.169.102.454.152.855.152v1.093zM426.625 22.181h1.51l.162.038.062.101-.017.08-.041.104-1.897 3.72c-.03.068-.072.122-.127.162-.056.04-.117.06-.185.06l-.061-.009-.066-.016-.482-.171-.165-.105-.058-.143.003-.105.011-.066.9-3.301c.038-.144.088-.238.149-.283.062-.044.162-.066.302-.066zM442.319 21.687v1.301h.652c.275 0 .472.053.588.159.116.105.175.281.175.526 0 .25-.06.43-.178.54s-.313.165-.585.165h-2.195c-.279 0-.479-.055-.601-.165-.119-.11-.181-.29-.181-.54 0-.224.057-.394.172-.511.114-.116.281-.174.501-.174h.108v-4.735h-.108c-.216 0-.382-.061-.498-.181-.117-.121-.175-.293-.175-.518 0-.245.062-.424.184-.536.123-.112.322-.168.598-.168h2.622c1.036 0 1.819.199 2.351.596.532.398.797.984.797 1.759 0 .816-.264 1.434-.793 1.853-.528.419-1.313.629-2.354.629h-1.08zm0-3.435v2.005h.9c.499 0 .875-.084 1.127-.254.252-.169.378-.423.378-.761 0-.318-.131-.562-.391-.733-.26-.172-.632-.257-1.114-.257h-.9zM451.757 22.987h1.365c.292 0 .497.053.616.159.118.105.177.281.177.526 0 .25-.06.43-.18.54-.121.11-.325.165-.613.165h-4.304c-.283 0-.485-.055-.606-.165s-.181-.29-.181-.54c0-.249.058-.426.175-.53.116-.103.32-.155.612-.155h1.365v-5.51h-.698c-.288 0-.494-.056-.619-.168-.125-.112-.188-.291-.188-.536 0-.25.062-.43.185-.54.122-.11.33-.165.622-.165h1.897c.118 0 .21.024.276.073.065.049.098.115.098.2v6.646zM458.777 19.711c-.495 0-.902.162-1.221.486-.32.324-.48.737-.48 1.241 0 .508.16.928.48 1.26.318.332.726.498 1.221.498.496 0 .904-.166 1.226-.498s.482-.752.482-1.26c0-.504-.16-.917-.479-1.241-.319-.323-.729-.486-1.229-.486zm0-1.339c1.029 0 1.862.288 2.501.863.639.576.959 1.314.959 2.216 0 .905-.32 1.646-.959 2.221-.639.576-1.472.864-2.501.864-1.024 0-1.855-.288-2.494-.864-.639-.575-.959-1.316-.959-2.221 0-.902.321-1.64.962-2.216.641-.575 1.472-.863 2.491-.863zM466.141 18.867h1.937c.292 0 .499.053.622.159.122.106.184.281.184.527 0 .249-.062.429-.188.539-.124.11-.331.165-.618.165h-1.937v1.625c0 .457.069.771.21.94.14.169.385.254.735.254.33 0 .721-.095 1.168-.286.449-.19.749-.286.902-.286.173 0 .322.069.447.207.125.137.187.303.187.498 0 .326-.295.623-.885.892-.59.269-1.26.403-2.009.403-.437 0-.819-.059-1.149-.178-.33-.118-.59-.289-.781-.508-.139-.169-.238-.372-.298-.609-.059-.237-.089-.633-.089-1.187v-1.7650000000000001h-.597c-.287 0-.492-.055-.612-.165-.121-.11-.181-.29-.181-.539 0-.25.059-.427.178-.53.118-.104.323-.156.615-.156h.597v-1.485c0-.292.061-.497.181-.616.12-.118.32-.178.601-.178.279 0 .479.06.6.178.12.119.181.324.181.616v1.485zM473.694 18.252v4.735h2.888v-1.13c0-.292.052-.499.156-.622.103-.123.276-.184.517-.184s.417.062.527.187.165.331.165.619v1.949c0 .228-.045.381-.133.457-.089.076-.268.114-.534.114h-5.757c-.275 0-.473-.055-.59-.165-.119-.11-.179-.29-.179-.54 0-.245.059-.421.176-.526.115-.106.313-.159.593-.159h.559v-4.735h-.559c-.275 0-.473-.056-.59-.166-.119-.11-.179-.287-.179-.533 0-.245.062-.424.188-.536.125-.112.323-.168.594-.168h2.704c.271 0 .468.056.593.168.125.112.188.291.188.536 0 .246-.062.423-.186.533-.122.11-.32.166-.596.166h-.545zM480.454 21.819c.11.47.323.821.638 1.054.315.232.735.349 1.261.349.524 0 1.043-.128 1.555-.384s.821-.384.927-.384c.156 0 .284.058.384.174.1.117.149.266.149.448 0 .398-.294.74-.882 1.028-.589.288-1.316.432-2.185.432-1.023 0-1.856-.288-2.498-.864-.641-.575-.961-1.316-.961-2.221 0-.902.32-1.64.961-2.216.642-.575 1.475-.863 2.498-.863.914 0 1.672.271 2.273.809.6.54.901 1.201.901 1.984 0 .25-.061.421-.182.514-.121.093-.369.14-.746.14h-4.093zm3.421-.99c-.072-.394-.257-.699-.555-.914-.298-.216-.688-.324-1.165-.324-.461 0-.833.102-1.114.308-.281.205-.477.515-.587.93h3.421zM489.709 19.699c-.415 0-.759.15-1.032.45-.272.301-.408.684-.408 1.149 0 .457.136.835.408 1.133.273.299.617.448 1.032.448.418 0 .764-.149 1.037-.448.273-.298.41-.676.41-1.133 0-.465-.137-.848-.41-1.149-.273-.3-.619-.45-1.037-.45zm1.574-.596v-.33c0-.085.03-.149.092-.194.062-.044.153-.066.276-.066h1.035c.291 0 .497.054.614.162.119.108.179.284.179.53 0 .228-.059.402-.176.52-.115.119-.285.178-.511.178h-.106v4.373c0 .927-.252 1.6-.756 2.019s-1.312.628-2.426.628c-.688 0-1.195-.067-1.52-.203-.324-.135-.485-.349-.485-.641 0-.203.065-.368.196-.495s.305-.19.521-.19l.546.057c.31.038.595.057.857.057.604 0 1.023-.114 1.253-.343.231-.228.346-.639.346-1.231v-.286c-.3.174-.597.302-.892.384-.294.083-.6.124-.917.124-.85 0-1.545-.266-2.085-.797s-.809-1.213-.809-2.047c0-.859.281-1.566.847-2.12.564-.554 1.288-.832 2.168-.832.381 0 .715.061 1.003.181.288.12.538.307.75.562zM496.056 21.819c.11.47.323.821.639 1.054.314.232.734.349 1.26.349s1.043-.128 1.555-.384c.513-.256.821-.384.928-.384.155 0 .283.058.384.174.099.117.148.266.148.448 0 .398-.294.74-.882 1.028-.589.288-1.315.432-2.184.432-1.024 0-1.857-.288-2.498-.864-.641-.575-.961-1.316-.961-2.221 0-.902.32-1.64.961-2.216.641-.575 1.474-.863 2.498-.863.914 0 1.672.271 2.272.809.601.54.901 1.201.901 1.984 0 .25-.06.421-.181.514-.121.093-.369.14-.746.14h-4.094zm3.422-.99c-.072-.394-.258-.699-.556-.914-.298-.216-.687-.324-1.165-.324-.461 0-.833.102-1.113.308-.281.205-.478.515-.588.93h3.422zM508.249 22.974h.083c.237 0 .415.058.533.175.119.116.178.291.178.523 0 .25-.06.43-.181.54s-.325.165-.613.165h-1.561c-.284 0-.488-.055-.613-.165-.124-.11-.188-.29-.188-.54 0-.232.061-.407.182-.523.121-.117.302-.175.543-.175h.076v-1.834c0-.508-.071-.869-.214-1.083-.141-.213-.377-.32-.706-.32-.353 0-.639.128-.861.384-.222.256-.333.596-.333 1.019v1.834h.076c.242 0 .421.058.54.175.118.116.178.291.178.523 0 .25-.062.43-.184.54-.123.11-.326.165-.61.165h-1.574c-.284 0-.487-.055-.608-.165-.123-.11-.185-.29-.185-.54 0-.232.06-.407.177-.523.119-.117.3-.175.54-.175h.076v-3.072h-.107c-.229 0-.402-.058-.521-.175-.119-.116-.178-.286-.178-.511 0-.249.061-.429.184-.539s.33-.165.622-.165h1.079c.119 0 .208.023.271.07.061.046.092.114.092.203v.495c.194-.305.442-.534.746-.689.302-.154.651-.232 1.05-.232.677 0 1.182.206 1.514.616.332.411.498 1.037.498 1.879v2.12zM516.089 22.987h.107c.229 0 .4.058.515.174.114.117.171.287.171.511 0 .25-.06.43-.181.54-.12.11-.325.165-.612.165h-.972c-.122 0-.217-.024-.282-.073s-.098-.115-.098-.2v-.444c-.208.283-.475.5-.8.65-.326.15-.692.226-1.099.226-.83 0-1.523-.283-2.082-.848s-.838-1.27-.838-2.117c0-.88.282-1.61.848-2.19.564-.579 1.282-.869 2.154-.869.301 0 .594.049.879.149.286.099.547.24.784.422v-1.606h-.844c-.292 0-.499-.056-.622-.168-.123-.112-.184-.291-.184-.536 0-.25.061-.43.184-.54s.33-.165.622-.165h1.974c.145 0 .242.03.295.089s.08.169.08.33v6.5zm-2.977-3.123c-.415 0-.76.155-1.032.466-.272.311-.409.706-.409 1.184 0 .491.135.892.406 1.203.271.311.616.467 1.035.467.418 0 .764-.157 1.037-.47.272-.313.41-.713.41-1.2 0-.474-.139-.867-.413-1.18-.275-.313-.62-.47-1.034-.47zM519.51 24.289c-.109.084-.224.149-.34.194-.116.044-.236.066-.358.066-.183 0-.311-.048-.385-.146-.074-.097-.11-.279-.11-.546v-.844c0-.279.047-.477.14-.593.093-.117.254-.175.482-.175.25 0 .453.121.609.362l.235.292c.207.186.448.326.723.419.275.093.588.14.94.14.304 0 .548-.06.729-.178.183-.119.273-.273.273-.464 0-.342-.489-.579-1.467-.71l-.508-.07c-.736-.102-1.284-.302-1.645-.6-.358-.298-.539-.699-.539-1.203 0-.597.216-1.058.647-1.384.432-.326 1.048-.489 1.848-.489.275 0 .557.023.847.067.29.045.587.113.893.206.089-.105.183-.184.282-.234.1-.051.211-.077.334-.077.173 0 .305.054.396.162s.137.27.137.486v.781c0 .182-.047.322-.14.422-.093.099-.224.149-.393.149-.175 0-.472-.151-.893-.454-.421-.303-.843-.454-1.267-.454-.33 0-.586.054-.769.162-.182.108-.272.257-.272.448 0 .296.381.495 1.143.596l.521.064c.957.139 1.613.348 1.971.625.358.277.537.689.537 1.235 0 .639-.236 1.133-.708 1.482s-1.143.523-2.009.523c-.34 0-.664-.022-.979-.066-.311-.045-.613-.11-.905-.194zM529.612 20.943h6.163l-1.39-1.39.806-.806 2.743 2.755-2.743 2.773-.806-.806 1.39-1.39h-6.163zM548.497 18.239h-1.327v4.735h1.067c.283 0 .486.055.609.165.122.11.184.288.184.533 0 .25-.062.43-.184.54-.123.11-.326.165-.609.165h-3.771c-.278 0-.479-.055-.603-.165s-.185-.29-.185-.54c0-.249.061-.428.182-.536s.323-.162.605-.162h1.067v-4.735h-1.327l-.038 1.288v.159c0 .203-.056.362-.168.476-.112.114-.268.172-.467.172-.237 0-.411-.061-.524-.181-.111-.121-.168-.312-.168-.575v-.051l.07-1.898c.013-.376.065-.603.156-.679.091-.076.275-.114.555-.114h5.459c.279 0 .464.038.555.114.092.076.146.303.162.679l.064 1.898v.051c0 .267-.053.459-.159.578-.106.118-.277.178-.514.178-.229 0-.394-.059-.492-.175-.101-.116-.153-.327-.162-.632l-.037-1.288zM553.867 20.93v2.057h1.498c.288 0 .492.053.612.159.121.105.181.281.181.526 0 .25-.06.43-.181.54-.12.11-.324.165-.612.165h-3.548c-.292 0-.5-.055-.623-.165-.122-.11-.185-.29-.185-.54 0-.245.062-.421.182-.526.121-.106.329-.159.626-.159h.481v-3.085h-.272c-.288 0-.492-.054-.613-.162-.12-.108-.18-.287-.18-.536 0-.25.058-.428.174-.534.116-.105.323-.158.619-.158h1.352c.114 0 .203.024.268.073.062.048.095.115.095.2v.939c.461-.495.892-.848 1.292-1.06.4-.211.83-.317 1.291-.317.419 0 .751.094.997.282.245.189.368.441.368.759 0 .245-.085.447-.254.606-.169.159-.388.238-.654.238-.19 0-.415-.07-.676-.209-.261-.14-.441-.21-.542-.21-.203 0-.443.091-.719.273-.275.183-.601.463-.977.844zM562.956 19.902h-.101c-.229 0-.401-.059-.519-.178-.115-.118-.174-.292-.174-.52 0-.25.059-.428.178-.534.118-.105.323-.158.615-.158h1.2c.114 0 .203.024.267.073.063.048.096.115.096.2v4.202h.101c.229 0 .404.059.524.178.121.118.181.287.181.507 0 .254-.062.435-.184.543-.123.108-.33.162-.622.162h-1.066c-.119 0-.211-.025-.277-.076-.064-.051-.098-.121-.098-.21v-.482c-.203.305-.452.533-.746.686s-.64.229-1.038.229c-.681 0-1.187-.205-1.517-.616-.33-.41-.495-1.039-.495-1.885v-2.12h-.108c-.228 0-.401-.059-.52-.178-.119-.118-.178-.292-.178-.52 0-.25.06-.428.181-.534.12-.105.329-.158.625-.158h1.193c.114 0 .2.024.261.073.059.048.089.115.089.2v2.951c0 .521.072.887.215 1.099.145.211.381.317.711.317.353 0 .641-.13.867-.39.226-.261.339-.602.339-1.026v-1.835zM568.028 21.819c.109.47.323.821.638 1.054.315.232.735.349 1.26.349s1.043-.128 1.556-.384c.512-.256.82-.384.927-.384.156 0 .284.058.384.174.1.117.149.266.149.448 0 .398-.294.74-.882 1.028-.59.288-1.316.432-2.185.432-1.023 0-1.856-.288-2.498-.864-.641-.575-.961-1.316-.961-2.221 0-.902.32-1.64.961-2.216.642-.575 1.475-.863 2.498-.863.914 0 1.672.271 2.273.809.6.54.9 1.201.9 1.984 0 .25-.06.421-.181.514-.121.093-.369.14-.746.14h-4.093zm3.421-.99c-.072-.394-.257-.699-.555-.914-.298-.216-.688-.324-1.165-.324-.461 0-.833.102-1.114.308-.281.205-.478.515-.587.93h3.421zM578.198 32.502h-3.073v-1.092h1.943v-19.811h-1.943v-1.092h3.073z"/><path stroke="#5E81B5" stroke-width="1.6" stroke-linecap="square" stroke-miterlimit="3.25" fill="none" d="M24.49 65.632l.101.048.102.049.202.096.405.193.809.384 1.619.767 3.237 1.522 7.02 3.252 6.555 2.979 6.426 2.871 6.971 3.061 6.505 2.812 7.051 2.996 6.921 2.899 6.457 2.666 7.001 2.851 6.536 2.63 6.407 2.547 6.952 2.734 6.487 2.526 7.031 2.712 6.903 2.636 6.438 2.44 6.982 2.629 6.518 2.437 7.061 2.627 6.934 2.568 6.468 2.386 7.012 2.581 6.548 2.407 6.419 2.356 6.963 2.56 6.499 2.39 7.043 2.602 6.914 2.563 6.45 2.405 6.994 2.628 6.528 2.476 6.401 2.452 6.944 2.696 6.48 2.553 7.024 2.819 6.559 2.686 6.431 2.696 6.975 3.008 6.51 2.901 7.055 3.267 6.927 3.364 6.461 3.316 7.004 3.844 6.541 3.907 6.413 4.255.107.077.109.076.217.155.435.312.87.633 1.739 1.305.109.084.108.084.218.168.434.34.87.693 1.74 1.443.1.087.102.087.203.173.405.354.812.724 1.623 1.517.101.1.101.098.203.2.406.403.811.834 1.623 1.786.113.132.114.133.226.268.453.549.906 1.16.114.152.112.152.228.311.451.644.906 1.39.113.184.114.189.226.385.453.815.113.214.113.219.227.452.453.977.113.263.113.272.228.575.112.304.113.32.227.689.113.377.113.405.114.442.112.486.114.554.113.655.113.855.113 2.045"/><path stroke="#E19C24" stroke-width="1.6" stroke-linecap="square" stroke-miterlimit="3.25" fill="none" d="M24.49 222.999l.101-.049.102-.048.202-.095.405-.194.809-.386 1.619-.773 3.237-1.544 7.02-3.345 6.555-3.119 6.426-3.05 6.971-3.297 6.505-3.067 7.051-3.304 6.921-3.228 6.457-2.989 7.001-3.22 6.536-2.98 6.407-2.899 6.952-3.115 6.487-2.878 7.031-3.085 6.903-2.993 6.438-2.76 6.982-2.955 6.518-2.722 7.061-2.909 6.934-2.813 6.468-2.587 7.012-2.763 6.548-2.538 6.419-2.449 6.963-2.616 6.499-2.399 7.043-2.555 6.914-2.463 6.45-2.257 6.994-2.405 6.528-2.203 6.401-2.121 6.944-2.259 6.48-2.067 7.024-2.2 6.559-2.013 6.431-1.936 6.975-2.059 6.51-1.886 7.055-2.001 6.927-1.925 6.461-1.759 7.004-1.869 6.541-1.711 6.413-1.643 6.956-1.748 6.49-1.6.113-.026.114-.029.226-.054.453-.111.906-.22 1.811-.438.113-.028.114-.027.226-.054.453-.109.906-.218.113-.026.113-.028.228-.053.452-.11.113-.027.113-.027.226-.054.114-.027.113-.026.113-.028.113-.027"/><path stroke="#8FB032" stroke-width="1.6" stroke-linecap="square" stroke-miterlimit="3.25" fill="none" d="M24.49 222.999l.101-.049.102-.048.202-.095.405-.194.809-.386 1.619-.773 3.237-1.544 7.02-3.348 6.555-3.127 6.426-3.066 6.971-3.326 6.505-3.103 7.051-3.363 6.921-3.302 6.457-3.08 7.001-3.34 6.536-3.118 6.407-3.055 6.952-3.317 6.487-3.094 7.031-3.355 6.903-3.293 6.438-3.07 6.982-3.331 6.518-3.11 7.061-3.369 6.934-3.306 6.468-3.085 7.012-3.347 6.548-3.123 6.419-3.062 6.963-3.322 6.499-3.1 7.043-3.36 6.914-3.298 6.45-3.077 6.994-3.336 6.528-3.115 6.401-3.053 6.944-3.313 6.48-3.091 7.024-3.35 6.559-3.129 6.431-3.068 6.975-3.327 6.51-3.106 7.055-3.365 6.927-3.304 6.461-3.082 7.004-3.342 6.541-3.12 6.413-3.059 6.956-3.317 6.49-3.098.113-.054.114-.054.226-.108.453-.216.906-.432 1.811-.864.113-.054.114-.054.226-.107.453-.217.906-.432.113-.054.113-.054.228-.108.452-.216.113-.054.113-.053.226-.109.114-.054.113-.054.113-.053.113-.055"/><path stroke="#EB6235" stroke-width="1.6" stroke-linecap="square" stroke-miterlimit="3.25" fill="none" d="M24.49 222.999h8.450000000000001l.219.001h2.1940000000000004l.11.001h1.206l.439.001h1.082l.205.001h.41l.819.001h.41l.409.001.82.002h.819l.819.002h.41l.41.001.819.001.1.001h.30200000000000005l.401.001.804.001.1.001h.30100000000000005l.402.001.803.002h.201l.201.001.401.001.804.001 1.606.005h.218l.218.001.435.001.872.003 1.742.007h.109l.109.001h.218l.436.002.871.004 1.743.009h.102l.101.001.203.001.407.002.813.004 1.627.008.101.001.102.001.203.001.407.002.813.005 1.626.012.111.001.11.001.22.001.441.003.881.006 1.763.013.11.001.11.001.22.002.441.004.881.007 1.763.017.108.001.108.001.216.002.433.004.865.009 1.73.019.109.001.108.001.216.002.433.004.865.01 1.73.022.101.001.101.002.202.001.403.005.807.011 1.615.023 3.228.046.109.002.11.001.218.004.438.007.875.015 1.75.028 3.501.065.102.002.102.001.204.004.409.008.817.017 1.634.032 3.268.072 6.407.158 6.952.202 6.487.216 7.031.268 6.903.3 6.438.311 6.982.376 6.518.387 7.061.46 6.934.494 6.468.498 7.012.584 6.548.585 6.419.612 6.963.707 6.499.702 7.043.803 6.914.835 6.45.82 6.994.932 6.528.911 6.401.932 6.944 1.055 6.48 1.022 7.024 1.153 6.559 1.116 6.431 1.131 6.975 1.267 6.51 1.221 7.055 1.364 6.927 1.379 6.461 1.323 7.004 1.472 6.541 1.41 6.413 1.414 6.956 1.57 6.49 1.5.113.025.114.026.226.053.453.106.906.212 1.811.426.113.028.114.026.226.054.453.106.906.215.113.027.113.028.228.052.452.109.113.026.113.027.226.054.114.027.113.028.113.026.113.028"/><path stroke="#666" stroke-width=".2" stroke-miterlimit="3.25" d="M24.49 222.999v-4m16.495 4v-2.399m16.494 2.399v-2.399m16.494 2.399v-2.399m16.494 2.399v-4" fill="none"/><path fill-rule="evenodd" clip-rule="evenodd" fill="#666" d="M83.432 231.022c0-.847.087-1.528.261-2.044.174-.517.433-.914.777-1.194.343-.28.775-.42 1.296-.42.384 0 .721.078 1.011.232.289.154.529.378.718.669.188.292.336.646.444 1.064.107.418.161.982.161 1.692 0 .84-.086 1.517-.259 2.033-.172.516-.43.915-.774 1.196-.343.281-.777.423-1.301.423-.69 0-1.232-.247-1.626-.742-.472-.595-.708-1.565-.708-2.909zm.903 0c0 1.175.138 1.957.413 2.346s.614.583 1.018.583.743-.194 1.018-.586c.275-.39.413-1.171.413-2.343 0-1.179-.138-1.962-.413-2.35-.275-.387-.618-.58-1.028-.58-.403 0-.726.171-.967.513-.302.436-.454 1.243-.454 2.417zM89.487 233.552h1.001v1.001h-1.001zM96.391 233.707v.846h-4.731c-.007-.212.027-.415.102-.61.121-.323.314-.64.579-.952.265-.312.648-.674 1.15-1.084.778-.639 1.304-1.144 1.577-1.517.273-.372.41-.726.41-1.058 0-.348-.124-.642-.373-.881s-.574-.358-.975-.358c-.423 0-.761.127-1.015.381s-.383.604-.386 1.055l-.903-.093c.062-.674.294-1.188.698-1.541.404-.354.946-.53 1.626-.53.687 0 1.23.191 1.631.572.4.381.6.853.6 1.416 0 .286-.058.567-.175.845-.118.276-.312.568-.584.874s-.723.725-1.355 1.259c-.527.443-.866.743-1.015.901-.15.158-.274.316-.372.476h3.511z"/><path stroke="#666" stroke-width=".2" stroke-miterlimit="3.25" d="M106.962 222.999v-2.399m16.494 2.399v-2.399m16.494 2.399v-2.399m16.495 2.399v-4" fill="none"/><path fill-rule="evenodd" clip-rule="evenodd" fill="#666" d="M149.409 231.022c0-.847.087-1.528.261-2.044.174-.517.433-.914.777-1.194.343-.28.775-.42 1.296-.42.384 0 .721.078 1.011.232.289.154.529.378.718.669.188.292.336.646.444 1.064.107.418.161.982.161 1.692 0 .84-.086 1.517-.259 2.033-.172.516-.43.915-.774 1.196-.343.281-.777.423-1.301.423-.69 0-1.232-.247-1.626-.742-.472-.595-.708-1.565-.708-2.909zm.903 0c0 1.175.138 1.957.413 2.346s.614.583 1.018.583.743-.194 1.018-.586c.275-.39.413-1.171.413-2.343 0-1.179-.138-1.962-.413-2.35-.275-.387-.618-.58-1.028-.58-.403 0-.726.171-.967.513-.302.436-.454 1.243-.454 2.417zM155.464 233.552h1.001v1.001h-1.001zM160.566 234.553v-1.715h-3.105v-.806l3.267-4.638h.717v4.638h.967v.806h-.967v1.715h-.879zm0-2.521v-3.227l-2.241 3.227h2.241z"/><path stroke="#666" stroke-width=".2" stroke-miterlimit="3.25" d="M172.939 222.999v-2.399m16.494 2.399v-2.399m16.495 2.399v-2.399m16.494 2.399v-4" fill="none"/><path fill-rule="evenodd" clip-rule="evenodd" fill="#666" d="M215.386 231.022c0-.847.087-1.528.261-2.044.174-.517.433-.914.777-1.194.343-.28.775-.42 1.296-.42.384 0 .721.078 1.011.232.289.154.529.378.718.669.188.292.336.646.444 1.064.107.418.161.982.161 1.692 0 .84-.086 1.517-.259 2.033-.172.516-.43.915-.774 1.196-.343.281-.777.423-1.301.423-.69 0-1.232-.247-1.626-.742-.472-.595-.708-1.565-.708-2.909zm.903 0c0 1.175.138 1.957.413 2.346s.614.583 1.018.583.743-.194 1.018-.586c.275-.39.413-1.171.413-2.343 0-1.179-.138-1.962-.413-2.35-.275-.387-.618-.58-1.028-.58-.403 0-.726.171-.967.513-.302.436-.454 1.243-.454 2.417zM221.441 233.552h1.001v1.001h-1.001zM228.287 229.147l-.874.068c-.079-.346-.189-.597-.332-.753-.238-.251-.531-.376-.879-.376-.28 0-.526.078-.738.235-.276.201-.494.496-.654.883-.159.389-.242.939-.249 1.656.212-.323.47-.562.776-.718.306-.156.627-.235.962-.235.586 0 1.085.216 1.497.647.412.432.618.988.618 1.673 0 .449-.097.866-.291 1.252-.194.386-.46.681-.798.886-.339.206-.723.309-1.153.309-.732 0-1.329-.27-1.792-.809-.462-.539-.693-1.427-.693-2.664 0-1.383.256-2.389.767-3.017.446-.547 1.046-.821 1.801-.821.563 0 1.025.158 1.385.474.359.317.575.754.647 1.31zm-3.589 3.086c0 .302.064.592.193.869.128.275.308.486.539.632.231.145.474.217.728.217.371 0 .69-.148.957-.449.267-.299.4-.706.4-1.221 0-.494-.132-.884-.395-1.169-.264-.285-.596-.427-.997-.427-.397 0-.734.142-1.01.427-.277.285-.415.659-.415 1.121z"/><path stroke="#666" stroke-width=".2" stroke-miterlimit="3.25" d="M238.916 222.999v-2.399m16.495 2.399v-2.399m16.494 2.399v-2.399m16.494 2.399v-4" fill="none"/><path fill-rule="evenodd" clip-rule="evenodd" fill="#666" d="M281.363 231.022c0-.847.087-1.528.261-2.044.174-.517.434-.914.777-1.194.343-.28.774-.42 1.296-.42.384 0 .721.078 1.011.232.289.154.529.378.718.669.188.292.336.646.444 1.064.107.418.161.982.161 1.692 0 .84-.086 1.517-.259 2.033-.172.516-.431.915-.774 1.196-.343.281-.777.423-1.301.423-.69 0-1.232-.247-1.626-.742-.471-.595-.708-1.565-.708-2.909zm.904 0c0 1.175.138 1.957.412 2.346.275.389.614.583 1.019.583s.743-.194 1.018-.586c.275-.39.413-1.171.413-2.343 0-1.179-.138-1.962-.413-2.35-.274-.387-.618-.58-1.027-.58-.403 0-.727.171-.968.513-.303.436-.454 1.243-.454 2.417zM287.418 233.552h1.001v1.001h-1.001zM291.056 230.67c-.364-.133-.635-.323-.811-.57-.176-.248-.264-.544-.264-.89 0-.521.188-.958.562-1.312.374-.355.872-.533 1.494-.533.625 0 1.128.182 1.509.545s.571.805.571 1.326c0 .332-.087.621-.261.866-.174.246-.439.436-.794.568.439.144.773.375 1.004.694.229.319.344.699.344 1.143 0 .611-.216 1.125-.649 1.543-.433.416-1.003.625-1.709.625-.707 0-1.275-.21-1.709-.628-.433-.419-.649-.939-.649-1.564 0-.466.118-.856.354-1.17.235-.315.571-.529 1.008-.643zm-.176-1.488c0 .338.109.614.327.83.218.215.501.321.851.321.338 0 .615-.105.832-.319.217-.213.324-.475.324-.783 0-.323-.111-.594-.335-.813-.223-.22-.5-.33-.832-.33-.335 0-.613.108-.835.322-.222.214-.332.472-.332.772zm-.283 3.305c0 .25.06.493.179.727.119.234.295.416.53.546.233.128.485.191.756.191.42 0 .767-.135 1.04-.405s.41-.612.41-1.029c0-.423-.141-.773-.423-1.05-.28-.277-.634-.415-1.057-.415-.413 0-.756.137-1.028.409-.272.274-.407.615-.407 1.026z"/><path stroke="#666" stroke-width=".2" stroke-miterlimit="3.25" d="M304.894 222.999v-2.399m16.494 2.399v-2.399m16.494 2.399v-2.399m16.494 2.399v-4" fill="none"/><path fill-rule="evenodd" clip-rule="evenodd" fill="#666" d="M350.652 234.553h-.879v-5.602c-.212.202-.489.404-.833.606s-.652.353-.925.454v-.851c.49-.23.921-.511 1.288-.839.368-.329.629-.647.781-.958h.567v7.19zM353.396 233.552h1.001v1.001h-1.001zM355.681 231.022c0-.847.088-1.528.262-2.044.174-.517.433-.914.776-1.194s.775-.42 1.297-.42c.384 0 .721.078 1.011.232.289.154.529.378.718.669.188.292.336.646.444 1.064.106.418.161.982.161 1.692 0 .84-.087 1.517-.26 2.033-.172.516-.43.915-.773 1.196-.343.281-.777.423-1.301.423-.69 0-1.232-.247-1.626-.742-.473-.595-.709-1.565-.709-2.909zm.903 0c0 1.175.138 1.957.413 2.346s.614.583 1.019.583c.403 0 .742-.194 1.018-.586.275-.39.413-1.171.413-2.343 0-1.179-.138-1.962-.413-2.35-.275-.387-.618-.58-1.028-.58-.402 0-.726.171-.967.513-.303.436-.455 1.243-.455 2.417z"/><path stroke="#666" stroke-width=".2" stroke-miterlimit="3.25" d="M17.618 222.999h343.631m-336.759 39.342h2.4m-2.4-7.868h4" fill="none"/><path fill-rule="evenodd" clip-rule="evenodd" fill="#666" d="M1.801 254.427h4.736v.82h-4.736zM7.504 253.909c0-.847.087-1.527.261-2.044.174-.516.433-.914.777-1.194.343-.279.775-.42 1.296-.42.384 0 .721.078 1.011.232.289.155.529.378.718.669.188.292.336.647.444 1.065.107.418.161.981.161 1.691 0 .84-.086 1.518-.259 2.033-.172.516-.43.915-.774 1.197-.343.281-.777.422-1.301.422-.69 0-1.232-.247-1.626-.742-.472-.594-.708-1.565-.708-2.909zm.903 0c0 1.175.138 1.957.413 2.346.275.39.614.583 1.018.583s.743-.194 1.018-.586c.275-.39.413-1.171.413-2.343 0-1.179-.138-1.962-.413-2.349-.275-.388-.618-.581-1.028-.581-.403 0-.726.171-.967.513-.302.437-.454 1.242-.454 2.417zM13.559 256.438h1.001v1.001h-1.001zM20.463 256.595v.845h-4.731c-.007-.212.027-.415.102-.61.121-.322.314-.64.579-.952s.648-.674 1.15-1.084c.778-.639 1.304-1.144 1.577-1.517.273-.372.41-.725.41-1.057 0-.349-.124-.643-.373-.882-.249-.238-.574-.358-.975-.358-.423 0-.761.127-1.015.381s-.383.605-.386 1.055l-.903-.093c.062-.674.294-1.188.698-1.541.404-.353.946-.53 1.626-.53.687 0 1.23.191 1.631.572.4.381.6.854.6 1.416 0 .286-.058.568-.175.845-.118.276-.312.568-.584.874-.272.307-.723.726-1.355 1.26-.527.442-.866.742-1.015.9-.15.158-.274.317-.372.477h3.511z"/><path stroke="#666" stroke-width=".2" stroke-miterlimit="3.25" d="M24.49 246.604h2.4m-2.4-7.869h2.4m-2.4-7.868h2.4m-2.4-7.868h4m-4-7.869h2.4m-2.4-7.867h2.4m-2.4-7.868h2.4m-2.4-7.87h4" fill="none"/><path fill-rule="evenodd" clip-rule="evenodd" fill="#666" d="M7.504 190.962c0-.847.087-1.527.261-2.044.174-.516.433-.914.777-1.193.343-.28.775-.42 1.296-.42.384 0 .721.077 1.011.231.289.155.529.378.718.669.188.292.336.647.444 1.065.107.418.161.981.161 1.691 0 .841-.086 1.518-.259 2.033-.172.517-.43.915-.774 1.197-.343.281-.777.422-1.301.422-.69 0-1.232-.247-1.626-.742-.472-.595-.708-1.564-.708-2.909zm.903 0c0 1.176.138 1.957.413 2.347.275.389.614.583 1.018.583s.743-.195 1.018-.586c.275-.391.413-1.171.413-2.344 0-1.179-.138-1.962-.413-2.349-.275-.387-.618-.581-1.028-.581-.403 0-.726.171-.967.513-.302.436-.454 1.242-.454 2.417zM13.559 193.491h1.001v1.001h-1.001zM20.463 193.647v.845h-4.731c-.007-.212.027-.415.102-.61.121-.322.314-.64.579-.951.265-.313.648-.674 1.15-1.084.778-.64 1.304-1.145 1.577-1.518.273-.372.41-.725.41-1.057 0-.348-.124-.643-.373-.881-.249-.239-.574-.359-.975-.359-.423 0-.761.127-1.015.381s-.383.605-.386 1.056l-.903-.094c.062-.674.294-1.188.698-1.541.404-.353.946-.529 1.626-.529.687 0 1.23.19 1.631.571.4.381.6.854.6 1.416 0 .286-.058.568-.175.846-.118.275-.312.567-.584.874-.272.306-.723.725-1.355 1.259-.527.442-.866.743-1.015.9-.15.158-.274.317-.372.477h3.511z"/><path stroke="#666" stroke-width=".2" stroke-miterlimit="3.25" d="M24.49 183.657h2.4m-2.4-7.868h2.4m-2.4-7.869h2.4m-2.4-7.867h4" fill="none"/><path fill-rule="evenodd" clip-rule="evenodd" fill="#666" d="M7.504 159.489c0-.847.087-1.528.261-2.044s.433-.914.777-1.194c.343-.279.775-.42 1.296-.42.384 0 .721.078 1.011.232.289.155.529.378.718.669.188.292.336.646.444 1.064.107.418.161.982.161 1.692 0 .84-.086 1.518-.259 2.033-.172.516-.43.915-.774 1.197-.343.281-.777.422-1.301.422-.69 0-1.232-.247-1.626-.742-.472-.594-.708-1.565-.708-2.909zm.903 0c0 1.175.138 1.957.413 2.346.275.39.614.583 1.018.583s.743-.194 1.018-.586c.275-.39.413-1.171.413-2.343 0-1.179-.138-1.962-.413-2.349-.275-.388-.618-.581-1.028-.581-.403 0-.726.171-.967.513-.302.437-.454 1.242-.454 2.417zM13.559 162.019h1.001v1.001h-1.001zM18.661 163.02v-1.714h-3.105v-.807l3.267-4.638h.717v4.638h.967v.807h-.967v1.714h-.879zm0-2.521v-3.227l-2.241 3.227h2.241z"/><path stroke="#666" stroke-width=".2" stroke-miterlimit="3.25" d="M24.49 152.184h2.4m-2.4-7.869h2.4m-2.4-7.868h2.4m-2.4-7.869h4" fill="none"/><path fill-rule="evenodd" clip-rule="evenodd" fill="#666" d="M7.504 128.015c0-.847.087-1.528.261-2.044s.433-.914.777-1.194c.343-.28.775-.42 1.296-.42.384 0 .721.078 1.011.232.289.155.529.378.718.669.188.292.336.647.444 1.065.107.418.161.982.161 1.692 0 .84-.086 1.517-.259 2.033-.172.516-.43.915-.774 1.197-.343.282-.777.422-1.301.422-.69 0-1.232-.247-1.626-.742-.472-.596-.708-1.566-.708-2.91zm.903 0c0 1.175.138 1.957.413 2.346.275.389.614.583 1.018.583s.743-.195 1.018-.586c.275-.39.413-1.171.413-2.343 0-1.179-.138-1.962-.413-2.349-.275-.387-.618-.581-1.028-.581-.403 0-.726.171-.967.513-.302.436-.454 1.242-.454 2.417zM13.559 130.544h1.001v1.001h-1.001zM20.405 126.14l-.874.068c-.079-.345-.189-.596-.332-.752-.238-.251-.531-.376-.879-.376-.28 0-.526.078-.738.235-.276.201-.494.496-.654.883-.159.388-.242.939-.249 1.656.212-.323.47-.562.776-.718.306-.156.627-.235.962-.235.586 0 1.085.216 1.497.647.412.432.618.989.618 1.673 0 .449-.097.866-.291 1.252-.194.386-.46.681-.798.886-.339.206-.723.308-1.153.308-.732 0-1.329-.269-1.792-.808-.462-.539-.693-1.427-.693-2.664 0-1.383.256-2.389.767-3.017.446-.547 1.046-.821 1.801-.821.563 0 1.025.158 1.385.474.359.316.575.752.647 1.309zm-3.589 3.087c0 .302.064.592.193.869.128.276.308.487.539.632s.474.217.728.217c.371 0 .69-.149.957-.449.267-.299.4-.706.4-1.221 0-.494-.132-.884-.395-1.169-.264-.285-.596-.427-.997-.427-.397 0-.734.142-1.01.427-.277.284-.415.657-.415 1.121z"/><path stroke="#666" stroke-width=".2" stroke-miterlimit="3.25" d="M24.49 120.71h2.4m-2.4-7.868h2.4m-2.4-7.869h2.4m-2.4-7.868h4" fill="none"/><path fill-rule="evenodd" clip-rule="evenodd" fill="#666" d="M7.504 96.542c0-.847.087-1.528.261-2.044.174-.516.433-.914.777-1.194.343-.28.775-.42 1.296-.42.384 0 .721.078 1.011.232.289.155.529.378.718.669.188.292.336.647.444 1.065.107.418.161.982.161 1.692 0 .84-.086 1.517-.259 2.033-.172.516-.43.915-.774 1.197-.343.281-.777.422-1.301.422-.69 0-1.232-.247-1.626-.742-.472-.596-.708-1.566-.708-2.91zm.903 0c0 1.175.138 1.957.413 2.346.275.389.614.583 1.018.583s.743-.195 1.018-.586c.275-.39.413-1.171.413-2.343 0-1.179-.138-1.962-.413-2.349-.275-.387-.618-.581-1.028-.581-.403 0-.726.171-.967.513-.302.437-.454 1.242-.454 2.417zM13.559 99.071h1.001v1.001h-1.001zM17.197 96.19c-.365-.133-.635-.324-.811-.571-.176-.248-.264-.544-.264-.889 0-.521.188-.958.562-1.313s.872-.533 1.494-.533c.625 0 1.128.182 1.509.545.381.363.571.805.571 1.326 0 .332-.087.621-.261.866-.174.246-.439.436-.794.569.44.143.774.375 1.004.694.229.319.344.699.344 1.142 0 .612-.216 1.126-.649 1.543-.433.417-1.003.625-1.709.625-.707 0-1.276-.209-1.709-.627-.433-.419-.65-.94-.65-1.565 0-.466.118-.856.354-1.17.236-.313.572-.528 1.009-.642zm-.176-1.489c0 .338.109.615.327.83s.501.322.85.322c.338 0 .616-.106.832-.32.217-.213.325-.474.325-.783 0-.323-.112-.594-.335-.813-.223-.22-.5-.33-.832-.33-.335 0-.614.108-.835.322-.222.216-.332.472-.332.772zm-.283 3.306c0 .25.059.493.178.727.119.234.295.416.53.545.234.128.486.192.756.192.42 0 .767-.135 1.04-.405.274-.27.411-.613.411-1.03 0-.423-.141-.773-.423-1.05-.281-.277-.634-.415-1.057-.415-.413 0-.756.137-1.028.41-.272.274-.407.615-.407 1.026z"/><path stroke="#666" stroke-width=".2" stroke-miterlimit="3.25" d="M24.49 89.237h2.4m-2.4-7.869h2.4m-2.4-7.868h2.4m-2.4-7.868h4" fill="none"/><path fill-rule="evenodd" clip-rule="evenodd" fill="#666" d="M10.815 68.599h-.879v-5.601c-.212.202-.489.404-.833.606-.343.202-.652.353-.925.454v-.85c.491-.231.921-.511 1.289-.839.368-.329.628-.648.781-.958h.567v7.188zM13.559 67.598h1.001v1.001h-1.001zM15.844 65.069c0-.847.087-1.528.261-2.044.174-.516.433-.914.777-1.194.343-.28.775-.42 1.296-.42.384 0 .721.078 1.011.232.289.155.529.378.718.669.188.292.336.647.444 1.065.107.418.161.982.161 1.692 0 .84-.086 1.517-.259 2.033-.172.516-.43.915-.774 1.197-.343.281-.777.422-1.301.422-.69 0-1.232-.247-1.626-.742-.472-.596-.708-1.566-.708-2.91zm.903 0c0 1.175.138 1.957.413 2.346.275.389.614.583 1.018.583s.743-.195 1.018-.586c.275-.39.413-1.171.413-2.343 0-1.179-.138-1.962-.413-2.349-.275-.387-.618-.581-1.028-.581-.403 0-.726.171-.967.513-.302.436-.454 1.243-.454 2.417z"/><path stroke="#666" stroke-width=".2" stroke-miterlimit="3.25" d="M24.49 57.763h2.4m-2.4 209.627v-212.377" fill="none"/><defs><path id="a" d="M375.749 113.473h21v11h-21z"/></defs><clipPath id="b"><use xlink:href="#a" overflow="visible"/></clipPath><path clip-path="url(#b)" stroke="#5E81B5" stroke-width="1.6" stroke-linecap="square" stroke-miterlimit="3.25" fill="none" d="M376.649 119.031h18.4"/><path fill="#FFF8CB" d="M402.335 111.087h12v17h-12z"/><path stroke="#FFF8CB" stroke-width=".1" stroke-linecap="square" stroke-linejoin="bevel" stroke-miterlimit="10" fill="none" d="M402.335 111.087h12v17h-12z"/><path fill-rule="evenodd" clip-rule="evenodd" fill="#7E7E7E" d="M408.611 122.531h-3.157l.133-.566h1.196l.914-3.954h-1.211l.113-.503c.45 0 .8-.064 1.049-.19s.415-.334.498-.623h.608l-1.215 5.27h1.204l-.132.566z"/><path fill="#CACACA" d="M402.335 111.087h12v17h-12v-1h11v-15h-10v15h-1v-16z"/><path stroke="#CACACA" stroke-width=".1" stroke-linecap="square" stroke-linejoin="bevel" stroke-miterlimit="10" fill="none" d="M402.335 111.087h12v17h-12v-1h11v-15h-10v15h-1v-16z"/><defs><path id="c" d="M375.749 140.474h21v11h-21z"/></defs><clipPath id="d"><use xlink:href="#c" overflow="visible"/></clipPath><path clip-path="url(#d)" stroke="#E19C24" stroke-width="1.6" stroke-linecap="square" stroke-miterlimit="3.25" fill="none" d="M376.649 146.432h18.4"/><path fill="#FFF8CB" d="M402.335 138.487h12v17h-12z"/><path stroke="#FFF8CB" stroke-width=".1" stroke-linecap="square" stroke-linejoin="bevel" stroke-miterlimit="10" fill="none" d="M402.335 138.487h12v17h-12z"/><path fill-rule="evenodd" clip-rule="evenodd" fill="#7E7E7E" d="M408.923 149.932h-3.94l.183-.816.937-.686c.256-.189.565-.429.928-.718.635-.508 1.084-.935 1.345-1.282.262-.349.394-.687.394-1.015 0-.255-.092-.447-.272-.578-.181-.13-.413-.194-.697-.194-.231 0-.497.044-.795.131s-.59.213-.877.377h-.039l.157-.793c.205-.094.468-.178.789-.252.32-.074.627-.112.921-.112.524 0 .928.114 1.211.342.284.229.426.536.426.925 0 .419-.12.815-.358 1.189-.24.373-.659.81-1.258 1.306-.357.295-.724.58-1.101.858l-.931.677h3.125l-.148.641z"/><path fill="#CACACA" d="M402.335 138.487h12v17h-12v-1h11v-15h-10v15h-1v-16z"/><path stroke="#CACACA" stroke-width=".1" stroke-linecap="square" stroke-linejoin="bevel" stroke-miterlimit="10" fill="none" d="M402.335 138.487h12v17h-12v-1h11v-15h-10v15h-1v-16z"/><defs><path id="e" d="M375.749 168.474h21v11h-21z"/></defs><clipPath id="f"><use xlink:href="#e" overflow="visible"/></clipPath><path clip-path="url(#f)" stroke="#8FB032" stroke-width="1.6" stroke-linecap="square" stroke-miterlimit="3.25" fill="none" d="M376.649 173.831h18.4"/><path fill="#FFF8CB" d="M402.335 165.888h12v17h-12z"/><path stroke="#FFF8CB" stroke-width=".1" stroke-linecap="square" stroke-linejoin="bevel" stroke-miterlimit="10" fill="none" d="M402.335 165.888h12v17h-12z"/><path fill-rule="evenodd" clip-rule="evenodd" fill="#7E7E7E" d="M408.568 176.819c-.229.201-.493.356-.791.467-.298.111-.645.166-1.037.166-.315 0-.621-.039-.916-.119-.296-.079-.545-.174-.748-.282l.183-.75h.06c.179.135.405.253.676.353.271.101.557.151.859.151.469 0 .853-.141 1.151-.418.301-.279.449-.642.449-1.086 0-.274-.095-.479-.285-.614-.189-.135-.484-.203-.886-.203h-.372l.153-.621h.371c.439 0 .801-.101 1.082-.302.28-.202.422-.477.422-.823 0-.218-.084-.389-.252-.511-.168-.123-.416-.185-.744-.185-.271 0-.561.05-.867.148-.308.099-.58.219-.817.36h-.039l.168-.789c.208-.092.474-.176.796-.252.321-.077.627-.116.916-.116.513 0 .917.103 1.213.307.295.205.442.484.442.838 0 .385-.142.728-.427 1.025-.286.299-.646.488-1.081.568v.039c.103.021.215.06.338.115.124.057.233.127.326.213.099.089.182.2.249.336.066.136.099.295.099.48 0 .284-.061.558-.183.823-.123.265-.292.492-.508.682z"/><path fill="#CACACA" d="M402.335 165.888h12v17h-12v-1h11v-15h-10v15h-1v-16z"/><path stroke="#CACACA" stroke-width=".1" stroke-linecap="square" stroke-linejoin="bevel" stroke-miterlimit="10" fill="none" d="M402.335 165.888h12v17h-12v-1h11v-15h-10v15h-1v-16z"/><defs><path id="g" d="M375.749 195.474h21v11h-21z"/></defs><clipPath id="h"><use xlink:href="#g" overflow="visible"/></clipPath><path clip-path="url(#h)" stroke="#EB6235" stroke-width="1.6" stroke-linecap="square" stroke-miterlimit="3.25" fill="none" d="M376.649 201.231h18.4"/><path fill="#FFF8CB" d="M402.335 193.287h12v17h-12z"/><path stroke="#FFF8CB" stroke-width=".1" stroke-linecap="square" stroke-linejoin="bevel" stroke-miterlimit="10" fill="none" d="M402.335 193.287h12v17h-12z"/><path fill-rule="evenodd" clip-rule="evenodd" fill="#7E7E7E" d="M409.439 203.083h-.863l-.383 1.648h-.758l.383-1.648h-2.781l.203-.887 3.57-3.281h.727l-.825 3.574h.864l-.137.594zm-1.485-.594l.61-2.629-2.853 2.629h2.243z"/><path fill="#CACACA" d="M402.335 193.287h12v17h-12v-1h11v-15h-10v15h-1v-16z"/><path stroke="#CACACA" stroke-width=".1" stroke-linecap="square" stroke-linejoin="bevel" stroke-miterlimit="10" fill="none" d="M402.335 193.287h12v17h-12v-1h11v-15h-10v15h-1v-16z"/></svg>