<svg xmlns="http://www.w3.org/2000/svg" width="439.37" height="70.866" viewBox="0 0 439.37 70.866"><g fill-rule="evenodd" clip-rule="evenodd"><path d="M6.932 21.742h-2.249v.343h86.017v-.343h-2.248zM45.847 10.828l-.089.014-.053.004c-.094 0-.171-.026-.231-.08-.059-.053-.089-.124-.089-.212 0-.073.026-.137.078-.192.052-.055.126-.096.224-.124l1.357-.365.099-.021.098-.007c.058 0 .103.027.137.08.033.054.05.126.05.218v4.945h.731c.272 0 .444.022.517.066.073.044.11.127.11.249 0 .11-.031.192-.092.247-.061.055-.152.083-.274.083h-2.733c-.122 0-.213-.027-.274-.083-.061-.055-.092-.137-.092-.247 0-.122.037-.205.11-.249.073-.044.245-.066.516-.066h.759v-4.466l-.859.206zM5.398 38.746c-.162 0-.281-.033-.359-.098s-.117-.167-.117-.304c0-.198.293-.57.878-1.115l.132-.128.384-.366c1.055-.993 1.582-1.717 1.582-2.171 0-.326-.093-.59-.279-.793-.186-.202-.427-.304-.722-.304-.192 0-.376.04-.551.119-.175.079-.316.186-.423.32l-.087.123c-.112.205-.239.307-.379.307-.11 0-.187-.034-.233-.101s-.069-.195-.069-.384l.032-.24.119-.162c.195-.189.438-.339.725-.449.288-.111.582-.167.884-.167.506 0 .929.163 1.268.489.34.326.51.727.51 1.202 0 .597-.518 1.391-1.554 2.381-.265.247-.468.44-.608.581l-.561.538h2.089c.012-.131.048-.231.107-.299.059-.069.139-.103.24-.103.101 0 .18.033.238.1.058.067.086.159.086.274l-.004.048-.005.048-.036.352c-.009.095-.037.169-.083.222-.045.053-.105.08-.178.08h-3.026zM21.367 26.756h-.919l-2.88 13.94-2.751-5.859-1.489.768.151.315 1.143-.562 3.093 6.499 3.043-14.744h29.933v-.357h-2.384zM24.737 36.424l-.59 2.171c-.03.116-.076.197-.137.243-.062.045-.152.068-.274.068-.11 0-.195-.029-.256-.087-.061-.058-.116-.163-.165-.315l-1.046-3.332h-.041c-.128 0-.221-.025-.277-.075-.056-.051-.084-.135-.084-.254 0-.104.03-.183.089-.238.06-.055.147-.082.264-.082h1.22c.164 0 .276.024.333.071.058.047.087.13.087.249l-.05.19-.128.098-.181.032-.249.009h-.265l.786 2.742.59-1.992c.033-.116.081-.197.142-.243.061-.045.15-.068.269-.068.11 0 .196.029.259.089.062.059.118.164.166.313l.572 1.901.754-2.742h-.306c-.211 0-.352-.024-.426-.071-.073-.047-.109-.133-.109-.258 0-.122.027-.206.082-.251.055-.046.162-.069.32-.069h1.225c.094 0 .165.027.212.082.048.055.071.134.071.238 0 .116-.027.198-.082.247-.055.049-.159.076-.311.082l-1.028 3.423c-.04.116-.089.197-.149.243-.059.045-.148.068-.267.068-.11 0-.197-.03-.261-.089-.064-.06-.117-.164-.16-.313l-.599-2.08zM28.457 35.368c-.115 0-.199-.023-.255-.07-.055-.046-.082-.118-.082-.216 0-.14.207-.404.623-.791l.094-.091.272-.26c.749-.705 1.123-1.219 1.123-1.541 0-.232-.066-.419-.198-.563-.132-.144-.303-.216-.513-.216-.136 0-.266.028-.391.084-.124.057-.224.132-.3.228l-.061.087c-.08.145-.17.218-.27.218-.078 0-.133-.024-.165-.072-.033-.047-.049-.138-.049-.272l.023-.171.084-.115c.139-.134.31-.241.515-.319.204-.079.413-.119.627-.119.36 0 .66.116.901.347.241.232.362.516.362.854 0 .424-.368.987-1.104 1.69l-.431.412-.399.383h1.483c.008-.093.034-.164.076-.212.042-.049.099-.073.17-.073.072 0 .128.024.169.071.041.048.062.113.062.195l-.004.034-.003.034-.026.25-.058.157-.127.057h-2.148zM34.878 36.511h3.743v.343h-3.743zM43.272 33.842l-.089.014-.053.004c-.094 0-.171-.026-.231-.08-.059-.053-.089-.124-.089-.212 0-.073.026-.137.078-.192.052-.055.126-.096.224-.124l1.357-.365.099-.021.098-.007c.058 0 .103.027.137.08.033.054.05.126.05.218v4.945h.731c.272 0 .444.022.517.066.073.044.11.127.11.249 0 .11-.031.192-.092.247s-.152.082-.274.082h-2.733c-.122 0-.213-.027-.274-.082s-.092-.137-.092-.247c0-.122.037-.205.11-.249.073-.044.245-.066.516-.066h.759v-4.466l-.859.206zM57.472 42.604h-.297c-.472-1.033-.826-2.054-1.062-3.064-.236-1.01-.354-1.958-.354-2.845 0-1.027.119-2.004.358-2.932.239-.928.592-1.922 1.058-2.982h.297c-.359.841-.668 1.776-.925 2.806-.258 1.03-.386 2.063-.386 3.099 0 .896.089 1.792.267 2.689.177.897.526 1.973 1.044 3.229zM61.645 36.424l-.59 2.171c-.03.116-.076.197-.137.243-.061.045-.152.068-.274.068-.11 0-.195-.029-.256-.087-.061-.058-.116-.163-.165-.315l-1.046-3.332h-.041c-.128 0-.22-.025-.277-.075-.056-.051-.084-.135-.084-.254 0-.104.03-.183.089-.238.059-.055.147-.082.263-.082h1.22c.164 0 .276.024.333.071.058.047.087.13.087.249l-.05.19-.128.098-.181.032-.249.009h-.265l.786 2.742.59-1.992c.033-.116.081-.197.142-.243.061-.045.15-.068.269-.068.11 0 .196.029.259.089.062.059.118.164.166.313l.572 1.901.754-2.742h-.306c-.211 0-.352-.024-.426-.071-.073-.047-.109-.133-.109-.258 0-.122.027-.206.082-.251.055-.046.162-.069.32-.069h1.225c.094 0 .165.027.212.082.048.055.071.134.071.238 0 .116-.027.198-.082.247s-.159.076-.311.082l-1.028 3.423c-.04.116-.089.197-.149.243-.059.045-.148.068-.267.068-.11 0-.197-.03-.261-.089-.064-.06-.117-.164-.16-.313l-.598-2.08zM65.363 35.368c-.115 0-.199-.023-.255-.07-.055-.046-.082-.118-.082-.216 0-.14.207-.404.623-.791l.094-.091.272-.26c.749-.705 1.123-1.219 1.123-1.541 0-.232-.066-.419-.198-.563s-.303-.216-.513-.216c-.136 0-.266.028-.391.084-.124.057-.224.132-.3.228l-.061.087c-.08.145-.17.218-.27.218-.078 0-.133-.024-.165-.072-.033-.047-.049-.138-.049-.272l.023-.171.084-.115c.139-.134.31-.241.515-.319.204-.079.413-.119.627-.119.36 0 .66.116.901.347.241.232.362.516.362.854 0 .424-.368.987-1.104 1.69l-.431.412-.399.383h1.483c.008-.093.034-.164.076-.212.042-.049.099-.073.17-.073.072 0 .128.024.169.071.041.048.062.113.062.195l-.004.034-.003.034-.026.25-.058.157-.127.057h-2.148zM71.786 36.511h3.743v.343h-3.743zM80.18 33.842l-.089.014-.053.004c-.094 0-.171-.026-.231-.08-.059-.053-.089-.124-.089-.212 0-.073.026-.137.078-.192.052-.055.126-.096.224-.124l1.357-.365.099-.021.098-.007c.058 0 .103.027.137.08.033.054.05.126.05.218v4.945h.731c.272 0 .444.022.517.066.073.044.11.127.11.249 0 .11-.031.192-.092.247s-.152.082-.274.082h-2.733c-.122 0-.213-.027-.274-.082s-.092-.137-.092-.247c0-.122.037-.205.11-.249.073-.044.245-.066.516-.066h.759v-4.466l-.859.206zM87.095 36.694c0 .935-.131 1.928-.393 2.977-.262 1.05-.602 2.027-1.019 2.932h-.297c.426-1.045.751-2.052.973-3.023.222-.97.334-1.935.334-2.895 0-.878-.096-1.785-.288-2.722-.192-.937-.532-1.998-1.019-3.183h.297c.46 1.033.81 2.034 1.051 3.003.24.969.361 1.939.361 2.911zM94.896 10.681v-.466c0-1.886.106-3.318.32-4.296.24-1.103.669-2.133 1.284-3.09h-.302c-.636 1.015-1.08 2.048-1.33 3.101-.249 1.053-.374 2.481-.374 4.285v24.083000000000002c0 1.807.125 3.237.374 4.29.25 1.052.694 2.084 1.33 3.096h.302c-.615-.957-1.044-1.987-1.284-3.09-.214-.981-.32-2.413-.32-4.296v-23.617zM106.103 11.619h-.918l-2.88 13.941-2.751-5.86-1.491.767.151.316 1.143-.562 3.095 6.499 3.043-14.743h29.933v-.358h-2.386zM109.474 21.499l-.59 2.171c-.03.116-.076.197-.137.242-.061.046-.152.069-.274.069-.11 0-.195-.029-.256-.087-.061-.058-.116-.163-.165-.315l-1.046-3.332h-.041c-.128 0-.22-.025-.277-.075-.056-.051-.084-.135-.084-.254 0-.104.03-.183.089-.238.059-.055.147-.082.263-.082h1.22c.164 0 .276.024.333.071.058.047.087.13.087.249l-.05.19-.128.098-.181.032-.249.009h-.265l.786 2.742.59-1.992c.033-.116.081-.197.142-.243.061-.045.15-.068.269-.068.11 0 .196.029.259.089.062.059.118.164.166.313l.572 1.901.754-2.742h-.306c-.211 0-.352-.024-.426-.071-.073-.047-.109-.133-.109-.258 0-.122.027-.206.082-.251.055-.046.162-.069.32-.069h1.225c.094 0 .165.027.212.082.048.055.071.134.071.238 0 .116-.027.198-.082.247-.055.049-.159.076-.311.082l-1.028 3.423c-.04.116-.089.197-.149.242-.059.046-.148.069-.267.069-.11 0-.197-.03-.261-.089-.064-.06-.117-.164-.16-.313l-.598-2.08zM113.192 20.02c-.115 0-.199-.023-.255-.07-.055-.046-.082-.118-.082-.216 0-.14.207-.404.623-.791l.094-.091.272-.26c.749-.705 1.123-1.219 1.123-1.541 0-.232-.066-.419-.198-.563s-.303-.216-.513-.216c-.136 0-.266.028-.391.084-.124.057-.224.132-.3.228l-.061.087c-.08.145-.17.218-.27.218-.078 0-.133-.024-.165-.072-.033-.047-.049-.138-.049-.272l.023-.171.084-.115c.139-.134.31-.241.515-.319.204-.079.413-.119.627-.119.36 0 .66.116.901.347.241.232.362.516.362.854 0 .424-.368.987-1.104 1.69l-.431.412-.399.383h1.483c.008-.093.034-.164.076-.212.042-.049.099-.073.17-.073.072 0 .128.024.169.071.041.048.062.113.062.195l-.004.034-.003.034-.026.25-.058.157-.127.057h-2.148zM119.614 21.585h3.743v.343h-3.743zM128.008 18.917l-.089.014-.053.004c-.094 0-.171-.026-.231-.08-.059-.053-.089-.124-.089-.212 0-.073.026-.137.078-.192.052-.055.126-.096.224-.124l1.357-.365.099-.021.098-.007c.058 0 .103.027.137.08.033.054.05.126.05.218v4.945h.731c.272 0 .444.022.517.066.073.044.11.127.11.249 0 .11-.031.192-.092.247s-.152.082-.274.082h-2.733c-.122 0-.213-.027-.274-.082s-.092-.137-.092-.247c0-.122.037-.205.11-.249.073-.044.245-.066.516-.066h.759v-4.467l-.859.207zM142.171 17.97c-.262.494-.539 1.104-.83 1.83-.291.727-.436 1.38-.436 1.959 0 .67.125 1.324.375 1.963.249.638.528 1.248.836 1.83h-.302c-.356-.548-.664-1.15-.923-1.805s-.388-1.318-.388-1.988c0-.692.136-1.355.409-1.988.272-.634.592-1.234.957-1.801h.302zM145.315 23.176h.133c.152 0 .271.028.356.084.086.057.128.136.128.24 0 .11-.037.191-.112.242-.074.052-.192.078-.354.078h-1.261c-.092 0-.168-.03-.229-.091s-.091-.138-.091-.229c0-.113.041-.195.123-.247.082-.052.213-.077.393-.077h.092l1.48-1.518-1.453-1.412h-.064c-.177 0-.299-.024-.368-.071-.068-.047-.103-.13-.103-.249 0-.125.039-.211.117-.258.078-.047.226-.071.445-.071h.937c.165 0 .284.027.359.08.075.053.112.136.112.249 0 .104-.042.183-.126.238-.083.055-.204.082-.363.082h-.036l.982.964.937-.964h-.096c-.171 0-.297-.025-.379-.075-.083-.051-.124-.129-.124-.236 0-.119.037-.205.11-.258.073-.053.192-.08.357-.08h1.188c.094 0 .171.03.231.089.059.06.089.137.089.231 0 .113-.038.196-.115.249-.076.053-.198.08-.365.08h-.128l-1.312 1.367 1.6 1.563h.046c.115 0 .205.028.269.084.064.057.096.136.096.24 0 .122-.036.206-.11.251-.073.045-.224.068-.452.068h-.932c-.162 0-.281-.026-.357-.078-.076-.051-.114-.132-.114-.242 0-.1.036-.18.11-.238.073-.057.173-.086.301-.086h.256l-1.152-1.125-1.051 1.126zM150.344 23.82c-.162 0-.281-.033-.359-.098-.078-.066-.117-.167-.117-.304 0-.198.293-.57.878-1.115l.132-.128.384-.366c1.055-.993 1.582-1.717 1.582-2.171 0-.326-.093-.59-.279-.793-.186-.202-.427-.304-.722-.304-.192 0-.376.04-.551.119-.175.079-.316.186-.423.32l-.087.123c-.112.205-.239.307-.379.307-.11 0-.187-.034-.233-.101-.046-.067-.069-.195-.069-.384l.032-.24.119-.162c.195-.189.437-.339.725-.45.288-.111.582-.167.884-.167.506 0 .929.163 1.268.489.34.326.51.727.51 1.202 0 .597-.518 1.391-1.554 2.381-.265.247-.468.44-.608.581l-.562.539h2.089c.012-.131.048-.231.107-.299.059-.069.139-.103.24-.103s.18.033.238.1.086.159.086.274l-.004.048-.005.048-.036.352c-.009.095-.037.169-.083.222-.045.053-.105.08-.178.08h-3.025zM159.673 24.99h.197c.222 0 .373.024.452.071.08.047.119.133.119.258 0 .107-.031.187-.093.242-.063.055-.154.083-.272.083h-2.107c-.144 0-.243-.025-.3-.074-.056-.048-.084-.132-.084-.251 0-.11.029-.192.089-.247.059-.055.148-.082.267-.082h.992l.74-1.458-1.677-3.286c-.201 0-.339-.024-.414-.073-.074-.049-.111-.134-.111-.256 0-.107.03-.187.091-.24.061-.053.152-.08.274-.08h1.275c.171 0 .285.024.343.071.058.047.087.13.087.249 0 .122-.038.207-.114.256-.077.049-.217.073-.421.073h-.169l1.239 2.518 1.261-2.518h-.178c-.21 0-.355-.024-.434-.073-.08-.049-.119-.134-.119-.256 0-.119.029-.202.087-.249.057-.047.173-.071.347-.071h1.129c.125 0 .217.027.276.08.06.053.089.133.089.24 0 .116-.033.198-.1.247-.067.049-.186.076-.357.082l-2.404 4.744zM165.633 18.561c-.35 0-.623.207-.818.621-.195.415-.292 1-.292 1.755 0 .759.097 1.346.292 1.762.195.416.468.624.818.624.354 0 .628-.208.823-.624s.292-1.003.292-1.762c0-.755-.097-1.34-.292-1.755-.194-.414-.469-.621-.823-.621zm0 5.41c-.573 0-1.027-.271-1.364-.811-.337-.541-.505-1.282-.505-2.224 0-.938.168-1.678.505-2.219s.791-.811 1.364-.811c.573 0 1.028.271 1.367.814.338.542.507 1.281.507 2.216 0 .936-.169 1.675-.507 2.219-.338.544-.793.816-1.367.816zM171.381 21.585h3.743v.343h-3.743zM179.867 23.176h.133c.152 0 .271.028.356.084.086.057.128.136.128.24 0 .11-.037.191-.111.242-.075.052-.192.078-.354.078h-1.261c-.092 0-.168-.03-.229-.091s-.091-.138-.091-.229c0-.113.041-.195.123-.247.082-.052.213-.077.393-.077h.092l1.48-1.518-1.453-1.412h-.064c-.177 0-.299-.024-.368-.071-.068-.047-.103-.13-.103-.249 0-.125.039-.211.117-.258.078-.047.226-.071.445-.071h.937c.165 0 .284.027.359.08.075.053.112.136.112.249 0 .104-.043.183-.127.238-.083.055-.204.082-.362.082h-.036l.982.964.937-.964h-.096c-.171 0-.297-.025-.379-.075-.083-.051-.124-.129-.124-.236 0-.119.037-.205.109-.258.073-.053.192-.08.357-.08h1.188c.095 0 .172.03.231.089.059.06.089.137.089.231 0 .113-.038.196-.115.249-.075.053-.197.08-.364.08h-.128l-1.312 1.367 1.6 1.563h.047c.114 0 .204.028.269.084.064.057.096.136.096.24 0 .122-.036.206-.109.251s-.225.068-.452.068h-.933c-.161 0-.28-.026-.356-.078-.076-.051-.114-.132-.114-.242 0-.1.036-.18.11-.238.073-.057.173-.086.301-.086h.256l-1.152-1.125-1.054 1.126zM186.484 18.561c-.35 0-.623.207-.817.621-.195.415-.293 1-.293 1.755 0 .759.098 1.346.293 1.762.194.416.468.624.817.624.354 0 .628-.208.823-.624s.292-1.003.292-1.762c0-.755-.097-1.34-.292-1.755-.195-.414-.468-.621-.823-.621zm0 5.41c-.573 0-1.027-.271-1.364-.811-.337-.541-.505-1.282-.505-2.224 0-.938.168-1.678.505-2.219s.791-.811 1.364-.811 1.028.271 1.367.814c.338.542.507 1.281.507 2.216 0 .936-.169 1.675-.507 2.219-.338.544-.793.816-1.367.816zM194.224 24.99h.197c.222 0 .373.024.451.071.08.047.119.133.119.258 0 .107-.03.187-.093.242-.062.055-.154.083-.272.083h-2.106c-.144 0-.243-.025-.3-.074-.057-.048-.084-.132-.084-.251 0-.11.028-.192.089-.247.059-.055.147-.082.267-.082h.992l.74-1.458-1.677-3.286c-.201 0-.34-.024-.414-.073s-.111-.134-.111-.256c0-.107.03-.187.091-.24.062-.053.152-.08.274-.08h1.274c.171 0 .285.024.344.071.058.047.087.13.087.249 0 .122-.038.207-.114.256-.077.049-.217.073-.421.073h-.169l1.238 2.518 1.262-2.518h-.178c-.211 0-.355-.024-.435-.073-.08-.049-.119-.134-.119-.256 0-.119.029-.202.087-.249.058-.047.174-.071.348-.071h1.129c.125 0 .217.027.275.08.061.053.09.133.09.24 0 .116-.033.198-.101.247-.067.049-.186.076-.356.082l-2.404 4.744zM198.594 23.82c-.162 0-.281-.033-.359-.098-.078-.066-.117-.167-.117-.304 0-.198.293-.57.878-1.115l.133-.128.384-.366c1.055-.993 1.582-1.717 1.582-2.171 0-.326-.093-.59-.279-.793-.186-.202-.427-.304-.722-.304-.192 0-.376.04-.551.119-.176.079-.316.186-.424.32l-.087.123c-.111.205-.239.307-.379.307-.11 0-.187-.034-.232-.101-.047-.067-.069-.195-.069-.384l.032-.24.118-.162c.195-.189.438-.339.726-.45.288-.111.582-.167.884-.167.506 0 .929.163 1.269.489.34.326.51.727.51 1.202 0 .597-.519 1.391-1.554 2.381-.266.247-.469.44-.608.581l-.562.539h2.09c.012-.131.048-.231.106-.299.06-.069.139-.103.24-.103.101 0 .18.033.238.1.058.067.086.159.086.274l-.004.048-.006.048-.035.352c-.01.095-.037.169-.083.222-.045.053-.105.08-.179.08h-3.026zM209.675 21.928h-1.705v1.705h-.348v-1.705h-1.69v-.343h1.69v-1.695h.348v1.695h1.705zM215.481 21.499l-.59 2.171c-.03.116-.076.197-.137.242-.062.046-.152.069-.274.069-.11 0-.195-.029-.256-.087-.062-.058-.116-.163-.165-.315l-1.046-3.332h-.041c-.128 0-.221-.025-.277-.075-.056-.051-.084-.135-.084-.254 0-.104.029-.183.089-.238.06-.055.147-.082.264-.082h1.22c.164 0 .276.024.333.071.058.047.087.13.087.249l-.05.19-.128.098-.182.032-.249.009h-.265l.786 2.742.59-1.992c.033-.116.081-.197.142-.243.062-.045.15-.068.27-.068.11 0 .196.029.259.089.062.059.118.164.166.313l.572 1.901.754-2.742h-.305c-.211 0-.353-.024-.427-.071-.072-.047-.108-.133-.108-.258 0-.122.026-.206.082-.251.055-.046.162-.069.319-.069h1.226c.094 0 .165.027.212.082.048.055.071.134.071.238 0 .116-.027.198-.082.247-.056.049-.159.076-.312.082l-1.027 3.423c-.04.116-.09.197-.149.242-.06.046-.148.069-.267.069-.11 0-.197-.03-.262-.089-.063-.06-.117-.164-.16-.313l-.599-2.08zM225.082 17.97c-.262.494-.538 1.104-.829 1.83-.291.727-.437 1.38-.437 1.959 0 .67.125 1.324.375 1.963.249.638.528 1.248.836 1.83h-.302c-.356-.548-.664-1.15-.923-1.805s-.389-1.318-.389-1.988c0-.692.137-1.355.409-1.988.272-.634.592-1.234.957-1.801h.303zM227.357 21.585h3.743v.343h-3.743zM234.843 23.176h.133c.152 0 .271.028.355.084.086.057.129.136.129.24 0 .11-.037.191-.112.242-.074.052-.192.078-.354.078h-1.261c-.092 0-.168-.03-.229-.091-.062-.061-.092-.138-.092-.229 0-.113.041-.195.123-.247.082-.052.213-.077.394-.077h.092l1.48-1.518-1.453-1.412h-.064c-.177 0-.299-.024-.368-.071-.067-.047-.103-.13-.103-.249 0-.125.039-.211.117-.258.077-.047.226-.071.444-.071h.938c.165 0 .284.027.358.08.075.053.112.136.112.249 0 .104-.042.183-.126.238-.083.055-.204.082-.363.082h-.036l.982.964.938-.964h-.097c-.171 0-.297-.025-.379-.075-.083-.051-.124-.129-.124-.236 0-.119.037-.205.11-.258.073-.053.191-.08.356-.08h1.188c.094 0 .171.03.23.089.06.06.09.137.09.231 0 .113-.038.196-.115.249-.076.053-.198.08-.365.08h-.128l-1.312 1.367 1.601 1.563h.046c.115 0 .205.028.269.084.064.057.097.136.097.24 0 .122-.036.206-.11.251-.073.045-.224.068-.452.068h-.932c-.162 0-.281-.026-.357-.078-.075-.051-.113-.132-.113-.242 0-.1.035-.18.109-.238.073-.057.173-.086.301-.086h.257l-1.152-1.125-1.052 1.126zM240.368 18.917l-.089.014-.053.004c-.094 0-.171-.026-.231-.08-.059-.053-.089-.124-.089-.212 0-.073.026-.137.078-.192.052-.055.126-.096.224-.124l1.357-.365.099-.021.099-.007c.058 0 .103.027.137.08.033.054.05.126.05.218v4.945h.731c.271 0 .443.022.517.066s.11.127.11.249c0 .11-.031.192-.092.247-.062.055-.152.082-.274.082h-2.733c-.121 0-.213-.027-.273-.082-.062-.055-.092-.137-.092-.247 0-.122.037-.205.109-.249.073-.044.245-.066.517-.066h.759v-4.467l-.861.207zM249.2 24.99h.197c.222 0 .373.024.452.071.08.047.119.133.119.258 0 .107-.031.187-.093.242-.063.055-.154.083-.272.083h-2.107c-.144 0-.242-.025-.3-.074-.056-.048-.084-.132-.084-.251 0-.11.029-.192.089-.247.06-.055.148-.082.268-.082h.992l.739-1.458-1.677-3.286c-.201 0-.339-.024-.414-.073-.074-.049-.111-.134-.111-.256 0-.107.03-.187.092-.24.061-.053.151-.08.273-.08h1.275c.171 0 .285.024.343.071.058.047.087.13.087.249 0 .122-.038.207-.114.256s-.217.073-.421.073h-.169l1.239 2.518 1.261-2.518h-.178c-.21 0-.355-.024-.434-.073-.08-.049-.119-.134-.119-.256 0-.119.028-.202.087-.249.057-.047.173-.071.347-.071h1.129c.125 0 .217.027.276.08.06.053.089.133.089.24 0 .116-.033.198-.1.247-.067.049-.187.076-.357.082l-2.404 4.744zM255.16 18.561c-.35 0-.623.207-.817.621-.195.415-.292 1-.292 1.755 0 .759.097 1.346.292 1.762.194.416.468.624.817.624.354 0 .628-.208.823-.624s.292-1.003.292-1.762c0-.755-.097-1.34-.292-1.755-.195-.414-.468-.621-.823-.621zm0 5.41c-.572 0-1.026-.271-1.363-.811-.337-.541-.506-1.282-.506-2.224 0-.938.169-1.678.506-2.219s.791-.811 1.363-.811c.573 0 1.028.271 1.367.814.338.542.507 1.281.507 2.216 0 .936-.169 1.675-.507 2.219-.339.544-.794.816-1.367.816zM264.651 21.928h-1.705v1.705h-.346v-1.705h-1.692v-.343h1.692v-1.695h.346v1.695h1.705zM269.394 23.176h.133c.152 0 .271.028.356.084.086.057.128.136.128.24 0 .11-.037.191-.112.242-.074.052-.192.078-.354.078h-1.262c-.092 0-.168-.03-.229-.091-.062-.061-.091-.138-.091-.229 0-.113.041-.195.123-.247.082-.052.213-.077.393-.077h.092l1.48-1.518-1.453-1.412h-.064c-.177 0-.299-.024-.368-.071-.067-.047-.103-.13-.103-.249 0-.125.039-.211.117-.258.078-.047.226-.071.445-.071h.937c.165 0 .284.027.359.08.074.053.111.136.111.249 0 .104-.042.183-.126.238-.083.055-.204.082-.362.082h-.036l.981.964.938-.964h-.097c-.171 0-.297-.025-.379-.075-.083-.051-.124-.129-.124-.236 0-.119.037-.205.11-.258.073-.053.192-.08.357-.08h1.188c.094 0 .171.03.231.089.059.06.089.137.089.231 0 .113-.038.196-.115.249-.076.053-.198.08-.365.08h-.128l-1.312 1.367 1.6 1.563h.046c.115 0 .205.028.27.084.063.057.096.136.096.24 0 .122-.036.206-.11.251-.072.045-.224.068-.452.068h-.932c-.162 0-.281-.026-.356-.078-.076-.051-.114-.132-.114-.242 0-.1.036-.18.109-.238.073-.057.174-.086.302-.086h.256l-1.152-1.125-1.051 1.126zM276.012 18.561c-.351 0-.623.207-.818.621-.195.415-.292 1-.292 1.755 0 .759.097 1.346.292 1.762s.468.624.818.624c.354 0 .628-.208.823-.624.194-.416.291-1.003.291-1.762 0-.755-.097-1.34-.291-1.755-.195-.414-.47-.621-.823-.621zm0 5.41c-.573 0-1.027-.271-1.364-.811-.337-.541-.505-1.282-.505-2.224 0-.938.168-1.678.505-2.219s.791-.811 1.364-.811 1.027.271 1.367.814c.338.542.507 1.281.507 2.216 0 .936-.169 1.675-.507 2.219-.34.544-.794.816-1.367.816zM283.751 24.99h.196c.223 0 .373.024.452.071.08.047.119.133.119.258 0 .107-.031.187-.093.242-.063.055-.154.083-.272.083h-2.106c-.145 0-.243-.025-.301-.074-.056-.048-.084-.132-.084-.251 0-.11.029-.192.09-.247.059-.055.147-.082.267-.082h.992l.74-1.458-1.678-3.286c-.201 0-.339-.024-.414-.073-.073-.049-.11-.134-.11-.256 0-.107.029-.187.091-.24.061-.053.152-.08.273-.08h1.275c.171 0 .285.024.343.071.059.047.087.13.087.249 0 .122-.038.207-.113.256-.077.049-.218.073-.422.073h-.169l1.239 2.518 1.261-2.518h-.178c-.21 0-.354-.024-.434-.073-.08-.049-.119-.134-.119-.256 0-.119.029-.202.087-.249.057-.047.173-.071.347-.071h1.129c.125 0 .218.027.276.08.06.053.089.133.089.24 0 .116-.033.198-.1.247-.067.049-.187.076-.357.082l-2.403 4.744zM288.618 18.917l-.089.014-.053.004c-.094 0-.171-.026-.231-.08-.059-.053-.089-.124-.089-.212 0-.073.026-.137.078-.192.052-.055.126-.096.224-.124l1.357-.365.099-.021.099-.007c.058 0 .103.027.137.08.033.054.05.126.05.218v4.945h.731c.271 0 .443.022.517.066s.11.127.11.249c0 .11-.031.192-.092.247-.062.055-.152.082-.274.082h-2.733c-.121 0-.213-.027-.273-.082-.062-.055-.092-.137-.092-.247 0-.122.037-.205.109-.249.073-.044.245-.066.517-.066h.759v-4.467l-.861.207zM295.458 21.585h3.743v.343h-3.743zM303.943 23.176h.133c.152 0 .271.028.356.084.086.057.128.136.128.24 0 .11-.037.191-.112.242-.074.052-.191.078-.354.078h-1.262c-.092 0-.168-.03-.229-.091s-.091-.138-.091-.229c0-.113.041-.195.123-.247.082-.052.213-.077.393-.077h.092l1.48-1.518-1.453-1.412h-.063c-.178 0-.3-.024-.368-.071s-.104-.13-.104-.249c0-.125.039-.211.117-.258.078-.047.226-.071.445-.071h.937c.165 0 .284.027.359.08.075.053.111.136.111.249 0 .104-.042.183-.126.238-.083.055-.203.082-.362.082h-.036l.981.964.938-.964h-.096c-.171 0-.297-.025-.379-.075-.083-.051-.124-.129-.124-.236 0-.119.036-.205.109-.258.073-.053.192-.08.357-.08h1.188c.095 0 .171.03.231.089.059.06.089.137.089.231 0 .113-.038.196-.115.249-.076.053-.198.08-.365.08h-.128l-1.312 1.367 1.6 1.563h.046c.115 0 .205.028.27.084.063.057.096.136.096.24 0 .122-.036.206-.109.251s-.225.068-.452.068h-.933c-.162 0-.28-.026-.356-.078-.076-.051-.114-.132-.114-.242 0-.1.036-.18.11-.238.072-.057.173-.086.301-.086h.256l-1.152-1.125-1.051 1.126zM308.972 23.82c-.162 0-.281-.033-.359-.098-.078-.066-.117-.167-.117-.304 0-.198.293-.57.878-1.115l.133-.128.384-.366c1.055-.993 1.582-1.717 1.582-2.171 0-.326-.093-.59-.279-.793-.186-.202-.427-.304-.722-.304-.192 0-.376.04-.551.119-.176.079-.316.186-.424.32l-.087.123c-.111.205-.238.307-.379.307-.109 0-.187-.034-.232-.101-.046-.067-.069-.195-.069-.384l.032-.24.119-.162c.194-.189.437-.339.725-.45.288-.111.582-.167.884-.167.506 0 .929.163 1.269.489.34.326.51.727.51 1.202 0 .597-.519 1.391-1.554 2.381-.266.247-.469.44-.608.581l-.562.539h2.09c.012-.131.048-.231.106-.299.06-.069.14-.103.24-.103s.18.033.238.1c.058.067.086.159.086.274l-.004.048-.005.048-.036.352c-.01.095-.037.169-.083.222-.045.053-.105.08-.179.08h-3.026zM318.302 24.99h.196c.223 0 .373.024.452.071.08.047.119.133.119.258 0 .107-.031.187-.093.242-.063.055-.154.083-.272.083h-2.106c-.145 0-.243-.025-.3-.074-.057-.048-.084-.132-.084-.251 0-.11.028-.192.089-.247.059-.055.147-.082.267-.082h.992l.74-1.458-1.678-3.286c-.2 0-.339-.024-.413-.073s-.111-.134-.111-.256c0-.107.03-.187.091-.24.062-.053.152-.08.274-.08h1.274c.171 0 .285.024.343.071.059.047.088.13.088.249 0 .122-.038.207-.114.256-.077.049-.217.073-.421.073h-.169l1.238 2.518 1.262-2.518h-.179c-.21 0-.354-.024-.434-.073-.08-.049-.119-.134-.119-.256 0-.119.029-.202.087-.249.058-.047.173-.071.348-.071h1.129c.125 0 .217.027.275.08.061.053.089.133.089.24 0 .116-.032.198-.1.247-.067.049-.186.076-.357.082l-2.403 4.744zM323.17 18.917l-.09.014-.053.004c-.094 0-.171-.026-.23-.08-.06-.053-.09-.124-.09-.212 0-.073.026-.137.078-.192.053-.055.126-.096.225-.124l1.356-.365.1-.021.098-.007c.058 0 .104.027.137.08.033.054.051.126.051.218v4.945h.73c.272 0 .444.022.517.066.073.044.11.127.11.249 0 .11-.031.192-.092.247-.062.055-.152.082-.274.082h-2.732c-.122 0-.213-.027-.274-.082-.061-.055-.092-.137-.092-.247 0-.122.037-.205.11-.249.072-.044.244-.066.516-.066h.759v-4.467l-.86.207zM333.753 21.928h-1.705v1.705h-.348v-1.705h-1.69v-.343h1.69v-1.695h.348v1.695h1.705zM338.494 23.176h.134c.151 0 .271.028.355.084.086.057.128.136.128.24 0 .11-.037.191-.112.242-.073.052-.191.078-.354.078h-1.261c-.093 0-.168-.03-.229-.091s-.091-.138-.091-.229c0-.113.041-.195.123-.247.082-.052.213-.077.393-.077h.093l1.479-1.518-1.453-1.412h-.063c-.178 0-.299-.024-.368-.071-.068-.047-.104-.13-.104-.249 0-.125.039-.211.117-.258.078-.047.227-.071.445-.071h.937c.165 0 .284.027.359.08.075.053.112.136.112.249 0 .104-.042.183-.126.238-.083.055-.204.082-.363.082h-.036l.982.964.937-.964h-.096c-.171 0-.297-.025-.379-.075-.083-.051-.124-.129-.124-.236 0-.119.037-.205.109-.258.073-.053.192-.08.357-.08h1.188c.094 0 .171.03.23.089.059.06.089.137.089.231 0 .113-.038.196-.115.249-.075.053-.197.08-.364.08h-.128l-1.312 1.367 1.601 1.563h.046c.114 0 .205.028.269.084.064.057.096.136.096.24 0 .122-.035.206-.109.251-.073.045-.225.068-.452.068h-.933c-.161 0-.28-.026-.356-.078-.076-.051-.114-.132-.114-.242 0-.1.036-.18.11-.238.073-.057.173-.086.301-.086h.256l-1.151-1.125-1.053 1.126zM344.021 18.917l-.089.014-.053.004c-.095 0-.172-.026-.231-.08-.059-.053-.089-.124-.089-.212 0-.073.026-.137.078-.192.052-.055.126-.096.224-.124l1.357-.365.099-.021.098-.007c.059 0 .104.027.138.08.033.054.05.126.05.218v4.945h.73c.272 0 .444.022.518.066s.11.127.11.249c0 .11-.031.192-.093.247-.061.055-.151.082-.273.082h-2.733c-.122 0-.213-.027-.273-.082-.062-.055-.093-.137-.093-.247 0-.122.037-.205.11-.249s.245-.066.516-.066h.76v-4.467l-.861.207zM352.852 24.99h.197c.222 0 .373.024.452.071.079.047.118.133.118.258 0 .107-.03.187-.093.242-.062.055-.154.083-.271.083h-2.107c-.144 0-.243-.025-.3-.074-.057-.048-.084-.132-.084-.251 0-.11.028-.192.089-.247.059-.055.148-.082.267-.082h.992l.74-1.458-1.677-3.286c-.201 0-.339-.024-.414-.073-.074-.049-.111-.134-.111-.256 0-.107.03-.187.091-.24.062-.053.152-.08.274-.08h1.274c.172 0 .285.024.344.071.058.047.087.13.087.249 0 .122-.038.207-.114.256-.077.049-.217.073-.421.073h-.169l1.239 2.518 1.261-2.518h-.178c-.21 0-.355-.024-.435-.073-.08-.049-.119-.134-.119-.256 0-.119.029-.202.087-.249.058-.047.174-.071.348-.071h1.129c.125 0 .217.027.275.08.061.053.09.133.09.24 0 .116-.033.198-.101.247-.066.049-.186.076-.356.082l-2.404 4.744zM357.222 23.82c-.162 0-.281-.033-.359-.098-.078-.066-.117-.167-.117-.304 0-.198.293-.57.878-1.115l.133-.128.384-.366c1.055-.993 1.582-1.717 1.582-2.171 0-.326-.093-.59-.279-.793-.186-.202-.427-.304-.722-.304-.192 0-.376.04-.551.119-.176.079-.316.186-.424.32l-.087.123c-.111.205-.238.307-.379.307-.109 0-.187-.034-.232-.101-.047-.067-.069-.195-.069-.384l.032-.24.119-.162c.194-.189.437-.339.725-.45.288-.111.582-.167.884-.167.506 0 .929.163 1.269.489.34.326.51.727.51 1.202 0 .597-.519 1.391-1.554 2.381-.266.247-.469.44-.608.581l-.562.539h2.09c.012-.131.048-.231.106-.299.06-.069.14-.103.24-.103s.18.033.238.1c.058.067.086.159.086.274l-.004.048-.005.048-.036.352c-.01.095-.037.169-.083.222-.045.053-.105.08-.179.08h-3.026zM364.635 21.759c0 .676-.134 1.345-.398 2.006-.265.661-.567 1.257-.909 1.787h-.302c.326-.631.609-1.241.848-1.83.239-.59.359-1.244.359-1.963 0-.692-.136-1.355-.407-1.988-.271-.634-.556-1.234-.854-1.801h.297c.369.561.688 1.161.96 1.801.269.64.406 1.302.406 1.988zM370.251 21.759c0 .676-.133 1.345-.397 2.006-.265.661-.568 1.257-.909 1.787h-.302c.326-.631.609-1.241.848-1.83.239-.59.359-1.244.359-1.963 0-.692-.136-1.355-.407-1.988-.271-.634-.556-1.234-.854-1.801h.297c.369.561.688 1.161.96 1.801.269.64.405 1.302.405 1.988zM375.794 21.585h3.742v.343h-3.742zM102.947 50.173c-.162 0-.281-.033-.359-.098-.078-.066-.117-.168-.117-.305 0-.197.293-.57.878-1.115l.132-.127.384-.367c1.055-.992 1.582-1.717 1.582-2.17 0-.326-.093-.59-.279-.793s-.427-.305-.722-.305c-.192 0-.376.041-.551.119-.175.08-.316.186-.423.32l-.087.123c-.112.205-.239.307-.379.307-.11 0-.187-.033-.233-.102-.046-.066-.069-.193-.069-.383l.032-.24.119-.162c.195-.189.437-.34.725-.449.288-.111.582-.168.884-.168.506 0 .929.162 1.268.488.34.326.51.729.51 1.203 0 .596-.518 1.391-1.554 2.381-.265.246-.468.439-.608.58l-.562.539h2.089c.012-.131.048-.23.107-.299s.139-.102.24-.102.18.031.238.1c.058.066.086.158.086.273l-.004.049-.005.047-.036.352c-.009.096-.037.17-.083.223-.045.053-.105.08-.178.08h-3.025zM114.092 44.324c-.262.494-.539 1.104-.83 1.83s-.436 1.379-.436 1.959c0 .67.125 1.324.375 1.963.249.637.528 1.248.836 1.83h-.302c-.356-.549-.664-1.15-.923-1.805-.259-.656-.388-1.318-.388-1.988 0-.693.136-1.355.409-1.988.272-.635.592-1.234.957-1.801h.302zM118.301 47.851l-.59 2.172c-.03.115-.076.195-.137.242-.061.045-.152.068-.274.068-.11 0-.195-.029-.256-.088-.061-.057-.116-.162-.165-.314l-1.046-3.332h-.041c-.128 0-.221-.025-.277-.074-.056-.051-.084-.135-.084-.254 0-.105.03-.184.089-.238.06-.055.147-.082.264-.082h1.22c.164 0 .276.023.333.07.058.047.087.131.087.25l-.05.189-.128.098-.181.031-.249.01h-.265l.786 2.742.59-1.992c.033-.115.081-.197.142-.242s.15-.068.269-.068c.11 0 .196.029.259.088.062.061.118.164.166.314l.572 1.9.754-2.742h-.306c-.211 0-.352-.023-.426-.07-.073-.047-.109-.133-.109-.258 0-.123.027-.207.082-.252.055-.045.162-.068.32-.068h1.225c.094 0 .165.027.212.082.048.055.071.133.071.238 0 .115-.027.197-.082.246-.055.049-.159.076-.311.082l-1.028 3.424c-.04.115-.089.195-.149.242-.059.045-.148.068-.267.068-.11 0-.197-.029-.261-.09-.064-.059-.117-.164-.16-.312l-.599-2.08zM125.429 49.529h.133c.152 0 .271.029.356.084.086.057.128.137.128.24 0 .109-.037.191-.112.242-.074.053-.192.078-.354.078h-1.261c-.092 0-.168-.031-.229-.092s-.091-.137-.091-.229c0-.113.041-.195.123-.246.082-.053.213-.078.393-.078h.092l1.48-1.518-1.453-1.412h-.064c-.177 0-.299-.023-.368-.07-.068-.047-.103-.131-.103-.25 0-.125.039-.211.117-.258.078-.047.226-.07.445-.07h.937c.165 0 .284.027.359.08.075.053.112.135.112.248 0 .105-.042.184-.126.238-.083.055-.204.082-.363.082h-.036l.982.965.937-.965h-.096c-.171 0-.297-.025-.379-.074-.083-.051-.124-.129-.124-.236 0-.119.037-.205.11-.258.073-.053.192-.08.357-.08h1.188c.094 0 .171.029.231.088.059.061.089.139.089.232 0 .113-.038.195-.115.248-.076.053-.198.08-.365.08h-.128l-1.312 1.367 1.6 1.562h.046c.115 0 .205.029.269.084.064.057.096.137.096.24 0 .123-.036.207-.11.252-.073.045-.224.068-.452.068h-.932c-.162 0-.281-.025-.357-.078-.076-.051-.114-.133-.114-.242 0-.1.036-.18.11-.238.073-.057.173-.086.301-.086h.256l-1.152-1.125-1.051 1.127zM130.457 50.173c-.162 0-.281-.033-.359-.098-.078-.066-.117-.168-.117-.305 0-.197.293-.57.878-1.115l.132-.127.384-.367c1.055-.992 1.582-1.717 1.582-2.17 0-.326-.093-.59-.279-.793-.186-.203-.427-.305-.722-.305-.192 0-.376.041-.551.119-.175.08-.316.186-.423.32l-.087.123c-.112.205-.239.307-.379.307-.11 0-.187-.033-.233-.102-.046-.066-.069-.193-.069-.383l.032-.24.119-.162c.195-.189.437-.34.725-.449.288-.111.582-.168.884-.168.506 0 .929.162 1.268.488.34.326.51.729.51 1.203 0 .596-.518 1.391-1.554 2.381-.265.246-.468.439-.608.58l-.562.539h2.089c.012-.131.048-.23.107-.299s.139-.102.24-.102.18.031.238.1c.058.066.086.158.086.273l-.004.049-.005.047-.036.352c-.009.096-.037.17-.083.223-.045.053-.105.08-.178.08h-3.025zM139.787 51.343h.197c.222 0 .373.023.452.07.08.047.119.133.119.258 0 .107-.031.188-.093.242-.063.057-.154.084-.272.084h-2.107c-.144 0-.243-.025-.3-.074-.056-.049-.084-.133-.084-.252 0-.109.029-.191.089-.246.059-.055.148-.082.267-.082h.992l.74-1.457-1.677-3.287c-.201 0-.339-.023-.414-.072-.074-.049-.111-.135-.111-.256 0-.107.03-.188.091-.24s.152-.08.274-.08h1.275c.171 0 .285.023.343.07s.087.131.087.25c0 .121-.038.207-.114.256-.077.049-.217.072-.421.072h-.169l1.239 2.518 1.261-2.518h-.178c-.21 0-.355-.023-.434-.072-.08-.049-.119-.135-.119-.256 0-.119.029-.203.087-.25.057-.047.173-.07.347-.07h1.129c.125 0 .217.027.276.08.06.053.089.133.089.24 0 .115-.033.197-.1.246s-.186.076-.357.082l-2.404 4.744zM145.747 44.914c-.35 0-.623.207-.818.621-.195.414-.292 1-.292 1.754 0 .76.097 1.348.292 1.764.195.416.468.623.818.623.354 0 .628-.207.823-.623.195-.416.292-1.004.292-1.764 0-.754-.097-1.34-.292-1.754-.195-.414-.469-.621-.823-.621zm0 5.41c-.573 0-1.027-.27-1.364-.811-.337-.541-.505-1.281-.505-2.225 0-.938.168-1.678.505-2.219.337-.541.791-.811 1.364-.811.573 0 1.028.271 1.367.814.338.541.507 1.281.507 2.215 0 .938-.169 1.676-.507 2.221-.34.544-.795.816-1.367.816zM155.236 48.281h-1.705v1.705h-.346v-1.705h-1.691v-.342h1.691v-1.695h.346v1.695h1.705zM159.979 49.529h.133c.152 0 .271.029.356.084.086.057.128.137.128.24 0 .109-.037.191-.112.242-.074.053-.192.078-.354.078h-1.261c-.092 0-.168-.031-.229-.092s-.091-.137-.091-.229c0-.113.041-.195.123-.246.082-.053.213-.078.393-.078h.092l1.48-1.518-1.453-1.412h-.064c-.177 0-.299-.023-.368-.07-.068-.047-.103-.131-.103-.25 0-.125.039-.211.117-.258.078-.047.226-.07.445-.07h.937c.165 0 .284.027.359.08.075.053.112.135.112.248 0 .105-.042.184-.126.238-.083.055-.204.082-.363.082h-.036l.982.965.937-.965h-.096c-.171 0-.297-.025-.379-.074-.083-.051-.124-.129-.124-.236 0-.119.037-.205.11-.258.073-.053.192-.08.357-.08h1.188c.094 0 .171.029.231.088.059.061.089.139.089.232 0 .113-.038.195-.115.248-.076.053-.198.08-.365.08h-.128l-1.312 1.367 1.6 1.562h.046c.115 0 .205.029.269.084.064.057.096.137.096.24 0 .123-.036.207-.11.252-.073.045-.224.068-.452.068h-.932c-.162 0-.281-.025-.357-.078-.076-.051-.114-.133-.114-.242 0-.1.036-.18.11-.238.073-.057.173-.086.301-.086h.256l-1.152-1.125-1.051 1.127zM166.597 44.914c-.35 0-.623.207-.818.621-.195.414-.292 1-.292 1.754 0 .76.097 1.348.292 1.764.195.416.468.623.818.623.354 0 .628-.207.823-.623s.292-1.004.292-1.764c0-.754-.097-1.34-.292-1.754s-.469-.621-.823-.621zm0 5.41c-.573 0-1.027-.27-1.364-.811s-.505-1.281-.505-2.225c0-.938.168-1.678.505-2.219s.791-.811 1.364-.811c.573 0 1.028.271 1.367.814.338.541.507 1.281.507 2.215 0 .938-.169 1.676-.507 2.221-.339.544-.795.816-1.367.816zM174.336 51.343h.197c.222 0 .373.023.452.07.08.047.119.133.119.258 0 .107-.031.188-.093.242-.063.057-.154.084-.272.084h-2.107c-.144 0-.243-.025-.3-.074-.056-.049-.084-.133-.084-.252 0-.109.029-.191.089-.246.059-.055.148-.082.267-.082h.992l.74-1.457-1.677-3.287c-.201 0-.339-.023-.414-.072-.074-.049-.111-.135-.111-.256 0-.107.03-.188.091-.24s.152-.08.274-.08h1.275c.171 0 .285.023.343.07.058.047.087.131.087.25 0 .121-.038.207-.114.256-.077.049-.217.072-.421.072h-.169l1.239 2.518 1.261-2.518h-.178c-.21 0-.355-.023-.434-.072-.08-.049-.119-.135-.119-.256 0-.119.029-.203.087-.25.057-.047.173-.07.347-.07h1.129c.125 0 .217.027.276.08.06.053.089.133.089.24 0 .115-.033.197-.1.246-.067.049-.186.076-.357.082l-2.404 4.744zM179.204 45.269l-.089.014-.053.004c-.095 0-.171-.025-.231-.08-.059-.053-.088-.123-.088-.211 0-.074.025-.137.077-.191.052-.057.126-.098.224-.125l1.357-.365.1-.021.098-.006c.058 0 .104.027.137.08l.051.217v4.945h.73c.271 0 .443.023.518.066.072.045.109.127.109.25 0 .109-.031.191-.092.246-.062.055-.152.082-.274.082h-2.733c-.121 0-.213-.027-.273-.082s-.092-.137-.092-.246c0-.123.037-.205.109-.25.073-.043.246-.066.517-.066h.759v-4.465l-.861.204zM186.044 47.939h3.744v.342h-3.744zM194.529 49.529h.134c.151 0 .271.029.355.084.086.057.128.137.128.24 0 .109-.037.191-.112.242-.074.053-.191.078-.354.078h-1.262c-.092 0-.168-.031-.229-.092s-.091-.137-.091-.229c0-.113.041-.195.123-.246.082-.053.213-.078.394-.078h.092l1.479-1.518-1.453-1.412h-.063c-.178 0-.299-.023-.368-.07-.068-.047-.103-.131-.103-.25 0-.125.038-.211.116-.258s.226-.07.445-.07h.937c.165 0 .284.027.359.08.074.053.111.135.111.248 0 .105-.041.184-.125.238s-.205.082-.363.082h-.036l.981.965.938-.965h-.096c-.172 0-.297-.025-.379-.074-.084-.051-.125-.129-.125-.236 0-.119.037-.205.111-.258.072-.053.191-.08.356-.08h1.188c.094 0 .17.029.23.088.059.061.089.139.089.232 0 .113-.038.195-.114.248s-.199.08-.365.08h-.129l-1.312 1.367 1.601 1.562h.045c.115 0 .205.029.27.084.064.057.096.137.096.24 0 .123-.035.207-.109.252-.073.045-.225.068-.453.068h-.932c-.162 0-.281-.025-.356-.078-.076-.051-.114-.133-.114-.242 0-.1.036-.18.109-.238.074-.057.174-.086.302-.086h.256l-1.151-1.125-1.051 1.127zM199.558 50.173c-.162 0-.281-.033-.359-.098-.078-.066-.117-.168-.117-.305 0-.197.293-.57.879-1.115l.131-.127.385-.367c1.055-.992 1.582-1.717 1.582-2.17 0-.326-.094-.59-.279-.793s-.427-.305-.722-.305c-.192 0-.376.041-.552.119-.174.08-.315.186-.422.32l-.088.123c-.111.205-.238.307-.379.307-.109 0-.187-.033-.232-.102-.047-.066-.069-.193-.069-.383l.032-.24.119-.162c.195-.189.437-.34.725-.449.288-.111.582-.168.885-.168.506 0 .928.162 1.268.488s.51.729.51 1.203c0 .596-.518 1.391-1.555 2.381-.264.246-.467.439-.607.58l-.562.539h2.09c.012-.131.048-.23.107-.299.059-.068.139-.102.239-.102s.181.031.238.1c.058.066.086.158.086.273l-.005.049-.004.047-.037.352c-.008.096-.036.17-.082.223-.045.053-.105.08-.178.08h-3.027zM208.887 51.343h.196c.223 0 .373.023.453.07.079.047.118.133.118.258 0 .107-.03.188-.093.242-.062.057-.154.084-.271.084h-2.107c-.145 0-.243-.025-.301-.074-.055-.049-.084-.133-.084-.252 0-.109.029-.191.09-.246.059-.055.148-.082.267-.082h.992l.74-1.457-1.677-3.287c-.201 0-.34-.023-.414-.072s-.111-.135-.111-.256c0-.107.029-.188.091-.24s.151-.08.274-.08h1.275c.17 0 .284.023.342.07.059.047.088.131.088.25 0 .121-.039.207-.114.256-.077.049-.218.072-.421.072h-.17l1.24 2.518 1.26-2.518h-.178c-.209 0-.354-.023-.434-.072-.08-.049-.119-.135-.119-.256 0-.119.029-.203.087-.25s.173-.07.347-.07h1.129c.125 0 .218.027.277.08.059.053.088.133.088.24 0 .115-.033.197-.1.246s-.186.076-.357.082l-2.403 4.744zM213.755 45.269l-.09.014-.053.004c-.094 0-.171-.025-.23-.08-.06-.053-.09-.123-.09-.211 0-.074.026-.137.078-.191.053-.057.127-.098.225-.125l1.357-.365.098-.021.099-.006c.058 0 .103.027.138.08.032.053.049.125.049.217v4.945h.731c.272 0 .444.023.517.066.073.045.11.127.11.25 0 .109-.03.191-.092.246s-.151.082-.274.082h-2.732c-.122 0-.213-.027-.274-.082s-.092-.137-.092-.246c0-.123.037-.205.11-.25.072-.043.244-.066.516-.066h.759v-4.465l-.86.204zM220.595 47.939h3.742v.342h-3.742zM230.145 47.851l-.59 2.172c-.03.115-.076.195-.138.242-.061.045-.151.068-.273.068-.109 0-.195-.029-.256-.088-.061-.057-.116-.162-.165-.314l-1.046-3.332h-.041c-.129 0-.221-.025-.277-.074-.057-.051-.084-.135-.084-.254 0-.105.029-.184.089-.238s.147-.082.263-.082h1.221c.164 0 .275.023.333.07s.087.131.087.25l-.051.189-.127.098-.182.031-.248.01h-.266l.786 2.742.59-1.992c.033-.115.081-.197.142-.242.062-.045.15-.068.27-.068.109 0 .195.029.259.088.062.061.118.164.166.314l.572 1.9.754-2.742h-.305c-.211 0-.353-.023-.427-.07-.073-.047-.108-.133-.108-.258 0-.123.027-.207.082-.252s.162-.068.32-.068h1.225c.094 0 .164.027.212.082s.071.133.071.238c0 .115-.027.197-.082.246-.056.049-.16.076-.312.082l-1.028 3.424c-.039.115-.089.195-.148.242-.059.045-.148.068-.268.068-.109 0-.197-.029-.261-.09-.063-.059-.116-.164-.159-.312l-.6-2.08zM237.272 49.529h.133c.152 0 .271.029.356.084.086.057.128.137.128.24 0 .109-.037.191-.112.242-.073.053-.192.078-.354.078h-1.26c-.093 0-.168-.031-.229-.092s-.091-.137-.091-.229c0-.113.041-.195.123-.246.082-.053.213-.078.393-.078h.092l1.48-1.518-1.453-1.412h-.064c-.177 0-.299-.023-.367-.07s-.104-.131-.104-.25c0-.125.039-.211.117-.258s.227-.07.445-.07h.937c.165 0 .284.027.358.08.076.053.113.135.113.248 0 .105-.043.184-.127.238-.082.055-.203.082-.363.082h-.035l.982.965.937-.965h-.097c-.17 0-.297-.025-.379-.074-.082-.051-.123-.129-.123-.236 0-.119.037-.205.109-.258.073-.053.192-.08.357-.08h1.188c.094 0 .172.029.231.088.059.061.089.139.089.232 0 .113-.038.195-.115.248-.076.053-.197.08-.365.08h-.127l-1.312 1.367 1.6 1.562h.047c.114 0 .204.029.269.084.063.057.096.137.096.24 0 .123-.036.207-.11.252-.072.045-.224.068-.451.068h-.933c-.161 0-.28-.025-.356-.078-.076-.051-.114-.133-.114-.242 0-.1.036-.18.11-.238.072-.057.172-.086.301-.086h.256l-1.152-1.125-1.054 1.127zM243.891 44.914c-.351 0-.623.207-.818.621-.194.414-.292 1-.292 1.754 0 .76.098 1.348.292 1.764.195.416.468.623.818.623.354 0 .628-.207.823-.623s.291-1.004.291-1.764c0-.754-.096-1.34-.291-1.754s-.469-.621-.823-.621zm0 5.41c-.573 0-1.027-.27-1.364-.811s-.505-1.281-.505-2.225c0-.938.168-1.678.505-2.219s.791-.811 1.364-.811 1.028.271 1.366.814c.339.541.508 1.281.508 2.215 0 .938-.169 1.676-.508 2.221-.338.544-.793.816-1.366.816zM251.63 51.343h.197c.221 0 .373.023.451.07.08.047.119.133.119.258 0 .107-.031.188-.093.242-.063.057-.154.084-.272.084h-2.107c-.144 0-.242-.025-.299-.074s-.084-.133-.084-.252c0-.109.028-.191.088-.246s.148-.082.268-.082h.992l.74-1.457-1.678-3.287c-.201 0-.339-.023-.414-.072-.074-.049-.11-.135-.11-.256 0-.107.03-.188.091-.24s.152-.08.273-.08h1.275c.171 0 .285.023.344.07.058.047.086.131.086.25 0 .121-.037.207-.113.256-.077.049-.217.072-.422.072h-.168l1.238 2.518 1.262-2.518h-.179c-.21 0-.354-.023-.434-.072-.08-.049-.119-.135-.119-.256 0-.119.028-.203.087-.25.057-.047.173-.07.348-.07h1.129c.125 0 .217.027.275.08.061.053.089.133.089.24 0 .115-.032.197-.1.246s-.187.076-.356.082l-2.404 4.744zM255.999 50.173c-.162 0-.28-.033-.358-.098-.078-.066-.117-.168-.117-.305 0-.197.293-.57.878-1.115l.133-.127.383-.367c1.056-.992 1.582-1.717 1.582-2.17 0-.326-.093-.59-.278-.793-.187-.203-.427-.305-.722-.305-.192 0-.377.041-.552.119-.175.08-.315.186-.423.32l-.087.123c-.112.205-.239.307-.379.307-.11 0-.187-.033-.233-.102-.046-.066-.068-.193-.068-.383l.031-.24.119-.162c.195-.189.438-.34.725-.449.289-.111.582-.168.885-.168.506 0 .929.162 1.268.488.34.326.51.729.51 1.203 0 .596-.518 1.391-1.554 2.381-.265.246-.468.439-.608.58l-.562.539h2.089c.012-.131.049-.23.107-.299s.139-.102.24-.102c.101 0 .18.031.238.1.058.066.086.158.086.273l-.004.049-.006.047-.035.352c-.01.096-.037.17-.084.223-.045.053-.104.08-.178.08h-3.026zM267.081 48.281h-1.705v1.705h-.348v-1.705h-1.691v-.342h1.691v-1.695h.348v1.695h1.705zM271.822 49.529h.133c.152 0 .271.029.356.084.086.057.128.137.128.24 0 .109-.037.191-.112.242-.073.053-.191.078-.354.078h-1.261c-.093 0-.168-.031-.229-.092s-.091-.137-.091-.229c0-.113.041-.195.123-.246.082-.053.213-.078.393-.078h.093l1.479-1.518-1.453-1.412h-.063c-.178 0-.3-.023-.368-.07s-.104-.131-.104-.25c0-.125.039-.211.117-.258s.227-.07.445-.07h.937c.165 0 .284.027.359.08s.112.135.112.248c0 .105-.042.184-.126.238-.083.055-.204.082-.363.082h-.036l.982.965.937-.965h-.096c-.171 0-.297-.025-.379-.074-.083-.051-.124-.129-.124-.236 0-.119.037-.205.109-.258.073-.053.192-.08.357-.08h1.188c.095 0 .171.029.231.088.059.061.089.139.089.232 0 .113-.038.195-.115.248-.075.053-.197.08-.364.08h-.129l-1.312 1.367 1.6 1.562h.046c.115 0 .205.029.27.084.064.057.096.137.096.24 0 .123-.036.207-.109.252s-.225.068-.452.068h-.933c-.162 0-.28-.025-.356-.078-.076-.051-.114-.133-.114-.242 0-.1.036-.18.11-.238.073-.057.173-.086.301-.086h.256l-1.152-1.125-1.052 1.127zM277.349 45.269l-.089.014-.054.004c-.094 0-.171-.025-.23-.08-.059-.053-.089-.123-.089-.211 0-.074.025-.137.078-.191.052-.057.126-.098.224-.125l1.357-.365.099-.021.098-.006c.059 0 .104.027.138.08.032.053.05.125.05.217v4.945h.73c.272 0 .444.023.518.066.073.045.109.127.109.25 0 .109-.03.191-.092.246-.061.055-.151.082-.273.082h-2.733c-.122 0-.213-.027-.274-.082-.061-.055-.092-.137-.092-.246 0-.123.037-.205.11-.25.073-.043.245-.066.516-.066h.759v-4.465l-.86.204zM287.995 44.324c-.262.494-.539 1.104-.83 1.83s-.436 1.379-.436 1.959c0 .67.125 1.324.375 1.963.249.637.528 1.248.836 1.83h-.302c-.356-.549-.664-1.15-.923-1.805-.26-.656-.389-1.318-.389-1.988 0-.693.137-1.355.409-1.988.272-.635.592-1.234.957-1.801h.303zM290.271 47.939h3.743v.342h-3.743zM298.413 51.343h.197c.222 0 .373.023.452.07.08.047.119.133.119.258 0 .107-.031.188-.093.242-.063.057-.154.084-.272.084h-2.106c-.145 0-.243-.025-.301-.074-.056-.049-.084-.133-.084-.252 0-.109.029-.191.089-.246s.148-.082.268-.082h.992l.739-1.457-1.677-3.287c-.201 0-.339-.023-.414-.072-.074-.049-.11-.135-.11-.256 0-.107.029-.188.091-.24.061-.053.151-.08.273-.08h1.275c.171 0 .285.023.343.07.059.047.087.131.087.25 0 .121-.038.207-.114.256s-.217.072-.421.072h-.169l1.239 2.518 1.261-2.518h-.178c-.21 0-.354-.023-.434-.072-.08-.049-.119-.135-.119-.256 0-.119.029-.203.087-.25.057-.047.173-.07.347-.07h1.129c.125 0 .217.027.276.08s.089.133.089.24c0 .115-.033.197-.1.246-.067.049-.187.076-.357.082l-2.404 4.744zM304.373 44.914c-.35 0-.622.207-.817.621s-.292 1-.292 1.754c0 .76.097 1.348.292 1.764s.468.623.817.623c.354 0 .629-.207.823-.623.195-.416.292-1.004.292-1.764 0-.754-.097-1.34-.292-1.754-.194-.414-.468-.621-.823-.621zm0 5.41c-.572 0-1.026-.27-1.363-.811s-.505-1.281-.505-2.225c0-.938.168-1.678.505-2.219s.791-.811 1.363-.811c.573 0 1.028.271 1.367.814.338.541.507 1.281.507 2.215 0 .938-.169 1.676-.507 2.221-.339.544-.794.816-1.367.816zM313.864 48.281h-1.705v1.705h-.347v-1.705h-1.691v-.342h1.691v-1.695h.347v1.695h1.705zM319.265 51.343h.197c.222 0 .373.023.451.07.08.047.119.133.119.258 0 .107-.03.188-.093.242-.062.057-.154.084-.271.084h-2.107c-.144 0-.243-.025-.3-.074s-.084-.133-.084-.252c0-.109.028-.191.089-.246.059-.055.147-.082.267-.082h.992l.74-1.457-1.677-3.287c-.201 0-.34-.023-.414-.072s-.111-.135-.111-.256c0-.107.03-.188.091-.24.062-.053.152-.08.274-.08h1.274c.171 0 .285.023.344.07.058.047.087.131.087.25 0 .121-.038.207-.114.256-.077.049-.217.072-.421.072h-.169l1.239 2.518 1.261-2.518h-.178c-.211 0-.355-.023-.435-.072-.08-.049-.119-.135-.119-.256 0-.119.029-.203.087-.25s.174-.07.348-.07h1.129c.125 0 .217.027.275.08.061.053.09.133.09.24 0 .115-.033.197-.101.246s-.186.076-.356.082l-2.404 4.744zM323.635 50.173c-.162 0-.281-.033-.359-.098-.078-.066-.117-.168-.117-.305 0-.197.293-.57.878-1.115l.133-.127.384-.367c1.055-.992 1.582-1.717 1.582-2.17 0-.326-.093-.59-.279-.793-.186-.203-.427-.305-.722-.305-.192 0-.376.041-.551.119-.176.08-.316.186-.424.32l-.087.123c-.111.205-.239.307-.379.307-.11 0-.187-.033-.232-.102-.047-.066-.069-.193-.069-.383l.032-.24.119-.162c.194-.189.437-.34.725-.449.288-.111.582-.168.884-.168.506 0 .929.162 1.269.488s.51.729.51 1.203c0 .596-.519 1.391-1.554 2.381-.266.246-.469.439-.608.58l-.562.539h2.09c.012-.131.048-.23.106-.299.06-.068.139-.102.24-.102.101 0 .18.031.238.1.058.066.086.158.086.273l-.004.049-.006.047-.035.352c-.01.096-.037.17-.083.223-.045.053-.105.08-.179.08h-3.026zM331.048 48.113c0 .676-.134 1.344-.398 2.006-.265.66-.568 1.256-.909 1.787h-.302c.326-.631.609-1.242.848-1.83.239-.59.359-1.244.359-1.963 0-.693-.136-1.355-.407-1.988-.271-.635-.556-1.234-.854-1.801h.297c.369.561.688 1.16.96 1.801.269.64.406 1.302.406 1.988zM336.664 48.113c0 .676-.133 1.344-.397 2.006-.265.66-.568 1.256-.909 1.787h-.302c.326-.631.608-1.242.848-1.83.239-.59.359-1.244.359-1.963 0-.693-.136-1.355-.407-1.988-.271-.635-.556-1.234-.854-1.801h.297c.369.561.688 1.16.96 1.801.269.64.405 1.302.405 1.988zM343.609 47.833h1.869l-.983-2.422-.886 2.422zm.234-2.421h-.667c-.187 0-.317-.025-.392-.076s-.111-.135-.111-.254c0-.125.032-.211.098-.258.066-.047.245-.07.537-.07h1.303c.167 0 .281.021.34.066.06.043.114.125.162.244l1.787 4.465h.078c.165 0 .277.023.338.068.062.047.092.129.092.248 0 .125-.028.211-.087.258-.058.047-.166.07-.325.07h-1.242c-.231 0-.381-.023-.445-.07-.066-.047-.1-.133-.1-.258 0-.117.036-.197.108-.246.071-.047.206-.07.404-.07h.425l-.443-1.088h-2.321l-.394 1.088h.443c.202 0 .339.023.412.07.072.049.108.129.108.246 0 .125-.031.211-.098.258-.065.047-.209.07-.432.07h-1.202c-.195 0-.324-.023-.389-.07-.063-.047-.096-.133-.096-.258 0-.119.032-.201.096-.248.064-.045.188-.068.37-.068h.087l1.556-4.117zM349.72 49.529h1.518c.118 0 .206.025.262.076.058.049.086.129.086.24 0 .125-.027.211-.08.258-.054.047-.152.07-.295.07h-2.989c-.119 0-.208-.027-.27-.082-.061-.055-.092-.137-.092-.246 0-.107.031-.188.094-.238.062-.053.159-.078.29-.078h.795v-2.93h-.31c-.296 0-.48-.023-.553-.07-.074-.047-.11-.133-.11-.258 0-.107.03-.188.089-.24.06-.053.15-.08.272-.08h1.042c.082 0 .145.016.187.047.043.033.064.078.064.141v.775c.29-.361.591-.631.904-.809.314-.176.652-.266 1.016-.266.271 0 .49.057.658.166s.251.25.251.426c0 .111-.042.211-.125.299-.084.086-.177.131-.277.131-.07 0-.188-.047-.354-.141-.165-.094-.314-.139-.445-.139-.237 0-.488.084-.752.252-.264.17-.556.438-.875.803v1.893zM357.16 46.224v-.018c0-.102.029-.174.087-.223.059-.047.147-.07.27-.07.125 0 .211.037.259.109.047.074.07.225.07.453v.85c0 .113-.029.197-.086.254-.059.057-.146.084-.262.084-.081 0-.152-.023-.212-.07s-.132-.145-.218-.295c-.146-.246-.323-.434-.532-.561-.209-.125-.448-.188-.72-.188-.475 0-.861.139-1.158.42-.297.279-.445.643-.445 1.088 0 .453.142.824.427 1.111.285.289.652.434 1.099.434.205 0 .399-.029.583-.086.186-.057.359-.141.523-.252l.233-.17c.198-.162.354-.242.467-.242.094 0 .171.029.23.088.06.061.089.137.089.23 0 .242-.228.488-.684.738-.455.252-.939.377-1.451.377-.661 0-1.212-.211-1.652-.635-.439-.424-.66-.951-.66-1.586 0-.633.22-1.162.658-1.588.439-.424.987-.639 1.646-.639.231 0 .464.033.696.096.233.063.481.16.743.291zM359.692 46.599c-.006.229-.033.375-.08.436-.047.064-.14.094-.276.094-.106 0-.187-.027-.24-.084s-.08-.139-.08-.248l.005-.07.005-.145.045-1.508c.006-.113.037-.195.092-.246.056-.049.141-.074.257-.074h3.971c.116 0 .201.025.256.074.055.051.084.133.087.246l.05 1.508.005.154.005.07c0 .107-.029.189-.087.242-.058.055-.145.08-.261.08-.122 0-.206-.029-.251-.094-.046-.061-.072-.207-.078-.436l-.046-1.188h-1.311v4.117h.8819999999999999c.128 0 .221.025.279.076.057.049.086.129.086.24 0 .105-.027.188-.082.244-.056.057-.135.084-.238.084h-2.564c-.103 0-.182-.027-.236-.084-.056-.057-.082-.139-.082-.244 0-.113.028-.195.089-.242.059-.049.16-.074.304-.074h.854v-4.117h-1.312l-.048 1.189zM368.033 48.154c-.168-.055-.33-.096-.486-.121-.157-.027-.313-.039-.469-.039-.47 0-.84.078-1.11.238-.271.158-.407.371-.407.639 0 .207.085.377.254.512s.385.201.647.201c.387 0 .744-.102 1.075-.303.33-.203.496-.414.496-.633v-.494zm.036 1.439c-.25.225-.521.396-.814.516s-.598.178-.908.178c-.454 0-.82-.125-1.1-.379-.278-.252-.418-.582-.418-.986 0-.482.186-.855.556-1.119.37-.266.891-.398 1.561-.398.177 0 .355.012.535.035.18.021.364.057.553.105v-.031c0-.35-.084-.609-.252-.777-.167-.166-.428-.25-.78-.25-.238 0-.504.064-.796.191-.293.129-.485.191-.581.191-.088 0-.16-.035-.219-.107-.058-.07-.087-.164-.087-.275 0-.18.168-.332.505-.457s.768-.189 1.291-.189c.536 0 .942.139 1.216.41.274.273.411.676.411 1.209v2.07h.225c.216 0 .36.023.434.068.073.047.11.129.11.248 0 .109-.03.191-.091.246-.062.055-.153.082-.275.082h-.717c-.085 0-.156-.025-.21-.078-.056-.051-.093-.125-.11-.225l-.039-.278zM370.936 49.529v-2.93h-.087c-.207 0-.35-.023-.427-.072-.078-.049-.117-.135-.117-.256 0-.113.032-.195.096-.246.064-.049.168-.074.312-.074h.653c.082 0 .146.018.192.049.045.035.068.08.068.139v.311c.223-.207.442-.361.66-.459.218-.1.444-.15.679-.15.46 0 .821.145 1.086.432.263.285.395.682.395 1.188v2.07h.215c.152 0 .263.025.329.076.067.049.101.129.101.24 0 .117-.035.201-.107.252s-.199.076-.382.076h-1.01c-.195 0-.32-.023-.374-.068-.056-.045-.083-.133-.083-.26 0-.119.031-.201.096-.248.064-.045.185-.068.361-.068h.16v-1.902c0-.355-.08-.627-.242-.814-.161-.188-.396-.281-.704-.281-.312 0-.585.105-.822.316-.238.209-.356.471-.356.779v1.902h.159c.184 0 .307.023.37.068.064.047.097.129.097.248 0 .127-.027.215-.082.26-.056.045-.189.068-.402.068h-1.079c-.125 0-.218-.027-.281-.08-.062-.053-.094-.137-.094-.248 0-.123.036-.205.108-.25.07-.043.211-.066.418-.066h.094zM376.534 49.529v-4.68h-.087c-.207 0-.35-.025-.427-.074-.078-.047-.117-.133-.117-.254 0-.111.031-.193.094-.248s.153-.082.272-.082h.694c.083 0 .146.016.191.051.046.033.069.078.069.137v2.07c.222-.207.442-.361.66-.459.218-.1.443-.15.679-.15.46 0 .822.145 1.085.432.264.285.396.682.396 1.188v2.07h.215c.151 0 .262.025.329.076.066.049.1.129.1.24 0 .109-.03.191-.091.246-.062.055-.153.082-.274.082h-1.216c-.143 0-.24-.023-.29-.07-.051-.047-.076-.133-.076-.258 0-.123.031-.205.095-.25.062-.043.18-.066.354-.066h.16v-1.902c0-.355-.081-.627-.242-.814-.162-.188-.396-.281-.704-.281-.313 0-.589.105-.825.316-.235.209-.354.471-.354.779v1.902h.16c.183 0 .306.023.37.068.063.047.096.129.096.248 0 .125-.025.211-.075.258-.051.047-.146.07-.291.07h-1.215c-.119 0-.208-.027-.268-.082s-.09-.137-.09-.246c0-.123.036-.205.108-.25.071-.043.211-.066.418-.066h.097zM385.387 55.677h-1.742v-15.838h1.742v.321h-1.395v15.201h1.395zM397.212 29.126h-1.691l-2.838 34.383-3.465-10.886-1.477.757.179.317 1.073-.531 3.876 12.203 2.967-35.885h29.723v-.358h-2.386zM402.146 48.095h-2.25v.344h21.46v-.344h-2.248zM402.267 39.763l-.59 2.172c-.03.115-.076.195-.138.242-.061.045-.151.068-.273.068-.11 0-.195-.029-.256-.088-.062-.057-.116-.162-.165-.314l-1.046-3.332h-.041c-.128 0-.221-.025-.277-.074-.057-.051-.084-.135-.084-.254 0-.105.029-.184.089-.238s.147-.082.263-.082h1.221c.164 0 .275.023.333.07s.087.131.087.25l-.05.189-.128.098-.182.031-.249.01h-.265l.786 2.742.59-1.992c.033-.115.081-.197.142-.242.062-.045.15-.068.27-.068.109 0 .195.029.259.088.062.061.118.164.166.314l.572 1.9.754-2.742h-.306c-.211 0-.352-.023-.426-.07-.073-.047-.108-.133-.108-.258 0-.123.026-.207.082-.252.055-.045.161-.068.319-.068h1.226c.094 0 .165.027.212.082.048.055.07.133.07.238 0 .115-.026.197-.082.246-.055.049-.158.076-.311.082l-1.028 3.424c-.04.115-.089.195-.148.242-.06.045-.148.068-.268.068-.109 0-.196-.031-.261-.09-.063-.059-.117-.164-.16-.312l-.599-2.08zM408.061 39.851h3.743v.342h-3.743zM416.453 37.181l-.089.014-.053.004c-.094 0-.171-.025-.231-.08-.059-.053-.089-.123-.089-.211 0-.074.026-.137.078-.191.052-.057.126-.098.225-.125l1.356-.365.099-.021.099-.006c.058 0 .103.027.137.08.033.053.05.125.05.217v4.945h.731c.271 0 .444.021.517.066.073.045.11.127.11.248 0 .111-.031.193-.092.248-.062.055-.152.082-.274.082h-2.732c-.122 0-.214-.027-.274-.082-.062-.055-.092-.137-.092-.248 0-.121.037-.203.109-.248.073-.045.245-.066.517-.066h.759v-4.465l-.861.204zM402.267 56.501l-.59 2.17c-.03.117-.076.197-.138.244-.061.045-.151.068-.273.068-.11 0-.195-.029-.256-.088-.062-.057-.116-.162-.165-.314l-1.046-3.332h-.041c-.128 0-.221-.025-.277-.076s-.084-.135-.084-.254c0-.104.029-.182.089-.236.06-.057.147-.082.263-.082h1.221c.164 0 .275.023.333.07s.087.131.087.248l-.05.191-.128.098-.182.031-.249.01h-.265l.786 2.742.59-1.992c.033-.115.081-.197.142-.244.062-.045.15-.066.27-.066.109 0 .195.029.259.088.062.059.118.164.166.312l.572 1.902.754-2.742h-.306c-.211 0-.352-.023-.426-.07-.073-.049-.108-.135-.108-.26 0-.121.026-.205.082-.25.055-.047.161-.068.319-.068h1.226c.094 0 .165.025.212.082.048.055.07.133.07.236 0 .117-.026.199-.082.248-.055.049-.158.076-.311.082l-1.028 3.422c-.04.117-.089.197-.148.244-.06.045-.148.068-.268.068-.109 0-.196-.031-.261-.09-.063-.059-.117-.164-.16-.312l-.599-2.08zM411.804 56.931h-1.705v1.705h-.347v-1.705h-1.691v-.344h1.691v-1.693h.347v1.693h1.705zM416.453 53.919l-.089.014-.053.004c-.094 0-.171-.025-.231-.08-.059-.053-.089-.123-.089-.211 0-.074.026-.137.078-.193.052-.055.126-.096.225-.123l1.356-.365.099-.021.099-.006c.058 0 .103.025.137.08.033.053.05.125.05.217v4.945h.731c.271 0 .444.021.517.066.073.043.11.127.11.248 0 .111-.031.193-.092.248-.062.055-.152.082-.274.082h-2.732c-.122 0-.214-.027-.274-.082-.062-.055-.092-.137-.092-.248 0-.121.037-.205.109-.248.073-.045.245-.066.517-.066h.759v-4.467l-.861.206zM428.594 55.677h-1.742v-.316h1.393v-15.201h-1.393v-.321h1.742zM434.688 37.035v-.467c0-1.824-.124-3.254-.37-4.287-.253-1.057-.697-2.09-1.33-3.098h-.302c.628.998 1.056 2.027 1.284 3.09.211.975.315 2.406.315 4.295v24.083999999999996c0 1.889-.104 3.32-.315 4.295-.231 1.07-.659 2.1-1.284 3.09h.302c.633-1.008 1.077-2.041 1.33-3.098.246-1.033.37-2.463.37-4.287v-23.616999999999997z"/></g></svg>