<svg xmlns="http://www.w3.org/2000/svg" width="419.528" height="90.708" viewBox="0 0 419.528 90.708"><g fill-rule="evenodd" clip-rule="evenodd"><path fill="#454F99" d="M10.685 6.146h.884v6.456h-.884zM12.882 7.896h.752v.668c.222-.275.458-.473.707-.593.249-.12.526-.18.831-.18.668 0 1.119.233 1.353.699.129.255.194.619.194 1.094v3.019h-.805v-2.966c0-.287-.042-.519-.127-.695-.141-.293-.396-.439-.765-.439-.187 0-.341.019-.461.057-.217.064-.407.193-.571.387-.132.155-.218.315-.258.481-.039.165-.059.402-.059.71v2.465h-.791v-4.707zM17.869 6.103h1.688v.646h-.94v6.979h.94v.646h-1.688zM20.667 8.146v-.605c.572-.056.97-.149 1.196-.28.225-.13.394-.438.505-.925h.624v6.267h-.844v-4.457h-1.481zM28.077 8.655c.196-.195.295-.427.295-.697 0-.234-.094-.45-.282-.646-.187-.196-.473-.294-.857-.294-.38 0-.656.098-.826.294s-.255.426-.255.69c0 .296.11.527.33.694.22.167.479.251.778.251.348 0 .621-.098.817-.292zm.143 3.111c.242-.198.363-.493.363-.886 0-.407-.125-.716-.374-.927s-.568-.316-.958-.316c-.378 0-.686.107-.925.323-.239.215-.358.513-.358.894 0 .328.109.612.327.85.218.239.556.358 1.013.358.366 0 .67-.099.912-.296zm-2.552-2.847c-.232-.234-.347-.539-.347-.914 0-.468.17-.871.51-1.208.339-.337.821-.506 1.445-.506.604 0 1.077.159 1.42.477.343.318.514.689.514 1.114 0 .393-.1.711-.299.954-.111.138-.284.272-.518.404.26.12.465.258.615.413.278.293.417.674.417 1.143 0 .554-.186 1.023-.558 1.408s-.898.578-1.577.578c-.613 0-1.131-.167-1.554-.499-.423-.332-.635-.815-.635-1.448 0-.372.091-.693.272-.964.182-.271.452-.478.809-.622-.219-.093-.39-.204-.514-.33zM30.536 12.161c-.336-.408-.504-.906-.504-1.492h.827c.035.408.111.704.228.888.205.331.576.497 1.112.497.416 0 .75-.112 1.002-.334.252-.223.378-.51.378-.862 0-.433-.133-.736-.398-.909-.265-.173-.634-.26-1.105-.26l-.161.003-.164.006v-.699l.206.018.18.004c.296 0 .539-.046.73-.14.334-.164.501-.457.501-.879 0-.314-.112-.555-.334-.725-.223-.17-.482-.255-.778-.255-.527 0-.892.176-1.094.527-.112.194-.175.469-.189.826h-.782c0-.468.093-.867.281-1.195.322-.586.889-.879 1.7-.879.642 0 1.139.143 1.49.429.352.285.528.699.528 1.241 0 .387-.104.7-.312.941-.129.149-.296.266-.501.351.331.091.589.266.775.525.186.26.279.577.279.952 0 .6-.197 1.09-.593 1.467-.396.378-.957.567-1.683.567-.744-.001-1.284-.205-1.619-.613zM35.029 13.728h.936v-6.979h-.936v-.646h1.687v8.271h-1.687zM38.32 7.958h.918v.958h-.918v-.958zm0 3.687h.918v.958h-.918v-.958zM44.81 8.991v.738h-4.584v-.738h4.584zm0 1.884v.751h-4.584v-.751h4.584z"/><path d="M57.997 14.549c-1.769 0-2.653-.646-2.653-1.936v-2.12c0-.445-.377-.667-1.13-.667v-1.092c.753 0 1.13-.22 1.13-.66v-2.12c0-1.291.884-1.936 2.653-1.936v1.079c-1.016 0-1.523.273-1.523.819v2.145c0 .504-.208.91-.622 1.219.414.339.622.747.622 1.225v2.146c0 .546.507.819 1.523.819v1.079zM65.366 4.762c.064-.136.136-.229.216-.28.081-.05.203-.076.368-.076.246 0 .403.046.473.137.07.091.109.272.118.542l.025 1.219v.07c0 .25-.05.424-.149.524-.1.099-.268.149-.505.149-.3 0-.524-.161-.673-.483l-.05-.114c-.132-.262-.309-.46-.534-.593-.224-.134-.488-.2-.793-.2-.381 0-.689.088-.924.263-.234.176-.352.401-.352.676 0 .389.538.696 1.612.921l.432.088c.813.178 1.401.449 1.765.813.364.364.546.861.546 1.492 0 .778-.265 1.378-.794 1.799-.529.421-1.286.632-2.272.632-.385 0-.729-.026-1.032-.076-.302-.051-.595-.129-.879-.235-.068.11-.146.189-.235.238-.089.048-.211.073-.368.073-.267 0-.453-.051-.559-.152-.105-.102-.16-.281-.165-.54l-.025-1.492v-.07c0-.279.052-.474.155-.584.104-.11.285-.165.543-.165.275 0 .506.199.692.597l.102.222c.165.326.394.569.688.73.295.161.655.241 1.083.241.389 0 .692-.08.907-.241.216-.161.324-.387.324-.679 0-.453-.489-.796-1.466-1.028l-.692-.172c-.821-.216-1.39-.485-1.708-.809-.317-.324-.476-.767-.476-1.33 0-.724.272-1.315.816-1.774s1.247-.689 2.111-.689c.287 0 .57.03.847.089s.553.148.828.267zM72.469 10.753h1.365c.292 0 .499.053.622.159.123.105.184.281.184.526 0 .25-.062.43-.187.54s-.331.165-.619.165h-4.291c-.288 0-.494-.055-.619-.165s-.187-.29-.187-.54c0-.245.06-.421.181-.526.12-.106.329-.159.625-.159h1.365v-3.085h-.718c-.283 0-.486-.054-.609-.162-.123-.108-.184-.287-.184-.536 0-.25.059-.428.178-.534.118-.105.323-.158.615-.158h1.911c.118 0 .209.024.273.073.063.048.095.115.095.2v4.202zm-.914-7.343c.309 0 .514.059.616.177.101.119.152.402.152.851 0 .432-.045.699-.136.803-.091.104-.306.155-.645.155-.33 0-.542-.048-.638-.146-.095-.097-.142-.292-.142-.584 0-.541.048-.886.146-1.034.097-.149.313-.222.647-.222zM79.788 6.709c.177-.19.383-.335.615-.434.233-.1.483-.15.749-.15.576 0 .991.171 1.245.511.254.341.38.911.38 1.711v2.406h.089c.199 0 .348.058.448.174.099.117.149.287.149.511 0 .254-.052.435-.156.543-.103.108-.28.162-.53.162h-1.079c-.114 0-.203-.024-.266-.073-.064-.049-.095-.115-.095-.2v-3.585c0-.284-.045-.495-.134-.635s-.218-.21-.387-.21c-.212 0-.376.095-.492.283s-.174.458-.174.809v2.222h.095c.194 0 .343.058.444.174.102.117.152.287.152.511 0 .254-.052.435-.158.543s-.284.162-.533.162h-1.08c-.114 0-.205-.024-.273-.073-.067-.049-.101-.115-.101-.2v-3.586c0-.284-.042-.495-.127-.635s-.212-.21-.381-.21c-.211 0-.378.096-.498.286-.121.19-.181.459-.181.806v2.222h.095c.199 0 .348.057.448.171.099.115.149.286.149.514 0 .254-.053.435-.159.543-.106.108-.283.162-.533.162h-1.441c-.245 0-.421-.055-.527-.165-.106-.11-.159-.29-.159-.54 0-.224.05-.394.149-.511.1-.116.249-.174.447-.174h.089v-3.086h-.089c-.199 0-.35-.06-.454-.181-.104-.121-.155-.293-.155-.517 0-.246.054-.422.162-.53.108-.108.287-.162.537-.162h.857c.173 0 .291.035.352.105.062.069.092.204.092.403.157-.216.345-.38.565-.492.22-.113.466-.169.737-.169.245 0 .459.048.641.143.182.095.34.244.476.441zM85.976 11.546v1.727h.807c.287 0 .494.055.618.165.125.11.188.29.188.539 0 .246-.062.422-.184.527-.123.106-.33.159-.622.159h-2.692c-.292 0-.497-.052-.616-.155-.118-.104-.177-.281-.177-.531 0-.249.061-.429.181-.539.12-.11.324-.165.612-.165h.375v-5.605h-.102c-.224 0-.396-.059-.514-.178-.119-.118-.178-.292-.178-.52 0-.25.059-.428.178-.534.118-.105.324-.158.616-.158h.977c.123 0 .214.022.273.066.059.045.089.109.089.194v.457c.216-.288.477-.505.784-.651.307-.146.653-.219 1.038-.219.867 0 1.587.278 2.158.832.571.554.857 1.253.857 2.095 0 .88-.277 1.609-.832 2.186-.554.578-1.252.867-2.094.867-.343 0-.664-.048-.962-.143-.298-.094-.558-.233-.778-.416zm1.467-4.068c-.419 0-.764.155-1.035.464s-.406.704-.406 1.187c0 .482.135.878.406 1.187s.616.463 1.035.463.765-.155 1.038-.466c.273-.311.409-.706.409-1.184 0-.483-.135-.878-.406-1.187s-.618-.464-1.041-.464zM95.764 10.753h1.365c.292 0 .497.053.616.159.118.105.177.281.177.526 0 .25-.06.43-.18.54-.121.11-.325.165-.613.165h-4.304c-.283 0-.485-.055-.606-.165s-.181-.29-.181-.54c0-.249.058-.426.175-.53.116-.103.32-.155.612-.155h1.365v-5.51h-.698c-.288 0-.494-.056-.619-.168-.125-.112-.187-.291-.187-.536 0-.25.061-.43.184-.54.122-.11.33-.165.622-.165h1.898c.118 0 .21.024.276.073.065.049.098.115.098.2v6.646zM103.673 10.753h1.365c.292 0 .499.053.622.159.123.105.184.281.184.526 0 .25-.062.43-.187.54s-.331.165-.619.165h-4.291c-.288 0-.494-.055-.619-.165s-.187-.29-.187-.54c0-.245.06-.421.181-.526.12-.106.329-.159.625-.159h1.365v-3.085h-.718c-.283 0-.486-.054-.609-.162-.123-.108-.184-.287-.184-.536 0-.25.059-.428.178-.534.118-.105.323-.158.615-.158h1.911c.118 0 .209.024.273.073.063.048.095.115.095.2v4.202zm-.914-7.343c.309 0 .514.059.616.177.101.119.152.402.152.851 0 .432-.045.699-.136.803-.091.104-.306.155-.645.155-.33 0-.542-.048-.638-.146-.095-.097-.142-.292-.142-.584 0-.541.048-.886.146-1.034.096-.149.313-.222.647-.222zM110.992 6.462h1.364c.292 0 .5.054.623.162.122.108.184.284.184.53 0 .245-.063.423-.188.533-.124.11-.331.165-.619.165h-1.364v2.901h1.263c.292 0 .499.053.622.159.123.105.184.281.184.526 0 .25-.062.43-.187.54s-.331.165-.619.165h-3.498c-.292 0-.499-.055-.622-.165-.122-.11-.184-.29-.184-.54 0-.245.06-.421.181-.526.121-.106.329-.159.625-.159h.673v-2.9h-.673c-.292 0-.499-.055-.622-.165-.122-.11-.184-.288-.184-.533 0-.25.06-.428.181-.533.121-.106.329-.159.625-.159h.673v-.362c0-.829.214-1.419.641-1.768.428-.349 1.156-.523 2.184-.523.533 0 .926.063 1.177.19.252.127.378.324.378.59 0 .178-.056.32-.168.426-.112.105-.264.158-.454.158-.14 0-.337-.019-.594-.057-.256-.038-.434-.057-.536-.057-.393 0-.67.088-.828.263-.159.176-.238.486-.238.93v.209zM117.269 7.668l1.143 2.704 1.2-2.704h-.102c-.229 0-.403-.059-.524-.178-.12-.118-.181-.292-.181-.52 0-.25.061-.428.181-.534.121-.105.329-.158.626-.158h1.491c.296 0 .505.054.626.162.12.108.18.284.18.53 0 .228-.059.402-.177.52-.119.119-.292.178-.521.178h-.108l-2.609 5.605h.286c.288 0 .494.055.619.165s.187.29.187.539c0 .246-.062.424-.187.534-.125.11-.331.165-.619.165h-2.78c-.292 0-.5-.054-.622-.162-.123-.108-.184-.287-.184-.537 0-.249.061-.429.184-.539.122-.11.33-.165.622-.165h.984l.596-1.276-1.923-4.329h-.102c-.228 0-.403-.059-.523-.178-.121-.118-.181-.292-.181-.52 0-.25.061-.428.184-.534.123-.105.33-.158.622-.158h1.612c.292 0 .5.054.622.162.123.108.184.284.184.53 0 .228-.06.402-.18.52-.121.119-.294.178-.518.178h-.108zM128.36 14.587h-2.805v-10.53h2.805v1.091h-1.675v8.348h1.675z"/><path fill="#002CC3" d="M133.706 8.696v2.057h1.498c.288 0 .492.053.612.159.121.105.181.281.181.526 0 .25-.06.43-.181.54-.12.11-.324.165-.612.165h-3.548c-.292 0-.5-.055-.623-.165-.122-.11-.184-.29-.184-.54 0-.245.061-.421.181-.526.121-.106.329-.159.626-.159h.482v-3.085h-.273c-.288 0-.492-.054-.613-.162-.12-.108-.18-.287-.18-.536 0-.25.058-.428.174-.534.116-.105.323-.158.619-.158h1.352c.114 0 .203.024.267.073.063.048.095.115.095.2v.939c.461-.495.892-.848 1.292-1.06.4-.211.83-.317 1.291-.317.419 0 .751.094.997.282.245.189.368.441.368.759 0 .245-.085.447-.254.606-.169.159-.387.238-.654.238-.19 0-.415-.07-.676-.209-.26-.14-.441-.21-.542-.21-.203 0-.443.091-.718.273s-.601.463-.977.844zM140.066 9.585c.11.47.323.821.638 1.054.315.232.735.349 1.26.349s1.043-.128 1.555-.384.821-.384.927-.384c.156 0 .284.058.384.174.099.117.149.266.149.448 0 .398-.294.74-.882 1.028-.589.288-1.316.432-2.184.432-1.024 0-1.857-.288-2.498-.864-.641-.575-.961-1.316-.961-2.221 0-.902.32-1.64.961-2.216.641-.575 1.474-.863 2.498-.863.914 0 1.672.27 2.273.809.6.54.901 1.201.901 1.984 0 .25-.06.421-.181.514-.121.093-.369.14-.746.14h-4.094zm3.421-.989c-.072-.394-.257-.699-.555-.914-.298-.216-.687-.324-1.165-.324-.461 0-.833.102-1.114.308-.281.205-.477.515-.587.93h3.421zM147.918 12.055c-.11.084-.224.149-.34.194-.116.044-.236.066-.359.066-.182 0-.31-.048-.384-.146-.074-.097-.111-.279-.111-.546v-.844c0-.279.047-.477.14-.593.093-.117.254-.175.482-.175.25 0 .453.121.61.362l.235.292c.207.186.448.326.723.419.275.093.588.14.94.14.304 0 .548-.06.73-.178.182-.119.273-.273.273-.464 0-.342-.489-.579-1.467-.71l-.507-.07c-.737-.102-1.285-.302-1.645-.6-.359-.298-.539-.699-.539-1.203 0-.597.216-1.058.647-1.384.432-.326 1.048-.489 1.848-.489.275 0 .557.023.847.067.29.045.587.113.892.206.089-.105.183-.184.282-.234.1-.051.211-.077.334-.077.173 0 .305.054.396.162.091.108.137.27.137.486v.781c0 .182-.047.322-.14.422-.093.099-.224.149-.393.149-.174 0-.471-.151-.892-.454-.421-.303-.843-.454-1.267-.454-.33 0-.586.054-.768.162-.182.108-.273.257-.273.448 0 .296.381.495 1.143.596l.52.064c.957.139 1.614.348 1.971.625.358.277.537.689.537 1.235 0 .639-.236 1.133-.708 1.482s-1.142.523-2.009.523c-.339 0-.664-.022-.978-.066-.313-.045-.615-.11-.907-.194zM158.397 7.668h-.101c-.229 0-.401-.059-.518-.178-.116-.118-.174-.292-.174-.52 0-.25.059-.428.178-.534.118-.105.323-.158.615-.158h1.2c.114 0 .203.024.267.073.063.048.095.115.095.2v4.202h.101c.229 0 .404.059.524.178.121.118.181.287.181.507 0 .254-.061.435-.184.543s-.33.162-.622.162h-1.066c-.119 0-.211-.025-.277-.076-.065-.051-.098-.121-.098-.21v-.482c-.203.305-.452.533-.746.686-.294.152-.64.229-1.038.229-.681 0-1.187-.205-1.517-.616-.33-.41-.495-1.039-.495-1.885v-2.12h-.108c-.228 0-.402-.059-.52-.178-.119-.118-.178-.292-.178-.52 0-.25.06-.428.181-.534.12-.105.329-.158.625-.158h1.193c.115 0 .201.024.261.073.059.048.089.115.089.2v2.951c0 .521.072.887.215 1.099.144.211.381.317.711.317.352 0 .64-.13.867-.39.226-.261.339-.602.339-1.026v-1.835zM165.976 10.753h1.365c.292 0 .497.053.616.159.118.105.177.281.177.526 0 .25-.06.43-.18.54-.121.11-.325.165-.613.165h-4.304c-.283 0-.485-.055-.606-.165s-.181-.29-.181-.54c0-.249.058-.426.175-.53.116-.103.32-.155.612-.155h1.365v-5.51h-.698c-.288 0-.494-.056-.619-.168-.125-.112-.187-.291-.187-.536 0-.25.061-.43.184-.54.122-.11.33-.165.622-.165h1.898c.118 0 .21.024.276.073.065.049.098.115.098.2v6.646zM172.558 6.633h1.937c.292 0 .499.053.622.159.122.106.184.281.184.527 0 .249-.063.429-.188.539-.124.11-.331.165-.618.165h-1.937v1.625c0 .457.07.771.21.94.14.169.385.254.736.254.33 0 .72-.095 1.168-.286.449-.19.749-.286.902-.286.173 0 .322.069.447.207.125.137.187.303.187.498 0 .326-.295.623-.885.892-.59.269-1.26.403-2.009.403-.436 0-.819-.059-1.149-.178-.33-.118-.59-.288-.781-.508-.139-.169-.239-.372-.298-.609s-.089-.633-.089-1.187v-1.7650000000000001h-.597c-.287 0-.492-.055-.612-.165-.121-.11-.181-.29-.181-.539 0-.25.059-.427.178-.53.118-.104.323-.156.615-.156h.597v-1.485c0-.292.06-.497.181-.616.12-.118.32-.178.6-.178.279 0 .479.06.6.178.12.119.18.324.18.616v1.485zM179.953 10.715h2.222v-.038c0-.216.058-.377.174-.483.117-.106.289-.158.518-.158.186 0 .33.051.431.155.102.104.153.251.153.441v.083l-.051.985c-.008.194-.039.317-.092.368-.053.051-.147.076-.283.076h-4.563c-.246 0-.435-.053-.569-.159-.133-.105-.2-.256-.2-.45 0-.161.042-.319.124-.473.083-.155.215-.319.397-.492l2.583-2.495c.28-.271.488-.542.626-.812.137-.271.206-.542.206-.813 0-.381-.092-.664-.276-.85-.184-.187-.465-.28-.841-.28-.22 0-.416.033-.587.099-.172.065-.304.157-.397.276l-.184.273c-.203.33-.428.495-.673.495-.212 0-.371-.07-.479-.21-.108-.139-.162-.347-.162-.622 0-.283.034-.495.101-.634.068-.14.204-.28.407-.419.33-.22.678-.383 1.044-.489.366-.106.763-.159 1.19-.159.8 0 1.434.216 1.901.648.468.431.702 1.011.702 1.739 0 .487-.122.953-.365 1.4-.244.446-.621.891-1.133 1.336l-1.924 1.662zM190.484 6.622c.05-.166.13-.289.238-.372.108-.082.246-.124.416-.124.228 0 .391.069.488.207.098.137.146.375.146.714v1.041c0 .258-.053.448-.158.571-.106.123-.269.184-.489.184-.157 0-.288-.036-.394-.108-.106-.072-.218-.209-.336-.412-.169-.288-.392-.501-.667-.638-.275-.138-.611-.207-1.009-.207-.495 0-.9.162-1.216.486-.315.324-.472.737-.472 1.241 0 .529.163.954.488 1.276.326.322.764.482 1.314.482.5 0 .996-.138 1.489-.415.493-.278.794-.416.904-.416.157 0 .287.06.391.181.103.12.155.272.155.454 0 .397-.301.753-.904 1.066s-1.32.47-2.149.47c-1.024 0-1.857-.288-2.498-.864-.641-.575-.961-1.316-.961-2.221 0-.885.317-1.621.952-2.209.635-.588 1.434-.883 2.399-.883.326 0 .643.041.952.121.309.08.616.205.921.375zM196.399 7.478c-.495 0-.902.162-1.221.486-.32.324-.48.737-.48 1.241 0 .508.16.928.48 1.26.319.332.726.498 1.221.498.496 0 .904-.166 1.226-.498.321-.332.482-.752.482-1.26 0-.504-.16-.917-.479-1.241-.32-.324-.729-.486-1.229-.486zm0-1.339c1.029 0 1.862.288 2.501.863.639.576.959 1.314.959 2.216 0 .905-.32 1.646-.959 2.221-.639.576-1.472.864-2.501.864-1.024 0-1.855-.288-2.494-.864-.639-.575-.959-1.316-.959-2.221 0-.902.321-1.64.962-2.216.641-.576 1.472-.863 2.491-.863zM206.866 10.741h.083c.237 0 .415.058.533.175.119.116.178.291.178.523 0 .25-.06.43-.181.54-.121.11-.325.165-.613.165h-1.561c-.284 0-.488-.055-.613-.165-.124-.11-.187-.29-.187-.54 0-.232.06-.407.181-.523.121-.117.302-.175.543-.175h.076v-1.834c0-.508-.071-.869-.213-1.083-.141-.213-.377-.32-.707-.32-.352 0-.638.128-.861.384-.222.256-.333.596-.333 1.019v1.834h.076c.242 0 .421.058.54.175.118.116.178.291.178.523 0 .25-.062.43-.184.54-.123.11-.326.165-.61.165h-1.574c-.284 0-.487-.055-.609-.165-.123-.11-.184-.29-.184-.54 0-.232.059-.407.177-.523.119-.117.299-.175.54-.175h.076v-3.073h-.108c-.228 0-.402-.058-.52-.175-.119-.116-.178-.286-.178-.511 0-.249.061-.429.184-.539.123-.11.33-.165.622-.165h1.079c.119 0 .208.023.27.07.061.046.092.114.092.203v.495c.195-.305.443-.534.746-.689.302-.154.652-.232 1.05-.232.677 0 1.182.206 1.514.616.332.411.498 1.037.498 1.879v2.121zM214.706 10.753h.107c.229 0 .399.058.515.174.114.117.171.287.171.511 0 .25-.06.43-.181.54-.12.11-.325.165-.612.165h-.972c-.122 0-.217-.024-.282-.073-.066-.049-.098-.115-.098-.2v-.444c-.208.283-.475.5-.8.65-.326.15-.692.226-1.099.226-.83 0-1.524-.283-2.082-.848-.559-.565-.838-1.27-.838-2.117 0-.88.282-1.61.847-2.19.565-.579 1.283-.869 2.155-.869.301 0 .594.049.879.149.286.099.547.24.784.422v-1.605h-.844c-.292 0-.499-.056-.622-.168-.123-.112-.185-.291-.185-.536 0-.25.062-.43.185-.54s.33-.165.622-.165h1.974c.145 0 .242.03.295.089.054.059.08.169.08.33v6.499zm-2.977-3.123c-.415 0-.759.155-1.032.466-.273.311-.409.706-.409 1.184 0 .491.135.892.406 1.203.271.311.616.467 1.035.467.418 0 .764-.157 1.037-.47.272-.313.409-.713.409-1.2 0-.474-.138-.867-.412-1.18-.275-.313-.62-.47-1.034-.47z"/><path d="M219.482 9.948h1.51l.162.038.061.101-.016.08-.041.104-1.898 3.72c-.029.068-.071.122-.127.162-.055.04-.116.06-.184.06l-.061-.009-.066-.016-.483-.171-.165-.105-.057-.143.003-.105.01-.066.901-3.301c.038-.144.088-.238.149-.283.062-.044.161-.066.302-.066zM239.32 10.753h.107c.229 0 .402.058.521.174.119.117.178.287.178.511 0 .25-.062.43-.187.54-.125.11-.332.165-.619.165h-1.911c-.292 0-.499-.054-.622-.162s-.184-.289-.184-.543c0-.245.061-.421.184-.526.123-.106.33-.159.622-.159h.222l-.26-.743h-2.742l-.272.743h.222c.288 0 .494.054.619.162s.187.282.187.523c0 .25-.062.43-.187.54s-.331.165-.619.165h-1.638c-.292 0-.499-.055-.622-.165s-.184-.29-.184-.54c0-.224.059-.394.178-.511.118-.116.292-.174.52-.174h.108l1.701-4.735h-.508c-.287 0-.493-.056-.618-.166s-.188-.287-.188-.533c0-.249.063-.429.188-.539.125-.11.331-.165.618-.165h2.381c.377 0 .641.203.793.609v.019l2.012 5.51zm-3.326-4.734l-.921 2.678h1.841l-.92-2.678zM242.246 12.055c-.109.084-.224.149-.34.194-.116.044-.236.066-.359.066-.182 0-.31-.048-.384-.146-.074-.097-.111-.279-.111-.546v-.844c0-.279.048-.477.141-.593.093-.117.254-.175.481-.175.25 0 .453.121.61.362l.235.292c.207.186.447.326.723.419s.588.14.94.14c.304 0 .548-.06.729-.178.182-.119.273-.273.273-.464 0-.342-.489-.579-1.468-.71l-.507-.07c-.736-.102-1.285-.302-1.645-.6-.359-.298-.539-.699-.539-1.203 0-.597.216-1.058.646-1.384.433-.326 1.049-.489 1.849-.489.274 0 .557.023.847.067.29.045.587.113.893.206.089-.105.183-.184.281-.234.101-.051.211-.077.334-.077.173 0 .306.054.396.162s.137.27.137.486v.781c0 .182-.047.322-.14.422-.093.099-.225.149-.394.149-.174 0-.471-.151-.892-.454-.421-.303-.843-.454-1.268-.454-.329 0-.586.054-.768.162-.182.108-.273.257-.273.448 0 .296.382.495 1.144.596l.52.064c.957.139 1.614.348 1.972.625.357.277.537.689.537 1.235 0 .639-.236 1.133-.708 1.482-.473.349-1.143.523-2.01.523-.339 0-.664-.022-.978-.066-.311-.045-.612-.11-.904-.194zM250.046 12.055c-.109.084-.224.149-.34.194-.116.044-.235.066-.358.066-.183 0-.311-.048-.385-.146-.073-.097-.11-.279-.11-.546v-.844c0-.279.047-.477.14-.593.093-.117.254-.175.482-.175.25 0 .452.121.609.362l.235.292c.207.186.448.326.723.419.275.093.588.14.94.14.304 0 .548-.06.729-.178.183-.119.273-.273.273-.464 0-.342-.489-.579-1.467-.71l-.508-.07c-.736-.102-1.284-.302-1.645-.6-.359-.298-.539-.699-.539-1.203 0-.597.216-1.058.647-1.384.432-.326 1.048-.489 1.848-.489.275 0 .557.023.847.067.29.045.587.113.893.206.089-.105.183-.184.281-.234.101-.051.212-.077.334-.077.174 0 .306.054.396.162s.137.27.137.486v.781c0 .182-.047.322-.14.422-.093.099-.224.149-.394.149-.174 0-.471-.151-.892-.454-.421-.303-.843-.454-1.267-.454-.33 0-.586.054-.769.162-.182.108-.272.257-.272.448 0 .296.381.495 1.143.596l.521.064c.957.139 1.613.348 1.971.625.358.277.537.689.537 1.235 0 .639-.236 1.133-.708 1.482-.473.349-1.143.523-2.009.523-.34 0-.664-.022-.979-.066-.309-.045-.612-.11-.904-.194zM260.526 7.668h-.102c-.229 0-.4-.059-.518-.178-.116-.118-.174-.292-.174-.52 0-.25.059-.428.178-.534.118-.105.323-.158.615-.158h1.2c.113 0 .203.024.267.073.063.048.095.115.095.2v4.202h.102c.229 0 .403.059.523.178.121.118.182.287.182.507 0 .254-.062.435-.185.543s-.33.162-.622.162h-1.065c-.119 0-.211-.025-.277-.076-.064-.051-.098-.121-.098-.21v-.482c-.203.305-.452.533-.746.686s-.64.229-1.038.229c-.681 0-1.188-.205-1.517-.616-.33-.41-.495-1.039-.495-1.885v-2.12h-.108c-.228 0-.402-.059-.52-.178-.119-.118-.179-.292-.179-.52 0-.25.061-.428.182-.534.12-.105.329-.158.625-.158h1.192c.115 0 .201.024.262.073.059.048.089.115.089.2v2.951c0 .521.071.887.215 1.099.144.211.381.317.711.317.352 0 .64-.13.867-.39.226-.261.339-.602.339-1.026v-1.835zM267.731 6.709c.177-.19.383-.335.615-.434.232-.1.482-.15.749-.15.575 0 .99.171 1.244.511.254.341.381.911.381 1.711v2.406h.089c.198 0 .348.058.447.174.1.117.149.287.149.511 0 .254-.052.435-.156.543-.103.108-.279.162-.529.162h-1.079c-.114 0-.203-.024-.267-.073s-.095-.115-.095-.2v-3.585c0-.284-.045-.495-.134-.635s-.219-.21-.388-.21c-.212 0-.376.095-.491.283-.116.188-.175.458-.175.809v2.222h.096c.193 0 .343.058.443.174.103.117.152.287.152.511 0 .254-.052.435-.158.543-.105.108-.284.162-.533.162h-1.079c-.114 0-.205-.024-.273-.073-.067-.049-.101-.115-.101-.2v-3.586c0-.284-.042-.495-.128-.635-.085-.14-.212-.21-.381-.21-.211 0-.378.096-.498.286-.121.19-.181.459-.181.806v2.222h.095c.199 0 .349.057.448.171.099.115.149.286.149.514 0 .254-.054.435-.159.543-.106.108-.283.162-.533.162h-1.44c-.245 0-.422-.055-.527-.165s-.159-.29-.159-.54c0-.224.05-.394.149-.511.1-.116.249-.174.447-.174h.09v-3.086h-.09c-.198 0-.35-.06-.453-.181-.104-.121-.155-.293-.155-.517 0-.246.054-.422.161-.53.108-.108.287-.162.537-.162h.856c.173 0 .291.035.353.105.062.069.092.204.092.403.156-.216.345-.38.564-.492.221-.113.466-.169.737-.169.245 0 .459.048.641.143.184.095.342.244.478.441zM273.918 11.546v1.727h.808c.287 0 .494.055.617.165.125.11.188.29.188.539 0 .246-.062.422-.184.527-.123.106-.33.159-.622.159h-2.692c-.292 0-.497-.052-.616-.155-.118-.104-.177-.281-.177-.531 0-.249.06-.429.181-.539.12-.11.324-.165.612-.165h.375v-5.605h-.102c-.225 0-.396-.059-.515-.178-.119-.118-.178-.292-.178-.52 0-.25.059-.428.178-.534.118-.105.324-.158.616-.158h.978c.122 0 .214.022.272.066.059.045.089.109.089.194v.457c.216-.288.478-.505.784-.651s.653-.219 1.038-.219c.867 0 1.587.278 2.158.832.57.554.856 1.253.856 2.095 0 .88-.276 1.609-.832 2.186-.554.578-1.252.867-2.094.867-.343 0-.664-.048-.962-.143-.295-.094-.555-.233-.776-.416zm1.468-4.068c-.42 0-.765.155-1.035.464-.271.309-.406.704-.406 1.187 0 .482.135.878.406 1.187.271.309.615.463 1.035.463.419 0 .765-.155 1.037-.466.273-.311.409-.706.409-1.184 0-.483-.135-.878-.406-1.187-.27-.31-.617-.464-1.04-.464zM282.488 6.633h1.937c.292 0 .499.053.622.159.122.106.185.281.185.527 0 .249-.063.429-.188.539-.124.11-.331.165-.618.165h-1.937v1.625c0 .457.07.771.21.94s.385.254.736.254c.33 0 .72-.095 1.168-.286.448-.19.749-.286.901-.286.173 0 .322.069.447.207.125.137.188.303.188.498 0 .326-.296.623-.886.892-.59.269-1.26.403-2.009.403-.436 0-.819-.059-1.148-.178-.33-.118-.591-.288-.781-.508-.14-.169-.239-.372-.298-.609-.06-.237-.09-.633-.09-1.187v-1.7650000000000001h-.597c-.287 0-.492-.055-.612-.165s-.181-.29-.181-.539c0-.25.06-.427.178-.53.118-.104.323-.156.615-.156h.597v-1.485c0-.292.061-.497.182-.616.12-.118.319-.178.6-.178.279 0 .479.06.601.178.119.119.18.324.18.616v1.485zM291.616 10.753h1.365c.292 0 .499.053.622.159.123.105.184.281.184.526 0 .25-.062.43-.187.54s-.331.165-.619.165h-4.291c-.288 0-.494-.055-.619-.165s-.188-.29-.188-.54c0-.245.061-.421.182-.526.12-.106.329-.159.625-.159h1.365v-3.085h-.719c-.282 0-.485-.054-.608-.162-.123-.108-.185-.287-.185-.536 0-.25.06-.428.179-.534.117-.105.322-.158.614-.158h1.911c.118 0 .209.024.273.073.062.048.095.115.095.2v4.202zm-.914-7.343c.31 0 .514.059.616.177.101.119.152.402.152.851 0 .432-.046.699-.137.803s-.306.155-.645.155c-.33 0-.542-.048-.639-.146-.095-.097-.142-.292-.142-.584 0-.541.048-.886.146-1.034.099-.149.315-.222.649-.222zM298.528 7.478c-.495 0-.902.162-1.221.486-.32.324-.48.737-.48 1.241 0 .508.16.928.48 1.26.318.332.726.498 1.221.498.496 0 .904-.166 1.226-.498s.482-.752.482-1.26c0-.504-.16-.917-.479-1.241-.32-.324-.729-.486-1.229-.486zm0-1.339c1.029 0 1.862.288 2.501.863.639.576.959 1.314.959 2.216 0 .905-.32 1.646-.959 2.221-.639.576-1.472.864-2.501.864-1.024 0-1.855-.288-2.494-.864-.639-.575-.959-1.316-.959-2.221 0-.902.321-1.64.962-2.216.64-.576 1.471-.863 2.491-.863zM308.995 10.741h.083c.237 0 .415.058.533.175.119.116.178.291.178.523 0 .25-.06.43-.181.54s-.325.165-.613.165h-1.561c-.284 0-.488-.055-.613-.165-.124-.11-.188-.29-.188-.54 0-.232.061-.407.182-.523.121-.117.302-.175.543-.175h.076v-1.834c0-.508-.071-.869-.213-1.083-.142-.213-.378-.32-.707-.32-.353 0-.639.128-.861.384-.222.256-.333.596-.333 1.019v1.834h.076c.242 0 .421.058.54.175.118.116.178.291.178.523 0 .25-.062.43-.184.54-.123.11-.326.165-.61.165h-1.574c-.284 0-.487-.055-.609-.165s-.184-.29-.184-.54c0-.232.06-.407.177-.523.119-.117.3-.175.54-.175h.076v-3.073h-.107c-.229 0-.402-.058-.521-.175-.119-.116-.178-.286-.178-.511 0-.249.061-.429.184-.539.123-.11.33-.165.622-.165h1.079c.119 0 .208.023.271.07.061.046.092.114.092.203v.495c.194-.305.442-.534.746-.689.302-.154.651-.232 1.05-.232.677 0 1.182.206 1.514.616.332.411.498 1.037.498 1.879v2.121zM312.455 12.055c-.109.084-.224.149-.34.194-.116.044-.236.066-.359.066-.182 0-.31-.048-.384-.146-.074-.097-.11-.279-.11-.546v-.844c0-.279.047-.477.14-.593.093-.117.254-.175.481-.175.25 0 .453.121.61.362l.235.292c.207.186.447.326.723.419s.588.14.94.14c.304 0 .548-.06.729-.178.182-.119.273-.273.273-.464 0-.342-.489-.579-1.468-.71l-.507-.07c-.736-.102-1.285-.302-1.645-.6-.359-.298-.539-.699-.539-1.203 0-.597.216-1.058.646-1.384.433-.326 1.049-.489 1.849-.489.274 0 .557.023.847.067.29.045.587.113.893.206.089-.105.183-.184.281-.234.101-.051.211-.077.334-.077.173 0 .306.054.396.162s.137.27.137.486v.781c0 .182-.047.322-.14.422-.093.099-.225.149-.394.149-.174 0-.471-.151-.892-.454-.421-.303-.843-.454-1.268-.454-.329 0-.586.054-.768.162-.182.108-.272.257-.272.448 0 .296.381.495 1.143.596l.52.064c.957.139 1.614.348 1.972.625.357.277.537.689.537 1.235 0 .639-.236 1.133-.708 1.482-.473.349-1.143.523-2.01.523-.339 0-.664-.022-.978-.066-.311-.045-.612-.11-.904-.194zM322.558 8.709h6.163l-1.39-1.39.806-.805 2.741 2.755-2.741 2.773-.806-.807 1.39-1.389h-6.163zM339.295 5.357c-.447 0-.803.246-1.062.737-.26.491-.391 1.168-.391 2.031 0 .876.13 1.56.388 2.053.258.493.613.74 1.065.74.453 0 .811-.247 1.07-.74.26-.493.39-1.177.39-2.053 0-.863-.13-1.54-.39-2.031-.259-.49-.616-.737-1.07-.737zm-.011-1.427c.973 0 1.745.378 2.317 1.133.57.756.856 1.781.856 3.076 0 1.299-.286 2.326-.856 3.081-.572.756-1.345 1.133-2.317 1.133-.965 0-1.729-.377-2.295-1.133-.565-.755-.847-1.782-.847-3.081 0-1.3.281-2.326.847-3.079s1.33-1.13 2.295-1.13zM353.701 12.816l-5.63-3.535 5.63-3.524v1.303l-3.599 2.221 3.599 2.24z"/><path fill="#002CC3" d="M361.299 7.668l.509 3.123.679-2.419c.072-.253.163-.421.272-.501.11-.08.273-.121.488-.121.216 0 .379.039.489.115.11.076.203.245.28.507l.704 2.419.482-3.123h-.107c-.229 0-.402-.059-.521-.178-.118-.118-.178-.292-.178-.52 0-.25.061-.428.181-.534.121-.105.329-.158.626-.158h1.491c.292 0 .5.054.622.162.123.108.184.284.184.53 0 .228-.06.402-.181.52-.12.119-.293.178-.518.178h-.107l-.793 4.005c-.043.22-.141.38-.292.479-.153.1-.375.15-.667.15-.287 0-.508-.05-.66-.15-.152-.099-.262-.259-.33-.479l-.743-2.469-.66 2.469c-.055.212-.165.369-.329.473-.165.104-.39.156-.674.156-.292 0-.512-.05-.66-.15-.147-.099-.242-.259-.285-.479l-.807-4.005h-.107c-.225 0-.395-.059-.512-.178-.115-.118-.174-.292-.174-.52 0-.246.06-.422.179-.53.118-.108.322-.162.614-.162h1.505c.292 0 .497.054.615.162.119.108.178.284.178.53 0 .228-.058.402-.174.52-.117.119-.287.178-.511.178h-.108z"/><path d="M378 12.816l-5.629-3.535 5.629-3.524v1.303l-3.598 2.221 3.598 2.24zM388.165 10.792h1.029c.283 0 .488.053.615.159.127.105.19.279.19.52 0 .237-.062.409-.184.514-.123.106-.33.159-.622.159h-3.745c-.292 0-.5-.053-.623-.159-.122-.105-.184-.277-.184-.514 0-.241.062-.415.188-.52.124-.106.331-.159.619-.159h1.18v-5.357l-.711.184-.272.057-.158.019c-.174 0-.308-.055-.403-.165-.096-.11-.143-.267-.143-.47 0-.148.053-.273.158-.374.105-.102.269-.18.488-.235l1.574-.432.324-.076.21-.026c.169 0 .289.047.361.14.071.093.107.25.107.47v6.265zM395.643 14.587h-2.812v-1.091h1.682v-8.348h-1.682v-1.091h2.812zM402.479 9.948h1.51l.162.038.061.101-.016.08-.041.104-1.898 3.72c-.029.068-.071.122-.127.162-.055.04-.116.06-.184.06l-.062-.009-.065-.016-.483-.171-.165-.105-.057-.143.003-.105.01-.066.901-3.301c.038-.144.088-.238.149-.283.062-.044.161-.066.302-.066zM65.866 21.012c.064-.136.136-.229.216-.28.081-.05.203-.076.368-.076.246 0 .403.046.473.137.07.091.109.272.118.542l.025 1.219v.07c0 .25-.05.424-.149.524-.1.099-.268.149-.505.149-.3 0-.524-.161-.673-.483l-.05-.114c-.132-.262-.309-.46-.534-.593-.224-.134-.488-.2-.793-.2-.381 0-.689.088-.924.263-.234.176-.352.401-.352.676 0 .389.538.696 1.612.921l.432.088c.813.178 1.401.449 1.765.813.364.364.546.861.546 1.492 0 .778-.265 1.378-.794 1.799-.529.421-1.286.632-2.272.632-.385 0-.729-.026-1.032-.076-.302-.051-.595-.129-.879-.235-.068.109-.146.189-.235.238-.089.048-.211.073-.368.073-.267 0-.453-.051-.559-.152-.105-.102-.16-.281-.165-.54l-.025-1.492v-.07c0-.279.052-.474.155-.584.104-.11.285-.165.543-.165.275 0 .506.199.692.597l.102.222c.165.326.394.569.688.73.295.161.655.241 1.083.241.389 0 .692-.08.907-.241.216-.161.324-.387.324-.679 0-.453-.489-.796-1.466-1.028l-.692-.172c-.821-.216-1.39-.485-1.708-.809-.317-.324-.476-.767-.476-1.33 0-.724.272-1.315.816-1.774s1.247-.689 2.111-.689c.287 0 .57.03.847.089s.553.148.828.267zM72.969 27.003h1.365c.292 0 .499.053.622.159.123.105.184.281.184.526 0 .25-.062.43-.187.54s-.331.165-.619.165h-4.291c-.288 0-.494-.055-.619-.165s-.187-.29-.187-.54c0-.245.06-.421.181-.526.12-.106.329-.159.625-.159h1.365v-3.085h-.718c-.283 0-.486-.054-.609-.162-.123-.108-.184-.287-.184-.536 0-.25.059-.428.178-.534.118-.105.323-.158.615-.158h1.911c.118 0 .209.024.273.073.063.048.095.115.095.2v4.202zm-.914-7.343c.309 0 .514.059.616.177.101.119.152.402.152.851 0 .432-.045.699-.136.803-.091.104-.306.155-.645.155-.33 0-.542-.048-.638-.146-.095-.097-.142-.292-.142-.584 0-.541.048-.886.146-1.034.097-.149.313-.222.647-.222zM80.288 22.959c.177-.19.383-.335.615-.434.233-.1.483-.15.749-.15.576 0 .991.171 1.245.511.254.341.38.911.38 1.711v2.406h.089c.199 0 .348.058.448.174.099.117.149.287.149.511 0 .254-.052.435-.156.543-.103.108-.28.162-.53.162h-1.079c-.114 0-.203-.024-.266-.073-.064-.049-.095-.115-.095-.2v-3.586c0-.284-.045-.495-.134-.635s-.218-.21-.387-.21c-.212 0-.376.095-.492.283s-.174.458-.174.809v2.222h.095c.194 0 .343.058.444.174.102.117.152.287.152.511 0 .254-.052.435-.158.543s-.284.162-.533.162h-1.08c-.114 0-.205-.024-.273-.073-.067-.049-.101-.115-.101-.2v-3.586c0-.284-.042-.495-.127-.635s-.212-.21-.381-.21c-.211 0-.378.096-.498.286-.121.19-.181.459-.181.806v2.222h.095c.199 0 .348.057.448.171.099.115.149.286.149.514 0 .254-.053.435-.159.543-.106.108-.283.162-.533.162h-1.441c-.245 0-.421-.055-.527-.165s-.159-.29-.159-.54c0-.224.05-.394.149-.511.1-.116.249-.174.447-.174h.089v-3.085h-.089c-.199 0-.35-.06-.454-.181-.104-.121-.155-.293-.155-.517 0-.246.054-.422.162-.53.108-.108.287-.162.537-.162h.857c.173 0 .291.035.352.105.062.069.092.204.092.403.157-.216.345-.38.565-.492.22-.113.466-.169.737-.169.245 0 .459.048.641.143.182.096.34.244.476.441zM86.476 27.796v1.727h.807c.287 0 .494.055.618.165.125.11.188.29.188.539 0 .246-.062.422-.184.527-.123.106-.33.159-.622.159h-2.692c-.292 0-.497-.052-.616-.155-.118-.104-.177-.281-.177-.531 0-.249.061-.429.181-.539.12-.11.324-.165.612-.165h.375v-5.605h-.102c-.224 0-.396-.059-.514-.178-.119-.118-.178-.292-.178-.52 0-.25.059-.428.178-.534.118-.105.324-.158.616-.158h.977c.123 0 .214.022.273.066.059.045.089.109.089.194v.457c.216-.288.477-.505.784-.651.307-.146.653-.219 1.038-.219.867 0 1.587.278 2.158.832.571.554.857 1.253.857 2.095 0 .88-.277 1.609-.832 2.186-.554.578-1.252.867-2.094.867-.343 0-.664-.048-.962-.143-.298-.094-.558-.233-.778-.416zm1.467-4.068c-.419 0-.764.155-1.035.464s-.406.704-.406 1.187c0 .482.135.878.406 1.187s.616.463 1.035.463.765-.155 1.038-.466c.273-.311.409-.706.409-1.184 0-.483-.135-.878-.406-1.187s-.618-.464-1.041-.464zM96.264 27.003h1.365c.292 0 .497.053.616.159.118.105.177.281.177.526 0 .25-.06.43-.18.54-.121.11-.325.165-.613.165h-4.304c-.283 0-.485-.055-.606-.165s-.181-.29-.181-.54c0-.249.058-.426.175-.53.116-.103.32-.155.612-.155h1.365v-5.51h-.698c-.288 0-.494-.056-.619-.168-.125-.112-.187-.291-.187-.536 0-.25.061-.43.184-.54.122-.11.33-.165.622-.165h1.898c.118 0 .21.024.276.073.065.049.098.115.098.2v6.646zM104.173 27.003h1.365c.292 0 .499.053.622.159.123.105.184.281.184.526 0 .25-.062.43-.187.54s-.331.165-.619.165h-4.291c-.288 0-.494-.055-.619-.165s-.187-.29-.187-.54c0-.245.06-.421.181-.526.12-.106.329-.159.625-.159h1.365v-3.085h-.718c-.283 0-.486-.054-.609-.162-.123-.108-.184-.287-.184-.536 0-.25.059-.428.178-.534.118-.105.323-.158.615-.158h1.911c.118 0 .209.024.273.073.063.048.095.115.095.2v4.202zm-.914-7.343c.309 0 .514.059.616.177.101.119.152.402.152.851 0 .432-.045.699-.136.803-.091.104-.306.155-.645.155-.33 0-.542-.048-.638-.146-.095-.097-.142-.292-.142-.584 0-.541.048-.886.146-1.034.096-.149.313-.222.647-.222zM111.492 22.712h1.364c.292 0 .5.054.623.162.122.108.184.284.184.53 0 .245-.063.423-.188.533-.124.11-.331.165-.619.165h-1.364v2.901h1.263c.292 0 .499.053.622.159.123.105.184.281.184.526 0 .25-.062.43-.187.54s-.331.165-.619.165h-3.498c-.292 0-.499-.055-.622-.165-.122-.11-.184-.29-.184-.54 0-.245.06-.421.181-.526.121-.106.329-.159.625-.159h.673v-2.901h-.673c-.292 0-.499-.055-.622-.165-.122-.11-.184-.288-.184-.533 0-.25.06-.428.181-.533.121-.106.329-.159.625-.159h.673v-.362c0-.829.214-1.419.641-1.768.428-.349 1.156-.523 2.184-.523.533 0 .926.063 1.177.19.252.127.378.324.378.59 0 .178-.056.32-.168.426-.112.105-.264.158-.454.158-.14 0-.337-.019-.594-.057-.256-.038-.434-.057-.536-.057-.393 0-.67.088-.828.263-.159.176-.238.486-.238.93v.21zM117.769 23.918l1.143 2.704 1.2-2.704h-.102c-.229 0-.403-.059-.524-.178-.12-.118-.181-.292-.181-.52 0-.25.061-.428.181-.534.121-.105.329-.158.626-.158h1.491c.296 0 .505.054.626.162.12.108.18.284.18.53 0 .228-.059.402-.177.52-.119.119-.292.178-.521.178h-.108l-2.609 5.605h.286c.288 0 .494.055.619.165s.187.29.187.539c0 .246-.062.424-.187.534-.125.11-.331.165-.619.165h-2.78c-.292 0-.5-.054-.622-.162-.123-.108-.184-.287-.184-.537 0-.249.061-.429.184-.539.122-.11.33-.165.622-.165h.984l.596-1.276-1.923-4.329h-.102c-.228 0-.403-.059-.523-.178-.121-.118-.181-.292-.181-.52 0-.25.061-.428.184-.534.123-.105.33-.158.622-.158h1.612c.292 0 .5.054.622.162.123.108.184.284.184.53 0 .228-.06.402-.18.52-.121.119-.294.178-.518.178h-.108zM128.86 30.837h-2.805v-10.53h2.805v1.091h-1.675v8.348h1.675z"/><path fill="#002CC3" d="M134.206 24.946v2.057h1.498c.288 0 .492.053.612.159.121.105.181.281.181.526 0 .25-.06.43-.181.54-.12.11-.324.165-.612.165h-3.548c-.292 0-.5-.055-.623-.165-.122-.11-.184-.29-.184-.54 0-.245.061-.421.181-.526.121-.106.329-.159.626-.159h.482v-3.085h-.273c-.288 0-.492-.054-.613-.162-.12-.108-.18-.287-.18-.536 0-.25.058-.428.174-.534.116-.105.323-.158.619-.158h1.352c.114 0 .203.024.267.073.063.048.095.115.095.2v.939c.461-.495.892-.848 1.292-1.06.4-.211.83-.317 1.291-.317.419 0 .751.094.997.282.245.189.368.441.368.759 0 .245-.085.447-.254.606-.169.159-.387.238-.654.238-.19 0-.415-.07-.676-.209-.26-.14-.441-.21-.542-.21-.203 0-.443.091-.718.273s-.601.463-.977.844zM140.566 25.835c.11.47.323.821.638 1.054.315.232.735.349 1.26.349s1.043-.128 1.555-.384.821-.384.927-.384c.156 0 .284.058.384.174.099.117.149.266.149.448 0 .398-.294.74-.882 1.028-.589.288-1.316.432-2.184.432-1.024 0-1.857-.288-2.498-.864-.641-.575-.961-1.316-.961-2.221 0-.902.32-1.64.961-2.216.641-.575 1.474-.863 2.498-.863.914 0 1.672.27 2.273.809.6.54.901 1.201.901 1.984 0 .25-.06.421-.181.514-.121.093-.369.14-.746.14h-4.094zm3.421-.989c-.072-.394-.257-.699-.555-.914-.298-.216-.687-.324-1.165-.324-.461 0-.833.102-1.114.308-.281.205-.477.515-.587.93h3.421zM148.418 28.305c-.11.084-.224.149-.34.194-.116.044-.236.066-.359.066-.182 0-.31-.048-.384-.146-.074-.097-.111-.279-.111-.546v-.844c0-.279.047-.477.14-.593.093-.117.254-.175.482-.175.25 0 .453.121.61.362l.235.292c.207.186.448.326.723.419.275.093.588.14.94.14.304 0 .548-.06.73-.178.182-.119.273-.273.273-.464 0-.342-.489-.579-1.467-.71l-.507-.07c-.737-.102-1.285-.302-1.645-.6-.359-.298-.539-.699-.539-1.203 0-.597.216-1.058.647-1.384.432-.326 1.048-.489 1.848-.489.275 0 .557.023.847.067.29.045.587.113.892.206.089-.105.183-.184.282-.234.1-.051.211-.077.334-.077.173 0 .305.054.396.162.091.108.137.27.137.486v.781c0 .182-.047.322-.14.422-.093.099-.224.149-.393.149-.174 0-.471-.151-.892-.454-.421-.303-.843-.454-1.267-.454-.33 0-.586.054-.768.162-.182.108-.273.257-.273.448 0 .296.381.495 1.143.596l.52.064c.957.139 1.614.348 1.971.625.358.277.537.689.537 1.235 0 .639-.236 1.133-.708 1.482s-1.142.523-2.009.523c-.339 0-.664-.022-.978-.066-.313-.045-.615-.11-.907-.194zM158.897 23.918h-.101c-.229 0-.401-.059-.518-.178-.116-.118-.174-.292-.174-.52 0-.25.059-.428.178-.534.118-.105.323-.158.615-.158h1.2c.114 0 .203.024.267.073.063.048.095.115.095.2v4.202h.101c.229 0 .404.059.524.178.121.118.181.287.181.507 0 .254-.061.435-.184.543s-.33.162-.622.162h-1.066c-.119 0-.211-.025-.277-.076-.065-.051-.098-.121-.098-.21v-.482c-.203.305-.452.533-.746.686-.294.152-.64.229-1.038.229-.681 0-1.187-.205-1.517-.616-.33-.41-.495-1.039-.495-1.885v-2.12h-.108c-.228 0-.402-.059-.52-.178-.119-.118-.178-.292-.178-.52 0-.25.06-.428.181-.534.12-.105.329-.158.625-.158h1.193c.115 0 .201.024.261.073.059.048.089.115.089.2v2.951c0 .521.072.887.215 1.099.144.211.381.317.711.317.352 0 .64-.13.867-.39.226-.261.339-.602.339-1.026v-1.835zM166.476 27.003h1.365c.292 0 .497.053.616.159.118.105.177.281.177.526 0 .25-.06.43-.18.54-.121.11-.325.165-.613.165h-4.304c-.283 0-.485-.055-.606-.165s-.181-.29-.181-.54c0-.249.058-.426.175-.53.116-.103.32-.155.612-.155h1.365v-5.51h-.698c-.288 0-.494-.056-.619-.168-.125-.112-.187-.291-.187-.536 0-.25.061-.43.184-.54.122-.11.33-.165.622-.165h1.898c.118 0 .21.024.276.073.065.049.098.115.098.2v6.646zM173.058 22.883h1.937c.292 0 .499.053.622.159.122.106.184.281.184.527 0 .249-.063.429-.188.539-.124.11-.331.165-.618.165h-1.937v1.625c0 .457.07.771.21.94.14.169.385.254.736.254.33 0 .72-.095 1.168-.286.449-.19.749-.286.902-.286.173 0 .322.069.447.207.125.137.187.303.187.498 0 .326-.295.623-.885.892-.59.269-1.26.403-2.009.403-.436 0-.819-.059-1.149-.178-.33-.118-.59-.288-.781-.508-.139-.169-.239-.372-.298-.609s-.089-.633-.089-1.187v-1.7650000000000001h-.597c-.287 0-.492-.055-.612-.165-.121-.11-.181-.29-.181-.539 0-.25.059-.427.178-.53.118-.104.323-.156.615-.156h.597v-1.485c0-.292.06-.497.181-.616.12-.118.32-.178.6-.178.279 0 .479.06.6.178.12.119.18.324.18.616v1.485zM180.453 26.965h2.222v-.038c0-.216.058-.377.174-.483.117-.106.289-.158.518-.158.186 0 .33.051.431.155.102.104.153.251.153.441v.083l-.051.985c-.008.194-.039.317-.092.368-.053.051-.147.076-.283.076h-4.563c-.246 0-.435-.053-.569-.159-.133-.105-.2-.256-.2-.45 0-.161.042-.319.124-.473.083-.155.215-.319.397-.492l2.583-2.495c.28-.271.488-.542.626-.812.137-.271.206-.542.206-.813 0-.381-.092-.664-.276-.85-.184-.187-.465-.28-.841-.28-.22 0-.416.033-.587.099-.172.065-.304.157-.397.276l-.184.273c-.203.33-.428.495-.673.495-.212 0-.371-.07-.479-.21-.108-.139-.162-.347-.162-.622 0-.283.034-.495.101-.634.068-.14.204-.28.407-.419.33-.22.678-.383 1.044-.489.366-.106.763-.159 1.19-.159.8 0 1.434.216 1.901.648.468.431.702 1.011.702 1.739 0 .487-.122.953-.365 1.4-.244.446-.621.891-1.133 1.336l-1.924 1.662zM190.984 22.872c.05-.166.13-.289.238-.372.108-.082.246-.124.416-.124.228 0 .391.069.488.207.098.137.146.375.146.714v1.041c0 .258-.053.448-.158.571-.106.123-.269.184-.489.184-.157 0-.288-.036-.394-.108-.106-.072-.218-.209-.336-.412-.169-.288-.392-.501-.667-.638-.275-.138-.611-.207-1.009-.207-.495 0-.9.162-1.216.486-.315.324-.472.737-.472 1.241 0 .529.163.954.488 1.276.326.322.764.482 1.314.482.5 0 .996-.138 1.489-.415.493-.278.794-.416.904-.416.157 0 .287.06.391.181.103.12.155.272.155.454 0 .397-.301.753-.904 1.066s-1.32.47-2.149.47c-1.024 0-1.857-.288-2.498-.864-.641-.575-.961-1.316-.961-2.221 0-.885.317-1.621.952-2.209.635-.588 1.434-.883 2.399-.883.326 0 .643.041.952.121.309.08.616.205.921.375zM196.899 23.728c-.495 0-.902.162-1.221.486-.32.324-.48.737-.48 1.241 0 .508.16.928.48 1.26.319.332.726.498 1.221.498.496 0 .904-.166 1.226-.498.321-.332.482-.752.482-1.26 0-.504-.16-.917-.479-1.241-.32-.324-.729-.486-1.229-.486zm0-1.339c1.029 0 1.862.288 2.501.863.639.576.959 1.314.959 2.216 0 .905-.32 1.646-.959 2.221-.639.576-1.472.864-2.501.864-1.024 0-1.855-.288-2.494-.864-.639-.575-.959-1.316-.959-2.221 0-.902.321-1.64.962-2.216.641-.575 1.472-.863 2.491-.863zM207.366 26.991h.083c.237 0 .415.058.533.175.119.116.178.291.178.523 0 .25-.06.43-.181.54-.121.11-.325.165-.613.165h-1.561c-.284 0-.488-.055-.613-.165-.124-.11-.187-.29-.187-.54 0-.232.06-.407.181-.523.121-.117.302-.175.543-.175h.076v-1.834c0-.508-.071-.869-.213-1.083-.141-.213-.377-.32-.707-.32-.352 0-.638.128-.861.384-.222.256-.333.596-.333 1.019v1.834h.076c.242 0 .421.058.54.175.118.116.178.291.178.523 0 .25-.062.43-.184.54-.123.11-.326.165-.61.165h-1.574c-.284 0-.487-.055-.609-.165-.123-.11-.184-.29-.184-.54 0-.232.059-.407.177-.523.119-.117.299-.175.54-.175h.076v-3.072h-.108c-.228 0-.402-.058-.52-.175-.119-.116-.178-.286-.178-.511 0-.249.061-.429.184-.539.123-.11.33-.165.622-.165h1.079c.119 0 .208.023.27.07.061.046.092.114.092.203v.495c.195-.305.443-.534.746-.689.302-.154.652-.232 1.05-.232.677 0 1.182.206 1.514.616.332.411.498 1.037.498 1.879v2.12zM215.206 27.003h.107c.229 0 .399.058.515.174.114.117.171.287.171.511 0 .25-.06.43-.181.54-.12.11-.325.165-.612.165h-.972c-.122 0-.217-.024-.282-.073-.066-.049-.098-.115-.098-.2v-.444c-.208.283-.475.5-.8.65-.326.15-.692.226-1.099.226-.83 0-1.524-.283-2.082-.848-.559-.565-.838-1.27-.838-2.117 0-.88.282-1.61.847-2.19.565-.579 1.283-.869 2.155-.869.301 0 .594.049.879.149.286.099.547.24.784.422v-1.606h-.844c-.292 0-.499-.056-.622-.168-.123-.112-.185-.291-.185-.536 0-.25.062-.43.185-.54s.33-.165.622-.165h1.974c.145 0 .242.03.295.089.054.059.08.169.08.33v6.5zm-2.977-3.123c-.415 0-.759.155-1.032.466s-.409.706-.409 1.184c0 .491.136.892.406 1.203s.616.467 1.035.467c.418 0 .764-.157 1.037-.47.272-.313.409-.713.409-1.2 0-.474-.138-.867-.412-1.18-.275-.313-.62-.47-1.034-.47z"/><path d="M219.982 26.198h1.51l.162.038.061.101-.016.08-.041.104-1.898 3.72c-.029.068-.071.122-.127.162-.055.04-.116.06-.184.06l-.061-.009-.066-.016-.483-.171-.165-.105-.057-.143.003-.105.01-.066.901-3.301c.038-.144.088-.238.149-.283.062-.044.161-.066.302-.066zM239.82 27.003h.108c.228 0 .401.058.52.174.119.117.178.287.178.511 0 .25-.062.43-.187.54-.125.11-.332.165-.619.165h-1.911c-.292 0-.499-.054-.622-.162s-.184-.289-.184-.543c0-.245.061-.421.184-.526.123-.106.33-.159.622-.159h.222l-.26-.743h-2.742l-.272.743h.222c.288 0 .494.054.619.162s.187.282.187.523c0 .25-.062.43-.187.54s-.331.165-.619.165h-1.638c-.292 0-.499-.055-.622-.165s-.184-.29-.184-.54c0-.224.059-.394.178-.511.118-.116.292-.174.52-.174h.108l1.701-4.735h-.508c-.287 0-.493-.056-.618-.166s-.188-.287-.188-.533c0-.249.063-.429.188-.539.125-.11.331-.165.618-.165h2.381c.377 0 .641.203.793.609v.019l2.012 5.51zm-3.326-4.734l-.921 2.678h1.841l-.92-2.678zM242.746 28.305c-.109.084-.224.149-.34.194-.116.044-.236.066-.359.066-.182 0-.31-.048-.384-.146-.074-.097-.11-.279-.11-.546v-.844c0-.279.047-.477.14-.593.093-.117.254-.175.481-.175.25 0 .453.121.61.362l.235.292c.207.186.447.326.723.419s.588.14.94.14c.304 0 .548-.06.729-.178.182-.119.273-.273.273-.464 0-.342-.489-.579-1.468-.71l-.507-.07c-.736-.102-1.285-.302-1.645-.6-.359-.298-.539-.699-.539-1.203 0-.597.216-1.058.646-1.384.433-.326 1.049-.489 1.849-.489.274 0 .557.023.847.067.29.045.587.113.893.206.089-.105.183-.184.281-.234.101-.051.211-.077.334-.077.173 0 .306.054.396.162s.137.27.137.486v.781c0 .182-.047.322-.14.422-.093.099-.225.149-.394.149-.174 0-.471-.151-.892-.454-.421-.303-.843-.454-1.268-.454-.329 0-.586.054-.768.162-.182.108-.272.257-.272.448 0 .296.381.495 1.143.596l.52.064c.957.139 1.614.348 1.972.625.357.277.537.689.537 1.235 0 .639-.236 1.133-.708 1.482-.473.349-1.143.523-2.01.523-.339 0-.664-.022-.978-.066-.311-.045-.612-.11-.904-.194zM250.546 28.305c-.109.084-.224.149-.34.194-.116.044-.235.066-.358.066-.183 0-.311-.048-.385-.146-.073-.097-.11-.279-.11-.546v-.844c0-.279.047-.477.14-.593.093-.117.254-.175.482-.175.25 0 .452.121.609.362l.235.292c.207.186.448.326.723.419.275.093.588.14.94.14.304 0 .548-.06.729-.178.183-.119.273-.273.273-.464 0-.342-.489-.579-1.467-.71l-.508-.07c-.736-.102-1.284-.302-1.645-.6-.359-.298-.539-.699-.539-1.203 0-.597.216-1.058.647-1.384.432-.326 1.048-.489 1.848-.489.275 0 .557.023.847.067.29.045.587.113.893.206.089-.105.183-.184.281-.234.101-.051.212-.077.334-.077.174 0 .306.054.396.162s.137.27.137.486v.781c0 .182-.047.322-.14.422-.093.099-.224.149-.394.149-.174 0-.471-.151-.892-.454-.421-.303-.843-.454-1.267-.454-.33 0-.586.054-.769.162-.182.108-.272.257-.272.448 0 .296.381.495 1.143.596l.521.064c.957.139 1.613.348 1.971.625.358.277.537.689.537 1.235 0 .639-.236 1.133-.708 1.482-.473.349-1.143.523-2.009.523-.34 0-.664-.022-.979-.066-.309-.045-.612-.11-.904-.194zM261.026 23.918h-.102c-.229 0-.4-.059-.518-.178-.116-.118-.174-.292-.174-.52 0-.25.059-.428.178-.534.118-.105.323-.158.615-.158h1.2c.113 0 .203.024.267.073.063.048.095.115.095.2v4.202h.102c.229 0 .403.059.523.178.121.118.182.287.182.507 0 .254-.062.435-.185.543s-.33.162-.622.162h-1.065c-.119 0-.211-.025-.277-.076-.064-.051-.098-.121-.098-.21v-.482c-.203.305-.452.533-.746.686s-.64.229-1.038.229c-.681 0-1.188-.205-1.517-.616-.33-.41-.495-1.039-.495-1.885v-2.12h-.108c-.228 0-.402-.059-.52-.178-.119-.118-.179-.292-.179-.52 0-.25.061-.428.182-.534.12-.105.329-.158.625-.158h1.192c.115 0 .201.024.262.073.059.048.089.115.089.2v2.951c0 .521.071.887.215 1.099.144.211.381.317.711.317.352 0 .64-.13.867-.39.226-.261.339-.602.339-1.026v-1.835zM268.231 22.959c.177-.19.383-.335.615-.434.232-.1.482-.15.749-.15.575 0 .99.171 1.244.511.254.341.381.911.381 1.711v2.406h.089c.198 0 .348.058.447.174.1.117.149.287.149.511 0 .254-.052.435-.156.543-.103.108-.279.162-.529.162h-1.079c-.114 0-.203-.024-.267-.073s-.095-.115-.095-.2v-3.586c0-.284-.045-.495-.134-.635s-.219-.21-.388-.21c-.212 0-.376.095-.491.283-.116.188-.175.458-.175.809v2.222h.096c.193 0 .343.058.443.174.103.117.152.287.152.511 0 .254-.052.435-.158.543-.105.108-.284.162-.533.162h-1.079c-.114 0-.205-.024-.273-.073-.067-.049-.101-.115-.101-.2v-3.586c0-.284-.042-.495-.127-.635s-.213-.21-.382-.21c-.211 0-.378.096-.498.286s-.181.459-.181.806v2.222h.095c.199 0 .349.057.448.171.099.115.149.286.149.514 0 .254-.054.435-.159.543-.106.108-.283.162-.533.162h-1.44c-.245 0-.422-.055-.527-.165s-.159-.29-.159-.54c0-.224.05-.394.149-.511.1-.116.249-.174.447-.174h.09v-3.085h-.09c-.198 0-.35-.06-.453-.181-.104-.121-.155-.293-.155-.517 0-.246.054-.422.161-.53.108-.108.287-.162.537-.162h.856c.173 0 .291.035.353.105.062.069.092.204.092.403.156-.216.345-.38.564-.492.221-.113.466-.169.737-.169.245 0 .459.048.641.143.184.096.342.244.478.441zM274.418 27.796v1.727h.808c.287 0 .494.055.617.165.125.11.188.29.188.539 0 .246-.062.422-.184.527-.123.106-.33.159-.622.159h-2.692c-.292 0-.497-.052-.616-.155-.118-.104-.177-.281-.177-.531 0-.249.06-.429.181-.539.12-.11.324-.165.612-.165h.375v-5.605h-.102c-.225 0-.396-.059-.515-.178-.119-.118-.178-.292-.178-.52 0-.25.059-.428.178-.534.118-.105.324-.158.616-.158h.978c.122 0 .214.022.272.066.059.045.089.109.089.194v.457c.216-.288.478-.505.784-.651s.653-.219 1.038-.219c.867 0 1.587.278 2.158.832.57.554.856 1.253.856 2.095 0 .88-.276 1.609-.832 2.186-.554.578-1.252.867-2.094.867-.343 0-.664-.048-.962-.143-.295-.094-.555-.233-.776-.416zm1.468-4.068c-.42 0-.765.155-1.035.464-.271.309-.406.704-.406 1.187 0 .482.135.878.406 1.187.271.309.615.463 1.035.463.419 0 .765-.155 1.037-.466.273-.311.409-.706.409-1.184 0-.483-.135-.878-.405-1.187-.271-.31-.618-.464-1.041-.464zM282.988 22.883h1.937c.292 0 .499.053.622.159.122.106.185.281.185.527 0 .249-.063.429-.188.539-.124.11-.331.165-.618.165h-1.937v1.625c0 .457.07.771.21.94s.385.254.736.254c.33 0 .72-.095 1.168-.286.448-.19.749-.286.901-.286.174 0 .322.069.447.207.125.137.188.303.188.498 0 .326-.296.623-.886.892-.59.269-1.26.403-2.009.403-.436 0-.819-.059-1.148-.178-.33-.118-.591-.288-.781-.508-.14-.169-.239-.372-.298-.609-.06-.237-.089-.633-.089-1.187v-1.7650000000000001h-.598c-.287 0-.492-.055-.612-.165s-.181-.29-.181-.539c0-.25.06-.427.178-.53.118-.104.323-.156.615-.156h.598v-1.485c0-.292.06-.497.181-.616.12-.118.319-.178.6-.178.279 0 .479.06.601.178.119.119.18.324.18.616v1.485zM292.116 27.003h1.365c.292 0 .499.053.622.159.123.105.184.281.184.526 0 .25-.062.43-.187.54s-.331.165-.619.165h-4.291c-.288 0-.494-.055-.619-.165s-.188-.29-.188-.54c0-.245.061-.421.182-.526.12-.106.329-.159.625-.159h1.365v-3.085h-.719c-.282 0-.485-.054-.608-.162-.123-.108-.185-.287-.185-.536 0-.25.06-.428.179-.534.117-.105.322-.158.614-.158h1.911c.118 0 .209.024.273.073.062.048.095.115.095.2v4.202zm-.914-7.343c.31 0 .514.059.616.177.101.119.152.402.152.851 0 .432-.046.699-.137.803s-.306.155-.645.155c-.33 0-.542-.048-.639-.146-.095-.097-.142-.292-.142-.584 0-.541.048-.886.146-1.034.099-.149.315-.222.649-.222zM299.028 23.728c-.495 0-.902.162-1.221.486-.32.324-.48.737-.48 1.241 0 .508.16.928.48 1.26.318.332.726.498 1.221.498.496 0 .904-.166 1.226-.498s.482-.752.482-1.26c0-.504-.16-.917-.479-1.241-.32-.324-.729-.486-1.229-.486zm0-1.339c1.029 0 1.862.288 2.501.863.639.576.959 1.314.959 2.216 0 .905-.32 1.646-.959 2.221-.639.576-1.472.864-2.501.864-1.024 0-1.855-.288-2.494-.864-.639-.575-.959-1.316-.959-2.221 0-.902.321-1.64.962-2.216.64-.575 1.471-.863 2.491-.863zM309.495 26.991h.083c.237 0 .415.058.533.175.119.116.178.291.178.523 0 .25-.06.43-.181.54s-.325.165-.613.165h-1.561c-.284 0-.488-.055-.613-.165-.124-.11-.188-.29-.188-.54 0-.232.061-.407.182-.523.121-.117.302-.175.543-.175h.076v-1.834c0-.508-.071-.869-.213-1.083-.142-.213-.378-.32-.707-.32-.353 0-.639.128-.861.384-.222.256-.333.596-.333 1.019v1.834h.076c.242 0 .421.058.54.175.118.116.178.291.178.523 0 .25-.062.43-.184.54-.123.11-.326.165-.61.165h-1.574c-.284 0-.487-.055-.608-.165-.123-.11-.185-.29-.185-.54 0-.232.06-.407.177-.523.119-.117.3-.175.54-.175h.076v-3.072h-.107c-.229 0-.402-.058-.521-.175-.119-.116-.178-.286-.178-.511 0-.249.061-.429.184-.539.123-.11.33-.165.622-.165h1.079c.119 0 .208.023.271.07.061.046.092.114.092.203v.495c.194-.305.442-.534.746-.689.302-.154.651-.232 1.05-.232.677 0 1.182.206 1.514.616.332.411.498 1.037.498 1.879v2.12zM312.955 28.305c-.109.084-.224.149-.34.194-.116.044-.236.066-.359.066-.182 0-.31-.048-.384-.146-.074-.097-.11-.279-.11-.546v-.844c0-.279.047-.477.14-.593.093-.117.254-.175.481-.175.25 0 .453.121.61.362l.235.292c.207.186.447.326.723.419s.588.14.94.14c.304 0 .548-.06.729-.178.182-.119.273-.273.273-.464 0-.342-.489-.579-1.467-.71l-.508-.07c-.736-.102-1.285-.302-1.645-.6-.359-.298-.539-.699-.539-1.203 0-.597.216-1.058.646-1.384.433-.326 1.049-.489 1.849-.489.274 0 .557.023.847.067.29.045.587.113.893.206.089-.105.183-.184.281-.234.101-.051.211-.077.334-.077.173 0 .306.054.396.162s.137.27.137.486v.781c0 .182-.047.322-.14.422-.093.099-.225.149-.394.149-.174 0-.471-.151-.892-.454-.421-.303-.843-.454-1.267-.454-.33 0-.587.054-.769.162-.182.108-.272.257-.272.448 0 .296.381.495 1.143.596l.52.064c.957.139 1.614.348 1.972.625.357.277.537.689.537 1.235 0 .639-.236 1.133-.708 1.482-.473.349-1.143.523-2.01.523-.339 0-.664-.022-.978-.066-.311-.045-.612-.11-.904-.194zM323.058 24.959h6.163l-1.39-1.39.805-.805 2.742 2.755-2.742 2.773-.805-.807 1.39-1.389h-6.163z"/><path fill="#002CC3" d="M338.197 23.918l.508 3.123.679-2.419c.072-.253.163-.421.273-.501s.273-.121.488-.121c.216 0 .379.039.488.115.11.076.203.245.28.507l.704 2.419.483-3.123h-.108c-.229 0-.402-.059-.521-.178-.118-.118-.179-.292-.179-.52 0-.25.062-.428.182-.534.121-.105.329-.158.626-.158h1.49c.292 0 .5.054.622.162.123.108.185.284.185.53 0 .228-.061.402-.182.52-.119.119-.293.178-.517.178h-.108l-.793 4.005c-.043.22-.14.38-.292.479-.152.1-.375.15-.667.15-.287 0-.508-.05-.659-.15-.152-.099-.263-.259-.33-.479l-.743-2.469-.66 2.469c-.055.212-.165.369-.33.473s-.389.156-.673.156c-.292 0-.512-.05-.66-.15-.147-.099-.243-.259-.286-.479l-.806-4.005h-.108c-.224 0-.394-.059-.511-.178-.116-.118-.174-.292-.174-.52 0-.246.059-.422.178-.53.118-.108.323-.162.615-.162h1.505c.292 0 .497.054.615.162.119.108.178.284.178.53 0 .228-.058.402-.174.52-.117.119-.287.178-.511.178h-.107z"/><path d="M349.7 27.771l3.598-2.24-3.598-2.221v-1.303l5.631 3.524-5.631 3.535zM365.062 27.042h1.028c.283 0 .488.053.615.159.127.105.191.279.191.52 0 .237-.062.409-.185.514-.123.106-.33.159-.622.159h-3.744c-.292 0-.5-.053-.623-.159-.122-.105-.185-.277-.185-.514 0-.241.063-.415.188-.52.124-.106.331-.159.619-.159h1.18v-5.357l-.711.184-.273.057-.158.019c-.174 0-.308-.055-.402-.165-.097-.11-.144-.267-.144-.47 0-.148.054-.273.158-.374.106-.102.27-.18.489-.235l1.574-.432.323-.076.21-.026c.169 0 .289.047.361.14.072.093.108.25.108.47v6.265zM372.54 30.837h-2.812v-1.091h1.682v-8.348h-1.682v-1.091h2.812zM379.376 26.198h1.51l.162.038.062.101-.017.08-.041.104-1.897 3.72c-.03.068-.072.122-.127.162-.055.04-.117.06-.185.06l-.061-.009-.066-.016-.482-.171-.165-.105-.058-.143.004-.105.01-.066.9-3.301c.038-.144.089-.238.149-.283.062-.044.163-.066.302-.066zM65.866 37.262c.064-.136.136-.229.216-.28.081-.05.203-.076.368-.076.246 0 .403.046.473.137.07.091.109.272.118.542l.025 1.219v.07c0 .25-.05.424-.149.524-.1.099-.268.149-.505.149-.3 0-.524-.161-.673-.483l-.05-.114c-.132-.262-.309-.46-.534-.593-.224-.134-.488-.2-.793-.2-.381 0-.689.088-.924.263-.234.176-.352.401-.352.676 0 .389.538.696 1.612.921l.432.088c.813.178 1.401.449 1.765.813.364.364.546.861.546 1.492 0 .778-.265 1.378-.794 1.799-.529.421-1.286.632-2.272.632-.385 0-.729-.026-1.032-.076-.302-.051-.595-.129-.879-.235-.068.109-.146.189-.235.238-.089.048-.211.073-.368.073-.267 0-.453-.051-.559-.152-.105-.102-.16-.281-.165-.54l-.025-1.492v-.07c0-.279.052-.474.155-.584.104-.11.285-.165.543-.165.275 0 .506.199.692.597l.102.222c.165.326.394.569.688.73.295.161.655.241 1.083.241.389 0 .692-.08.907-.241.216-.161.324-.387.324-.679 0-.453-.489-.796-1.466-1.028l-.692-.172c-.821-.216-1.39-.485-1.708-.809-.317-.324-.476-.767-.476-1.33 0-.724.272-1.315.816-1.774s1.247-.689 2.111-.689c.287 0 .57.03.847.089s.553.148.828.267zM72.969 43.253h1.365c.292 0 .499.053.622.159.123.105.184.281.184.526 0 .25-.062.43-.187.54s-.331.165-.619.165h-4.291c-.288 0-.494-.055-.619-.165s-.187-.29-.187-.54c0-.245.06-.421.181-.526.12-.106.329-.159.625-.159h1.365v-3.085h-.718c-.283 0-.486-.054-.609-.162-.123-.108-.184-.287-.184-.536 0-.25.059-.428.178-.534.118-.105.323-.158.615-.158h1.911c.118 0 .209.024.273.073.063.048.095.115.095.2v4.202zm-.914-7.343c.309 0 .514.059.616.177.101.119.152.402.152.851 0 .432-.045.699-.136.803-.091.104-.306.155-.645.155-.33 0-.542-.048-.638-.146-.095-.097-.142-.292-.142-.584 0-.541.048-.886.146-1.034.097-.149.313-.222.647-.222zM80.288 39.209c.177-.19.383-.335.615-.434.233-.1.483-.15.749-.15.576 0 .991.171 1.245.511.254.341.38.911.38 1.711v2.406h.089c.199 0 .348.058.448.174.099.117.149.287.149.511 0 .254-.052.435-.156.543-.103.108-.28.162-.53.162h-1.079c-.114 0-.203-.024-.266-.073-.064-.049-.095-.115-.095-.2v-3.586c0-.284-.045-.495-.134-.635s-.218-.21-.387-.21c-.212 0-.376.095-.492.283s-.174.458-.174.809v2.222h.095c.194 0 .343.058.444.174.102.117.152.287.152.511 0 .254-.052.435-.158.543s-.284.162-.533.162h-1.08c-.114 0-.205-.024-.273-.073-.067-.049-.101-.115-.101-.2v-3.586c0-.284-.042-.495-.127-.635s-.212-.21-.381-.21c-.211 0-.378.096-.498.286-.121.19-.181.459-.181.806v2.222h.095c.199 0 .348.057.448.171.099.115.149.286.149.514 0 .254-.053.435-.159.543-.106.108-.283.162-.533.162h-1.441c-.245 0-.421-.055-.527-.165s-.159-.29-.159-.54c0-.224.05-.394.149-.511.1-.116.249-.174.447-.174h.089v-3.085h-.089c-.199 0-.35-.06-.454-.181-.104-.121-.155-.293-.155-.517 0-.246.054-.422.162-.53.108-.108.287-.162.537-.162h.857c.173 0 .291.035.352.105.062.069.092.204.092.403.157-.216.345-.38.565-.492.22-.113.466-.169.737-.169.245 0 .459.048.641.143.182.096.34.244.476.441zM86.476 44.046v1.727h.807c.287 0 .494.055.618.165.125.11.188.29.188.54 0 .245-.062.422-.184.526-.123.106-.33.159-.622.159h-2.692c-.292 0-.497-.052-.616-.155-.118-.104-.177-.281-.177-.53 0-.25.061-.43.181-.54.12-.11.324-.165.612-.165h.375v-5.605h-.102c-.224 0-.396-.059-.514-.178-.119-.118-.178-.292-.178-.52 0-.25.059-.428.178-.534.118-.105.324-.158.616-.158h.977c.123 0 .214.022.273.066.059.045.089.109.089.194v.457c.216-.288.477-.505.784-.651.307-.146.653-.219 1.038-.219.867 0 1.587.278 2.158.832.571.554.857 1.253.857 2.095 0 .88-.277 1.609-.832 2.186-.554.578-1.252.867-2.094.867-.343 0-.664-.048-.962-.143-.298-.094-.558-.233-.778-.416zm1.467-4.068c-.419 0-.764.155-1.035.464s-.406.704-.406 1.187c0 .482.135.878.406 1.187s.616.463 1.035.463.765-.155 1.038-.466c.273-.311.409-.706.409-1.184 0-.483-.135-.878-.406-1.187s-.618-.464-1.041-.464zM96.264 43.253h1.365c.292 0 .497.053.616.159.118.105.177.281.177.526 0 .25-.06.43-.18.54-.121.11-.325.165-.613.165h-4.304c-.283 0-.485-.055-.606-.165s-.181-.29-.181-.54c0-.249.058-.426.175-.53.116-.103.32-.155.612-.155h1.365v-5.51h-.698c-.288 0-.494-.056-.619-.168-.125-.112-.187-.291-.187-.536 0-.25.061-.43.184-.54.122-.11.33-.165.622-.165h1.898c.118 0 .21.024.276.073.065.049.098.115.098.2v6.646zM104.173 43.253h1.365c.292 0 .499.053.622.159.123.105.184.281.184.526 0 .25-.062.43-.187.54s-.331.165-.619.165h-4.291c-.288 0-.494-.055-.619-.165s-.187-.29-.187-.54c0-.245.06-.421.181-.526.12-.106.329-.159.625-.159h1.365v-3.085h-.718c-.283 0-.486-.054-.609-.162-.123-.108-.184-.287-.184-.536 0-.25.059-.428.178-.534.118-.105.323-.158.615-.158h1.911c.118 0 .209.024.273.073.063.048.095.115.095.2v4.202zm-.914-7.343c.309 0 .514.059.616.177.101.119.152.402.152.851 0 .432-.045.699-.136.803-.091.104-.306.155-.645.155-.33 0-.542-.048-.638-.146-.095-.097-.142-.292-.142-.584 0-.541.048-.886.146-1.034.096-.149.313-.222.647-.222zM111.492 38.962h1.364c.292 0 .5.054.623.162.122.108.184.284.184.53 0 .245-.063.423-.188.533-.124.11-.331.165-.619.165h-1.364v2.901h1.263c.292 0 .499.053.622.159.123.105.184.281.184.526 0 .25-.062.43-.187.54s-.331.165-.619.165h-3.498c-.292 0-.499-.055-.622-.165-.122-.11-.184-.29-.184-.54 0-.245.06-.421.181-.526.121-.106.329-.159.625-.159h.673v-2.901h-.673c-.292 0-.499-.055-.622-.165-.122-.11-.184-.288-.184-.533 0-.25.06-.428.181-.533.121-.106.329-.159.625-.159h.673v-.362c0-.829.214-1.419.641-1.768.428-.349 1.156-.523 2.184-.523.533 0 .926.063 1.177.19.252.127.378.324.378.59 0 .178-.056.32-.168.426-.112.105-.264.158-.454.158-.14 0-.337-.019-.594-.057-.256-.038-.434-.057-.536-.057-.393 0-.67.088-.828.263-.159.176-.238.486-.238.93v.21zM117.769 40.168l1.143 2.704 1.2-2.704h-.102c-.229 0-.403-.059-.524-.178-.12-.118-.181-.292-.181-.52 0-.25.061-.428.181-.534.121-.105.329-.158.626-.158h1.491c.296 0 .505.054.626.162.12.108.18.284.18.53 0 .228-.059.402-.177.52-.119.119-.292.178-.521.178h-.108l-2.609 5.605h.286c.288 0 .494.055.619.165s.187.29.187.54c0 .245-.062.424-.187.533-.125.11-.331.165-.619.165h-2.78c-.292 0-.5-.054-.622-.162-.123-.107-.184-.287-.184-.536 0-.25.061-.43.184-.54.122-.11.33-.165.622-.165h.984l.596-1.276-1.923-4.329h-.102c-.228 0-.403-.059-.523-.178-.121-.118-.181-.292-.181-.52 0-.25.061-.428.184-.534.123-.105.33-.158.622-.158h1.612c.292 0 .5.054.622.162.123.108.184.284.184.53 0 .228-.06.402-.18.52-.121.119-.294.178-.518.178h-.108zM128.86 47.087h-2.805v-10.53h2.805v1.091h-1.675v8.348h1.675z"/><path fill="#002CC3" d="M134.206 41.197v2.057h1.498c.288 0 .492.053.612.159.121.105.181.281.181.526 0 .25-.06.43-.181.54-.12.11-.324.165-.612.165h-3.548c-.292 0-.5-.055-.623-.165-.122-.11-.184-.29-.184-.54 0-.245.061-.421.181-.526.121-.106.329-.159.626-.159h.482v-3.085h-.273c-.288 0-.492-.054-.613-.162-.12-.108-.18-.287-.18-.536 0-.25.058-.428.174-.534.116-.105.323-.158.619-.158h1.352c.114 0 .203.024.267.073.063.048.095.115.095.2v.939c.461-.495.892-.848 1.292-1.06.4-.211.83-.317 1.291-.317.419 0 .751.094.997.282.245.189.368.441.368.759 0 .245-.085.447-.254.606-.169.159-.387.238-.654.238-.19 0-.415-.07-.676-.209-.26-.14-.441-.21-.542-.21-.203 0-.443.091-.718.273s-.601.462-.977.844zM140.566 42.085c.11.47.323.821.638 1.054.315.232.735.349 1.26.349s1.043-.128 1.555-.384.821-.384.927-.384c.156 0 .284.058.384.174.099.117.149.266.149.448 0 .398-.294.74-.882 1.028-.589.288-1.316.432-2.184.432-1.024 0-1.857-.288-2.498-.864-.641-.575-.961-1.316-.961-2.221 0-.902.32-1.64.961-2.216.641-.575 1.474-.863 2.498-.863.914 0 1.672.27 2.273.809.6.54.901 1.201.901 1.984 0 .25-.06.421-.181.514-.121.093-.369.14-.746.14h-4.094zm3.421-.989c-.072-.394-.257-.699-.555-.914-.298-.216-.687-.324-1.165-.324-.461 0-.833.102-1.114.308-.281.205-.477.515-.587.93h3.421zM148.418 44.555c-.11.084-.224.149-.34.194-.116.044-.236.066-.359.066-.182 0-.31-.048-.384-.146-.074-.097-.111-.279-.111-.546v-.844c0-.279.047-.477.14-.593.093-.117.254-.175.482-.175.25 0 .453.121.61.362l.235.292c.207.186.448.326.723.419.275.093.588.14.94.14.304 0 .548-.06.73-.178.182-.119.273-.273.273-.464 0-.342-.489-.579-1.467-.71l-.507-.07c-.737-.102-1.285-.302-1.645-.6-.359-.298-.539-.699-.539-1.203 0-.597.216-1.058.647-1.384.432-.326 1.048-.489 1.848-.489.275 0 .557.023.847.067.29.045.587.113.892.206.089-.105.183-.184.282-.234.1-.051.211-.077.334-.077.173 0 .305.054.396.162.091.108.137.27.137.486v.781c0 .182-.047.322-.14.422-.093.099-.224.149-.393.149-.174 0-.471-.151-.892-.454-.421-.303-.843-.454-1.267-.454-.33 0-.586.054-.768.162-.182.108-.273.257-.273.448 0 .296.381.495 1.143.596l.52.064c.957.139 1.614.348 1.971.625.358.277.537.689.537 1.235 0 .639-.236 1.133-.708 1.482s-1.142.523-2.009.523c-.339 0-.664-.022-.978-.066-.313-.045-.615-.11-.907-.194zM158.897 40.168h-.101c-.229 0-.401-.059-.518-.178-.116-.118-.174-.292-.174-.52 0-.25.059-.428.178-.534.118-.105.323-.158.615-.158h1.2c.114 0 .203.024.267.073.063.048.095.115.095.2v4.202h.101c.229 0 .404.059.524.178.121.118.181.287.181.507 0 .254-.061.435-.184.543s-.33.162-.622.162h-1.066c-.119 0-.211-.025-.277-.076-.065-.051-.098-.121-.098-.21v-.482c-.203.305-.452.533-.746.686-.294.152-.64.229-1.038.229-.681 0-1.187-.205-1.517-.616-.33-.41-.495-1.039-.495-1.885v-2.12h-.108c-.228 0-.402-.059-.52-.178-.119-.118-.178-.292-.178-.52 0-.25.06-.428.181-.534.12-.105.329-.158.625-.158h1.193c.115 0 .201.024.261.073.059.048.089.115.089.2v2.951c0 .521.072.887.215 1.099.144.211.381.317.711.317.352 0 .64-.13.867-.39.226-.261.339-.602.339-1.026v-1.835zM166.476 43.253h1.365c.292 0 .497.053.616.159.118.105.177.281.177.526 0 .25-.06.43-.18.54-.121.11-.325.165-.613.165h-4.304c-.283 0-.485-.055-.606-.165s-.181-.29-.181-.54c0-.249.058-.426.175-.53.116-.103.32-.155.612-.155h1.365v-5.51h-.698c-.288 0-.494-.056-.619-.168-.125-.112-.187-.291-.187-.536 0-.25.061-.43.184-.54.122-.11.33-.165.622-.165h1.898c.118 0 .21.024.276.073.065.049.098.115.098.2v6.646zM173.058 39.133h1.937c.292 0 .499.053.622.159.122.106.184.281.184.527 0 .249-.063.429-.188.539-.124.11-.331.165-.618.165h-1.937v1.625c0 .457.07.771.21.94.14.169.385.254.736.254.33 0 .72-.095 1.168-.286.449-.19.749-.286.902-.286.173 0 .322.069.447.207.125.137.187.303.187.498 0 .326-.295.623-.885.892-.59.269-1.26.403-2.009.403-.436 0-.819-.059-1.149-.178-.33-.118-.59-.288-.781-.508-.139-.169-.239-.372-.298-.609s-.089-.633-.089-1.187v-1.7650000000000001h-.597c-.287 0-.492-.055-.612-.165-.121-.11-.181-.29-.181-.539 0-.25.059-.427.178-.53.118-.104.323-.156.615-.156h.597v-1.485c0-.292.06-.497.181-.616.12-.118.32-.178.6-.178.279 0 .479.06.6.178.12.119.18.324.18.616v1.485zM180.453 43.215h2.222v-.038c0-.216.058-.377.174-.483.117-.106.289-.158.518-.158.186 0 .33.051.431.155.102.104.153.251.153.441v.083l-.051.985c-.008.194-.039.317-.092.368-.053.051-.147.076-.283.076h-4.563c-.246 0-.435-.053-.569-.159-.133-.105-.2-.256-.2-.45 0-.161.042-.319.124-.473.083-.155.215-.319.397-.492l2.583-2.495c.28-.271.488-.542.626-.812.137-.271.206-.542.206-.813 0-.381-.092-.664-.276-.85-.184-.187-.465-.28-.841-.28-.22 0-.416.033-.587.099-.172.065-.304.157-.397.276l-.184.273c-.203.33-.428.495-.673.495-.212 0-.371-.07-.479-.21-.108-.139-.162-.347-.162-.622 0-.283.034-.495.101-.634.068-.14.204-.28.407-.419.33-.22.678-.383 1.044-.489.366-.106.763-.159 1.19-.159.8 0 1.434.216 1.901.648.468.431.702 1.011.702 1.739 0 .487-.122.953-.365 1.4-.244.446-.621.891-1.133 1.336l-1.924 1.662zM190.984 39.122c.05-.166.13-.289.238-.372.108-.082.246-.124.416-.124.228 0 .391.069.488.207.098.137.146.375.146.714v1.041c0 .258-.053.448-.158.571-.106.123-.269.184-.489.184-.157 0-.288-.036-.394-.108-.106-.072-.218-.209-.336-.412-.169-.288-.392-.501-.667-.638-.275-.138-.611-.207-1.009-.207-.495 0-.9.162-1.216.486-.315.324-.472.737-.472 1.241 0 .529.163.954.488 1.276.326.322.764.482 1.314.482.5 0 .996-.138 1.489-.415.493-.278.794-.416.904-.416.157 0 .287.06.391.181.103.12.155.272.155.454 0 .397-.301.753-.904 1.066s-1.32.47-2.149.47c-1.024 0-1.857-.288-2.498-.864-.641-.575-.961-1.316-.961-2.221 0-.885.317-1.621.952-2.209.635-.588 1.434-.883 2.399-.883.326 0 .643.041.952.121.309.08.616.205.921.375zM196.899 39.978c-.495 0-.902.162-1.221.486-.32.324-.48.737-.48 1.241 0 .508.16.928.48 1.26.319.332.726.498 1.221.498.496 0 .904-.166 1.226-.498.321-.332.482-.752.482-1.26 0-.504-.16-.917-.479-1.241-.32-.324-.729-.486-1.229-.486zm0-1.339c1.029 0 1.862.288 2.501.863.639.576.959 1.314.959 2.216 0 .905-.32 1.646-.959 2.221-.639.576-1.472.864-2.501.864-1.024 0-1.855-.288-2.494-.864-.639-.575-.959-1.316-.959-2.221 0-.902.321-1.64.962-2.216.641-.575 1.472-.863 2.491-.863zM207.366 43.241h.083c.237 0 .415.058.533.175.119.116.178.291.178.523 0 .25-.06.43-.181.54-.121.11-.325.165-.613.165h-1.561c-.284 0-.488-.055-.613-.165-.124-.11-.187-.29-.187-.54 0-.232.06-.407.181-.523.121-.117.302-.175.543-.175h.076v-1.834c0-.508-.071-.869-.213-1.083-.141-.213-.377-.32-.707-.32-.352 0-.638.128-.861.384-.222.256-.333.596-.333 1.019v1.834h.076c.242 0 .421.058.54.175.118.116.178.291.178.523 0 .25-.062.43-.184.54-.123.11-.326.165-.61.165h-1.574c-.284 0-.487-.055-.609-.165-.123-.11-.184-.29-.184-.54 0-.232.059-.407.177-.523.119-.117.299-.175.54-.175h.076v-3.072h-.108c-.228 0-.402-.058-.52-.175-.119-.116-.178-.286-.178-.511 0-.249.061-.429.184-.539.123-.11.33-.165.622-.165h1.079c.119 0 .208.023.27.07.061.046.092.114.092.203v.495c.195-.305.443-.534.746-.689.302-.154.652-.232 1.05-.232.677 0 1.182.206 1.514.616.332.411.498 1.037.498 1.879v2.12zM215.206 43.253h.107c.229 0 .399.058.515.174.114.117.171.287.171.511 0 .25-.06.43-.181.54-.12.11-.325.165-.612.165h-.972c-.122 0-.217-.024-.282-.073-.066-.049-.098-.115-.098-.2v-.444c-.208.283-.475.5-.8.65-.326.15-.692.226-1.099.226-.83 0-1.524-.283-2.082-.848-.559-.565-.838-1.27-.838-2.117 0-.88.282-1.61.847-2.19.565-.579 1.283-.869 2.155-.869.301 0 .594.049.879.149.286.099.547.24.784.422v-1.606h-.844c-.292 0-.499-.056-.622-.168-.123-.112-.185-.291-.185-.536 0-.25.062-.43.185-.54s.33-.165.622-.165h1.974c.145 0 .242.03.295.089.054.059.08.169.08.33v6.5zm-2.977-3.123c-.415 0-.759.155-1.032.466s-.409.706-.409 1.184c0 .491.136.892.406 1.203s.616.467 1.035.467c.418 0 .764-.157 1.037-.47.272-.313.409-.713.409-1.2 0-.474-.138-.867-.412-1.18-.275-.313-.62-.47-1.034-.47z"/><path d="M219.982 42.448h1.51l.162.038.061.101-.016.08-.041.104-1.898 3.72c-.029.067-.071.122-.127.162-.055.04-.116.06-.184.06l-.061-.009-.066-.016-.483-.171-.165-.105-.057-.143.003-.105.01-.066.901-3.301c.038-.144.088-.238.149-.283.062-.044.161-.066.302-.066zM239.82 43.253h.108c.228 0 .401.058.52.174.119.117.178.287.178.511 0 .25-.062.43-.187.54-.125.11-.332.165-.619.165h-1.911c-.292 0-.499-.054-.622-.162s-.184-.289-.184-.543c0-.245.061-.421.184-.526.123-.106.33-.159.622-.159h.222l-.26-.743h-2.742l-.272.743h.222c.288 0 .494.054.619.162s.187.282.187.523c0 .25-.062.43-.187.54s-.331.165-.619.165h-1.638c-.292 0-.499-.055-.622-.165s-.184-.29-.184-.54c0-.224.059-.394.178-.511.118-.116.292-.174.52-.174h.108l1.701-4.735h-.508c-.287 0-.493-.056-.618-.166s-.188-.287-.188-.533c0-.249.063-.429.188-.539.125-.11.331-.165.618-.165h2.381c.377 0 .641.203.793.609v.019l2.012 5.51zm-3.326-4.734l-.921 2.678h1.841l-.92-2.678zM242.746 44.555c-.109.084-.224.149-.34.194-.116.044-.236.066-.359.066-.182 0-.31-.048-.384-.146-.074-.097-.11-.279-.11-.546v-.844c0-.279.047-.477.14-.593.093-.117.254-.175.481-.175.25 0 .453.121.61.362l.235.292c.207.186.447.326.723.419.275.093.588.14.94.14.304 0 .548-.06.729-.178.182-.119.273-.273.273-.464 0-.342-.489-.579-1.468-.71l-.507-.07c-.736-.102-1.285-.302-1.645-.6-.359-.298-.539-.699-.539-1.203 0-.597.216-1.058.646-1.384.433-.326 1.049-.489 1.849-.489.274 0 .557.023.847.067.29.045.587.113.893.206.089-.105.183-.184.281-.234.101-.051.211-.077.334-.077.173 0 .306.054.396.162s.137.27.137.486v.781c0 .182-.047.322-.14.422-.093.099-.225.149-.394.149-.174 0-.471-.151-.892-.454-.421-.303-.843-.454-1.268-.454-.329 0-.586.054-.768.162-.182.108-.272.257-.272.448 0 .296.381.495 1.143.596l.52.064c.957.139 1.614.348 1.972.625.357.277.537.689.537 1.235 0 .639-.236 1.133-.708 1.482-.473.349-1.143.523-2.01.523-.339 0-.664-.022-.978-.066-.311-.045-.612-.11-.904-.194zM250.546 44.555c-.109.084-.224.149-.34.194-.116.044-.235.066-.358.066-.183 0-.311-.048-.385-.146-.073-.097-.11-.279-.11-.546v-.844c0-.279.047-.477.14-.593.093-.117.254-.175.482-.175.25 0 .452.121.609.362l.235.292c.207.186.448.326.723.419.275.093.588.14.94.14.304 0 .548-.06.729-.178.183-.119.273-.273.273-.464 0-.342-.489-.579-1.467-.71l-.508-.07c-.736-.102-1.284-.302-1.645-.6-.359-.298-.539-.699-.539-1.203 0-.597.216-1.058.647-1.384.432-.326 1.048-.489 1.848-.489.275 0 .557.023.847.067.29.045.587.113.893.206.089-.105.183-.184.281-.234.101-.051.212-.077.334-.077.174 0 .306.054.396.162s.137.27.137.486v.781c0 .182-.047.322-.14.422-.093.099-.224.149-.394.149-.174 0-.471-.151-.892-.454-.421-.303-.843-.454-1.267-.454-.33 0-.586.054-.769.162-.182.108-.272.257-.272.448 0 .296.381.495 1.143.596l.521.064c.957.139 1.613.348 1.971.625.358.277.537.689.537 1.235 0 .639-.236 1.133-.708 1.482-.473.349-1.143.523-2.009.523-.34 0-.664-.022-.979-.066-.309-.045-.612-.11-.904-.194zM261.026 40.168h-.102c-.229 0-.4-.059-.518-.178-.116-.118-.174-.292-.174-.52 0-.25.059-.428.178-.534.118-.105.323-.158.615-.158h1.2c.113 0 .203.024.267.073.063.048.095.115.095.2v4.202h.102c.229 0 .403.059.523.178.121.118.182.287.182.507 0 .254-.062.435-.185.543s-.33.162-.622.162h-1.065c-.119 0-.211-.025-.277-.076-.064-.051-.098-.121-.098-.21v-.482c-.203.305-.452.533-.746.686s-.64.229-1.038.229c-.681 0-1.188-.205-1.517-.616-.33-.41-.495-1.039-.495-1.885v-2.12h-.108c-.228 0-.402-.059-.52-.178-.119-.118-.179-.292-.179-.52 0-.25.061-.428.182-.534.12-.105.329-.158.625-.158h1.192c.115 0 .201.024.262.073.059.048.089.115.089.2v2.951c0 .521.071.887.215 1.099.144.211.381.317.711.317.352 0 .64-.13.867-.39.226-.261.339-.602.339-1.026v-1.835zM268.231 39.209c.177-.19.383-.335.615-.434.232-.1.482-.15.749-.15.575 0 .99.171 1.244.511.254.341.381.911.381 1.711v2.406h.089c.198 0 .348.058.447.174.1.117.149.287.149.511 0 .254-.052.435-.156.543-.103.108-.279.162-.529.162h-1.079c-.114 0-.203-.024-.267-.073s-.095-.115-.095-.2v-3.586c0-.284-.045-.495-.134-.635s-.219-.21-.388-.21c-.212 0-.376.095-.491.283-.116.188-.175.458-.175.809v2.222h.096c.193 0 .343.058.443.174.103.117.152.287.152.511 0 .254-.052.435-.158.543-.105.108-.284.162-.533.162h-1.079c-.114 0-.205-.024-.273-.073-.067-.049-.101-.115-.101-.2v-3.586c0-.284-.042-.495-.127-.635s-.213-.21-.382-.21c-.211 0-.378.096-.498.286s-.181.459-.181.806v2.222h.095c.199 0 .349.057.448.171.099.115.149.286.149.514 0 .254-.054.435-.159.543-.106.108-.283.162-.533.162h-1.44c-.245 0-.422-.055-.527-.165s-.159-.29-.159-.54c0-.224.05-.394.149-.511.1-.116.249-.174.447-.174h.09v-3.085h-.09c-.198 0-.35-.06-.453-.181-.104-.121-.155-.293-.155-.517 0-.246.054-.422.161-.53.108-.108.287-.162.537-.162h.856c.173 0 .291.035.353.105.062.069.092.204.092.403.156-.216.345-.38.564-.492.221-.113.466-.169.737-.169.245 0 .459.048.641.143.184.096.342.244.478.441zM274.418 44.046v1.727h.808c.287 0 .494.055.617.165.125.11.188.29.188.54 0 .245-.062.422-.184.526-.123.106-.33.159-.622.159h-2.692c-.292 0-.497-.052-.616-.155-.118-.104-.177-.281-.177-.53 0-.25.06-.43.181-.54.12-.11.324-.165.612-.165h.375v-5.605h-.102c-.225 0-.396-.059-.515-.178-.119-.118-.178-.292-.178-.52 0-.25.059-.428.178-.534.118-.105.324-.158.616-.158h.978c.122 0 .214.022.272.066.059.045.089.109.089.194v.457c.216-.288.478-.505.784-.651s.653-.219 1.038-.219c.867 0 1.587.278 2.158.832.57.554.856 1.253.856 2.095 0 .88-.276 1.609-.832 2.186-.554.578-1.252.867-2.094.867-.343 0-.664-.048-.962-.143-.295-.094-.555-.233-.776-.416zm1.468-4.068c-.42 0-.765.155-1.035.464-.271.309-.406.704-.406 1.187 0 .482.135.878.406 1.187.271.309.615.463 1.035.463.419 0 .765-.155 1.037-.466.273-.311.409-.706.409-1.184 0-.483-.135-.878-.405-1.187-.271-.31-.618-.464-1.041-.464zM282.988 39.133h1.937c.292 0 .499.053.622.159.122.106.185.281.185.527 0 .249-.063.429-.188.539-.124.11-.331.165-.618.165h-1.937v1.625c0 .457.07.771.21.94s.385.254.736.254c.33 0 .72-.095 1.168-.286.448-.19.749-.286.901-.286.174 0 .322.069.447.207.125.137.188.303.188.498 0 .326-.296.623-.886.892-.59.269-1.26.403-2.009.403-.436 0-.819-.059-1.148-.178-.33-.118-.591-.288-.781-.508-.14-.169-.239-.372-.298-.609-.06-.237-.089-.633-.089-1.187v-1.7650000000000001h-.598c-.287 0-.492-.055-.612-.165-.12-.11-.181-.29-.181-.539 0-.25.06-.427.178-.53.118-.104.323-.156.615-.156h.598v-1.485c0-.292.06-.497.181-.616.12-.118.319-.178.6-.178.279 0 .479.06.601.178.119.119.18.324.18.616v1.485zM292.116 43.253h1.365c.292 0 .499.053.622.159.123.105.184.281.184.526 0 .25-.062.43-.187.54s-.331.165-.619.165h-4.291c-.288 0-.494-.055-.619-.165s-.188-.29-.188-.54c0-.245.061-.421.182-.526.12-.106.329-.159.625-.159h1.365v-3.085h-.719c-.282 0-.485-.054-.608-.162-.123-.108-.185-.287-.185-.536 0-.25.06-.428.179-.534.117-.105.322-.158.614-.158h1.911c.118 0 .209.024.273.073.062.048.095.115.095.2v4.202zm-.914-7.343c.31 0 .514.059.616.177.101.119.152.402.152.851 0 .432-.046.699-.137.803s-.306.155-.645.155c-.33 0-.542-.048-.639-.146-.095-.097-.142-.292-.142-.584 0-.541.048-.886.146-1.034.099-.149.315-.222.649-.222zM299.028 39.978c-.495 0-.902.162-1.221.486-.32.324-.48.737-.48 1.241 0 .508.16.928.48 1.26.318.332.726.498 1.221.498.496 0 .904-.166 1.226-.498s.482-.752.482-1.26c0-.504-.16-.917-.479-1.241-.32-.324-.729-.486-1.229-.486zm0-1.339c1.029 0 1.862.288 2.501.863.639.576.959 1.314.959 2.216 0 .905-.32 1.646-.959 2.221-.639.576-1.472.864-2.501.864-1.024 0-1.855-.288-2.494-.864-.639-.575-.959-1.316-.959-2.221 0-.902.321-1.64.962-2.216.64-.575 1.471-.863 2.491-.863zM309.495 43.241h.083c.237 0 .415.058.533.175.119.116.178.291.178.523 0 .25-.06.43-.181.54s-.325.165-.613.165h-1.561c-.284 0-.488-.055-.613-.165-.124-.11-.188-.29-.188-.54 0-.232.061-.407.182-.523.121-.117.302-.175.543-.175h.076v-1.834c0-.508-.071-.869-.213-1.083-.142-.213-.378-.32-.707-.32-.353 0-.639.128-.861.384-.222.256-.333.596-.333 1.019v1.834h.076c.242 0 .421.058.54.175.118.116.178.291.178.523 0 .25-.062.43-.184.54-.123.11-.326.165-.61.165h-1.574c-.284 0-.487-.055-.608-.165-.123-.11-.185-.29-.185-.54 0-.232.06-.407.177-.523.119-.117.3-.175.54-.175h.076v-3.072h-.107c-.229 0-.402-.058-.521-.175-.119-.116-.178-.286-.178-.511 0-.249.061-.429.184-.539.123-.11.33-.165.622-.165h1.079c.119 0 .208.023.271.07.061.046.092.114.092.203v.495c.194-.305.442-.534.746-.689.302-.154.651-.232 1.05-.232.677 0 1.182.206 1.514.616.332.411.498 1.037.498 1.879v2.12zM312.955 44.555c-.109.084-.224.149-.34.194-.116.044-.236.066-.359.066-.182 0-.31-.048-.384-.146-.074-.097-.11-.279-.11-.546v-.844c0-.279.047-.477.14-.593.093-.117.254-.175.481-.175.25 0 .453.121.61.362l.235.292c.207.186.447.326.723.419.275.093.588.14.94.14.304 0 .548-.06.729-.178.182-.119.273-.273.273-.464 0-.342-.489-.579-1.467-.71l-.508-.07c-.736-.102-1.285-.302-1.645-.6-.359-.298-.539-.699-.539-1.203 0-.597.216-1.058.646-1.384.433-.326 1.049-.489 1.849-.489.274 0 .557.023.847.067.29.045.587.113.893.206.089-.105.183-.184.281-.234.101-.051.211-.077.334-.077.173 0 .306.054.396.162s.137.27.137.486v.781c0 .182-.047.322-.14.422-.093.099-.225.149-.394.149-.174 0-.471-.151-.892-.454-.421-.303-.843-.454-1.267-.454-.33 0-.587.054-.769.162-.182.108-.272.257-.272.448 0 .296.381.495 1.143.596l.52.064c.957.139 1.614.348 1.972.625.357.277.537.689.537 1.235 0 .639-.236 1.133-.708 1.482-.473.349-1.143.523-2.01.523-.339 0-.664-.022-.978-.066-.311-.045-.612-.11-.904-.194zM323.058 41.209h6.163l-1.39-1.39.805-.805 2.742 2.755-2.742 2.773-.805-.807 1.39-1.389h-6.163zM337.2 41.209h5.199v1.136h-5.199zM349.563 43.292h1.028c.283 0 .488.053.615.159.127.105.191.279.191.52 0 .237-.062.409-.185.514-.123.106-.33.159-.622.159h-3.744c-.292 0-.5-.053-.623-.159-.122-.105-.185-.277-.185-.514 0-.241.063-.415.188-.52.124-.106.331-.159.619-.159h1.18v-5.357l-.711.184-.273.057-.158.019c-.174 0-.308-.055-.402-.165-.096-.11-.144-.267-.144-.47 0-.148.054-.273.158-.374.106-.102.27-.18.489-.235l1.574-.432.323-.076.21-.026c.17 0 .289.047.361.14.072.093.108.25.108.47v6.265zM363.001 45.316l-5.629-3.535 5.629-3.524v1.303l-3.598 2.221 3.598 2.24z"/><path fill="#002CC3" d="M370.601 40.168l.508 3.123.679-2.419c.072-.253.163-.421.273-.501.109-.08.272-.121.487-.121.217 0 .38.039.489.115.11.076.203.245.28.507l.704 2.419.482-3.123h-.107c-.229 0-.402-.059-.521-.178-.118-.118-.178-.292-.178-.52 0-.25.061-.428.181-.534.121-.105.329-.158.626-.158h1.491c.292 0 .5.054.622.162.123.108.185.284.185.53 0 .228-.061.402-.182.52-.12.119-.293.178-.517.178h-.108l-.793 4.005c-.043.22-.14.38-.292.479-.153.1-.375.15-.667.15-.287 0-.508-.05-.66-.15-.151-.099-.262-.259-.33-.479l-.742-2.469-.66 2.469c-.056.212-.165.369-.33.473s-.39.156-.673.156c-.292 0-.513-.05-.66-.15-.148-.099-.243-.259-.286-.479l-.806-4.005h-.108c-.224 0-.395-.059-.511-.178-.116-.118-.174-.292-.174-.52 0-.246.059-.422.178-.53.118-.108.323-.162.615-.162h1.505c.292 0 .497.054.614.162.119.108.179.284.179.53 0 .228-.059.402-.174.52-.117.119-.287.178-.512.178h-.107z"/><path d="M387.302 45.316l-5.63-3.535 5.63-3.524v1.303l-3.598 2.221 3.598 2.24zM396.5 37.857c-.448 0-.803.246-1.062.737-.261.491-.391 1.168-.391 2.031 0 .876.13 1.56.388 2.053.258.493.613.74 1.065.74.453 0 .811-.247 1.07-.74.26-.493.39-1.177.39-2.053 0-.863-.13-1.54-.39-2.031-.259-.49-.616-.737-1.07-.737zm-.011-1.427c.973 0 1.745.378 2.317 1.133.57.756.856 1.781.856 3.076 0 1.299-.286 2.326-.856 3.081-.572.756-1.345 1.133-2.317 1.133-.965 0-1.73-.377-2.295-1.133-.565-.755-.847-1.782-.847-3.081 0-1.3.281-2.326.847-3.079.564-.753 1.33-1.13 2.295-1.13zM404.944 47.087h-2.813v-1.091h1.683v-8.348h-1.683v-1.091h2.813zM413.874 42.327c-.38 0-.664.056-.85.168-.187.112-.279.279-.279.499v2.12c0 1.29-.885 1.936-2.654 1.936v-1.079c1.017 0 1.524-.273 1.524-.819v-2.146c0-.478.207-.886.622-1.225-.208-.152-.363-.333-.467-.543-.104-.209-.155-.434-.155-.676v-2.145c0-.292-.121-.502-.362-.628-.24-.127-.629-.191-1.162-.191v-1.079c.897 0 1.564.16 2 .479.437.32.654.805.654 1.457v2.12c0 .229.091.398.273.508.169.102.454.152.855.152v1.092z"/><path fill="#454F99" d="M11.305 79.82c.428.571.642 1.303.642 2.192 0 .964-.245 1.766-.734 2.404-.575.75-1.393 1.125-2.457 1.125-.993 0-1.774-.328-2.342-.984-.507-.633-.76-1.433-.76-2.399 0-.873.216-1.62.65-2.241.557-.797 1.38-1.195 2.47-1.195 1.139-.001 1.983.365 2.531 1.098zm-.771 4.11c.344-.552.516-1.187.516-1.904 0-.759-.198-1.369-.595-1.832s-.94-.695-1.629-.695c-.668 0-1.212.23-1.634.688-.422.459-.633 1.136-.633 2.028 0 .715.181 1.318.543 1.81.361.489.948.735 1.76.735.77-.001 1.327-.276 1.672-.83zM13.673 80.645v3.125c0 .24.038.437.114.59.141.28.403.422.787.422.551 0 .926-.246 1.125-.739.108-.263.163-.625.163-1.085v-2.312h.791v4.707h-.747l.008-.693c-.102.178-.23.329-.382.452-.302.246-.668.369-1.099.369-.671 0-1.128-.225-1.371-.673-.132-.239-.198-.561-.198-.962v-3.2h.809zM18.045 79.332h.8v1.313h.752v.646h-.752v3.072c0 .164.056.273.167.33.062.031.164.048.308.048l.123-.002.154-.011v.623l-.284.058-.318.018c-.37 0-.62-.095-.752-.284-.132-.188-.198-.434-.198-.735v-3.116h-.637v-.646h.637v-1.314zM20.369 78.852h1.688v.647h-.94v6.978h.94v.647h-1.688zM23.167 80.897v-.606c.572-.056.97-.149 1.196-.28.225-.13.394-.438.505-.925h.624v6.267h-.844v-4.455h-1.481zM30.577 81.405c.196-.195.295-.428.295-.697 0-.234-.094-.45-.282-.646-.187-.195-.473-.294-.857-.294-.38 0-.656.099-.826.294-.17.196-.255.427-.255.69 0 .296.11.527.33.694.22.167.479.251.778.251.348 0 .621-.099.817-.292zm.143 3.11c.242-.197.363-.492.363-.886 0-.407-.125-.716-.374-.927s-.568-.316-.958-.316c-.378 0-.686.107-.925.323-.239.215-.358.513-.358.895 0 .327.109.611.327.85.218.239.556.357 1.013.357.366 0 .67-.098.912-.296zm-2.552-2.846c-.232-.234-.347-.539-.347-.914 0-.468.17-.871.51-1.208.339-.337.821-.506 1.445-.506.604 0 1.077.159 1.42.477.343.318.514.689.514 1.114 0 .394-.1.711-.299.954-.111.138-.284.272-.518.404.26.12.465.258.615.413.278.293.417.674.417 1.143 0 .554-.186 1.023-.558 1.408-.372.386-.898.578-1.577.578-.613 0-1.131-.166-1.554-.499-.423-.332-.635-.815-.635-1.448 0-.372.091-.693.272-.964.182-.271.452-.479.809-.622-.219-.093-.39-.204-.514-.33zM33.036 84.911c-.336-.408-.504-.906-.504-1.492h.827c.035.408.111.704.228.888.205.331.576.497 1.112.497.416 0 .75-.111 1.002-.334s.378-.51.378-.861c0-.434-.133-.736-.398-.909s-.634-.26-1.105-.26l-.161.003-.164.006v-.699l.206.018.18.004c.296 0 .539-.046.73-.14.334-.164.501-.457.501-.879 0-.313-.112-.555-.334-.725-.223-.17-.482-.255-.778-.255-.527 0-.892.176-1.094.526-.112.194-.175.469-.189.826h-.782c0-.468.093-.867.281-1.195.322-.586.889-.879 1.7-.879.642 0 1.139.144 1.49.43.352.284.528.698.528 1.24 0 .388-.104.7-.312.941-.129.148-.296.266-.501.351.331.092.589.267.775.525.186.26.279.577.279.952 0 .6-.197 1.09-.593 1.467-.396.378-.957.567-1.683.567-.744 0-1.284-.204-1.619-.613zM37.529 86.477h.936v-6.978h-.936v-.647h1.687v8.272h-1.687zM44.81 81.741v.738h-4.584v-.738h4.584zm0 1.884v.751h-4.584v-.751h4.584z"/><path d="M57.673 87.299c-.689 0-1.196-.138-1.52-.413-.324-.274-.486-.675-.486-1.199v-2.443c0-.268-.086-.486-.26-.657-.173-.172-.463-.273-.869-.308v-.489c.363-.038.643-.132.837-.282.195-.15.292-.378.292-.683v-2.445c0-.528.157-.926.47-1.192.313-.268.825-.406 1.536-.42v.444c-.469 0-.841.089-1.114.268-.273.178-.409.465-.409.862v2.47c0 .279-.086.521-.257.724-.172.203-.393.368-.664.495.28.144.503.314.67.514s.251.437.251.711v2.47c0 .394.142.681.425.86.284.18.65.27 1.098.27v.443zM61.405 79.929c-.008.318-.045.521-.111.606-.065.087-.193.13-.384.13-.148 0-.259-.039-.333-.117-.074-.078-.111-.193-.111-.346l.006-.098.007-.2.063-2.096c.009-.156.051-.27.127-.34.076-.068.195-.104.356-.104h5.516c.16 0 .279.035.355.104.076.07.117.184.121.34l.07 2.096.006.216.006.095c0 .152-.04.266-.12.339-.081.074-.201.111-.362.111-.169 0-.286-.043-.349-.13-.064-.086-.1-.288-.108-.606l-.064-1.649h-1.821v5.719h1.225c.177 0 .306.035.387.105.08.069.12.181.12.333 0 .147-.038.261-.114.34-.076.077-.186.116-.33.116h-3.561c-.144 0-.254-.039-.33-.116-.076-.079-.114-.192-.114-.34 0-.157.041-.27.124-.337.082-.067.223-.102.422-.102h1.187v-5.718h-1.822l-.064 1.649zM70.958 83.999h2.108c.165 0 .287.035.365.105.078.069.117.181.117.333 0 .173-.037.293-.111.358-.074.065-.21.098-.409.098h-4.152c-.165 0-.29-.037-.374-.113-.085-.076-.127-.191-.127-.343 0-.148.043-.259.13-.33.087-.072.221-.108.403-.108h1.105v-4.069h-.432c-.411 0-.667-.032-.768-.098-.102-.066-.152-.185-.152-.359 0-.147.041-.259.123-.333.083-.073.209-.11.378-.11h1.447c.115 0 .201.021.261.065.059.045.088.109.088.194v1.079c.402-.503.821-.878 1.257-1.123.436-.246.906-.369 1.409-.369.377 0 .682.077.914.229.233.151.35.349.35.59 0 .157-.059.295-.175.416-.116.121-.244.181-.384.181-.097 0-.261-.064-.492-.194-.231-.129-.437-.192-.619-.192-.33 0-.678.117-1.044.352s-.771.606-1.216 1.114v2.627zM77.801 82.551c0 .533.112.922.336 1.168.225.245.58.368 1.067.368.461 0 .856-.146 1.184-.438s.492-.658.492-1.099v-2.622h-.87c-.165 0-.285-.034-.359-.104-.074-.069-.111-.178-.111-.327 0-.16.04-.279.121-.355.08-.075.209-.113.387-.113h1.352c.161 0 .274.035.34.104.065.069.098.24.098.51v4.355h.292c.207 0 .357.034.448.102.09.067.136.18.136.337 0 .151-.043.267-.13.343-.087.076-.213.113-.378.113h-.965c-.114 0-.203-.022-.266-.069-.064-.046-.095-.11-.095-.19v-.432c-.407.312-.755.528-1.045.645-.29.116-.595.175-.917.175-.698 0-1.222-.186-1.571-.556-.349-.371-.524-.93-.524-1.679v-2.857h-.133c-.288 0-.484-.033-.59-.101-.106-.068-.159-.188-.159-.356 0-.147.041-.259.124-.333.082-.073.21-.11.384-.11h.958c.148 0 .251.028.308.089.057.059.086.189.086.393v3.039zM85.037 82.241c.034.608.24 1.08.619 1.412s.896.498 1.552.498c.495 0 1.035-.133 1.619-.396.583-.265.937-.396 1.06-.396.127 0 .232.04.317.119.085.081.127.181.127.3 0 .123-.045.234-.133.336-.089.102-.231.201-.426.299-.423.207-.86.366-1.31.476-.451.11-.899.165-1.343.165-.965 0-1.737-.278-2.317-.835s-.87-1.294-.87-2.212c0-.935.307-1.692.921-2.272.613-.579 1.413-.869 2.399-.869.893 0 1.634.271 2.222.812.588.542.882 1.198.882 1.968 0 .237-.049.396-.149.477-.099.08-.369.121-.809.121h-4.361zm.032-.832h4.132c-.063-.503-.274-.909-.632-1.215-.357-.308-.796-.461-1.317-.461-.563 0-1.036.147-1.422.444-.385.296-.639.706-.761 1.232zM94.235 83.123c.034-.144.079-.236.134-.276.055-.04.148-.06.279-.06h1.39l.153.038.057.095-.013.082-.038.096-1.746 3.631-.12.152-.165.058-.042-.007-.073-.025-.444-.165-.152-.102-.051-.134v-.098l.013-.061.818-3.224zM105.412 79.929c-.008.318-.045.521-.111.606-.065.087-.193.13-.384.13-.148 0-.259-.039-.333-.117-.074-.078-.111-.193-.111-.346l.006-.098.007-.2.063-2.096c.009-.156.051-.27.127-.34.076-.068.195-.104.356-.104h5.516c.16 0 .279.035.355.104.076.07.117.184.121.34l.07 2.096.006.216.006.095c0 .152-.04.266-.12.339-.081.074-.201.111-.362.111-.169 0-.286-.043-.349-.13-.064-.086-.1-.288-.108-.606l-.064-1.649h-1.821v5.719h1.225c.177 0 .306.035.387.105.08.069.12.181.12.333 0 .147-.038.261-.114.34-.076.077-.186.116-.33.116h-3.561c-.144 0-.254-.039-.33-.116-.076-.079-.114-.192-.114-.34 0-.157.041-.27.124-.337.082-.067.223-.102.422-.102h1.187v-5.718h-1.822l-.064 1.649zM114.965 83.999h2.108c.165 0 .287.035.365.105.078.069.117.181.117.333 0 .173-.037.293-.111.358-.074.065-.21.098-.409.098h-4.152c-.165 0-.29-.037-.374-.113-.085-.076-.127-.191-.127-.343 0-.148.043-.259.13-.33.087-.072.221-.108.403-.108h1.105v-4.069h-.432c-.411 0-.667-.032-.768-.098-.102-.066-.152-.185-.152-.359 0-.147.041-.259.123-.333.083-.073.209-.11.378-.11h1.447c.115 0 .201.021.261.065.059.045.088.109.088.194v1.079c.402-.503.821-.878 1.257-1.123.436-.246.906-.369 1.409-.369.377 0 .682.077.914.229.233.151.35.349.35.59 0 .157-.059.295-.175.416s-.244.181-.384.181c-.097 0-.261-.064-.492-.194-.231-.129-.437-.192-.619-.192-.33 0-.678.117-1.044.352s-.771.606-1.216 1.114v2.627zM121.808 82.551c0 .533.112.922.336 1.168.225.245.58.368 1.067.368.461 0 .856-.146 1.184-.438.328-.292.492-.658.492-1.099v-2.622h-.87c-.165 0-.285-.034-.359-.104-.074-.069-.111-.178-.111-.327 0-.16.04-.279.121-.355.08-.075.209-.113.387-.113h1.352c.161 0 .274.035.34.104.065.069.098.24.098.51v4.355h.292c.207 0 .357.034.448.102.09.067.136.18.136.337 0 .151-.043.267-.13.343s-.213.113-.378.113h-.965c-.114 0-.203-.022-.266-.069-.064-.046-.095-.11-.095-.19v-.432c-.407.312-.755.528-1.045.645s-.595.175-.917.175c-.698 0-1.222-.186-1.571-.556-.349-.371-.524-.93-.524-1.679v-2.857h-.133c-.288 0-.484-.033-.59-.101-.106-.068-.159-.188-.159-.356 0-.147.041-.259.124-.333.082-.073.21-.11.384-.11h.958c.148 0 .251.028.308.089.057.059.086.189.086.393v3.039zM129.044 82.241c.034.608.24 1.08.619 1.412s.896.498 1.552.498c.495 0 1.035-.133 1.619-.396.583-.265.937-.396 1.06-.396.127 0 .232.04.317.119.085.081.127.181.127.3 0 .123-.045.234-.133.336-.089.102-.231.201-.426.299-.423.207-.86.366-1.31.476-.451.11-.899.165-1.343.165-.965 0-1.737-.278-2.317-.835s-.87-1.294-.87-2.212c0-.935.307-1.692.921-2.272.613-.579 1.413-.869 2.399-.869.893 0 1.634.271 2.222.812.588.542.882 1.198.882 1.968 0 .237-.049.396-.149.477-.099.08-.369.121-.809.121h-4.361zm.032-.832h4.132c-.063-.503-.274-.909-.632-1.215-.357-.308-.796-.461-1.317-.461-.563 0-1.036.147-1.422.444-.385.296-.639.706-.761 1.232zM138.242 83.123c.034-.144.079-.236.134-.276.055-.04.148-.06.279-.06h1.39l.153.038.057.095-.013.082-.038.096-1.746 3.631-.12.152-.165.058-.042-.007-.073-.025-.444-.165-.152-.102-.051-.134v-.098l.013-.061.818-3.224zM149.417 79.929c-.008.318-.045.521-.111.606-.065.087-.193.13-.384.13-.148 0-.259-.039-.333-.117-.074-.078-.111-.193-.111-.346l.006-.098.007-.2.063-2.096c.009-.156.051-.27.127-.34.076-.068.195-.104.356-.104h5.516c.16 0 .279.035.355.104.076.07.117.184.121.34l.07 2.096.006.216.006.095c0 .152-.04.266-.12.339-.081.074-.201.111-.362.111-.169 0-.286-.043-.349-.13-.064-.086-.1-.288-.108-.606l-.064-1.649h-1.821v5.719h1.225c.177 0 .306.035.387.105.08.069.12.181.12.333 0 .147-.038.261-.114.34-.076.077-.186.116-.33.116h-3.561c-.144 0-.254-.039-.33-.116-.076-.079-.114-.192-.114-.34 0-.157.041-.27.124-.337.082-.067.223-.102.422-.102h1.187v-5.718h-1.822l-.064 1.649zM158.971 83.999h2.108c.165 0 .287.035.365.105.078.069.117.181.117.333 0 .173-.037.293-.111.358s-.21.098-.409.098h-4.152c-.165 0-.29-.037-.374-.113-.085-.076-.127-.191-.127-.343 0-.148.043-.259.13-.33.087-.072.221-.108.403-.108h1.105v-4.069h-.432c-.411 0-.667-.032-.768-.098-.102-.066-.152-.185-.152-.359 0-.147.041-.259.123-.333.083-.073.209-.11.378-.11h1.447c.115 0 .201.021.261.065.059.045.088.109.088.194v1.079c.402-.503.821-.878 1.257-1.123.436-.246.906-.369 1.409-.369.377 0 .682.077.914.229.233.151.35.349.35.59 0 .157-.059.295-.175.416-.116.121-.244.181-.384.181-.097 0-.261-.064-.492-.194-.231-.129-.437-.192-.619-.192-.33 0-.678.117-1.044.352s-.771.606-1.216 1.114v2.627zM165.814 82.551c0 .533.112.922.336 1.168.225.245.58.368 1.067.368.461 0 .856-.146 1.184-.438.328-.292.492-.658.492-1.099v-2.622h-.87c-.165 0-.285-.034-.359-.104-.074-.069-.111-.178-.111-.327 0-.16.04-.279.121-.355.08-.075.209-.113.387-.113h1.352c.161 0 .274.035.34.104.065.069.098.24.098.51v4.355h.292c.207 0 .357.034.448.102.09.067.136.18.136.337 0 .151-.043.267-.13.343s-.213.113-.378.113h-.965c-.114 0-.203-.022-.266-.069-.064-.046-.095-.11-.095-.19v-.432c-.407.312-.755.528-1.045.645s-.595.175-.917.175c-.698 0-1.222-.186-1.571-.556-.349-.371-.524-.93-.524-1.679v-2.857h-.133c-.288 0-.484-.033-.59-.101-.106-.068-.159-.188-.159-.356 0-.147.041-.259.124-.333.082-.073.21-.11.384-.11h.958c.148 0 .251.028.308.089.057.059.086.189.086.393v3.039zM173.05 82.241c.034.608.24 1.08.619 1.412.379.332.896.498 1.552.498.495 0 1.035-.133 1.619-.396.583-.265.937-.396 1.06-.396.127 0 .232.04.317.119.085.081.127.181.127.3 0 .123-.045.234-.133.336-.089.102-.23.201-.426.299-.423.207-.86.366-1.31.476-.451.11-.899.165-1.343.165-.965 0-1.737-.278-2.317-.835-.58-.557-.87-1.294-.87-2.212 0-.935.307-1.692.921-2.272.613-.579 1.413-.869 2.399-.869.893 0 1.634.271 2.222.812.588.542.882 1.198.882 1.968 0 .237-.049.396-.149.477-.099.08-.369.121-.809.121h-4.361zm.032-.832h4.132c-.063-.503-.274-.909-.632-1.215-.357-.308-.796-.461-1.317-.461-.563 0-1.036.147-1.422.444-.385.296-.639.706-.761 1.232zM184.445 82.279c-.296.008-.559.094-.787.257-.229.163-.343.398-.343.708v2.443c0 .571-.174.982-.521 1.234-.347.252-.842.378-1.485.378v-.444c.546-.013.936-.116 1.171-.312.235-.194.352-.467.352-.818v-2.47c0-.258.073-.482.219-.676.146-.192.38-.375.702-.549-.313-.152-.545-.332-.695-.539-.15-.208-.226-.435-.226-.68v-2.47c0-.358-.122-.633-.368-.821-.245-.188-.63-.291-1.155-.309v-.444c.567 0 1.043.122 1.428.365s.578.659.578 1.247v2.444c0 .301.102.531.308.691.205.161.479.252.822.273v.492z"/></g></svg>