<svg xmlns="http://www.w3.org/2000/svg" width="480.398" height="195.307" viewBox="0 0 480.398 195.307"><g fill="#454F99"><path d="M9.428 6.737h.883v6.455h-.883v-6.455zM11.625 8.485h.751v.668c.223-.274.458-.473.708-.593s.526-.18.831-.18c.668 0 1.119.233 1.354.699.129.255.193.619.193 1.094v3.02h-.804v-2.967c0-.286-.042-.518-.127-.693-.141-.293-.396-.439-.765-.439-.188 0-.341.019-.461.057-.217.064-.407.193-.571.387-.132.155-.218.315-.257.481-.04.165-.06.401-.06.71v2.465h-.791v-4.709zM16.613 6.692h1.688v.646h-.94v6.979h.94v.646h-1.688v-8.271zM19.663 11.589c.053.451.262.763.628.936.188.088.404.132.65.132.469 0 .816-.149 1.042-.448s.338-.63.338-.993c0-.439-.134-.779-.402-1.02-.268-.24-.589-.36-.964-.36-.272 0-.506.053-.701.158-.195.105-.361.252-.499.439l-.686-.039.479-3.389h3.27v.765h-2.676l-.268 1.749c.146-.111.286-.194.417-.25.234-.098.505-.146.813-.146.577 0 1.066.187 1.468.558.401.373.602.844.602 1.416 0 .595-.184 1.119-.552 1.572-.368.455-.954.682-1.76.682-.513 0-.966-.145-1.36-.433-.394-.289-.614-.731-.661-1.329h.822zM26.545 13.192v-1.538h-2.76v-.773l2.883-3.999h.668v4.082h.927v.69h-.927v1.538h-.791zm-.013-2.228v-2.858l-2.017 2.857h2.017zM28.769 14.317h.936v-6.978h-.936v-.647h1.688v8.271h-1.688v-.646zM32.06 8.548h.918v.957h-.918v-.957zm0 3.686h.918v.958h-.918v-.958zM38.551 9.58v.738h-4.583v-.738h4.583zm0 1.886v.751h-4.583v-.751h4.583z"/></g><path d="M51.485 5.769c-.022.242-.045.561-.045.946 0 .462.044.969.066 1.232l.022.264-.868.121c-.077-.594-.209-1.694-1.496-1.694-1.012 0-1.419.605-1.419 1.067 0 .771.979.869 1.452.925.737.088 1.177.12 1.617.406.396.253.781.716.781 1.431 0 1.133-1.023 2.002-2.311 2.002-.891 0-1.221-.341-1.485-.627l-.088.66h-.891c.022-.22.033-.374.033-.737 0-.671-.055-1.408-.088-1.76h.88c.077.825.429 1.518 1.496 1.518.649 0 1.463-.274 1.463-1.034 0-.682-.627-.813-1.298-.88-.77-.077-2.552-.253-2.552-1.881 0-1.178 1.177-2.035 2.267-2.035.88 0 1.331.517 1.496.692l.088-.616h.88zM54.476 7.31v3.014c0 .419.088 1.178.902 1.178.671 0 1.045-.407 1.452-.814v-2.477h-.902v-.901h1.859v4.081h.858v.902h-1.815v-.341c-.55.396-1.111.495-1.441.495-.55 0-1.122-.231-1.419-.595-.275-.341-.451-.704-.451-1.529v-2.112h-.858v-.901h1.815zM60.889 5.164v2.706c.484-.396 1.001-.604 1.617-.604 1.43 0 2.607 1.154 2.607 2.574 0 1.287-1.045 2.563-2.563 2.563-.33 0-.968-.044-1.662-.595v.484h-1.804v-.902h.847v-5.225l-.847.044-.066-.935 1.871-.11zm1.65 6.293c.924 0 1.562-.748 1.562-1.617 0-.892-.682-1.629-1.573-1.629-.913 0-1.639.76-1.639 1.617 0 .869.715 1.629 1.65 1.629zM68.325 5.879v1.54h2.508v.902h-2.508v1.849c0 .759-.011 1.331.858 1.331.649 0 1.166-.22 1.804-.484l.352-.143.363.869c-.572.264-1.541.704-2.432.704-.484 0-1.111-.154-1.441-.495-.451-.474-.462-1.122-.462-1.782v-1.849h-.726v-.902h.726v-1.54h.958zM75.178 7.31v.813c.462-.439 1.045-.968 1.991-.968.836 0 1.254.429 1.496.671l-.979.748c-.121-.209-.33-.473-.704-.473-.715 0-1.716 1.144-1.804 1.232v2.057h2.035v.902h-4.313v-.902h1.32v-3.18h-1.22v-.9h2.178zM84.044 11.391h.946v.902h-1.903v-.528c-.363.265-.935.683-1.815.683-1.166 0-1.925-.858-1.925-1.717 0-.671.55-1.815 2.487-1.815.495 0 .858.045 1.254.089 0-.386.011-.979-1.078-.979-.77 0-1.518.33-1.925.506l-.374-.88c.671-.275 1.419-.572 2.311-.572 1.408 0 2.024.704 2.024 1.837v2.474zm-.957-1.453c-.385-.055-.715-.121-1.144-.121-1.551 0-1.606.792-1.606.925 0 .406.451.759.924.759.22 0 .979-.044 1.826-.99v-.573zM91.271 7.243c-.033.297-.066.704-.066 1.101 0 .429.033.715.066.968l-.924.121c-.099-.683-.187-1.331-1.441-1.331-1.562 0-1.826 1.221-1.826 1.694 0 .748.473 1.705 1.75 1.705.847 0 1.661-.55 2.299-1.001l.528.748c-.517.396-1.573 1.199-2.871 1.199-1.595 0-2.718-1.155-2.718-2.641 0-1.287.946-2.651 2.685-2.651.55 0 1.001.132 1.562.605l.099-.605.857.088zM94.725 5.879v1.54h2.508v.902h-2.508v1.849c0 .759-.011 1.331.858 1.331.649 0 1.166-.22 1.804-.484l.352-.143.363.869c-.572.264-1.541.704-2.432.704-.484 0-1.111-.154-1.441-.495-.451-.474-.462-1.122-.462-1.782v-1.849h-.726v-.902h.726v-1.54h.958zM108.073 8.694c0 .659-.152 1.196-.457 1.611-.304.416-.727.623-1.268.623-.24 0-.423-.047-.55-.142-.127-.095-.21-.243-.25-.443l-.005-.021c-.143.197-.312.347-.505.451s-.385.156-.575.156c-.412 0-.73-.135-.956-.405-.226-.271-.338-.629-.338-1.077 0-.53.177-.982.532-1.356.354-.375.766-.562 1.235-.562.183 0 .35.037.502.11.152.073.279.169.379.287l.043-.263h.859l-.483 2.175-.011.124c0 .068.02.115.059.14l.15.038c.186 0 .359-.115.518-.346.16-.231.239-.604.239-1.12 0-.569-.181-1.036-.542-1.399-.362-.364-.867-.545-1.515-.545-.712 0-1.293.243-1.743.728-.45.485-.674 1.093-.674 1.823 0 .773.205 1.366.615 1.778.41.412.975.618 1.695.618.293 0 .593-.026.9-.078.306-.052.625-.132.958-.239l.188.79c-.308.093-.635.174-.98.242s-.701.102-1.066.102c-.981 0-1.758-.289-2.331-.867-.573-.579-.859-1.356-.859-2.334 0-.974.311-1.78.932-2.419s1.41-.959 2.366-.959c.838 0 1.537.254 2.097.763.56.506.841 1.178.841 2.016zm-2.466.167c-.057-.186-.14-.319-.247-.397s-.233-.118-.376-.118c-.265 0-.487.104-.666.312s-.269.471-.269.79c0 .244.04.416.118.516.079.101.193.15.344.15.236 0 .458-.099.664-.295.206-.197.332-.417.378-.661l.054-.297zm9.067-.167c0 .659-.152 1.196-.457 1.611-.304.416-.727.623-1.268.623-.24 0-.423-.047-.55-.142-.127-.095-.21-.243-.25-.443l-.005-.021c-.143.197-.312.347-.505.451s-.385.156-.575.156c-.412 0-.73-.135-.956-.405-.226-.271-.338-.629-.338-1.077 0-.53.177-.982.532-1.356.354-.375.766-.562 1.235-.562.183 0 .35.037.502.11.152.073.278.169.378.287l.043-.263h.859l-.483 2.175-.011.124c0 .068.02.115.059.14l.15.038c.186 0 .359-.115.519-.346.159-.231.239-.604.239-1.12 0-.569-.181-1.036-.542-1.399-.362-.364-.867-.545-1.515-.545-.712 0-1.293.243-1.743.728-.45.485-.674 1.093-.674 1.823 0 .773.205 1.366.615 1.778.41.412.975.618 1.694.618.293 0 .594-.026.9-.078.306-.052.625-.132.958-.239l.188.79c-.308.093-.635.174-.98.242-.346.068-.701.102-1.066.102-.981 0-1.758-.289-2.331-.867-.573-.579-.859-1.356-.859-2.334 0-.974.311-1.78.932-2.419s1.41-.959 2.366-.959c.838 0 1.537.254 2.098.763.561.506.841 1.178.841 2.016zm-2.466.167c-.057-.186-.14-.319-.247-.397s-.233-.118-.376-.118c-.265 0-.487.104-.666.312s-.269.471-.269.79c0 .244.04.416.118.516.079.101.193.15.344.15.236 0 .458-.099.664-.295.206-.197.332-.417.378-.661l.054-.297zM123.803 5.879l.055 2.377h-.913l-.099-1.475h-2.651v1.684h1.298v-.793h.913v2.476h-.913v-.782h-1.298v2.024h2.75l.055-1.485h.913v2.388h-5.589v-.902h.913v-4.61h-.913v-.902h5.479zM128.203 5.164v6.227h1.848v.902h-4.653v-.902h1.848v-5.237l-1.716.109-.088-.913 2.761-.186zM134.825 7.31v4.081h1.837v.902h-4.665v-.902h1.87v-3.18h-1.573v-.901h2.531zm-1.166-2.41h1.166v1.452h-1.166v-1.452zM139.203 7.31v.362c.187-.165.539-.517 1.056-.517.561 0 .814.396.902.517.253-.209.605-.517 1.166-.517 1.386 0 1.397 1.463 1.397 2.035v2.2h.506v.902h-1.463v-3.102c0-.638 0-1.089-.484-1.089-.374 0-.605.318-.814.572v2.717h.649v.902h-1.606v-3.146c0-.407 0-1.045-.484-1.045-.308 0-.561.23-.814.473v2.816h.759v.902h-2.343v-.902h.627v-3.18h-.627v-.9h1.573zM148.024 7.31v4.081h1.837v.902h-4.665v-.902h1.87v-3.18h-1.573v-.901h2.531zm-1.166-2.41h1.166v1.452h-1.166v-1.452zM152.93 7.31v.462c.363-.253.88-.616 1.596-.616 1.1 0 1.804.825 1.804 1.98v2.255h.891v.902h-2.772v-.902h.924v-2.211c0-.595-.286-1.078-.825-1.078-.616 0-1.145.407-1.618.748v2.541h.836v.902h-2.707v-.902h.913v-3.18h-.891v-.901h1.849zM162.655 11.391h.946v.902h-1.903v-.528c-.363.265-.935.683-1.815.683-1.166 0-1.925-.858-1.925-1.717 0-.671.55-1.815 2.486-1.815.495 0 .858.045 1.254.089 0-.386.011-.979-1.078-.979-.77 0-1.518.33-1.925.506l-.374-.88c.671-.275 1.419-.572 2.311-.572 1.408 0 2.024.704 2.024 1.837v2.474zm-.957-1.453c-.385-.055-.715-.121-1.144-.121-1.551 0-1.606.792-1.606.925 0 .406.451.759.924.759.22 0 .979-.044 1.826-.99v-.573zM166.735 5.879v1.54h2.508v.902h-2.508v1.849c0 .759-.011 1.331.858 1.331.649 0 1.166-.22 1.804-.484l.352-.143.363.869c-.572.264-1.541.704-2.432.704-.484 0-1.111-.154-1.441-.495-.451-.474-.462-1.122-.462-1.782v-1.849h-.726v-.902h.726v-1.54h.958zM176.966 11.556c-.99.572-1.991.892-2.85.892-1.848 0-2.816-1.232-2.816-2.619 0-1.419 1.045-2.673 2.74-2.673 1.738 0 2.618 1.254 2.618 2.332 0 .253-.022.572-.033.671h-4.313c.099.396.352 1.343 1.782 1.343.913 0 1.837-.44 2.432-.792l.44.846zm-1.32-2.299c-.297-1.134-1.287-1.155-1.595-1.155-1.221 0-1.562.858-1.672 1.155h3.267zM182.374 14.361h-2.374v-8.911h2.374v.924h-1.418v7.063h1.418zM188.846 14.329c-1.497 0-2.245-.546-2.245-1.638v-1.794c0-.376-.319-.564-.956-.564v-.924c.637 0 .956-.186.956-.559v-1.794c0-1.092.749-1.638 2.245-1.638v.913c-.859 0-1.289.231-1.289.693v1.815c0 .426-.175.77-.526 1.031.351.287.526.632.526 1.037v1.815c0 .462.43.693 1.289.693v.914zM79.648 28.079h-.961c-.43-.652-.817-1.357-1.163-2.116-.346-.759-.519-1.54-.519-2.342 0-.798.158-1.551.473-2.258.315-.708.718-1.438 1.208-2.194h.961c-.322.573-.672 1.288-1.05 2.146-.378.857-.567 1.626-.567 2.307 0 .816.172 1.585.516 2.307.345.72.712 1.437 1.102 2.15zM84.103 19.013h.594v6.128h1.826v.902h-4.631v-.902h1.848v-4.939l-1.595.715-.385-.857 2.343-1.047zM91.526 23.137h4.399v.961h-4.399z"/><path fill="#002CC3" d="M102.733 19.629v1.54h2.508v.902h-2.508v1.849c0 .759-.011 1.331.858 1.331.649 0 1.166-.22 1.804-.484l.352-.143.363.869c-.572.264-1.541.704-2.432.704-.484 0-1.111-.154-1.441-.495-.451-.474-.462-1.122-.462-1.782v-1.849h-.726v-.902h.726v-1.54h.958z"/><path d="M110.425 23.621c0 .824-.174 1.613-.524 2.369-.349.755-.736 1.452-1.163 2.089h-.956c.344-.587.699-1.277 1.066-2.07.367-.793.551-1.589.551-2.388 0-.813-.178-1.593-.534-2.342-.356-.749-.717-1.452-1.083-2.111h.956c.455.698.85 1.401 1.184 2.108.335.707.503 1.489.503 2.345zM118.959 24.359l-1.463-3.608-1.397 3.608h-1.177l1.837-4.73h1.474l1.903 4.73h-1.177zM127.176 24.062v1.98h-4.576v-.902c.561-.473 2.112-1.848 3.015-2.75.462-.462.572-.792.572-1.222 0-.648-.462-1.188-1.254-1.188-.341 0-1.155.143-1.155.847l.022.231h-.99v-.957c.847-1.034 1.815-1.09 2.156-1.09 1.232 0 2.223.979 2.223 2.189 0 1.045-.55 1.606-2.046 2.971l-1.067.968h2.179v-1.078h.921zM136.108 23.567l-1.542.419.989 1.241-.935.692-.891-1.326-.887 1.326-.94-.692.994-1.241-1.542-.419.366-1.112 1.493.553-.065-1.606h1.166l-.064 1.606 1.493-.553z"/><path fill="#002CC3" d="M141.914 21.06v.901h-.462l.858.825.924-.825h-.495v-.901h2.454v.901h-.727l-1.507 1.475 1.76 1.705h.748v.902h-2.597v-.902h.506l-1.067-1.056-1.078 1.056h.506v.902h-2.542v-.902h.792l1.672-1.705-1.551-1.475h-.748v-.901h2.554z"/><path d="M149.655 25.345c0 .96-.184 2.615-1.624 2.615-1.431 0-1.623-1.655-1.623-2.615 0-.976.2-2.606 1.623-2.606 1.432-.001 1.624 1.639 1.624 2.606zm-2.199-1.631c-.192.271-.32.943-.32 1.631 0 .68.096 1.951.896 1.951.832 0 .896-1.352.896-1.951 0-.655-.08-1.942-.896-1.942-.113-.001-.368.031-.576.311zM159.434 24.099h-1.73v1.777h-.956v-1.777h-1.713v-.962h1.713v-1.767h.956v1.767h1.73zM168.881 24.062v1.98h-4.577v-.902c.561-.473 2.112-1.848 3.015-2.75.462-.462.572-.792.572-1.222 0-.648-.462-1.188-1.254-1.188-.341 0-1.155.143-1.155.847l.022.231h-.99v-.957c.847-1.034 1.815-1.09 2.156-1.09 1.232 0 2.223.979 2.223 2.189 0 1.045-.55 1.606-2.046 2.971l-1.067.968h2.179v-1.078h.922zM178.458 28.079h-.961c-.43-.652-.817-1.357-1.163-2.116-.345-.759-.518-1.54-.518-2.342 0-.798.157-1.551.473-2.258.315-.708.718-1.438 1.208-2.194h.961c-.322.573-.672 1.288-1.05 2.146-.377.857-.566 1.626-.566 2.307 0 .816.172 1.585.516 2.307.343.72.71 1.437 1.1 2.15zM182.913 19.013h.594v6.128h1.826v.902h-4.631v-.902h1.848v-4.939l-1.595.715-.385-.857 2.343-1.047zM190.337 23.137h4.399v.961h-4.399z"/><path fill="#002CC3" d="M201.543 19.629v1.54h2.508v.902h-2.508v1.849c0 .759-.011 1.331.858 1.331.649 0 1.166-.22 1.804-.484l.352-.143.363.869c-.572.264-1.541.704-2.432.704-.484 0-1.111-.154-1.441-.495-.451-.474-.462-1.122-.462-1.782v-1.849h-.726v-.902h.726v-1.54h.958z"/><path d="M209.235 23.621c0 .824-.175 1.613-.524 2.369s-.736 1.452-1.163 2.089h-.956c.344-.587.699-1.277 1.066-2.07.367-.793.551-1.589.551-2.388 0-.813-.178-1.593-.535-2.342-.356-.749-.717-1.452-1.082-2.111h.956c.455.698.85 1.401 1.184 2.108.336.707.503 1.489.503 2.345z"/><path fill="#002CC3" d="M217.644 19.629v1.54h2.508v.902h-2.508v1.849c0 .759-.011 1.331.858 1.331.649 0 1.166-.22 1.804-.484l.352-.143.363.869c-.572.264-1.541.704-2.432.704-.484 0-1.111-.154-1.441-.495-.451-.474-.462-1.122-.462-1.782v-1.849h-.726v-.902h.726v-1.54h.958z"/><path d="M229.215 23.567l-1.541.419.988 1.241-.934.692-.892-1.326-.886 1.326-.94-.692.993-1.241-1.541-.419.365-1.112 1.493.553-.064-1.606h1.165l-.064 1.606 1.493-.553z"/><path fill="#002CC3" d="M235.021 21.06v.901h-.462l.858.825.924-.825h-.495v-.901h2.454v.901h-.727l-1.507 1.475 1.76 1.705h.748v.902h-2.597v-.902h.506l-1.067-1.056-1.078 1.056h.506v.902h-2.542v-.902h.792l1.672-1.705-1.551-1.475h-.748v-.901h2.554z"/><path d="M241.124 22.738h.432v4.454h1.326v.655h-3.365v-.655h1.343v-3.591l-1.159.521-.279-.624 1.702-.76zM252.541 24.099h-1.73v1.777h-.956v-1.777h-1.713v-.962h1.713v-1.767h.956v1.767h1.73z"/><path fill="#002CC3" d="M259.348 19.629v1.54h2.509v.902h-2.509v1.849c0 .759-.011 1.331.858 1.331.649 0 1.166-.22 1.804-.484l.353-.143.363.869c-.572.264-1.54.704-2.432.704-.483 0-1.11-.154-1.44-.495-.451-.474-.463-1.122-.463-1.782v-1.849h-.727v-.902h.727v-1.54h.957z"/><path d="M268.973 24.359l-1.463-3.608-1.396 3.608h-1.178l1.838-4.73h1.474l1.903 4.73h-1.178zM277.191 24.062v1.98h-4.577v-.902c.562-.473 2.113-1.848 3.016-2.75.461-.462.571-.792.571-1.222 0-.648-.462-1.188-1.254-1.188-.341 0-1.155.143-1.155.847l.021.231h-.99v-.957c.848-1.034 1.816-1.09 2.156-1.09 1.232 0 2.223.979 2.223 2.189 0 1.045-.55 1.606-2.046 2.971l-1.067.968h2.179v-1.078h.923zM286.123 23.567l-1.542.419.988 1.241-.935.692-.891-1.326-.886 1.326-.94-.692.994-1.241-1.542-.419.365-1.112 1.493.553-.064-1.606h1.166l-.065 1.606 1.493-.553z"/><path fill="#002CC3" d="M291.928 21.06v.901h-.461l.857.825.924-.825h-.494v-.901h2.453v.901h-.727l-1.507 1.475 1.761 1.705h.748v.902h-2.598v-.902h.507l-1.067-1.056-1.078 1.056h.506v.902h-2.541v-.902h.792l1.673-1.705-1.552-1.475h-.748v-.901h2.552z"/><path d="M299.534 26.408v1.439h-3.326v-.655c.407-.344 1.535-1.344 2.19-1.999.336-.336.415-.576.415-.888 0-.472-.335-.863-.91-.863-.248 0-.84.104-.84.615l.016.168h-.72v-.695c.616-.752 1.319-.792 1.567-.792.896 0 1.615.712 1.615 1.592 0 .759-.4 1.167-1.487 2.158l-.776.704h1.584v-.784h.672zM307.998 23.073h-2.948v-.956h2.948v.956zm0 2.046h-2.948v-.956h2.948v.956zm3.626-2.046h-2.943v-.956h2.943v.956zm0 2.046h-2.943v-.956h2.943v.956z"/><path fill="#002CC3" d="M318.607 21.06v.901h-.462l.857.825.925-.825h-.495v-.901h2.453v.901h-.727l-1.506 1.475 1.76 1.705h.748v.902h-2.597v-.902h.507l-1.068-1.056-1.078 1.056h.507v.902h-2.542v-.902h.793l1.672-1.705-1.551-1.475h-.748v-.901h2.552z"/><path d="M326.561 24.194l-1.354 3.015h-1.188l.957-3.015h1.585zM79.648 41.829h-.961c-.43-.652-.817-1.357-1.163-2.116-.346-.759-.519-1.54-.519-2.342 0-.798.158-1.551.473-2.258.315-.708.718-1.438 1.208-2.194h.961c-.322.573-.672 1.288-1.05 2.146-.378.857-.567 1.626-.567 2.307 0 .816.172 1.585.516 2.307.345.72.712 1.437 1.102 2.15zM84.103 32.763h.594v6.128h1.826v.902h-4.631v-.902h1.848v-4.939l-1.595.715-.385-.857 2.343-1.047zM91.526 36.887h4.399v.961h-4.399z"/><path fill="#002CC3" d="M102.733 33.379v1.54h2.508v.902h-2.508v1.849c0 .759-.011 1.331.858 1.331.649 0 1.166-.22 1.804-.484l.352-.143.363.869c-.572.264-1.541.704-2.432.704-.484 0-1.111-.154-1.441-.495-.451-.474-.462-1.122-.462-1.782v-1.849h-.726v-.902h.726v-1.54h.958z"/><path d="M110.425 37.371c0 .824-.174 1.613-.524 2.369-.349.755-.736 1.452-1.163 2.089h-.956c.344-.587.699-1.277 1.066-2.07.367-.793.551-1.589.551-2.388 0-.813-.178-1.593-.534-2.342-.356-.749-.717-1.452-1.083-2.111h.956c.455.698.85 1.401 1.184 2.108.335.707.503 1.489.503 2.345zM118.959 38.109l-1.463-3.608-1.397 3.608h-1.177l1.837-4.73h1.474l1.903 4.73h-1.177zM127.176 37.812v1.98h-4.576v-.902c.561-.473 2.112-1.848 3.015-2.75.462-.462.572-.792.572-1.222 0-.648-.462-1.188-1.254-1.188-.341 0-1.155.143-1.155.847l.022.231h-.99v-.957c.847-1.034 1.815-1.09 2.156-1.09 1.232 0 2.223.979 2.223 2.189 0 1.045-.55 1.606-2.046 2.971l-1.067.968h2.179v-1.078h.921zM136.108 37.317l-1.542.419.989 1.241-.935.692-.891-1.326-.887 1.326-.94-.692.994-1.241-1.542-.419.366-1.112 1.493.553-.065-1.606h1.166l-.064 1.606 1.493-.553z"/><path fill="#002CC3" d="M141.595 34.81v.901h-.594l1.342 2.575 1.474-2.575h-.572v-.901h2.366v.901h-.693l-2.761 4.809h.825v.901h-3.631v-.901h1.706l.726-1.243-1.871-3.565h-.726v-.902h2.409z"/><path d="M149.655 39.095c0 .96-.184 2.615-1.624 2.615-1.431 0-1.623-1.655-1.623-2.615 0-.976.2-2.606 1.623-2.606 1.432-.001 1.624 1.639 1.624 2.606zm-2.199-1.631c-.192.271-.32.943-.32 1.631 0 .68.096 1.951.896 1.951.832 0 .896-1.352.896-1.951 0-.655-.08-1.942-.896-1.942-.113-.001-.368.031-.576.311zM159.434 37.849h-1.73v1.777h-.956v-1.777h-1.713v-.962h1.713v-1.767h.956v1.767h1.73zM168.881 37.812v1.98h-4.577v-.902c.561-.473 2.112-1.848 3.015-2.75.462-.462.572-.792.572-1.222 0-.648-.462-1.188-1.254-1.188-.341 0-1.155.143-1.155.847l.022.231h-.99v-.957c.847-1.034 1.815-1.09 2.156-1.09 1.232 0 2.223.979 2.223 2.189 0 1.045-.55 1.606-2.046 2.971l-1.067.968h2.179v-1.078h.922zM178.458 41.829h-.961c-.43-.652-.817-1.357-1.163-2.116-.345-.759-.518-1.54-.518-2.342 0-.798.157-1.551.473-2.258.315-.708.718-1.438 1.208-2.194h.961c-.322.573-.672 1.288-1.05 2.146-.377.857-.566 1.626-.566 2.307 0 .816.172 1.585.516 2.307.343.72.71 1.437 1.1 2.15zM182.913 32.763h.594v6.128h1.826v.902h-4.631v-.902h1.848v-4.939l-1.595.715-.385-.857 2.343-1.047zM190.337 36.887h4.399v.961h-4.399z"/><path fill="#002CC3" d="M201.543 33.379v1.54h2.508v.902h-2.508v1.849c0 .759-.011 1.331.858 1.331.649 0 1.166-.22 1.804-.484l.352-.143.363.869c-.572.264-1.541.704-2.432.704-.484 0-1.111-.154-1.441-.495-.451-.474-.462-1.122-.462-1.782v-1.849h-.726v-.902h.726v-1.54h.958z"/><path d="M209.235 37.371c0 .824-.175 1.613-.524 2.369s-.736 1.452-1.163 2.089h-.956c.344-.587.699-1.277 1.066-2.07.367-.793.551-1.589.551-2.388 0-.813-.178-1.593-.535-2.342-.356-.749-.717-1.452-1.082-2.111h.956c.455.698.85 1.401 1.184 2.108.336.707.503 1.489.503 2.345z"/><path fill="#002CC3" d="M217.644 33.379v1.54h2.508v.902h-2.508v1.849c0 .759-.011 1.331.858 1.331.649 0 1.166-.22 1.804-.484l.352-.143.363.869c-.572.264-1.541.704-2.432.704-.484 0-1.111-.154-1.441-.495-.451-.474-.462-1.122-.462-1.782v-1.849h-.726v-.902h.726v-1.54h.958z"/><path d="M229.215 37.317l-1.541.419.988 1.241-.934.692-.892-1.326-.886 1.326-.94-.692.993-1.241-1.541-.419.365-1.112 1.493.553-.064-1.606h1.165l-.064 1.606 1.493-.553z"/><path fill="#002CC3" d="M234.703 34.81v.901h-.594l1.342 2.575 1.474-2.575h-.572v-.901h2.366v.901h-.693l-2.761 4.809h.825v.901h-3.631v-.901h1.706l.726-1.243-1.871-3.565h-.726v-.902h2.409z"/><path d="M241.124 36.488h.432v4.454h1.326v.655h-3.365v-.655h1.343v-3.591l-1.159.521-.279-.624 1.702-.76zM252.541 37.849h-1.73v1.777h-.956v-1.777h-1.713v-.962h1.713v-1.767h.956v1.767h1.73z"/><path fill="#002CC3" d="M259.348 33.379v1.54h2.509v.902h-2.509v1.849c0 .759-.011 1.331.858 1.331.649 0 1.166-.22 1.804-.484l.353-.143.363.869c-.572.264-1.54.704-2.432.704-.483 0-1.11-.154-1.44-.495-.451-.474-.463-1.122-.463-1.782v-1.849h-.727v-.902h.727v-1.54h.957z"/><path d="M268.973 38.109l-1.463-3.608-1.396 3.608h-1.178l1.838-4.73h1.474l1.903 4.73h-1.178zM277.191 37.812v1.98h-4.577v-.902c.562-.473 2.113-1.848 3.016-2.75.461-.462.571-.792.571-1.222 0-.648-.462-1.188-1.254-1.188-.341 0-1.155.143-1.155.847l.021.231h-.99v-.957c.848-1.034 1.816-1.09 2.156-1.09 1.232 0 2.223.979 2.223 2.189 0 1.045-.55 1.606-2.046 2.971l-1.067.968h2.179v-1.078h.923zM286.123 37.317l-1.542.419.988 1.241-.935.692-.891-1.326-.886 1.326-.94-.692.994-1.241-1.542-.419.365-1.112 1.493.553-.064-1.606h1.166l-.065 1.606 1.493-.553z"/><path fill="#002CC3" d="M291.61 34.81v.901h-.594l1.342 2.575 1.475-2.575h-.572v-.901h2.365v.901h-.693l-2.762 4.809h.826v.901h-3.631v-.901h1.705l.727-1.243-1.871-3.565h-.727v-.902h2.41z"/><path d="M299.534 40.158v1.439h-3.326v-.655c.407-.344 1.535-1.344 2.19-1.999.336-.336.415-.576.415-.888 0-.472-.335-.863-.91-.863-.248 0-.84.104-.84.615l.016.168h-.72v-.695c.616-.752 1.319-.792 1.567-.792.896 0 1.615.712 1.615 1.592 0 .759-.4 1.167-1.487 2.158l-.776.704h1.584v-.784h.672zM307.998 36.823h-2.948v-.956h2.948v.956zm0 2.046h-2.948v-.956h2.948v.956zm3.626-2.046h-2.943v-.956h2.943v.956zm0 2.046h-2.943v-.956h2.943v.956z"/><path fill="#002CC3" d="M318.288 34.81v.901h-.594l1.342 2.575 1.475-2.575h-.572v-.901h2.365v.901h-.693l-2.761 4.809h.825v.901h-3.631v-.901h1.705l.727-1.243-1.871-3.565h-.726v-.902h2.409z"/><path d="M327.122 37.833c-.322 0-.562.047-.72.143-.157.095-.236.235-.236.421v1.794c0 1.092-.748 1.638-2.245 1.638v-.913c.859 0 1.289-.231 1.289-.693v-1.815c0-.404.176-.75.526-1.037-.175-.129-.307-.282-.395-.459s-.132-.368-.132-.572v-1.815c0-.247-.102-.424-.306-.532s-.532-.161-.983-.161v-.913c.76 0 1.323.135 1.692.406.368.27.553.681.553 1.232v1.794c0 .193.077.336.231.43.143.086.385.129.725.129v.923zM333.163 37.944l-1.354 3.015h-1.188l.957-3.015h1.585z"/><path fill="#002CC3" d="M345.131 33.379v1.54h2.509v.902h-2.509v1.849c0 .759-.011 1.331.858 1.331.649 0 1.166-.22 1.804-.484l.353-.143.363.869c-.572.264-1.54.704-2.432.704-.483 0-1.11-.154-1.44-.495-.451-.474-.463-1.122-.463-1.782v-1.849h-.727v-.902h.727v-1.54h.957z"/><path d="M352.867 41.861h-2.379v-.924h1.423v-7.063h-1.423v-.924h2.379zM362.677 36.823h-2.948v-.956h2.948v.956zm0 2.046h-2.948v-.956h2.948v.956zm3.626-2.046h-2.943v-.956h2.943v.956zm0 2.046h-2.943v-.956h2.943v.956zM375.968 37.34c0 1.32-.253 3.598-2.233 3.598-1.969 0-2.232-2.277-2.232-3.598 0-1.343.274-3.587 2.232-3.587 1.969 0 2.233 2.256 2.233 3.587zm-3.025-2.244c-.265.374-.44 1.298-.44 2.244 0 .935.133 2.685 1.232 2.685 1.145 0 1.232-1.859 1.232-2.685 0-.902-.109-2.674-1.232-2.674-.154.001-.506.044-.792.43z"/><path fill="none" d="M43.819 2h326v58h-326zM45.819 4h427v54h-427z"/><g fill="#454F99"><path d="M10.048 59.083c.428.572.642 1.303.642 2.193 0 .964-.245 1.766-.734 2.404-.574.75-1.393 1.125-2.457 1.125-.993 0-1.774-.328-2.342-.984-.507-.633-.76-1.434-.76-2.4 0-.872.217-1.619.65-2.24.557-.797 1.38-1.195 2.47-1.195 1.139-.001 1.983.366 2.531 1.097zm-.772 4.115c.344-.553.517-1.188.517-1.906 0-.76-.199-1.371-.596-1.834-.397-.464-.939-.695-1.628-.695-.668 0-1.213.229-1.635.688s-.633 1.136-.633 2.029c0 .716.181 1.319.543 1.811.361.491.948.736 1.76.736.771 0 1.328-.276 1.672-.829zM12.417 59.909v3.125c0 .24.037.437.111.589.137.281.392.422.766.422.536 0 .901-.246 1.096-.738.105-.264.158-.625.158-1.085v-2.312h.791v4.707h-.747l.009-.694c-.101.179-.226.329-.375.452-.296.246-.655.369-1.078.369-.659 0-1.107-.224-1.346-.672-.129-.24-.194-.561-.194-.963v-3.199h.809zM16.789 58.596h.8v1.313h.751v.646h-.751v3.072c0 .164.056.273.167.329.062.032.164.048.308.048l.123-.002.154-.016v.629l-.284.057-.318.018c-.369 0-.62-.094-.751-.283-.132-.188-.198-.434-.198-.736v-3.115h-.637v-.646h.637v-1.314zM19.114 58.116h1.688v.646h-.94v6.979h.94v.646h-1.688v-8.271zM22.164 63.013c.053.451.262.763.628.936.188.088.404.132.65.132.469 0 .816-.149 1.042-.448s.338-.63.338-.993c0-.439-.134-.779-.402-1.02-.268-.24-.589-.36-.964-.36-.272 0-.506.053-.701.158-.195.105-.361.252-.499.439l-.686-.039.479-3.389h3.27v.765h-2.676l-.268 1.749c.146-.111.286-.194.417-.25.234-.098.505-.146.813-.146.577 0 1.066.187 1.468.558.401.373.602.844.602 1.416 0 .595-.184 1.119-.552 1.572-.368.455-.954.682-1.76.682-.513 0-.966-.145-1.36-.433-.394-.289-.614-.731-.661-1.329h.822zM29.045 64.616v-1.538h-2.76v-.773l2.883-3.999h.668v4.082h.927v.69h-.927v1.538h-.791zm-.013-2.228v-2.858l-2.017 2.857h2.017zM31.269 65.741h.936v-6.979h-.936v-.646h1.688v8.271h-1.688v-.646zM38.551 61.004v.738h-4.583v-.738h4.583zm0 1.886v.751h-4.583v-.751h4.583z"/></g><path d="M48.14 58.986v.517h-.759l1.738 3.345 1.915-3.345h-.748v-.517h2.013v.517h-.638l-3.081 5.38h.979v.517h-3.301v-.518h1.694l.848-1.462-2.046-3.917h-.671v-.517h2.057zM56.194 58.083v1.167h-3.118v-.424c.344-.296 1.575-1.383 2.223-2.039.384-.384.472-.672.472-1.039 0-.76-.696-1.063-1.104-1.063-.304 0-1.063.176-1.015.831h-.416v-.52c.592-.711 1.319-.711 1.447-.711.751 0 1.519.575 1.519 1.479 0 .344-.08.584-.271.888-.256.408-1.248 1.352-2.319 2.207v.016h2.207v-.791h.375zM63.193 58.986v.517h-.671l1.375 1.375 1.375-1.375h-.638v-.517h2.024v.517h-.671l-1.727 1.738 1.98 1.959h.693v.517h-2.233v-.517h.781l-1.584-1.606-1.595 1.606h.77v.517h-2.167v-.517h.682l1.936-1.959-1.749-1.738h-.704v-.517h2.123zM71.138 64.001c0 1.048-.216 2.535-1.52 2.535-1.303 0-1.519-1.504-1.519-2.535 0-1.039.216-2.542 1.519-2.542 1.304 0 1.52 1.503 1.52 2.542zm-2.615-.008c0 .848.144 2.183 1.087 2.183.959 0 1.104-1.343 1.104-2.183 0-.848-.144-2.175-1.096-2.175-.959 0-1.095 1.344-1.095 2.175zM70.994 58.083v1.167h-3.118v-.424c.344-.296 1.575-1.383 2.223-2.039.384-.384.472-.672.472-1.039 0-.76-.696-1.063-1.104-1.063-.304 0-1.063.176-1.015.831h-.416v-.52c.592-.711 1.319-.711 1.447-.711.751 0 1.519.575 1.519 1.479 0 .344-.08.584-.271.888-.256.408-1.248 1.352-2.319 2.207v.016h2.207v-.791h.375zM76.622 61.09h4.399v.403h-4.399zM89.412 61.582h.99v.528h-.99v1.09h.99v.517h-3.003v-.517h1.485v-1.09h-2.949v-.638l2.729-4.588h.748v4.698zm-.528 0v-4.06h-.022l-2.388 4.06h2.41zM96.942 58.986v.517h-.759l1.738 3.345 1.915-3.345h-.748v-.517h2.013v.517h-.638l-3.081 5.38h.979v.517h-3.301v-.518h1.694l.847-1.463-2.046-3.917h-.671v-.517h2.058zM104.996 58.083v1.167h-3.118v-.424c.344-.296 1.575-1.383 2.223-2.039.384-.384.472-.672.472-1.039 0-.76-.696-1.063-1.104-1.063-.304 0-1.063.176-1.015.831h-.416v-.52c.592-.711 1.319-.711 1.447-.711.751 0 1.519.575 1.519 1.479 0 .344-.08.584-.271.888-.256.408-1.248 1.352-2.319 2.207v.016h2.207v-.791h.375zM111.994 58.986v.517h-.671l1.375 1.375 1.375-1.375h-.638v-.517h2.024v.517h-.671l-1.727 1.738 1.98 1.959h.693v.517h-2.233v-.517h.781l-1.584-1.606-1.595 1.606h.77v.517h-2.167v-.517h.682l1.936-1.959-1.749-1.738h-.704v-.517h2.123zM119.939 63.099c0 1.048-.216 2.535-1.52 2.535-1.303 0-1.519-1.504-1.519-2.535 0-1.039.216-2.542 1.519-2.542 1.304 0 1.52 1.503 1.52 2.542zm-2.615-.008c0 .848.144 2.183 1.087 2.183.959 0 1.104-1.343 1.104-2.183 0-.848-.144-2.175-1.096-2.175-.959 0-1.095 1.344-1.095 2.175zM126.794 58.986v.517h-.671l1.375 1.375 1.375-1.375h-.638v-.517h2.024v.517h-.671l-1.727 1.738 1.98 1.959h.693v.517h-2.233v-.517h.781l-1.584-1.606-1.595 1.606h.77v.517h-2.167v-.517h.682l1.936-1.959-1.749-1.738h-.704v-.517h2.123zM133.235 60.557h.256v4.589h1.367v.376h-3.158v-.376h1.391v-4.126l-1.279.592-.16-.352 1.583-.703zM144.622 61.493h-2.004v2.004h-.408v-2.004h-1.987v-.403h1.987v-1.992h.408v1.992h2.004zM153.013 61.582h.99v.528h-.99v1.09h.99v.517h-3.003v-.517h1.485v-1.09h-2.949v-.638l2.729-4.588h.748v4.698zm-.528 0v-4.06h-.022l-2.388 4.06h2.41zM160.543 58.986v.517h-.759l1.738 3.345 1.915-3.345h-.748v-.517h2.013v.517h-.638l-3.081 5.38h.979v.517h-3.301v-.518h1.694l.847-1.463-2.046-3.917h-.671v-.517h2.058zM168.597 58.083v1.167h-3.118v-.424c.344-.296 1.575-1.383 2.223-2.039.384-.384.472-.672.472-1.039 0-.76-.696-1.063-1.104-1.063-.304 0-1.063.176-1.015.831h-.416v-.52c.592-.711 1.319-.711 1.447-.711.751 0 1.519.575 1.519 1.479 0 .344-.08.584-.271.888-.256.408-1.248 1.352-2.319 2.207v.016h2.207v-.791h.375zM175.596 58.986v.517h-.671l1.375 1.375 1.375-1.375h-.638v-.517h2.024v.517h-.671l-1.727 1.738 1.98 1.959h.693v.517h-2.233v-.517h.781l-1.584-1.606-1.595 1.606h.77v.517h-2.167v-.517h.682l1.936-1.959-1.749-1.738h-.704v-.517h2.123zM182.037 61.459h.256v4.589h1.367v.376h-3.158v-.376h1.391v-4.126l-1.279.592-.16-.352 1.583-.703zM183.396 58.083v1.167h-3.118v-.424c.344-.296 1.575-1.383 2.223-2.039.384-.384.472-.672.472-1.039 0-.76-.696-1.063-1.104-1.063-.304 0-1.063.176-1.015.831h-.416v-.52c.592-.711 1.319-.711 1.447-.711.751 0 1.519.575 1.519 1.479 0 .344-.08.584-.271.888-.256.408-1.248 1.352-2.319 2.207v.016h2.207v-.791h.375zM193.423 61.493h-2.003v2.004h-.408v-2.004h-1.988v-.403h1.988v-1.992h.408v1.992h2.003zM202.717 62.11v1.606h-4.291v-.583c.473-.407 2.167-1.903 3.058-2.806.528-.528.649-.924.649-1.43 0-1.046-.958-1.464-1.519-1.464-.418 0-1.463.242-1.397 1.145h-.572v-.715c.814-.979 1.815-.979 1.991-.979 1.034 0 2.09.792 2.09 2.035 0 .474-.11.804-.374 1.222-.352.561-1.716 1.859-3.19 3.036v.023h3.037v-1.09h.518zM209.345 58.986v.517h-.759l1.738 3.345 1.915-3.345h-.748v-.517h2.013v.517h-.638l-3.081 5.38h.979v.517h-3.301v-.518h1.694l.847-1.463-2.046-3.917h-.671v-.517h2.058zM217.398 58.083v1.167h-3.118v-.424c.344-.296 1.575-1.383 2.223-2.039.384-.384.472-.672.472-1.039 0-.76-.696-1.063-1.104-1.063-.304 0-1.063.176-1.015.831h-.416v-.52c.592-.711 1.319-.711 1.447-.711.751 0 1.519.575 1.519 1.479 0 .344-.08.584-.271.888-.256.408-1.248 1.352-2.319 2.207v.016h2.207v-.791h.375zM224.397 58.986v.517h-.671l1.375 1.375 1.375-1.375h-.638v-.517h2.024v.517h-.671l-1.727 1.738 1.98 1.959h.693v.517h-2.233v-.517h.781l-1.584-1.606-1.595 1.606h.77v.517h-2.167v-.517h.682l1.936-1.959-1.749-1.738h-.704v-.517h2.123zM232.342 63.099c0 1.048-.216 2.535-1.52 2.535-1.303 0-1.519-1.504-1.519-2.535 0-1.039.216-2.542 1.519-2.542 1.304 0 1.52 1.503 1.52 2.542zm-2.614-.008c0 .848.144 2.183 1.087 2.183.959 0 1.104-1.343 1.104-2.183 0-.848-.144-2.175-1.096-2.175-.959 0-1.095 1.344-1.095 2.175zM239.198 58.986v.517h-.671l1.375 1.375 1.376-1.375h-.638v-.517h2.023v.517h-.671l-1.728 1.738 1.98 1.959h.693v.517h-2.233v-.517h.781l-1.585-1.606-1.595 1.606h.771v.517h-2.167v-.517h.682l1.937-1.959-1.75-1.738h-.704v-.517h2.124zM246.999 64.354v1.167h-3.119v-.424c.344-.296 1.576-1.383 2.223-2.039.385-.384.473-.672.473-1.039 0-.76-.696-1.063-1.104-1.063-.305 0-1.063.176-1.016.831h-.416v-.52c.592-.711 1.319-.711 1.447-.711.752 0 1.52.575 1.52 1.479 0 .344-.08.584-.271.888-.256.408-1.248 1.352-2.319 2.207v.016h2.206v-.791h.376zM252.625 61.09h4.399v.403h-4.399zM265.417 61.582h.99v.528h-.99v1.09h.99v.517h-3.004v-.517h1.485v-1.09h-2.948v-.638l2.729-4.588h.748v4.698zm-.529 0v-4.06h-.022l-2.387 4.06h2.409zM272.946 58.986v.517h-.76l1.738 3.345 1.915-3.345h-.748v-.517h2.013v.517h-.638l-3.081 5.38h.98v.517h-3.301v-.518h1.693l.848-1.463-2.047-3.917h-.67v-.517h2.058zM281 58.083v1.167h-3.119v-.424c.344-.296 1.576-1.383 2.223-2.039.385-.384.473-.672.473-1.039 0-.76-.696-1.063-1.104-1.063-.305 0-1.063.176-1.016.831h-.416v-.52c.592-.711 1.319-.711 1.447-.711.752 0 1.52.575 1.52 1.479 0 .344-.08.584-.271.888-.256.408-1.248 1.352-2.319 2.207v.016h2.206v-.791h.376zM287.999 58.986v.517h-.671l1.375 1.375 1.376-1.375h-.639v-.517h2.024v.517h-.671l-1.728 1.738 1.979 1.959h.693v.517h-2.232v-.517h.781l-1.585-1.606-1.595 1.606h.77v.517h-2.167v-.517h.683l1.936-1.959-1.749-1.738h-.704v-.517h2.124zM294.44 60.557h.256v4.589h1.367v.376h-3.158v-.376h1.391v-4.126l-1.279.592-.159-.352 1.582-.703zM302.798 58.986v.517h-.671l1.375 1.375 1.375-1.375h-.638v-.517h2.024v.517h-.672l-1.727 1.738 1.98 1.959h.693v.517h-2.234v-.517h.781l-1.584-1.606-1.596 1.606h.771v.517h-2.167v-.517h.682l1.937-1.959-1.749-1.738h-.704v-.517h2.124zM310.599 64.354v1.167h-3.118v-.424c.344-.296 1.575-1.383 2.223-2.039.384-.384.472-.672.472-1.039 0-.76-.696-1.063-1.104-1.063-.304 0-1.063.176-1.015.831h-.416v-.52c.592-.711 1.318-.711 1.447-.711.751 0 1.519.575 1.519 1.479 0 .344-.079.584-.271.888-.256.408-1.247 1.352-2.319 2.207v.016h2.207v-.791h.375zM320.626 61.493h-2.003v2.004h-.409v-2.004h-1.987v-.403h1.987v-1.992h.409v1.992h2.003zM327.048 58.986v.517h-.759l1.738 3.345 1.914-3.345h-.748v-.517h2.014v.517h-.639l-3.08 5.38h.979v.517h-3.301v-.518h1.695l.847-1.463-2.046-3.917h-.672v-.517h2.058zM335.102 58.083v1.167h-3.118v-.424c.344-.296 1.575-1.383 2.223-2.039.384-.384.472-.672.472-1.039 0-.76-.695-1.063-1.104-1.063-.304 0-1.062.176-1.016.831h-.416v-.52c.592-.711 1.32-.711 1.447-.711.752 0 1.52.575 1.52 1.479 0 .344-.08.584-.271.888-.256.408-1.248 1.352-2.318 2.207v.016h2.206v-.791h.375zM342.101 58.986v.517h-.671l1.375 1.375 1.375-1.375h-.638v-.517h2.024v.517h-.672l-1.727 1.738 1.98 1.959h.693v.517h-2.234v-.517h.781l-1.584-1.606-1.596 1.606h.771v.517h-2.167v-.517h.682l1.937-1.959-1.749-1.738h-.704v-.517h2.124zM349.902 65.257v1.167h-3.118v-.424c.344-.296 1.575-1.383 2.223-2.039.384-.384.472-.672.472-1.039 0-.76-.696-1.063-1.104-1.063-.304 0-1.063.176-1.015.831h-.416v-.52c.592-.711 1.318-.711 1.447-.711.751 0 1.519.575 1.519 1.479 0 .344-.079.584-.271.888-.256.408-1.247 1.352-2.319 2.207v.016h2.207v-.791h.375zM349.902 58.083v1.167h-3.118v-.424c.344-.296 1.575-1.383 2.223-2.039.384-.384.472-.672.472-1.039 0-.76-.696-1.063-1.104-1.063-.304 0-1.063.176-1.015.831h-.416v-.52c.592-.711 1.318-.711 1.447-.711.751 0 1.519.575 1.519 1.479 0 .344-.079.584-.271.888-.256.408-1.247 1.352-2.319 2.207v.016h2.207v-.791h.375zM355.53 61.09h4.398v.403h-4.398zM64.312 76.799h.99v.528h-.99v1.09h.99v.517h-3.003v-.517h1.485v-1.09h-2.949v-.638l2.729-4.588h.748v4.698zm-.528 0v-4.06h-.022l-2.388 4.06h2.41zM71.841 74.203v.517h-.759l1.738 3.345 1.915-3.345h-.748v-.517h2.013v.517h-.638l-3.081 5.38h.979v.518h-3.3v-.518h1.694l.847-1.463-2.046-3.917h-.671v-.517h2.057zM81.593 74.203v.517h-.671l1.375 1.375 1.375-1.375h-.638v-.517h2.024v.517h-.671l-1.727 1.738 1.98 1.959h.693v.517h-2.233v-.517h.781l-1.584-1.606-1.595 1.606h.77v.517h-2.167v-.517h.682l1.936-1.959-1.749-1.738h-.704v-.517h2.123zM88.035 76.676h.256v4.589h1.367v.376h-3.158v-.376h1.391v-4.126l-1.279.592-.16-.352 1.583-.703zM89.394 73.3v1.167h-3.118v-.424c.344-.296 1.575-1.383 2.223-2.039.384-.384.472-.672.472-1.039 0-.76-.696-1.063-1.104-1.063-.304 0-1.063.176-1.015.831h-.416v-.52c.592-.711 1.319-.711 1.447-.711.751 0 1.519.575 1.519 1.479 0 .344-.08.584-.271.888-.256.408-1.248 1.352-2.319 2.207v.016h2.207v-.792h.375zM96.14 74.203v.517h-.759l1.738 3.345 1.915-3.345h-.748v-.517h2.013v.517h-.638l-3.081 5.38h.979v.518h-3.301v-.518h1.694l.847-1.463-2.046-3.917h-.671v-.517h2.058zM104.337 78.315c0 1.048-.216 2.535-1.52 2.535-1.303 0-1.519-1.504-1.519-2.535 0-1.039.216-2.542 1.519-2.542 1.305 0 1.52 1.503 1.52 2.542zm-2.614-.007c0 .848.144 2.183 1.087 2.183.959 0 1.104-1.343 1.104-2.183 0-.848-.144-2.175-1.096-2.175-.959 0-1.095 1.344-1.095 2.175zM114.22 76.71h-2.003v2.003h-.408v-2.003h-1.988v-.403h1.988v-1.993h.408v1.993h2.003zM123.515 77.327v1.606h-4.291v-.583c.473-.407 2.167-1.903 3.058-2.806.528-.528.649-.924.649-1.43 0-1.046-.958-1.464-1.519-1.464-.418 0-1.463.242-1.397 1.145h-.572v-.715c.814-.979 1.815-.979 1.991-.979 1.034 0 2.09.792 2.09 2.035 0 .474-.11.804-.374 1.222-.352.561-1.716 1.859-3.19 3.036v.022h3.037v-1.09h.518zM130.142 74.203v.517h-.759l1.738 3.345 1.915-3.345h-.748v-.517h2.013v.517h-.638l-3.081 5.38h.979v.518h-3.301v-.518h1.694l.847-1.463-2.046-3.917h-.671v-.517h2.058zM139.894 74.203v.517h-.671l1.375 1.375 1.375-1.375h-.638v-.517h2.024v.517h-.671l-1.727 1.738 1.98 1.959h.693v.517h-2.233v-.517h.781l-1.584-1.606-1.595 1.606h.77v.517h-2.167v-.517h.682l1.936-1.959-1.749-1.738h-.704v-.517h2.123zM147.838 78.315c0 1.048-.216 2.535-1.52 2.535-1.303 0-1.519-1.504-1.519-2.535 0-1.039.216-2.542 1.519-2.542 1.305 0 1.52 1.503 1.52 2.542zm-2.614-.007c0 .848.144 2.183 1.087 2.183.959 0 1.104-1.343 1.104-2.183 0-.848-.144-2.175-1.096-2.175-.959 0-1.095 1.344-1.095 2.175zM154.693 74.203v.517h-.671l1.375 1.375 1.375-1.375h-.638v-.517h2.024v.517h-.671l-1.727 1.738 1.98 1.959h.693v.517h-2.233v-.517h.781l-1.584-1.606-1.595 1.606h.77v.517h-2.167v-.517h.682l1.936-1.959-1.749-1.738h-.704v-.517h2.123zM162.494 79.571v1.167h-3.118v-.424c.344-.296 1.575-1.383 2.223-2.039.384-.384.472-.672.472-1.039 0-.76-.696-1.063-1.104-1.063-.304 0-1.063.176-1.015.831h-.416v-.52c.592-.711 1.319-.711 1.447-.711.751 0 1.519.575 1.519 1.479 0 .344-.08.584-.271.888-.256.408-1.248 1.352-2.319 2.207v.016h2.207v-.791h.375zM169.24 74.203v.517h-.759l1.738 3.345 1.915-3.345h-.748v-.517h2.013v.517h-.638l-3.081 5.38h.979v.518h-3.301v-.518h1.694l.847-1.463-2.046-3.917h-.671v-.517h2.058zM177.438 78.315c0 1.048-.216 2.535-1.52 2.535-1.303 0-1.519-1.504-1.519-2.535 0-1.039.216-2.542 1.519-2.542 1.304 0 1.52 1.503 1.52 2.542zm-2.615-.007c0 .848.144 2.183 1.087 2.183.959 0 1.104-1.343 1.104-2.183 0-.848-.144-2.175-1.096-2.175-.959 0-1.095 1.344-1.095 2.175zM187.321 76.71h-2.004v2.003h-.408v-2.003h-1.987v-.403h1.987v-1.993h.408v1.993h2.004zM195.712 76.799h.99v.528h-.99v1.09h.99v.517h-3.003v-.517h1.485v-1.09h-2.949v-.638l2.729-4.588h.748v4.698zm-.527 0v-4.06h-.022l-2.388 4.06h2.41zM203.242 74.203v.517h-.759l1.738 3.345 1.915-3.345h-.748v-.517h2.013v.517h-.638l-3.081 5.38h.979v.518h-3.301v-.518h1.694l.847-1.463-2.046-3.917h-.671v-.517h2.058zM212.994 74.203v.517h-.671l1.375 1.375 1.375-1.375h-.638v-.517h2.024v.517h-.671l-1.727 1.738 1.98 1.959h.693v.517h-2.233v-.517h.781l-1.584-1.606-1.595 1.606h.77v.517h-2.167v-.517h.682l1.936-1.959-1.749-1.738h-.704v-.517h2.123zM219.436 75.773h.256v4.589h1.367v.376h-3.159v-.376h1.391v-4.126l-1.279.592-.16-.352 1.584-.703zM227.793 74.203v.517h-.671l1.375 1.375 1.375-1.375h-.638v-.517h2.024v.517h-.671l-1.727 1.738 1.98 1.959h.693v.517h-2.233v-.517h.781l-1.584-1.606-1.595 1.606h.77v.517h-2.167v-.517h.682l1.936-1.959-1.749-1.738h-.704v-.517h2.123zM235.595 79.571v1.167h-3.118v-.424c.344-.296 1.575-1.383 2.223-2.039.384-.384.472-.672.472-1.039 0-.76-.696-1.063-1.104-1.063-.304 0-1.063.176-1.015.831h-.416v-.52c.592-.711 1.319-.711 1.447-.711.751 0 1.519.575 1.519 1.479 0 .344-.08.584-.271.888-.256.408-1.248 1.352-2.319 2.207v.016h2.207v-.791h.375zM242.34 74.203v.517h-.76l1.738 3.345 1.915-3.345h-.748v-.517h2.013v.517h-.638l-3.081 5.38h.98v.518h-3.301v-.518h1.693l.849-1.463-2.047-3.917h-.67v-.517h2.057zM250.538 78.315c0 1.048-.215 2.535-1.52 2.535-1.303 0-1.519-1.504-1.519-2.535 0-1.039.216-2.542 1.519-2.542 1.305 0 1.52 1.503 1.52 2.542zm-2.615-.007c0 .848.144 2.183 1.087 2.183.96 0 1.104-1.343 1.104-2.183 0-.848-.144-2.175-1.096-2.175-.959 0-1.095 1.344-1.095 2.175zM256.022 76.307h4.399v.403h-4.399zM269.715 77.327v1.606h-4.291v-.583c.473-.407 2.167-1.903 3.059-2.806.527-.528.648-.924.648-1.43 0-1.046-.957-1.464-1.518-1.464-.418 0-1.463.242-1.397 1.145h-.572v-.715c.814-.979 1.815-.979 1.991-.979 1.034 0 2.09.792 2.09 2.035 0 .474-.109.804-.373 1.222-.353.561-1.717 1.859-3.191 3.036v.022h3.037v-1.09h.517zM276.342 74.203v.517h-.76l1.738 3.345 1.915-3.345h-.748v-.517h2.013v.517h-.638l-3.081 5.38h.98v.518h-3.301v-.518h1.693l.848-1.463-2.047-3.917h-.67v-.517h2.058zM286.094 74.203v.517h-.671l1.375 1.375 1.376-1.375h-.639v-.517h2.024v.517h-.671l-1.728 1.738 1.979 1.959h.693v.517h-2.232v-.517h.781l-1.585-1.606-1.595 1.606h.77v.517h-2.167v-.517h.683l1.936-1.959-1.749-1.738h-.704v-.517h2.124zM293.895 80.474v1.167h-3.118v-.424c.344-.296 1.575-1.383 2.223-2.039.384-.384.472-.672.472-1.039 0-.76-.695-1.063-1.104-1.063-.304 0-1.062.176-1.016.831h-.416v-.52c.592-.711 1.32-.711 1.447-.711.752 0 1.52.575 1.52 1.479 0 .344-.08.584-.271.888-.256.408-1.248 1.352-2.318 2.207v.016h2.206v-.791h.375zM293.895 73.3v1.167h-3.118v-.424c.344-.296 1.575-1.383 2.223-2.039.384-.384.472-.672.472-1.039 0-.76-.695-1.063-1.104-1.063-.304 0-1.062.176-1.016.831h-.416v-.52c.592-.711 1.32-.711 1.447-.711.752 0 1.52.575 1.52 1.479 0 .344-.08.584-.271.888-.256.408-1.248 1.352-2.318 2.207v.016h2.206v-.792h.375zM300.641 74.203v.517h-.76l1.738 3.345 1.915-3.345h-.748v-.517h2.013v.517h-.638l-3.081 5.38h.98v.518h-3.301v-.518h1.693l.848-1.463-2.047-3.917h-.67v-.517h2.058zM308.838 78.315c0 1.048-.215 2.535-1.52 2.535-1.303 0-1.519-1.504-1.519-2.535 0-1.039.216-2.542 1.519-2.542 1.306 0 1.52 1.503 1.52 2.542zm-2.614-.007c0 .848.144 2.183 1.087 2.183.96 0 1.104-1.343 1.104-2.183 0-.848-.144-2.175-1.096-2.175-.959 0-1.095 1.344-1.095 2.175zM318.721 76.71h-2.003v2.003h-.408v-2.003h-1.987v-.403h1.987v-1.993h.408v1.993h2.003zM325.397 74.203v.517h-.671l1.375 1.375 1.376-1.375h-.639v-.517h2.024v.517h-.671l-1.728 1.738 1.979 1.959h.693v.517h-2.232v-.517h.781l-1.585-1.606-1.595 1.606h.77v.517h-2.167v-.517h.683l1.936-1.959-1.749-1.738h-.704v-.517h2.124zM333.198 80.474v1.167h-3.118v-.424c.344-.296 1.575-1.383 2.223-2.039.384-.384.472-.672.472-1.039 0-.76-.695-1.063-1.104-1.063-.304 0-1.062.176-1.016.831h-.416v-.52c.592-.711 1.32-.711 1.447-.711.752 0 1.52.575 1.52 1.479 0 .344-.08.584-.271.888-.256.408-1.248 1.352-2.318 2.207v.016h2.206v-.791h.375zM333.198 73.3v1.167h-3.118v-.424c.344-.296 1.575-1.383 2.223-2.039.384-.384.472-.672.472-1.039 0-.76-.695-1.063-1.104-1.063-.304 0-1.062.176-1.016.831h-.416v-.52c.592-.711 1.32-.711 1.447-.711.752 0 1.52.575 1.52 1.479 0 .344-.08.584-.271.888-.256.408-1.248 1.352-2.318 2.207v.016h2.206v-.792h.375zM339.944 74.203v.517h-.76l1.738 3.345 1.915-3.345h-.748v-.517h2.013v.517h-.638l-3.081 5.38h.98v.518h-3.301v-.518h1.693l.848-1.463-2.047-3.917h-.67v-.517h2.058zM348.141 79.218c0 1.048-.215 2.535-1.52 2.535-1.303 0-1.519-1.504-1.519-2.535 0-1.039.216-2.542 1.519-2.542 1.305 0 1.52 1.503 1.52 2.542zm-2.614-.008c0 .848.144 2.183 1.087 2.183.96 0 1.104-1.343 1.104-2.183 0-.848-.144-2.175-1.096-2.175-.959 0-1.095 1.344-1.095 2.175zM347.998 73.3v1.167h-3.118v-.424c.344-.296 1.575-1.383 2.223-2.039.384-.384.472-.672.472-1.039 0-.76-.696-1.063-1.104-1.063-.304 0-1.063.176-1.015.831h-.416v-.52c.592-.711 1.318-.711 1.447-.711.751 0 1.519.575 1.519 1.479 0 .344-.079.584-.271.888-.256.408-1.247 1.352-2.319 2.207v.016h2.207v-.792h.375zM358.024 76.71h-2.003v2.003h-.408v-2.003h-1.988v-.403h1.988v-1.993h.408v1.993h2.003zM366.417 76.799h.99v.528h-.99v1.09h.99v.517h-3.004v-.517h1.485v-1.09h-2.948v-.638l2.729-4.588h.748v4.698zm-.529 0v-4.06h-.022l-2.387 4.06h2.409zM373.946 74.203v.517h-.76l1.738 3.345 1.914-3.345h-.748v-.517h2.014v.517h-.639l-3.08 5.38h.979v.518h-3.301v-.518h1.694l.848-1.463-2.047-3.917h-.671v-.517h2.059zM383.698 74.203v.517h-.672l1.375 1.375 1.376-1.375h-.638v-.517h2.023v.517h-.671l-1.728 1.738 1.98 1.959h.693v.517h-2.233v-.517h.781l-1.585-1.606-1.595 1.606h.771v.517h-2.168v-.517h.683l1.937-1.959-1.75-1.738h-.703v-.517h2.124zM391.642 78.315c0 1.048-.216 2.535-1.52 2.535s-1.519-1.504-1.519-2.535c0-1.039.215-2.542 1.519-2.542s1.52 1.503 1.52 2.542zm-2.614-.007c0 .848.144 2.183 1.087 2.183.96 0 1.104-1.343 1.104-2.183 0-.848-.144-2.175-1.096-2.175-.959 0-1.095 1.344-1.095 2.175zM398.497 74.203v.517h-.67l1.375 1.375 1.375-1.375h-.639v-.517h2.025v.517h-.672l-1.727 1.738 1.979 1.959h.693v.517h-2.233v-.517h.781l-1.584-1.606-1.596 1.606h.77v.517h-2.166v-.517h.682l1.936-1.959-1.748-1.738h-.705v-.517h2.124zM404.938 75.773h.256v4.589h1.367v.376h-3.158v-.376h1.392v-4.126l-1.279.592-.159-.352 1.581-.703zM413.043 74.203v.517h-.759l1.738 3.345 1.915-3.345h-.748v-.517h2.013v.517h-.638l-3.081 5.38h.979v.518h-3.301v-.518h1.694l.847-1.463-2.046-3.917h-.671v-.517h2.058zM419.739 75.773h.256v4.589h1.367v.376h-3.158v-.376h1.391v-4.126l-1.279.592-.16-.352 1.583-.703zM426.726 76.307h4.398v.403h-4.398zM61.319 89.123c0-.99.869-1.805 2.002-1.805 1.133 0 2.002.814 2.002 1.805 0 .583-.308 1.254-.99 1.628.792.352 1.111 1.111 1.111 1.661 0 .825-.682 1.893-2.124 1.893-1.441 0-2.123-1.067-2.123-1.893 0-.693.451-1.364 1.111-1.661-.296-.154-.989-.693-.989-1.628zm.473 3.289c0 .737.66 1.375 1.529 1.375s1.529-.638 1.529-1.375c0-.66-.528-1.397-1.529-1.397-1.023 0-1.529.748-1.529 1.397zm.121-3.278c0 .671.55 1.364 1.408 1.364.715 0 1.408-.528 1.408-1.364 0-.869-.737-1.298-1.408-1.298-1.023 0-1.408.769-1.408 1.298zM71.841 89.42v.517h-.759l1.738 3.345 1.915-3.345h-.748v-.517h2.013v.517h-.638l-3.081 5.38h.979v.518h-3.3v-.518h1.694l.847-1.463-2.046-3.917h-.671v-.517h2.057zM81.593 89.42v.517h-.671l1.375 1.375 1.375-1.375h-.638v-.517h2.024v.517h-.671l-1.727 1.738 1.98 1.959h.693v.517h-2.233v-.517h.781l-1.584-1.606-1.595 1.606h.77v.517h-2.167v-.517h.682l1.936-1.959-1.749-1.738h-.704v-.517h2.123zM89.538 93.532c0 1.048-.216 2.535-1.52 2.535-1.303 0-1.519-1.504-1.519-2.535 0-1.039.216-2.542 1.519-2.542 1.304 0 1.52 1.503 1.52 2.542zm-2.615-.008c0 .848.144 2.183 1.087 2.183.959 0 1.104-1.343 1.104-2.183 0-.848-.144-2.175-1.096-2.175-.958.001-1.095 1.344-1.095 2.175zM96.393 89.42v.517h-.671l1.375 1.375 1.375-1.375h-.638v-.517h2.024v.517h-.671l-1.727 1.738 1.98 1.959h.693v.517h-2.233v-.517h.781l-1.584-1.606-1.595 1.606h.77v.517h-2.167v-.517h.682l1.936-1.959-1.749-1.738h-.704v-.517h2.123zM104.193 94.788v1.167h-3.118v-.424c.344-.296 1.575-1.383 2.223-2.039.384-.384.472-.672.472-1.039 0-.76-.696-1.063-1.104-1.063-.304 0-1.063.176-1.015.831h-.416v-.52c.592-.711 1.319-.711 1.447-.711.751 0 1.519.575 1.519 1.479 0 .344-.08.584-.271.888-.256.408-1.248 1.352-2.319 2.207v.016h2.207v-.791h.375zM110.939 89.42v.517h-.759l1.738 3.345 1.915-3.345h-.748v-.517h2.013v.517h-.638l-3.081 5.38h.979v.518h-3.301v-.518h1.694l.847-1.463-2.046-3.917h-.671v-.517h2.058zM117.634 90.99h.256v4.589h1.367v.376h-3.158v-.376h1.391v-4.126l-1.279.592-.16-.352 1.583-.703zM129.02 91.927h-2.003v2.004h-.409v-2.004h-1.987v-.403h1.987v-1.992h.409v1.992h2.003zM137.412 92.016h.99v.528h-.99v1.09h.99v.517h-3.003v-.517h1.485v-1.09h-2.949v-.638l2.729-4.588h.748v4.698zm-.528 0v-4.06h-.022l-2.388 4.06h2.41zM144.941 89.42v.517h-.759l1.738 3.345 1.915-3.345h-.748v-.517h2.013v.517h-.638l-3.081 5.38h.979v.518h-3.301v-.518h1.694l.847-1.463-2.046-3.917h-.671v-.517h2.058zM154.693 89.42v.517h-.671l1.375 1.375 1.375-1.375h-.638v-.517h2.024v.517h-.671l-1.727 1.738 1.98 1.959h.693v.517h-2.233v-.517h.781l-1.584-1.606-1.595 1.606h.77v.517h-2.167v-.517h.682l1.936-1.959-1.749-1.738h-.704v-.517h2.123zM161.135 90.99h.256v4.589h1.367v.376h-3.158v-.376h1.391v-4.126l-1.279.592-.16-.352 1.583-.703zM169.493 89.42v.517h-.671l1.375 1.375 1.375-1.375h-.638v-.517h2.024v.517h-.671l-1.727 1.738 1.98 1.959h.693v.517h-2.233v-.517h.781l-1.584-1.606-1.595 1.606h.77v.517h-2.167v-.517h.682l1.936-1.959-1.749-1.738h-.704v-.517h2.123zM177.294 94.788v1.167h-3.118v-.424c.344-.296 1.575-1.383 2.223-2.039.384-.384.472-.672.472-1.039 0-.76-.696-1.063-1.104-1.063-.304 0-1.063.176-1.015.831h-.416v-.52c.592-.711 1.319-.711 1.447-.711.751 0 1.519.575 1.519 1.479 0 .344-.08.584-.271.888-.256.408-1.248 1.352-2.319 2.207v.016h2.207v-.791h.375zM184.04 89.42v.517h-.759l1.738 3.345 1.915-3.345h-.748v-.517h2.013v.517h-.638l-3.081 5.38h.979v.518h-3.301v-.518h1.694l.847-1.463-2.046-3.917h-.671v-.517h2.058zM190.734 90.99h.256v4.589h1.367v.376h-3.158v-.376h1.391v-4.126l-1.279.592-.16-.352 1.583-.703zM197.722 91.524h4.399v.403h-4.399zM210.512 92.016h.99v.528h-.99v1.09h.99v.517h-3.003v-.517h1.485v-1.09h-2.949v-.638l2.729-4.588h.748v4.698zm-.528 0v-4.06h-.022l-2.388 4.06h2.41zM218.294 89.42v.517h-.671l1.375 1.375 1.375-1.375h-.638v-.517h2.024v.517h-.671l-1.727 1.738 1.98 1.959h.693v.517h-2.233v-.517h.781l-1.584-1.606-1.595 1.606h.77v.517h-2.167v-.517h.682l1.936-1.959-1.749-1.738h-.704v-.517h2.123zM224.736 90.99h.256v4.589h1.367v.376h-3.158v-.376h1.391v-4.126l-1.279.592-.16-.352 1.583-.703zM233.094 89.42v.517h-.671l1.375 1.375 1.375-1.375h-.638v-.517h2.024v.517h-.671l-1.727 1.738 1.98 1.959h.693v.517h-2.233v-.517h.781l-1.584-1.606-1.595 1.606h.77v.517h-2.167v-.517h.682l1.936-1.959-1.749-1.738h-.704v-.517h2.123zM240.895 94.788v1.167h-3.118v-.424c.344-.296 1.575-1.383 2.223-2.039.383-.384.471-.672.471-1.039 0-.76-.695-1.063-1.104-1.063-.303 0-1.062.176-1.015.831h-.416v-.52c.592-.711 1.319-.711 1.447-.711.751 0 1.519.575 1.519 1.479 0 .344-.079.584-.271.888-.256.408-1.247 1.352-2.318 2.207v.016h2.207v-.791h.375zM247.641 89.42v.517h-.76l1.738 3.345 1.915-3.345h-.748v-.517h2.013v.517h-.638l-3.081 5.38h.98v.518h-3.301v-.518h1.693l.848-1.463-2.047-3.917h-.67v-.517h2.058zM255.838 93.532c0 1.048-.215 2.535-1.52 2.535-1.303 0-1.519-1.504-1.519-2.535 0-1.039.216-2.542 1.519-2.542 1.306 0 1.52 1.503 1.52 2.542zm-2.614-.008c0 .848.144 2.183 1.087 2.183.96 0 1.104-1.343 1.104-2.183 0-.848-.144-2.175-1.096-2.175-.959.001-1.095 1.344-1.095 2.175zM262.441 89.42v.517h-.759l1.738 3.345 1.914-3.345h-.748v-.517h2.014v.517h-.639l-3.08 5.38h.979v.518h-3.301v-.518h1.695l.847-1.463-2.046-3.917h-.672v-.517h2.058zM269.135 90.99h.256v4.589h1.367v.376h-3.158v-.376h1.391v-4.126l-1.279.592-.159-.352 1.582-.703zM280.522 91.927h-2.004v2.004h-.408v-2.004h-1.987v-.403h1.987v-1.992h.408v1.992h2.004zM288.913 92.016h.99v.528h-.99v1.09h.99v.517h-3.003v-.517h1.485v-1.09h-2.949v-.638l2.729-4.588h.748v4.698zm-.528 0v-4.06h-.021l-2.389 4.06h2.41zM296.696 89.42v.517h-.671l1.375 1.375 1.376-1.375h-.639v-.517h2.024v.517h-.671l-1.728 1.738 1.979 1.959h.693v.517h-2.232v-.517h.781l-1.585-1.606-1.595 1.606h.77v.517h-2.167v-.517h.683l1.936-1.959-1.749-1.738h-.704v-.517h2.124zM304.641 93.532c0 1.048-.217 2.535-1.52 2.535-1.304 0-1.52-1.504-1.52-2.535 0-1.039.216-2.542 1.52-2.542 1.303 0 1.52 1.503 1.52 2.542zm-2.615-.008c0 .848.145 2.183 1.088 2.183.959 0 1.104-1.343 1.104-2.183 0-.848-.145-2.175-1.096-2.175-.959.001-1.096 1.344-1.096 2.175zM311.496 89.42v.517h-.671l1.375 1.375 1.375-1.375h-.638v-.517h2.024v.517h-.672l-1.727 1.738 1.98 1.959h.693v.517h-2.234v-.517h.781l-1.584-1.606-1.596 1.606h.771v.517h-2.167v-.517h.682l1.937-1.959-1.749-1.738h-.704v-.517h2.124zM319.296 94.788v1.167h-3.118v-.424c.344-.296 1.575-1.383 2.223-2.039.384-.384.472-.672.472-1.039 0-.76-.696-1.063-1.104-1.063-.304 0-1.063.176-1.015.831h-.416v-.52c.592-.711 1.318-.711 1.447-.711.751 0 1.519.575 1.519 1.479 0 .344-.079.584-.271.888-.256.408-1.247 1.352-2.319 2.207v.016h2.207v-.791h.375zM326.042 89.42v.517h-.759l1.738 3.345 1.914-3.345h-.748v-.517h2.014v.517h-.639l-3.08 5.38h.979v.518h-3.301v-.518h1.695l.847-1.463-2.046-3.917h-.672v-.517h2.058zM332.737 91.893h.256v4.589h1.367v.376h-3.158v-.376h1.391v-4.126l-1.279.592-.159-.352 1.582-.703zM334.096 88.517v1.167h-3.118v-.424c.344-.296 1.575-1.383 2.223-2.039.384-.384.472-.672.472-1.039 0-.76-.695-1.063-1.104-1.063-.304 0-1.062.176-1.016.831h-.416v-.52c.592-.711 1.32-.711 1.447-.711.752 0 1.52.575 1.52 1.479 0 .344-.08.584-.271.888-.256.408-1.248 1.352-2.318 2.207v.016h2.206v-.791h.375zM339.724 91.524h4.398v.403h-4.398zM353.417 92.544v1.606h-4.29v-.583c.473-.407 2.167-1.903 3.058-2.806.529-.528.65-.924.65-1.43 0-1.046-.958-1.464-1.52-1.464-.418 0-1.463.242-1.396 1.145h-.572v-.715c.814-.979 1.815-.979 1.991-.979 1.034 0 2.091.792 2.091 2.035 0 .474-.11.804-.375 1.222-.352.561-1.716 1.859-3.189 3.036v.022h3.036v-1.09h.516zM360.043 89.42v.517h-.759l1.738 3.345 1.915-3.345h-.748v-.517h2.013v.517h-.638l-3.081 5.38h.979v.518h-3.301v-.518h1.694l.847-1.463-2.046-3.917h-.671v-.517h2.058zM369.795 89.42v.517h-.67l1.375 1.375 1.375-1.375h-.639v-.517h2.025v.517h-.672l-1.727 1.738 1.979 1.959h.693v.517h-2.233v-.517h.781l-1.584-1.606-1.596 1.606h.77v.517h-2.166v-.517h.682l1.936-1.959-1.748-1.738h-.705v-.517h2.124zM377.741 94.435c0 1.048-.216 2.535-1.52 2.535-1.303 0-1.52-1.504-1.52-2.535 0-1.039.217-2.542 1.52-2.542 1.304 0 1.52 1.503 1.52 2.542zm-2.616-.008c0 .848.145 2.183 1.088 2.183.959 0 1.104-1.343 1.104-2.183 0-.848-.145-2.175-1.096-2.175-.959 0-1.096 1.344-1.096 2.175zM377.596 88.517v1.167h-3.117v-.424c.344-.296 1.574-1.383 2.223-2.039.383-.384.471-.672.471-1.039 0-.76-.695-1.063-1.104-1.063-.303 0-1.062.176-1.015.831h-.416v-.52c.592-.711 1.319-.711 1.447-.711.751 0 1.519.575 1.519 1.479 0 .344-.079.584-.271.888-.256.408-1.247 1.352-2.318 2.207v.016h2.207v-.791h.374zM384.342 89.42v.517h-.759l1.738 3.345 1.915-3.345h-.748v-.517h2.013v.517h-.638l-3.081 5.38h.979v.518h-3.301v-.518h1.694l.847-1.463-2.046-3.917h-.671v-.517h2.058zM392.397 94.788v1.167h-3.119v-.424c.344-.296 1.576-1.383 2.223-2.039.385-.384.473-.672.473-1.039 0-.76-.696-1.063-1.104-1.063-.305 0-1.063.176-1.016.831h-.416v-.52c.592-.711 1.319-.711 1.447-.711.752 0 1.52.575 1.52 1.479 0 .344-.08.584-.271.888-.256.408-1.248 1.352-2.319 2.207v.016h2.206v-.791h.376zM402.423 91.927h-2.003v2.004h-.408v-2.004h-1.987v-.403h1.987v-1.992h.408v1.992h2.003zM64.312 107.232h.99v.528h-.99v1.09h.99v.517h-3.003v-.517h1.485v-1.09h-2.949v-.638l2.729-4.588h.748v4.698zm-.528 0v-4.06h-.022l-2.388 4.06h2.41zM71.841 104.637v.517h-.759l1.738 3.345 1.915-3.345h-.748v-.517h2.013v.517h-.638l-3.081 5.38h.979v.518h-3.3v-.518h1.694l.847-1.463-2.046-3.917h-.671v-.517h2.057zM81.593 104.637v.517h-.671l1.375 1.375 1.375-1.375h-.638v-.517h2.024v.517h-.671l-1.727 1.738 1.98 1.959h.693v.517h-2.233v-.517h.781l-1.584-1.606-1.595 1.606h.77v.517h-2.167v-.517h.682l1.936-1.959-1.749-1.738h-.704v-.517h2.123zM89.538 108.75c0 1.048-.216 2.535-1.52 2.535-1.303 0-1.519-1.504-1.519-2.535 0-1.039.216-2.542 1.519-2.542 1.304 0 1.52 1.503 1.52 2.542zm-2.615-.008c0 .848.144 2.183 1.087 2.183.959 0 1.104-1.343 1.104-2.183 0-.848-.144-2.175-1.096-2.175-.958 0-1.095 1.344-1.095 2.175zM96.393 104.637v.517h-.671l1.375 1.375 1.375-1.375h-.638v-.517h2.024v.517h-.671l-1.727 1.738 1.98 1.959h.693v.517h-2.233v-.517h.781l-1.584-1.606-1.595 1.606h.77v.517h-2.167v-.517h.682l1.936-1.959-1.749-1.738h-.704v-.517h2.123zM102.834 106.208h.256v4.589h1.367v.376h-3.158v-.376h1.391v-4.126l-1.279.592-.16-.352 1.583-.703zM110.939 104.637v.517h-.759l1.738 3.345 1.915-3.345h-.748v-.517h2.013v.517h-.638l-3.081 5.38h.979v.518h-3.301v-.518h1.694l.847-1.463-2.046-3.917h-.671v-.517h2.058zM118.993 110.006v1.167h-3.118v-.424c.344-.296 1.575-1.383 2.223-2.039.384-.384.472-.672.472-1.039 0-.76-.696-1.063-1.104-1.063-.304 0-1.063.176-1.015.831h-.416v-.52c.592-.711 1.319-.711 1.447-.711.751 0 1.519.575 1.519 1.479 0 .344-.08.584-.271.888-.256.408-1.248 1.352-2.319 2.207v.016h2.207v-.791h.375zM124.621 106.741h4.399v.403h-4.399zM137.412 107.232h.99v.528h-.99v1.09h.99v.517h-3.003v-.517h1.485v-1.09h-2.949v-.638l2.729-4.588h.748v4.698zm-.528 0v-4.06h-.022l-2.388 4.06h2.41zM144.941 104.637v.517h-.759l1.738 3.345 1.915-3.345h-.748v-.517h2.013v.517h-.638l-3.081 5.38h.979v.518h-3.301v-.518h1.694l.847-1.463-2.046-3.917h-.671v-.517h2.058zM154.693 104.637v.517h-.671l1.375 1.375 1.375-1.375h-.638v-.517h2.024v.517h-.671l-1.727 1.738 1.98 1.959h.693v.517h-2.233v-.517h.781l-1.584-1.606-1.595 1.606h.77v.517h-2.167v-.517h.682l1.936-1.959-1.749-1.738h-.704v-.517h2.123zM161.135 107.11h.256v4.589h1.367v.376h-3.158v-.376h1.391v-4.126l-1.279.592-.16-.352 1.583-.703zM162.494 103.734v1.167h-3.118v-.424c.344-.296 1.575-1.383 2.223-2.039.384-.384.472-.672.472-1.039 0-.76-.696-1.063-1.104-1.063-.304 0-1.063.176-1.015.831h-.416v-.52c.592-.711 1.319-.711 1.447-.711.751 0 1.519.575 1.519 1.479 0 .344-.08.584-.271.888-.256.408-1.248 1.352-2.319 2.207v.016h2.207v-.791h.375zM169.24 104.637v.517h-.759l1.738 3.345 1.915-3.345h-.748v-.517h2.013v.517h-.638l-3.081 5.38h.979v.518h-3.301v-.518h1.694l.847-1.463-2.046-3.917h-.671v-.517h2.058zM177.294 110.006v1.167h-3.118v-.424c.344-.296 1.575-1.383 2.223-2.039.384-.384.472-.672.472-1.039 0-.76-.696-1.063-1.104-1.063-.304 0-1.063.176-1.015.831h-.416v-.52c.592-.711 1.319-.711 1.447-.711.751 0 1.519.575 1.519 1.479 0 .344-.08.584-.271.888-.256.408-1.248 1.352-2.319 2.207v.016h2.207v-.791h.375zM187.321 107.144h-2.004v2.003h-.408v-2.003h-1.987v-.403h1.987v-1.992h.408v1.992h2.004zM196.615 107.761v1.606h-4.291v-.583c.473-.407 2.167-1.903 3.058-2.806.528-.528.649-.924.649-1.43 0-1.046-.958-1.464-1.519-1.464-.418 0-1.463.242-1.397 1.145h-.572v-.715c.814-.979 1.815-.979 1.991-.979 1.034 0 2.09.792 2.09 2.035 0 .474-.11.804-.374 1.222-.352.561-1.716 1.859-3.19 3.036v.022h3.037v-1.09h.518zM203.242 104.637v.517h-.759l1.738 3.345 1.915-3.345h-.748v-.517h2.013v.517h-.638l-3.081 5.38h.979v.518h-3.301v-.518h1.694l.847-1.463-2.046-3.917h-.671v-.517h2.058zM212.994 104.637v.517h-.671l1.375 1.375 1.375-1.375h-.638v-.517h2.024v.517h-.671l-1.727 1.738 1.98 1.959h.693v.517h-2.233v-.517h.781l-1.584-1.606-1.595 1.606h.77v.517h-2.167v-.517h.682l1.936-1.959-1.749-1.738h-.704v-.517h2.123zM220.939 108.75c0 1.048-.216 2.535-1.52 2.535-1.303 0-1.519-1.504-1.519-2.535 0-1.039.216-2.542 1.519-2.542 1.304 0 1.52 1.503 1.52 2.542zm-2.615-.008c0 .848.144 2.183 1.087 2.183.959 0 1.104-1.343 1.104-2.183 0-.848-.144-2.175-1.096-2.175-.959 0-1.095 1.344-1.095 2.175zM227.793 104.637v.517h-.671l1.375 1.375 1.375-1.375h-.638v-.517h2.024v.517h-.671l-1.727 1.738 1.98 1.959h.693v.517h-2.233v-.517h.781l-1.584-1.606-1.595 1.606h.77v.517h-2.167v-.517h.682l1.936-1.959-1.749-1.738h-.704v-.517h2.123zM235.595 110.006v1.167h-3.118v-.424c.344-.296 1.575-1.383 2.223-2.039.384-.384.472-.672.472-1.039 0-.76-.696-1.063-1.104-1.063-.304 0-1.063.176-1.015.831h-.416v-.52c.592-.711 1.319-.711 1.447-.711.751 0 1.519.575 1.519 1.479 0 .344-.08.584-.271.888-.256.408-1.248 1.352-2.319 2.207v.016h2.207v-.791h.375zM242.34 104.637v.517h-.76l1.738 3.345 1.915-3.345h-.748v-.517h2.013v.517h-.638l-3.081 5.38h.98v.518h-3.301v-.518h1.693l.849-1.464-2.047-3.917h-.67v-.517h2.057zM250.394 110.006v1.167h-3.118v-.424c.344-.296 1.575-1.383 2.223-2.039.384-.384.472-.672.472-1.039 0-.76-.696-1.063-1.104-1.063-.304 0-1.063.176-1.015.831h-.416v-.52c.592-.711 1.318-.711 1.447-.711.751 0 1.519.575 1.519 1.479 0 .344-.079.584-.271.888-.256.408-1.247 1.352-2.319 2.207v.016h2.207v-.791h.375zM260.421 107.144h-2.004v2.003h-.408v-2.003h-1.987v-.403h1.987v-1.992h.408v1.992h2.004zM268.813 107.232h.99v.528h-.99v1.09h.99v.517h-3.004v-.517h1.485v-1.09h-2.948v-.638l2.729-4.588h.748v4.698zm-.528 0v-4.06h-.022l-2.387 4.06h2.409zM276.595 104.637v.517h-.671l1.375 1.375 1.375-1.375h-.638v-.517h2.024v.517h-.672l-1.727 1.738 1.98 1.959h.693v.517h-2.234v-.517h.781l-1.584-1.606-1.596 1.606h.771v.517h-2.167v-.517h.682l1.937-1.959-1.749-1.738h-.704v-.517h2.124zM283.037 107.11h.256v4.589h1.367v.376h-3.158v-.376h1.392v-4.126l-1.279.592-.16-.352 1.582-.703zM284.396 103.734v1.167h-3.118v-.424c.344-.296 1.575-1.383 2.223-2.039.384-.384.472-.672.472-1.039 0-.76-.696-1.063-1.104-1.063-.304 0-1.063.176-1.015.831h-.416v-.52c.592-.711 1.318-.711 1.447-.711.751 0 1.519.575 1.519 1.479 0 .344-.079.584-.271.888-.256.408-1.247 1.352-2.319 2.207v.016h2.207v-.791h.375zM291.142 104.637v.517h-.759l1.738 3.345 1.914-3.345h-.748v-.517h2.014v.517h-.639l-3.08 5.38h.979v.518h-3.301v-.518h1.695l.847-1.463-2.046-3.917h-.672v-.517h2.058zM299.34 108.75c0 1.048-.217 2.535-1.52 2.535-1.304 0-1.52-1.504-1.52-2.535 0-1.039.216-2.542 1.52-2.542s1.52 1.503 1.52 2.542zm-2.615-.008c0 .848.145 2.183 1.088 2.183.959 0 1.104-1.343 1.104-2.183 0-.848-.145-2.175-1.096-2.175-.959 0-1.096 1.344-1.096 2.175zM305.942 104.637v.517h-.76l1.738 3.345 1.915-3.345h-.748v-.517h2.013v.517h-.638l-3.081 5.38h.98v.518h-3.301v-.518h1.693l.848-1.463-2.047-3.917h-.67v-.517h2.058zM313.996 110.006v1.167h-3.118v-.424c.344-.296 1.575-1.383 2.223-2.039.384-.384.472-.672.472-1.039 0-.76-.696-1.063-1.104-1.063-.304 0-1.063.176-1.015.831h-.416v-.52c.592-.711 1.318-.711 1.447-.711.751 0 1.519.575 1.519 1.479 0 .344-.079.584-.271.888-.256.408-1.247 1.352-2.319 2.207v.016h2.207v-.791h.375zM319.624 106.741h4.398v.403h-4.398zM333.317 107.761v1.606h-4.291v-.583c.473-.407 2.167-1.903 3.059-2.806.527-.528.648-.924.648-1.43 0-1.046-.957-1.464-1.518-1.464-.418 0-1.463.242-1.397 1.145h-.572v-.715c.814-.979 1.815-.979 1.991-.979 1.034 0 2.09.792 2.09 2.035 0 .474-.109.804-.373 1.222-.353.561-1.717 1.859-3.191 3.036v.022h3.037v-1.09h.517zM340.197 104.637v.517h-.671l1.375 1.375 1.375-1.375h-.638v-.517h2.024v.517h-.672l-1.727 1.738 1.98 1.959h.693v.517h-2.234v-.517h.781l-1.584-1.606-1.596 1.606h.771v.517h-2.167v-.517h.682l1.937-1.959-1.749-1.738h-.704v-.517h2.124zM348.141 108.75c0 1.048-.215 2.535-1.52 2.535-1.303 0-1.519-1.504-1.519-2.535 0-1.039.216-2.542 1.519-2.542 1.305 0 1.52 1.503 1.52 2.542zm-2.614-.008c0 .848.144 2.183 1.087 2.183.96 0 1.104-1.343 1.104-2.183 0-.848-.144-2.175-1.096-2.175-.959 0-1.095 1.344-1.095 2.175zM354.997 104.637v.517h-.672l1.375 1.375 1.376-1.375h-.638v-.517h2.023v.517h-.671l-1.728 1.738 1.98 1.959h.693v.517h-2.233v-.517h.781l-1.585-1.606-1.595 1.606h.771v.517h-2.168v-.517h.683l1.937-1.959-1.75-1.738h-.703v-.517h2.124zM362.797 110.006v1.167h-3.119v-.424c.344-.296 1.576-1.383 2.223-2.039.385-.384.473-.672.473-1.039 0-.76-.696-1.063-1.104-1.063-.305 0-1.063.176-1.016.831h-.416v-.52c.592-.711 1.319-.711 1.447-.711.752 0 1.52.575 1.52 1.479 0 .344-.08.584-.271.888-.256.408-1.248 1.352-2.319 2.207v.016h2.206v-.791h.376zM369.543 104.637v.517h-.76l1.738 3.345 1.914-3.345h-.748v-.517h2.014v.517h-.639l-3.08 5.38h.979v.518h-3.301v-.518h1.694l.848-1.463-2.047-3.917h-.671v-.517h2.059zM377.741 108.75c0 1.048-.216 2.535-1.52 2.535-1.303 0-1.52-1.504-1.52-2.535 0-1.039.217-2.542 1.52-2.542 1.304 0 1.52 1.503 1.52 2.542zm-2.616-.008c0 .848.145 2.183 1.088 2.183.959 0 1.104-1.343 1.104-2.183 0-.848-.145-2.175-1.096-2.175-.959 0-1.096 1.344-1.096 2.175zM384.342 104.637v.517h-.759l1.738 3.345 1.915-3.345h-.748v-.517h2.013v.517h-.638l-3.081 5.38h.979v.518h-3.301v-.518h1.694l.847-1.463-2.046-3.917h-.671v-.517h2.058zM392.397 110.006v1.167h-3.119v-.424c.344-.296 1.576-1.383 2.223-2.039.385-.384.473-.672.473-1.039 0-.76-.696-1.063-1.104-1.063-.305 0-1.063.176-1.016.831h-.416v-.52c.592-.711 1.319-.711 1.447-.711.752 0 1.52.575 1.52 1.479 0 .344-.08.584-.271.888-.256.408-1.248 1.352-2.319 2.207v.016h2.206v-.791h.376zM398.025 106.741h4.398v.403h-4.398zM64.312 122.678h.99v.528h-.99v1.09h.99v.517h-3.003v-.517h1.485v-1.09h-2.949v-.638l2.729-4.588h.748v4.698zm-.528 0v-4.06h-.022l-2.388 4.06h2.41zM72.094 120.082v.517h-.671l1.375 1.375 1.375-1.375h-.638v-.517h2.024v.517h-.671l-1.727 1.738 1.98 1.959h.693v.517h-2.233v-.517h.781l-1.584-1.606-1.595 1.606h.77v.517h-2.167v-.517h.682l1.936-1.959-1.749-1.738h-.704v-.517h2.123zM80.039 124.194c0 1.048-.216 2.535-1.52 2.535-1.303 0-1.519-1.504-1.519-2.535 0-1.039.216-2.542 1.519-2.542 1.304 0 1.52 1.503 1.52 2.542zm-2.615-.007c0 .848.144 2.183 1.087 2.183.959 0 1.104-1.343 1.104-2.183 0-.848-.144-2.175-1.096-2.175-.958 0-1.095 1.343-1.095 2.175zM86.894 120.082v.517h-.671l1.375 1.375 1.375-1.375h-.638v-.517h2.024v.517h-.671l-1.727 1.738 1.98 1.959h.693v.517h-2.233v-.517h.781l-1.584-1.606-1.595 1.606h.77v.517h-2.167v-.517h.682l1.936-1.959-1.749-1.738h-.704v-.517h2.123zM93.335 121.652h.256v4.589h1.367v.376h-3.158v-.376h1.391v-4.126l-1.279.592-.16-.352 1.583-.703zM101.441 120.082v.517h-.759l1.738 3.345 1.915-3.345h-.748v-.517h2.013v.517h-.638l-3.081 5.38h.979v.518h-3.3v-.518h1.694l.847-1.463-2.046-3.917h-.671v-.517h2.057zM108.135 121.652h.256v4.589h1.367v.376h-3.158v-.376h1.391v-4.126l-1.279.592-.16-.352 1.583-.703zM116.24 120.082v.517h-.759l1.738 3.345 1.915-3.345h-.748v-.517h2.013v.517h-.638l-3.081 5.38h.979v.518h-3.301v-.518h1.694l.847-1.463-2.046-3.917h-.671v-.517h2.058zM124.294 125.45v1.167h-3.118v-.424c.344-.296 1.575-1.383 2.223-2.039.384-.384.472-.672.472-1.039 0-.76-.696-1.063-1.104-1.063-.304 0-1.063.176-1.015.831h-.416v-.52c.592-.711 1.319-.711 1.447-.711.751 0 1.519.575 1.519 1.479 0 .344-.08.584-.271.888-.256.408-1.248 1.352-2.319 2.207v.016h2.207v-.791h.375zM134.321 122.589h-2.004v2.004h-.408v-2.004h-1.987v-.402h1.987v-1.993h.408v1.993h2.004zM140.996 120.082v.517h-.671l1.375 1.375 1.375-1.375h-.638v-.517h2.024v.517h-.671l-1.727 1.738 1.98 1.959h.693v.517h-2.233v-.517h.781l-1.584-1.606-1.595 1.606h.77v.517h-2.167v-.517h.682l1.936-1.959-1.749-1.738h-.704v-.517h2.123zM148.941 125.098c0 1.048-.216 2.535-1.52 2.535-1.303 0-1.519-1.504-1.519-2.535 0-1.039.216-2.542 1.519-2.542 1.304 0 1.52 1.503 1.52 2.542zm-2.615-.008c0 .848.144 2.183 1.087 2.183.959 0 1.104-1.343 1.104-2.183 0-.848-.144-2.175-1.096-2.175-.959 0-1.095 1.344-1.095 2.175zM148.797 119.18v1.167h-3.118v-.424c.344-.296 1.575-1.383 2.223-2.039.384-.384.472-.672.472-1.039 0-.76-.696-1.063-1.104-1.063-.304 0-1.063.176-1.015.831h-.416v-.52c.592-.711 1.319-.711 1.447-.711.751 0 1.519.575 1.519 1.479 0 .344-.08.584-.271.888-.256.408-1.248 1.352-2.319 2.207v.016h2.207v-.791h.375zM155.543 120.082v.517h-.759l1.738 3.345 1.915-3.345h-.748v-.517h2.013v.517h-.638l-3.081 5.38h.979v.518h-3.301v-.518h1.694l.847-1.463-2.046-3.917h-.671v-.517h2.058zM163.597 126.354v1.167h-3.118v-.424c.344-.296 1.575-1.383 2.223-2.039.384-.384.472-.672.472-1.039 0-.76-.696-1.063-1.104-1.063-.304 0-1.063.176-1.015.831h-.416v-.52c.592-.711 1.319-.711 1.447-.711.751 0 1.519.575 1.519 1.479 0 .344-.08.584-.271.888-.256.408-1.248 1.352-2.319 2.207v.016h2.207v-.791h.375zM163.597 119.18v1.167h-3.118v-.424c.344-.296 1.575-1.383 2.223-2.039.384-.384.472-.672.472-1.039 0-.76-.696-1.063-1.104-1.063-.304 0-1.063.176-1.015.831h-.416v-.52c.592-.711 1.319-.711 1.447-.711.751 0 1.519.575 1.519 1.479 0 .344-.08.584-.271.888-.256.408-1.248 1.352-2.319 2.207v.016h2.207v-.791h.375zM173.624 122.589h-2.004v2.004h-.408v-2.004h-1.987v-.402h1.987v-1.993h.408v1.993h2.004zM180.299 120.082v.517h-.671l1.375 1.375 1.375-1.375h-.638v-.517h2.024v.517h-.671l-1.727 1.738 1.98 1.959h.693v.517h-2.233v-.517h.781l-1.584-1.606-1.595 1.606h.77v.517h-2.167v-.517h.682l1.936-1.959-1.749-1.738h-.704v-.517h2.123zM188.1 119.18v1.167h-3.118v-.424c.344-.296 1.575-1.383 2.223-2.039.384-.384.472-.672.472-1.039 0-.76-.696-1.063-1.104-1.063-.304 0-1.063.176-1.015.831h-.416v-.52c.592-.711 1.319-.711 1.447-.711.751 0 1.519.575 1.519 1.479 0 .344-.08.584-.271.888-.256.408-1.248 1.352-2.319 2.207v.016h2.207v-.791h.375zM197.595 129.346h-.349c-.555-1.214-.971-2.415-1.249-3.601-.278-1.188-.417-2.302-.417-3.344 0-1.207.141-2.355.422-3.445.281-1.091.695-2.259 1.243-3.505h.349c-.422.988-.785 2.087-1.087 3.298-.303 1.21-.454 2.424-.454 3.642 0 1.053.105 2.106.314 3.161.21 1.054.619 2.319 1.228 3.794zM201.447 120.082v.517h-.759l1.738 3.345 1.915-3.345h-.748v-.517h2.013v.517h-.638l-3.081 5.38h.979v.518h-3.301v-.518h1.694l.847-1.463-2.046-3.917h-.671v-.517h2.058zM209.645 125.098c0 1.048-.216 2.535-1.52 2.535-1.303 0-1.519-1.504-1.519-2.535 0-1.039.216-2.542 1.519-2.542 1.304 0 1.52 1.503 1.52 2.542zm-2.615-.008c0 .848.144 2.183 1.087 2.183.959 0 1.104-1.343 1.104-2.183 0-.848-.144-2.175-1.096-2.175-.959 0-1.095 1.344-1.095 2.175zM209.5 119.18v1.167h-3.118v-.424c.344-.296 1.575-1.383 2.223-2.039.384-.384.472-.672.472-1.039 0-.76-.696-1.063-1.104-1.063-.304 0-1.063.176-1.015.831h-.416v-.52c.592-.711 1.319-.711 1.447-.711.751 0 1.519.575 1.519 1.479 0 .344-.08.584-.271.888-.256.408-1.248 1.352-2.319 2.207v.016h2.207v-.791h.375zM215.128 122.187h4.399v.403h-4.399zM227.919 122.678h.99v.528h-.99v1.09h.99v.517h-3.003v-.517h1.485v-1.09h-2.949v-.638l2.729-4.588h.748v4.698zm-.528 0v-4.06h-.022l-2.388 4.06h2.41zM235.449 120.082v.517h-.759l1.738 3.345 1.915-3.345h-.748v-.517h2.014v.517h-.639l-3.081 5.38h.979v.518h-3.301v-.518h1.694l.847-1.463-2.046-3.917h-.671v-.517h2.058zM243.647 124.194c0 1.048-.217 2.535-1.52 2.535-1.304 0-1.52-1.504-1.52-2.535 0-1.039.216-2.542 1.52-2.542 1.303 0 1.52 1.503 1.52 2.542zm-2.615-.007c0 .848.145 2.183 1.088 2.183.959 0 1.104-1.343 1.104-2.183 0-.848-.145-2.175-1.096-2.175-.96 0-1.096 1.343-1.096 2.175zM250.249 120.082v.517h-.76l1.738 3.345 1.915-3.345h-.748v-.517h2.013v.517h-.638l-3.081 5.38h.98v.518h-3.301v-.518h1.693l.848-1.463-2.047-3.917h-.67v-.517h2.058zM256.943 121.652h.256v4.589h1.367v.376h-3.158v-.376h1.392v-4.126l-1.279.592-.16-.352 1.582-.703zM268.329 122.589h-2.003v2.004h-.409v-2.004h-1.987v-.402h1.987v-1.993h.409v1.993h2.003zM276.721 122.678h.99v.528h-.99v1.09h.99v.517h-3.004v-.517h1.485v-1.09h-2.948v-.638l2.729-4.588h.748v4.698zm-.528 0v-4.06h-.022l-2.387 4.06h2.409zM284.25 120.082v.517h-.76l1.738 3.345 1.915-3.345h-.748v-.517h2.013v.517h-.638l-3.081 5.38h.98v.518h-3.301v-.518h1.693l.848-1.463-2.047-3.917h-.67v-.517h2.058zM290.945 122.556h.256v4.589h1.367v.376h-3.158v-.376h1.392v-4.126l-1.279.592-.16-.352 1.582-.703zM292.304 119.18v1.167h-3.118v-.424c.344-.296 1.575-1.383 2.223-2.039.384-.384.472-.672.472-1.039 0-.76-.696-1.063-1.104-1.063-.304 0-1.063.176-1.015.831h-.416v-.52c.592-.711 1.318-.711 1.447-.711.751 0 1.519.575 1.519 1.479 0 .344-.079.584-.271.888-.256.408-1.247 1.352-2.319 2.207v.016h2.207v-.791h.375zM302.331 122.589h-2.003v2.004h-.409v-2.004h-1.987v-.402h1.987v-1.993h.409v1.993h2.003zM311.625 123.206v1.606h-4.291v-.583c.473-.407 2.167-1.903 3.059-2.806.527-.528.648-.924.648-1.43 0-1.046-.957-1.464-1.518-1.464-.418 0-1.463.242-1.397 1.145h-.572v-.715c.814-.979 1.815-.979 1.991-.979 1.034 0 2.09.792 2.09 2.035 0 .474-.109.804-.373 1.222-.353.561-1.717 1.859-3.191 3.036v.022h3.037v-1.09h.517zM318.252 120.082v.517h-.76l1.738 3.345 1.914-3.345h-.748v-.517h2.014v.517h-.639l-3.08 5.38h.979v.518h-3.301v-.518h1.694l.848-1.463-2.047-3.917h-.671v-.517h2.059zM326.45 124.194c0 1.048-.216 2.535-1.52 2.535-1.303 0-1.52-1.504-1.52-2.535 0-1.039.217-2.542 1.52-2.542 1.304 0 1.52 1.503 1.52 2.542zm-2.616-.007c0 .848.145 2.183 1.088 2.183.959 0 1.104-1.343 1.104-2.183 0-.848-.145-2.175-1.096-2.175-.959 0-1.096 1.343-1.096 2.175zM333.051 120.082v.517h-.759l1.738 3.345 1.915-3.345h-.748v-.517h2.013v.517h-.638l-3.081 5.38h.979v.518h-3.301v-.518h1.694l.847-1.463-2.046-3.917h-.671v-.517h2.058zM341.106 125.45v1.167h-3.119v-.424c.344-.296 1.576-1.383 2.223-2.039.385-.384.473-.672.473-1.039 0-.76-.696-1.063-1.104-1.063-.305 0-1.063.176-1.016.831h-.416v-.52c.592-.711 1.319-.711 1.447-.711.752 0 1.52.575 1.52 1.479 0 .344-.08.584-.271.888-.256.408-1.248 1.352-2.319 2.207v.016h2.206v-.791h.376zM346.734 122.187h4.398v.403h-4.398zM359.524 122.678h.99v.528h-.99v1.09h.99v.517h-3.004v-.517h1.486v-1.09h-2.949v-.638l2.729-4.588h.748v4.698zm-.527 0v-4.06h-.022l-2.388 4.06h2.41zM367.053 120.082v.517h-.759l1.738 3.345 1.915-3.345h-.747v-.517h2.013v.517h-.638l-3.081 5.38h.979v.518h-3.301v-.518h1.694l.847-1.463-2.046-3.917h-.671v-.517h2.057zM373.749 121.652h.256v4.589h1.367v.376h-3.158v-.376h1.391v-4.126l-1.279.592-.16-.352 1.583-.703zM381.854 120.082v.517h-.76l1.738 3.345 1.914-3.345h-.748v-.517h2.014v.517h-.639l-3.08 5.38h.979v.518h-3.301v-.518h1.694l.848-1.463-2.047-3.917h-.671v-.517h2.059zM389.907 125.45v1.167h-3.117v-.424c.344-.296 1.574-1.383 2.223-2.039.383-.384.471-.672.471-1.039 0-.76-.695-1.063-1.104-1.063-.303 0-1.062.176-1.015.831h-.416v-.52c.592-.711 1.319-.711 1.447-.711.751 0 1.519.575 1.519 1.479 0 .344-.079.584-.271.888-.256.408-1.247 1.352-2.318 2.207v.016h2.207v-.791h.374zM399.934 122.589h-2.004v2.004h-.408v-2.004h-1.987v-.402h1.987v-1.993h.408v1.993h2.004zM406.356 120.082v.517h-.759l1.738 3.345 1.915-3.345h-.748v-.517h2.013v.517h-.638l-3.081 5.38h.979v.518h-3.301v-.518h1.694l.847-1.463-2.046-3.917h-.671v-.517h2.058zM414.411 126.354v1.167h-3.119v-.424c.344-.296 1.576-1.383 2.223-2.039.385-.384.473-.672.473-1.039 0-.76-.696-1.063-1.104-1.063-.305 0-1.063.176-1.016.831h-.416v-.52c.592-.711 1.319-.711 1.447-.711.752 0 1.52.575 1.52 1.479 0 .344-.08.584-.271.888-.256.408-1.248 1.352-2.319 2.207v.016h2.206v-.791h.376zM414.411 119.18v1.167h-3.119v-.424c.344-.296 1.576-1.383 2.223-2.039.385-.384.473-.672.473-1.039 0-.76-.696-1.063-1.104-1.063-.305 0-1.063.176-1.016.831h-.416v-.52c.592-.711 1.319-.711 1.447-.711.752 0 1.52.575 1.52 1.479 0 .344-.08.584-.271.888-.256.408-1.248 1.352-2.319 2.207v.016h2.206v-.791h.376zM419.476 122.401c0 1.099-.153 2.266-.462 3.499-.308 1.234-.707 2.382-1.197 3.446h-.35c.502-1.228.883-2.413 1.145-3.553.262-1.14.392-2.274.392-3.402 0-1.031-.112-2.098-.338-3.198-.226-1.102-.625-2.348-1.198-3.741h.35c.541 1.214.952 2.39 1.235 3.529s.423 2.278.423 3.42zM431.038 122.589h-2.003v2.004h-.409v-2.004h-1.987v-.402h1.987v-1.993h.409v1.993h2.003zM62.595 137.582v.517h-.671l1.375 1.375 1.375-1.375h-.638v-.517h2.024v.517h-.67l-1.727 1.738 1.98 1.959h.693v.517h-2.233v-.517h.781l-1.584-1.606-1.595 1.606h.77v.517h-2.167v-.517h.682l1.936-1.959-1.749-1.738h-.704v-.517h2.122zM74.59 146.846h-.349c-.555-1.214-.971-2.415-1.249-3.602-.277-1.187-.416-2.301-.416-3.343 0-1.207.141-2.355.421-3.446.281-1.09.696-2.258 1.244-3.504h.349c-.423.988-.785 2.087-1.088 3.298-.302 1.21-.454 2.424-.454 3.642 0 1.053.104 2.106.314 3.161.21 1.054.619 2.319 1.228 3.794zM77.222 139.687h4.399v.403h-4.399zM88.915 140.706v1.606h-4.291v-.583c.473-.407 2.167-1.903 3.058-2.806.528-.528.649-.924.649-1.43 0-1.046-.958-1.464-1.519-1.464-.418 0-1.463.242-1.397 1.145h-.572v-.715c.814-.979 1.815-.979 1.991-.979 1.034 0 2.09.792 2.09 2.035 0 .474-.11.804-.374 1.222-.352.561-1.716 1.859-3.19 3.036v.022h3.037v-1.09h.518zM95.542 137.582v.517h-.759l1.738 3.345 1.915-3.345h-.748v-.517h2.013v.517h-.638l-3.081 5.38h.979v.518h-3.301v-.518h1.694l.847-1.463-2.046-3.917h-.671v-.517h2.058zM105.294 137.582v.517h-.671l1.375 1.375 1.375-1.375h-.638v-.517h2.024v.517h-.671l-1.727 1.738 1.98 1.959h.693v.517h-2.233v-.517h.781l-1.584-1.606-1.595 1.606h.77v.517h-2.167v-.517h.682l1.936-1.959-1.749-1.738h-.704v-.517h2.123zM113.239 141.694c0 1.048-.216 2.535-1.52 2.535-1.303 0-1.519-1.504-1.519-2.535 0-1.039.216-2.542 1.519-2.542 1.304 0 1.52 1.503 1.52 2.542zm-2.615-.007c0 .848.144 2.183 1.087 2.183.959 0 1.104-1.343 1.104-2.183 0-.848-.144-2.175-1.096-2.175-.959 0-1.095 1.343-1.095 2.175zM119.841 137.582v.517h-.759l1.738 3.345 1.915-3.345h-.748v-.517h2.013v.517h-.638l-3.081 5.38h.979v.518h-3.301v-.518h1.694l.847-1.463-2.046-3.917h-.671v-.517h2.058zM128.039 141.694c0 1.048-.216 2.535-1.52 2.535-1.303 0-1.519-1.504-1.519-2.535 0-1.039.216-2.542 1.519-2.542 1.304 0 1.52 1.503 1.52 2.542zm-2.615-.007c0 .848.144 2.183 1.087 2.183.959 0 1.104-1.343 1.104-2.183 0-.848-.144-2.175-1.096-2.175-.959 0-1.095 1.343-1.095 2.175zM137.921 140.089h-2.003v2.004h-.408v-2.004h-1.988v-.402h1.988v-1.993h.408v1.993h2.003zM146.313 140.178h.99v.528h-.99v1.09h.99v.517h-3.003v-.517h1.485v-1.09h-2.949v-.638l2.729-4.588h.748v4.698zm-.528 0v-4.06h-.022l-2.388 4.06h2.41zM153.843 137.582v.517h-.759l1.738 3.345 1.915-3.345h-.748v-.517h2.013v.517h-.638l-3.081 5.38h.979v.518h-3.301v-.518h1.694l.847-1.463-2.046-3.917h-.671v-.517h2.058zM163.595 137.582v.517h-.671l1.375 1.375 1.375-1.375h-.638v-.517h2.024v.517h-.671l-1.727 1.738 1.98 1.959h.693v.517h-2.233v-.517h.781l-1.584-1.606-1.595 1.606h.77v.517h-2.167v-.517h.682l1.936-1.959-1.749-1.738h-.704v-.517h2.123zM170.036 139.152h.256v4.589h1.367v.376h-3.158v-.376h1.391v-4.126l-1.279.592-.16-.352 1.583-.703zM178.142 137.582v.517h-.759l1.738 3.345 1.915-3.345h-.748v-.517h2.013v.517h-.638l-3.081 5.38h.979v.518h-3.301v-.518h1.694l.847-1.463-2.046-3.917h-.671v-.517h2.058zM186.339 141.694c0 1.048-.216 2.535-1.52 2.535-1.303 0-1.519-1.504-1.519-2.535 0-1.039.216-2.542 1.519-2.542 1.305 0 1.52 1.503 1.52 2.542zm-2.614-.007c0 .848.144 2.183 1.087 2.183.959 0 1.104-1.343 1.104-2.183 0-.848-.144-2.175-1.096-2.175-.959 0-1.095 1.343-1.095 2.175zM191.823 139.687h4.399v.403h-4.399zM205.516 140.706v1.606h-4.291v-.583c.473-.407 2.167-1.903 3.058-2.806.528-.528.649-.924.649-1.43 0-1.046-.958-1.464-1.519-1.464-.418 0-1.463.242-1.397 1.145h-.572v-.715c.814-.979 1.815-.979 1.991-.979 1.034 0 2.09.792 2.09 2.035 0 .474-.11.804-.374 1.222-.352.561-1.716 1.859-3.19 3.036v.022h3.037v-1.09h.518zM212.144 137.582v.517h-.759l1.738 3.345 1.915-3.345h-.748v-.517h2.013v.517h-.638l-3.081 5.38h.979v.518h-3.301v-.518h1.694l.847-1.463-2.046-3.917h-.671v-.517h2.058zM221.895 137.582v.517h-.671l1.375 1.375 1.375-1.375h-.638v-.517h2.024v.517h-.671l-1.727 1.738 1.98 1.959h.693v.517h-2.233v-.517h.781l-1.584-1.606-1.595 1.606h.77v.517h-2.167v-.517h.682l1.936-1.959-1.749-1.738h-.704v-.517h2.123zM229.696 142.95v1.167h-3.118v-.424c.344-.296 1.575-1.383 2.223-2.039.384-.384.472-.672.472-1.039 0-.76-.696-1.063-1.104-1.063-.304 0-1.063.176-1.015.831h-.416v-.52c.592-.711 1.319-.711 1.447-.711.751 0 1.519.575 1.519 1.479 0 .344-.08.584-.271.888-.256.408-1.248 1.352-2.319 2.207v.016h2.207v-.791h.375zM236.442 137.582v.517h-.759l1.738 3.345 1.915-3.345h-.748v-.517h2.013v.517h-.638l-3.081 5.38h.979v.518h-3.301v-.518h1.694l.847-1.463-2.046-3.917h-.671v-.517h2.058zM244.639 141.694c0 1.048-.215 2.535-1.52 2.535-1.303 0-1.519-1.504-1.519-2.535 0-1.039.216-2.542 1.519-2.542 1.305 0 1.52 1.503 1.52 2.542zm-2.614-.007c0 .848.144 2.183 1.087 2.183.96 0 1.104-1.343 1.104-2.183 0-.848-.144-2.175-1.096-2.175-.959 0-1.095 1.343-1.095 2.175zM250.124 139.687h4.399v.403h-4.399zM263.817 140.706v1.606h-4.291v-.583c.473-.407 2.167-1.903 3.059-2.806.527-.528.648-.924.648-1.43 0-1.046-.957-1.464-1.518-1.464-.418 0-1.463.242-1.397 1.145h-.572v-.715c.814-.979 1.815-.979 1.991-.979 1.034 0 2.09.792 2.09 2.035 0 .474-.109.804-.373 1.222-.353.561-1.717 1.859-3.191 3.036v.022h3.037v-1.09h.517zM270.697 137.582v.517h-.671l1.375 1.375 1.375-1.375h-.638v-.517h2.024v.517h-.672l-1.727 1.738 1.98 1.959h.693v.517h-2.234v-.517h.781l-1.584-1.606-1.596 1.606h.771v.517h-2.167v-.517h.682l1.937-1.959-1.749-1.738h-.704v-.517h2.124zM278.498 142.95v1.167h-3.118v-.424c.344-.296 1.575-1.383 2.223-2.039.384-.384.472-.672.472-1.039 0-.76-.696-1.063-1.104-1.063-.304 0-1.063.176-1.015.831h-.416v-.52c.592-.711 1.318-.711 1.447-.711.751 0 1.519.575 1.519 1.479 0 .344-.079.584-.271.888-.256.408-1.247 1.352-2.319 2.207v.016h2.207v-.791h.375zM285.244 137.582v.517h-.759l1.738 3.345 1.914-3.345h-.748v-.517h2.014v.517h-.639l-3.08 5.38h.979v.518h-3.301v-.518h1.695l.847-1.463-2.046-3.917h-.672v-.517h2.058zM293.442 142.597c0 1.048-.217 2.535-1.52 2.535-1.304 0-1.52-1.504-1.52-2.535 0-1.039.216-2.542 1.52-2.542 1.303 0 1.52 1.503 1.52 2.542zm-2.615-.008c0 .848.145 2.183 1.088 2.183.959 0 1.104-1.343 1.104-2.183 0-.848-.145-2.175-1.096-2.175-.96 0-1.096 1.344-1.096 2.175zM293.297 136.679v1.167h-3.118v-.424c.344-.296 1.575-1.383 2.223-2.039.384-.384.472-.672.472-1.039 0-.76-.695-1.063-1.104-1.063-.304 0-1.062.176-1.016.831h-.416v-.52c.592-.711 1.32-.711 1.447-.711.752 0 1.52.575 1.52 1.479 0 .344-.08.584-.271.888-.256.408-1.248 1.352-2.318 2.207v.016h2.206v-.791h.375zM303.325 140.089h-2.004v2.004h-.408v-2.004h-1.988v-.402h1.988v-1.993h.408v1.993h2.004zM311.715 140.178h.99v.528h-.99v1.09h.99v.517h-3.003v-.517h1.485v-1.09h-2.949v-.638l2.729-4.588h.748v4.698zm-.527 0v-4.06h-.021l-2.389 4.06h2.41zM319.246 137.582v.517h-.759l1.738 3.345 1.914-3.345h-.748v-.517h2.014v.517h-.639l-3.08 5.38h.979v.518h-3.301v-.518h1.695l.847-1.463-2.046-3.917h-.672v-.517h2.058zM328.998 137.582v.517h-.671l1.375 1.375 1.375-1.375h-.638v-.517h2.024v.517h-.672l-1.727 1.738 1.98 1.959h.693v.517h-2.234v-.517h.781l-1.584-1.606-1.596 1.606h.771v.517h-2.167v-.517h.682l1.937-1.959-1.749-1.738h-.704v-.517h2.124zM336.942 141.694c0 1.048-.215 2.535-1.52 2.535-1.303 0-1.519-1.504-1.519-2.535 0-1.039.216-2.542 1.519-2.542 1.305 0 1.52 1.503 1.52 2.542zm-2.614-.007c0 .848.144 2.183 1.087 2.183.96 0 1.104-1.343 1.104-2.183 0-.848-.144-2.175-1.096-2.175-.96 0-1.095 1.343-1.095 2.175zM343.544 137.582v.517h-.759l1.738 3.345 1.914-3.345h-.748v-.517h2.014v.517h-.639l-3.08 5.38h.979v.518h-3.301v-.518h1.695l.847-1.463-2.046-3.917h-.672v-.517h2.058zM350.239 139.152h.256v4.589h1.367v.376h-3.158v-.376h1.391v-4.126l-1.279.592-.159-.352 1.582-.703zM357.226 139.687h4.398v.403h-4.398zM82.623 154.557c0-.99.869-1.805 2.002-1.805 1.133 0 2.002.814 2.002 1.805 0 .583-.308 1.254-.99 1.628.792.352 1.111 1.111 1.111 1.661 0 .825-.682 1.893-2.124 1.893-1.441 0-2.123-1.067-2.123-1.893 0-.693.451-1.364 1.111-1.661-.297-.155-.989-.694-.989-1.628zm.473 3.289c0 .737.66 1.375 1.529 1.375s1.529-.638 1.529-1.375c0-.66-.528-1.397-1.529-1.397-1.023-.001-1.529.747-1.529 1.397zm.12-3.279c0 .671.55 1.364 1.408 1.364.715 0 1.408-.528 1.408-1.364 0-.869-.737-1.298-1.408-1.298-1.022.001-1.408.77-1.408 1.298zM93.145 154.854v.517h-.759l1.738 3.345 1.915-3.345h-.749v-.517h2.013v.517h-.638l-3.081 5.38h.979v.518h-3.301v-.518h1.694l.847-1.463-2.046-3.917h-.671v-.517h2.059zM102.896 154.854v.517h-.671l1.375 1.375 1.375-1.375h-.638v-.517h2.024v.517h-.671l-1.727 1.738 1.98 1.959h.693v.517h-2.233v-.517h.781l-1.584-1.606-1.595 1.606h.77v.517h-2.167v-.517h.682l1.936-1.959-1.749-1.738h-.704v-.517h2.123zM109.338 156.424h.256v4.589h1.367v.376h-3.158v-.376h1.391v-4.126l-1.279.592-.16-.352 1.583-.703zM117.443 154.854v.517h-.759l1.738 3.345 1.915-3.345h-.748v-.517h2.013v.517h-.638l-3.081 5.38h.979v.518h-3.301v-.518h1.694l.847-1.463-2.046-3.917h-.671v-.517h2.058zM124.138 156.424h.256v4.589h1.367v.376h-3.158v-.376h1.391v-4.126l-1.279.592-.16-.352 1.583-.703zM135.523 157.361h-2.003v2.003h-.408v-2.003h-1.987v-.403h1.987v-1.993h.408v1.993h2.003zM143.915 157.449h.99v.528h-.99v1.09h.99v.517h-3.003v-.517h1.485v-1.09h-2.949v-.638l2.729-4.588h.748v4.698zm-.528 0v-4.06h-.022l-2.388 4.06h2.41zM151.445 154.854v.517h-.759l1.738 3.345 1.915-3.345h-.748v-.517h2.013v.517h-.638l-3.081 5.38h.979v.518h-3.301v-.518h1.694l.847-1.463-2.046-3.917h-.671v-.517h2.058zM161.197 154.854v.517h-.671l1.375 1.375 1.375-1.375h-.638v-.517h2.024v.517h-.671l-1.727 1.738 1.98 1.959h.693v.517h-2.233v-.517h.781l-1.584-1.606-1.595 1.606h.77v.517h-2.167v-.517h.682l1.936-1.959-1.749-1.738h-.704v-.517h2.123zM168.998 160.222v1.167h-3.118v-.424c.344-.296 1.575-1.383 2.223-2.039.384-.384.472-.672.472-1.039 0-.76-.696-1.063-1.104-1.063-.304 0-1.063.176-1.015.831h-.416v-.52c.592-.711 1.319-.711 1.447-.711.751 0 1.519.575 1.519 1.479 0 .344-.08.584-.271.888-.256.408-1.248 1.352-2.319 2.207v.016h2.207v-.791h.375zM175.744 154.854v.517h-.759l1.738 3.345 1.915-3.345h-.748v-.517h2.013v.517h-.638l-3.081 5.38h.979v.518h-3.301v-.518h1.694l.847-1.463-2.046-3.917h-.671v-.517h2.058zM182.438 156.424h.256v4.589h1.367v.376h-3.158v-.376h1.391v-4.126l-1.279.592-.16-.352 1.583-.703zM193.824 157.361h-2.003v2.003h-.408v-2.003h-1.988v-.403h1.988v-1.993h.408v1.993h2.003zM202.216 157.449h.99v.528h-.99v1.09h.99v.517h-3.003v-.517h1.485v-1.09h-2.949v-.638l2.729-4.588h.748v4.698zm-.528 0v-4.06h-.022l-2.388 4.06h2.41zM209.999 154.854v.517h-.671l1.375 1.375 1.375-1.375h-.638v-.517h2.024v.517h-.671l-1.727 1.738 1.98 1.959h.693v.517h-2.233v-.517h.781l-1.584-1.606-1.595 1.606h.77v.517h-2.167v-.517h.682l1.936-1.959-1.749-1.738h-.704v-.517h2.123zM216.44 156.424h.256v4.589h1.367v.376h-3.158v-.376h1.391v-4.126l-1.279.592-.16-.352 1.583-.703zM224.545 154.854v.517h-.759l1.738 3.345 1.915-3.345h-.748v-.517h2.013v.517h-.638l-3.081 5.38h.979v.518h-3.301v-.518h1.694l.847-1.463-2.046-3.917h-.671v-.517h2.058zM232.743 158.966c0 1.048-.216 2.535-1.52 2.535-1.303 0-1.519-1.504-1.519-2.535 0-1.039.216-2.542 1.519-2.542 1.304 0 1.52 1.503 1.52 2.542zm-2.615-.008c0 .848.144 2.183 1.087 2.183.959 0 1.104-1.343 1.104-2.183 0-.848-.144-2.175-1.096-2.175-.958 0-1.095 1.344-1.095 2.175zM239.345 154.854v.517h-.759l1.739 3.345 1.914-3.345h-.748v-.517h2.014v.517h-.639l-3.08 5.38h.979v.518h-3.3v-.518h1.695l.847-1.463-2.046-3.917h-.671v-.517h2.055zM246.04 156.424h.256v4.589h1.367v.376h-3.158v-.376h1.391v-4.126l-1.279.592-.16-.352 1.583-.703zM257.425 157.361h-2.003v2.003h-.408v-2.003h-1.987v-.403h1.987v-1.993h.408v1.993h2.003zM265.817 157.449h.99v.528h-.99v1.09h.99v.517h-3.003v-.517h1.485v-1.09h-2.949v-.638l2.729-4.588h.748v4.698zm-.527 0v-4.06h-.021l-2.389 4.06h2.41zM273.6 154.854v.517h-.671l1.375 1.375 1.376-1.375h-.639v-.517h2.024v.517h-.671l-1.728 1.738 1.979 1.959h.693v.517h-2.232v-.517h.781l-1.585-1.606-1.595 1.606h.77v.517h-2.167v-.517h.683l1.936-1.959-1.749-1.738h-.704v-.517h2.124zM281.401 160.222v1.167h-3.119v-.424c.344-.296 1.576-1.383 2.223-2.039.385-.384.473-.672.473-1.039 0-.76-.696-1.063-1.104-1.063-.305 0-1.063.176-1.016.831h-.416v-.52c.592-.711 1.319-.711 1.447-.711.752 0 1.52.575 1.52 1.479 0 .344-.08.584-.271.888-.256.408-1.248 1.352-2.319 2.207v.016h2.206v-.791h.376zM288.147 154.854v.517h-.76l1.738 3.345 1.914-3.345h-.748v-.517h2.014v.517h-.639l-3.08 5.38h.979v.518h-3.301v-.518h1.694l.848-1.463-2.047-3.917h-.671v-.517h2.059zM296.344 158.966c0 1.048-.216 2.535-1.52 2.535-1.303 0-1.52-1.504-1.52-2.535 0-1.039.217-2.542 1.52-2.542 1.304 0 1.52 1.503 1.52 2.542zm-2.615-.008c0 .848.145 2.183 1.088 2.183.959 0 1.104-1.343 1.104-2.183 0-.848-.145-2.175-1.096-2.175-.959 0-1.096 1.344-1.096 2.175zM302.946 154.854v.517h-.759l1.738 3.345 1.915-3.345h-.748v-.517h2.013v.517h-.638l-3.081 5.38h.979v.518h-3.301v-.518h1.694l.847-1.463-2.046-3.917h-.671v-.517h2.058zM309.641 156.424h.256v4.589h1.367v.376h-3.158v-.376h1.391v-4.126l-1.279.592-.16-.352 1.583-.703zM316.627 156.958h4.399v.403h-4.399zM329.418 157.449h.99v.528h-.99v1.09h.99v.517h-3.004v-.517h1.486v-1.09h-2.949v-.638l2.729-4.588h.748v4.698zm-.527 0v-4.06h-.022l-2.388 4.06h2.41zM337.202 154.854v.517h-.672l1.375 1.375 1.376-1.375h-.638v-.517h2.023v.517h-.671l-1.728 1.738 1.98 1.959h.693v.517h-2.233v-.517h.781l-1.585-1.606-1.595 1.606h.771v.517h-2.168v-.517h.683l1.937-1.959-1.75-1.738h-.703v-.517h2.124zM345.146 158.966c0 1.048-.216 2.535-1.52 2.535s-1.519-1.504-1.519-2.535c0-1.039.215-2.542 1.519-2.542s1.52 1.503 1.52 2.542zm-2.614-.008c0 .848.144 2.183 1.087 2.183.96 0 1.104-1.343 1.104-2.183 0-.848-.144-2.175-1.096-2.175-.96 0-1.095 1.344-1.095 2.175zM351.749 154.854v.517h-.76l1.738 3.345 1.914-3.345h-.748v-.517h2.014v.517h-.639l-3.08 5.38h.979v.518h-3.301v-.518h1.694l.848-1.463-2.047-3.917h-.671v-.517h2.059zM358.442 157.326h.256v4.589h1.367v.376h-3.158v-.376h1.392v-4.126l-1.279.592-.159-.352 1.581-.703zM359.801 153.95v1.167h-3.117v-.424c.344-.296 1.574-1.383 2.223-2.039.383-.384.471-.672.471-1.039 0-.76-.695-1.063-1.104-1.063-.303 0-1.062.176-1.015.831h-.416v-.52c.592-.711 1.319-.711 1.447-.711.751 0 1.519.575 1.519 1.479 0 .344-.079.584-.271.888-.256.408-1.247 1.352-2.318 2.207v.016h2.207v-.791h.374zM365.429 156.958h4.399v.403h-4.399zM85.615 172.666h.99v.528h-.99v1.09h.99v.517h-3.003v-.517h1.485v-1.09h-2.949v-.638l2.729-4.588h.748v4.698zm-.528 0v-4.06h-.022l-2.388 4.06h2.41zM93.397 170.07v.517h-.671l1.375 1.375 1.375-1.375h-.638v-.517h2.024v.517h-.671l-1.727 1.738 1.98 1.959h.693v.517h-2.233v-.517h.781l-1.584-1.606-1.595 1.606h.77v.517h-2.167v-.517h.682l1.936-1.959-1.749-1.738h-.704v-.517h2.123zM101.198 175.439v1.167h-3.118v-.424c.344-.296 1.575-1.383 2.223-2.039.384-.384.472-.672.472-1.039 0-.76-.696-1.063-1.104-1.063-.304 0-1.063.176-1.015.831h-.416v-.52c.592-.711 1.319-.711 1.447-.711.751 0 1.519.575 1.519 1.479 0 .344-.08.584-.271.888-.256.408-1.248 1.352-2.319 2.207v.016h2.207v-.791h.375zM107.944 170.07v.517h-.759l1.738 3.345 1.915-3.345h-.748v-.517h2.013v.517h-.638l-3.081 5.38h.979v.518h-3.301v-.518h1.694l.847-1.463-2.046-3.917h-.671v-.517h2.058zM114.639 172.544h.256v4.589h1.367v.376h-3.158v-.376h1.391v-4.126l-1.279.592-.16-.352 1.583-.703zM115.998 169.168v1.167h-3.118v-.424c.344-.296 1.575-1.383 2.223-2.039.384-.384.472-.672.472-1.039 0-.76-.696-1.063-1.104-1.063-.304 0-1.063.176-1.015.831h-.416v-.52c.592-.711 1.319-.711 1.447-.711.751 0 1.519.575 1.519 1.479 0 .344-.08.584-.271.888-.256.408-1.248 1.352-2.319 2.207v.016h2.207v-.791h.375zM121.626 172.175h4.399v.403h-4.399zM135.319 173.194v1.606h-4.291v-.583c.473-.407 2.167-1.903 3.058-2.806.528-.528.649-.924.649-1.43 0-1.046-.958-1.464-1.519-1.464-.418 0-1.463.242-1.397 1.145h-.572v-.715c.814-.979 1.815-.979 1.991-.979 1.034 0 2.09.792 2.09 2.035 0 .474-.11.804-.374 1.222-.352.561-1.716 1.859-3.19 3.036v.022h3.037v-1.09h.518zM141.946 170.07v.517h-.759l1.738 3.345 1.915-3.345h-.748v-.517h2.013v.517h-.638l-3.081 5.38h.979v.518h-3.301v-.518h1.694l.847-1.463-2.046-3.917h-.671v-.517h2.058zM151.698 170.07v.517h-.671l1.375 1.375 1.375-1.375h-.638v-.517h2.024v.517h-.671l-1.727 1.738 1.98 1.959h.693v.517h-2.233v-.517h.781l-1.584-1.606-1.595 1.606h.77v.517h-2.167v-.517h.682l1.936-1.959-1.749-1.738h-.704v-.517h2.123zM159.643 174.184c0 1.048-.216 2.535-1.52 2.535-1.303 0-1.519-1.504-1.519-2.535 0-1.039.216-2.542 1.519-2.542 1.304 0 1.52 1.503 1.52 2.542zm-2.615-.008c0 .848.144 2.183 1.087 2.183.959 0 1.104-1.343 1.104-2.183 0-.848-.144-2.175-1.096-2.175-.959 0-1.095 1.344-1.095 2.175zM166.245 170.07v.517h-.759l1.738 3.345 1.915-3.345h-.748v-.517h2.013v.517h-.638l-3.081 5.38h.979v.518h-3.301v-.518h1.694l.847-1.463-2.046-3.917h-.671v-.517h2.058zM174.298 175.439v1.167h-3.118v-.424c.344-.296 1.575-1.383 2.223-2.039.384-.384.472-.672.472-1.039 0-.76-.696-1.063-1.104-1.063-.304 0-1.063.176-1.015.831h-.416v-.52c.592-.711 1.319-.711 1.447-.711.751 0 1.519.575 1.519 1.479 0 .344-.08.584-.271.888-.256.408-1.248 1.352-2.319 2.207v.016h2.207v-.791h.375zM184.325 172.578h-2.003v2.003h-.408v-2.003h-1.988v-.403h1.988v-1.993h.408v1.993h2.003zM192.717 172.666h.99v.528h-.99v1.09h.99v.517h-3.003v-.517h1.485v-1.09h-2.949v-.638l2.729-4.588h.748v4.698zm-.528 0v-4.06h-.022l-2.388 4.06h2.41zM200.247 170.07v.517h-.759l1.738 3.345 1.915-3.345h-.748v-.517h2.013v.517h-.638l-3.081 5.38h.979v.518h-3.301v-.518h1.694l.847-1.463-2.046-3.917h-.671v-.517h2.058zM209.999 170.07v.517h-.671l1.375 1.375 1.375-1.375h-.638v-.517h2.024v.517h-.671l-1.727 1.738 1.98 1.959h.693v.517h-2.233v-.517h.781l-1.584-1.606-1.595 1.606h.77v.517h-2.167v-.517h.682l1.936-1.959-1.749-1.738h-.704v-.517h2.123zM216.44 171.642h.256v4.589h1.367v.376h-3.158v-.376h1.391v-4.126l-1.279.592-.16-.352 1.583-.703zM224.545 170.07v.517h-.759l1.738 3.345 1.915-3.345h-.748v-.517h2.013v.517h-.638l-3.081 5.38h.979v.518h-3.301v-.518h1.694l.847-1.463-2.046-3.917h-.671v-.517h2.058zM232.599 175.439v1.167h-3.118v-.424c.344-.296 1.575-1.383 2.223-2.039.384-.384.472-.672.472-1.039 0-.76-.696-1.063-1.104-1.063-.304 0-1.063.176-1.015.831h-.416v-.52c.592-.711 1.319-.711 1.447-.711.751 0 1.519.575 1.519 1.479 0 .344-.08.584-.271.888-.256.408-1.248 1.352-2.319 2.207v.016h2.207v-.791h.375zM238.227 172.175h4.398v.403h-4.398zM251.92 173.194v1.606h-4.291v-.583c.473-.407 2.167-1.903 3.059-2.806.527-.528.648-.924.648-1.43 0-1.046-.957-1.464-1.518-1.464-.418 0-1.463.242-1.397 1.145h-.572v-.715c.814-.979 1.815-.979 1.991-.979 1.034 0 2.09.792 2.09 2.035 0 .474-.109.804-.373 1.222-.353.561-1.717 1.859-3.191 3.036v.022h3.037v-1.09h.517zM258.547 170.07v.517h-.76l1.738 3.345 1.915-3.345h-.748v-.517h2.013v.517h-.638l-3.081 5.38h.98v.518h-3.301v-.518h1.693l.848-1.463-2.047-3.917h-.67v-.517h2.058zM268.299 170.07v.517h-.671l1.375 1.375 1.376-1.375h-.639v-.517h2.024v.517h-.671l-1.728 1.738 1.979 1.959h.693v.517h-2.232v-.517h.781l-1.585-1.606-1.595 1.606h.77v.517h-2.167v-.517h.683l1.936-1.959-1.749-1.738h-.704v-.517h2.124zM276.1 175.439v1.167h-3.119v-.424c.344-.296 1.576-1.383 2.223-2.039.385-.384.473-.672.473-1.039 0-.76-.696-1.063-1.104-1.063-.305 0-1.063.176-1.016.831h-.416v-.52c.592-.711 1.319-.711 1.447-.711.752 0 1.52.575 1.52 1.479 0 .344-.08.584-.271.888-.256.408-1.248 1.352-2.319 2.207v.016h2.206v-.791h.376zM282.846 170.07v.517h-.76l1.738 3.345 1.914-3.345h-.748v-.517h2.014v.517h-.639l-3.08 5.38h.979v.518h-3.301v-.518h1.694l.848-1.463-2.047-3.917h-.671v-.517h2.059zM290.899 175.439v1.167h-3.117v-.424c.344-.296 1.574-1.383 2.223-2.039.383-.384.471-.672.471-1.039 0-.76-.695-1.063-1.104-1.063-.303 0-1.062.176-1.015.831h-.416v-.52c.592-.711 1.319-.711 1.447-.711.751 0 1.519.575 1.519 1.479 0 .344-.079.584-.271.888-.256.408-1.247 1.352-2.318 2.207v.016h2.207v-.791h.374zM300.926 172.578h-2.003v2.003h-.408v-2.003h-1.987v-.403h1.987v-1.993h.408v1.993h2.003zM310.22 173.194v1.606h-4.29v-.583c.473-.407 2.166-1.903 3.058-2.806.528-.528.649-.924.649-1.43 0-1.046-.957-1.464-1.519-1.464-.418 0-1.463.242-1.397 1.145h-.572v-.715c.814-.979 1.816-.979 1.992-.979 1.033 0 2.09.792 2.09 2.035 0 .474-.109.804-.374 1.222-.353.561-1.716 1.859-3.19 3.036v.022h3.037v-1.09h.516zM317.1 170.07v.517h-.67l1.375 1.375 1.375-1.375h-.639v-.517h2.025v.517h-.672l-1.727 1.738 1.979 1.959h.693v.517h-2.233v-.517h.781l-1.584-1.606-1.596 1.606h.77v.517h-2.166v-.517h.682l1.936-1.959-1.748-1.738h-.705v-.517h2.124zM325.045 174.184c0 1.048-.216 2.535-1.52 2.535-1.303 0-1.52-1.504-1.52-2.535 0-1.039.217-2.542 1.52-2.542 1.305 0 1.52 1.503 1.52 2.542zm-2.615-.008c0 .848.145 2.183 1.088 2.183.959 0 1.104-1.343 1.104-2.183 0-.848-.145-2.175-1.096-2.175-.959 0-1.096 1.344-1.096 2.175zM331.647 170.07v.517h-.759l1.738 3.345 1.915-3.345h-.748v-.517h2.013v.517h-.638l-3.081 5.38h.979v.518h-3.301v-.518h1.694l.847-1.463-2.046-3.917h-.671v-.517h2.058zM339.845 174.184c0 1.048-.216 2.535-1.52 2.535s-1.519-1.504-1.519-2.535c0-1.039.215-2.542 1.519-2.542s1.52 1.503 1.52 2.542zm-2.614-.008c0 .848.144 2.183 1.087 2.183.96 0 1.104-1.343 1.104-2.183 0-.848-.144-2.175-1.096-2.175-.959 0-1.095 1.344-1.095 2.175zM346.448 170.07v.517h-.76l1.738 3.345 1.914-3.345h-.748v-.517h2.014v.517h-.639l-3.08 5.38h.979v.518h-3.301v-.518h1.694l.848-1.463-2.047-3.917h-.671v-.517h2.059zM354.5 175.439v1.167h-3.117v-.424c.344-.296 1.574-1.383 2.223-2.039.383-.384.471-.672.471-1.039 0-.76-.695-1.063-1.104-1.063-.303 0-1.062.176-1.015.831h-.416v-.52c.592-.711 1.319-.711 1.447-.711.751 0 1.519.575 1.519 1.479 0 .344-.079.584-.271.888-.256.408-1.247 1.352-2.318 2.207v.016h2.207v-.791h.374zM360.128 172.175h4.399v.403h-4.399zM82.623 185.219c0-.99.869-1.805 2.002-1.805 1.133 0 2.002.814 2.002 1.805 0 .583-.308 1.254-.99 1.628.792.352 1.111 1.111 1.111 1.661 0 .825-.682 1.893-2.124 1.893-1.441 0-2.123-1.067-2.123-1.893 0-.693.451-1.364 1.111-1.661-.297-.155-.989-.694-.989-1.628zm.473 3.289c0 .737.66 1.375 1.529 1.375s1.529-.638 1.529-1.375c0-.66-.528-1.397-1.529-1.397-1.023-.001-1.529.747-1.529 1.397zm.12-3.279c0 .671.55 1.364 1.408 1.364.715 0 1.408-.528 1.408-1.364 0-.869-.737-1.298-1.408-1.298-1.022.001-1.408.77-1.408 1.298zM93.397 185.516v.517h-.671l1.375 1.375 1.375-1.375h-.638v-.517h2.024v.517h-.671l-1.727 1.738 1.98 1.959h.693v.517h-2.233v-.517h.781l-1.584-1.606-1.595 1.606h.77v.517h-2.167v-.517h.682l1.936-1.959-1.749-1.738h-.704v-.517h2.123zM99.839 187.086h.256v4.589h1.367v.376h-3.158v-.376h1.391v-4.126l-1.279.592-.16-.352 1.583-.703zM107.944 185.516v.517h-.759l1.738 3.345 1.915-3.345h-.748v-.517h2.013v.517h-.638l-3.081 5.38h.979v.518h-3.301v-.518h1.694l.847-1.463-2.046-3.917h-.671v-.517h2.058zM116.142 189.628c0 1.048-.216 2.535-1.52 2.535-1.303 0-1.519-1.504-1.519-2.535 0-1.039.216-2.542 1.519-2.542 1.304 0 1.52 1.503 1.52 2.542zm-2.615-.008c0 .848.144 2.183 1.087 2.183.959 0 1.104-1.343 1.104-2.183 0-.848-.144-2.175-1.096-2.175-.958 0-1.095 1.344-1.095 2.175zM122.744 185.516v.517h-.759l1.738 3.345 1.915-3.345h-.748v-.517h2.013v.517h-.638l-3.081 5.38h.979v.518h-3.301v-.518h1.694l.847-1.463-2.046-3.917h-.671v-.517h2.058zM130.797 190.884v1.167h-3.118v-.424c.344-.296 1.575-1.383 2.223-2.039.384-.384.472-.672.472-1.039 0-.76-.696-1.063-1.104-1.063-.304 0-1.063.176-1.015.831h-.416v-.52c.592-.711 1.319-.711 1.447-.711.751 0 1.519.575 1.519 1.479 0 .344-.08.584-.271.888-.256.408-1.248 1.352-2.319 2.207v.016h2.207v-.791h.375zM140.824 188.023h-2.003v2.003h-.408v-2.003h-1.988v-.403h1.988v-1.993h.408v1.993h2.003zM150.119 188.64v1.606h-4.291v-.583c.473-.407 2.167-1.903 3.058-2.806.528-.528.649-.924.649-1.43 0-1.046-.958-1.464-1.519-1.464-.418 0-1.463.242-1.397 1.145h-.572v-.715c.814-.979 1.815-.979 1.991-.979 1.034 0 2.09.792 2.09 2.035 0 .474-.11.804-.374 1.222-.352.561-1.716 1.859-3.19 3.036v.022h3.037v-1.09h.518zM156.999 185.516v.517h-.671l1.375 1.375 1.375-1.375h-.638v-.517h2.024v.517h-.671l-1.727 1.738 1.98 1.959h.693v.517h-2.233v-.517h.781l-1.584-1.606-1.595 1.606h.77v.517h-2.167v-.517h.682l1.936-1.959-1.749-1.738h-.704v-.517h2.123zM164.799 190.884v1.167h-3.118v-.424c.344-.296 1.575-1.383 2.223-2.039.384-.384.472-.672.472-1.039 0-.76-.696-1.063-1.104-1.063-.304 0-1.063.176-1.015.831h-.416v-.52c.592-.711 1.319-.711 1.447-.711.751 0 1.519.575 1.519 1.479 0 .344-.08.584-.271.888-.256.408-1.248 1.352-2.319 2.207v.016h2.207v-.791h.375zM171.545 185.516v.517h-.759l1.738 3.345 1.915-3.345h-.748v-.517h2.013v.517h-.638l-3.081 5.38h.979v.518h-3.301v-.518h1.694l.847-1.463-2.046-3.917h-.671v-.517h2.058zM179.743 189.628c0 1.048-.216 2.535-1.52 2.535-1.303 0-1.519-1.504-1.519-2.535 0-1.039.216-2.542 1.519-2.542 1.304 0 1.52 1.503 1.52 2.542zm-2.615-.008c0 .848.144 2.183 1.087 2.183.959 0 1.104-1.343 1.104-2.183 0-.848-.144-2.175-1.096-2.175-.958 0-1.095 1.344-1.095 2.175zM186.345 185.516v.517h-.759l1.738 3.345 1.915-3.345h-.748v-.517h2.013v.517h-.638l-3.081 5.38h.979v.518h-3.301v-.518h1.694l.847-1.463-2.046-3.917h-.671v-.517h2.058zM194.399 190.884v1.167h-3.118v-.424c.344-.296 1.575-1.383 2.223-2.039.384-.384.472-.672.472-1.039 0-.76-.696-1.063-1.104-1.063-.304 0-1.063.176-1.015.831h-.416v-.52c.592-.711 1.319-.711 1.447-.711.751 0 1.519.575 1.519 1.479 0 .344-.08.584-.271.888-.256.408-1.248 1.352-2.319 2.207v.016h2.207v-.791h.375zM204.426 188.023h-2.004v2.003h-.408v-2.003h-1.987v-.403h1.987v-1.993h.408v1.993h2.004zM212.817 188.111h.99v.528h-.99v1.09h.99v.517h-3.003v-.517h1.485v-1.09h-2.949v-.638l2.729-4.588h.748v4.698zm-.527 0v-4.06h-.022l-2.388 4.06h2.41zM220.6 185.516v.517h-.671l1.375 1.375 1.375-1.375h-.638v-.517h2.024v.517h-.671l-1.727 1.738 1.98 1.959h.693v.517h-2.233v-.517h.781l-1.584-1.606-1.595 1.606h.77v.517h-2.167v-.517h.682l1.936-1.959-1.749-1.738h-.704v-.517h2.123zM228.545 189.628c0 1.048-.216 2.535-1.52 2.535-1.303 0-1.519-1.504-1.519-2.535 0-1.039.216-2.542 1.519-2.542 1.304 0 1.52 1.503 1.52 2.542zm-2.615-.008c0 .848.144 2.183 1.087 2.183.959 0 1.104-1.343 1.104-2.183 0-.848-.144-2.175-1.096-2.175-.959 0-1.095 1.344-1.095 2.175zM235.147 185.516v.517h-.759l1.738 3.345 1.915-3.345h-.748v-.517h2.013v.517h-.638l-3.081 5.38h.979v.518h-3.301v-.518h1.694l.847-1.463-2.046-3.917h-.671v-.517h2.058zM241.841 187.086h.256v4.589h1.367v.376h-3.158v-.376h1.392v-4.126l-1.279.592-.16-.352 1.582-.703zM249.947 185.516v.517h-.759l1.738 3.345 1.914-3.345h-.748v-.517h2.014v.517h-.639l-3.08 5.38h.979v.518h-3.301v-.518h1.695l.847-1.463-2.046-3.917h-.672v-.517h2.058zM258 190.884v1.167h-3.118v-.424c.344-.296 1.575-1.383 2.223-2.039.384-.384.472-.672.472-1.039 0-.76-.695-1.063-1.104-1.063-.304 0-1.062.176-1.016.831h-.416v-.52c.592-.711 1.32-.711 1.447-.711.752 0 1.52.575 1.52 1.479 0 .344-.08.584-.271.888-.256.408-1.248 1.352-2.318 2.207v.016h2.206v-.791h.375zM268.027 188.023h-2.003v2.003h-.408v-2.003h-1.988v-.403h1.988v-1.993h.408v1.993h2.003zM276.418 188.111h.99v.528h-.99v1.09h.99v.517h-3.003v-.517h1.485v-1.09h-2.949v-.638l2.729-4.588h.748v4.698zm-.527 0v-4.06h-.021l-2.389 4.06h2.41zM284.202 185.516v.517h-.672l1.375 1.375 1.376-1.375h-.638v-.517h2.023v.517h-.671l-1.728 1.738 1.98 1.959h.693v.517h-2.233v-.517h.781l-1.585-1.606-1.595 1.606h.771v.517h-2.168v-.517h.683l1.937-1.959-1.75-1.738h-.703v-.517h2.124zM290.643 187.086h.256v4.589h1.367v.376h-3.158v-.376h1.391v-4.126l-1.279.592-.16-.352 1.583-.703zM298.749 185.516v.517h-.76l1.738 3.345 1.914-3.345h-.748v-.517h2.014v.517h-.639l-3.08 5.38h.979v.518h-3.301v-.518h1.694l.848-1.463-2.047-3.917h-.671v-.517h2.059zM305.442 187.086h.256v4.589h1.367v.376h-3.158v-.376h1.392v-4.126l-1.279.592-.159-.352 1.581-.703zM313.547 185.516v.517h-.759l1.738 3.345 1.915-3.345h-.748v-.517h2.013v.517h-.638l-3.081 5.38h.979v.518h-3.301v-.518h1.694l.847-1.463-2.046-3.917h-.671v-.517h2.058zM321.602 190.884v1.167h-3.119v-.424c.344-.296 1.576-1.383 2.223-2.039.385-.384.473-.672.473-1.039 0-.76-.696-1.063-1.104-1.063-.305 0-1.063.176-1.016.831h-.416v-.52c.592-.711 1.319-.711 1.447-.711.752 0 1.52.575 1.52 1.479 0 .344-.08.584-.271.888-.256.408-1.248 1.352-2.319 2.207v.016h2.206v-.791h.376zM327.23 187.62h4.398v.403h-4.398zM340.922 188.64v1.606h-4.291v-.583c.473-.407 2.168-1.903 3.059-2.806.528-.528.649-.924.649-1.43 0-1.046-.958-1.464-1.519-1.464-.418 0-1.463.242-1.396 1.145h-.572v-.715c.814-.979 1.814-.979 1.99-.979 1.035 0 2.091.792 2.091 2.035 0 .474-.11.804-.374 1.222-.352.561-1.717 1.859-3.19 3.036v.022h3.036v-1.09h.517zM347.803 185.516v.517h-.672l1.375 1.375 1.376-1.375h-.638v-.517h2.023v.517h-.671l-1.728 1.738 1.98 1.959h.693v.517h-2.233v-.517h.781l-1.585-1.606-1.595 1.606h.771v.517h-2.168v-.517h.683l1.937-1.959-1.75-1.738h-.703v-.517h2.124zM355.748 189.628c0 1.048-.216 2.535-1.52 2.535s-1.519-1.504-1.519-2.535c0-1.039.215-2.542 1.519-2.542s1.52 1.503 1.52 2.542zm-2.615-.008c0 .848.144 2.183 1.087 2.183.96 0 1.104-1.343 1.104-2.183 0-.848-.144-2.175-1.096-2.175-.959 0-1.095 1.344-1.095 2.175zM362.35 185.516v.517h-.76l1.738 3.345 1.914-3.345h-.748v-.517h2.014v.517h-.639l-3.08 5.38h.979v.518h-3.301v-.518h1.694l.848-1.463-2.047-3.917h-.671v-.517h2.059zM370.403 191.787v1.167h-3.117v-.424c.344-.296 1.574-1.383 2.223-2.039.383-.384.471-.672.471-1.039 0-.76-.695-1.063-1.104-1.063-.303 0-1.062.176-1.015.831h-.416v-.52c.592-.711 1.319-.711 1.447-.711.751 0 1.519.575 1.519 1.479 0 .344-.079.584-.271.888-.256.408-1.247 1.352-2.318 2.207v.016h2.207v-.791h.374zM370.403 184.613v1.167h-3.117v-.424c.344-.296 1.574-1.383 2.223-2.039.383-.384.471-.672.471-1.039 0-.76-.695-1.063-1.104-1.063-.303 0-1.062.176-1.015.831h-.416v-.52c.592-.711 1.319-.711 1.447-.711.751 0 1.519.575 1.519 1.479 0 .344-.079.584-.271.888-.256.408-1.247 1.352-2.318 2.207v.016h2.207v-.791h.374zM375.469 187.835c0 1.099-.153 2.266-.462 3.499-.308 1.234-.707 2.382-1.197 3.446h-.35c.502-1.228.883-2.413 1.145-3.553.261-1.14.392-2.274.392-3.402 0-1.031-.112-2.098-.338-3.198-.226-1.102-.625-2.348-1.198-3.741h.35c.54 1.214.952 2.39 1.235 3.529s.423 2.278.423 3.42zM385.581 187.002h-2.948v-.408h2.948v.408zm0 2.047h-2.948v-.408h2.948v.408zm3.626-2.047h-2.943v-.408h2.943v.408zm0 2.047h-2.943v-.408h2.943v.408zM398.698 186.913c0 1.44-.297 3.487-2.09 3.487s-2.09-2.068-2.09-3.487c0-1.431.297-3.499 2.09-3.499s2.09 2.068 2.09 3.499zm-3.597-.012c0 1.166.198 3.004 1.496 3.004 1.32 0 1.519-1.849 1.519-3.004 0-1.166-.198-2.992-1.508-2.992-1.32 0-1.507 1.849-1.507 2.992z"/><path fill="none" d="M43.819 51h391v147h-391zM45.819 53h434v143h-434z"/></svg>