<svg xmlns="http://www.w3.org/2000/svg" width="376" height="63" viewBox="0 0 376 63"><g fill="#454F99"><path d="M7.609 5.805h.883v6.455h-.883v-6.455zM9.807 7.553h.751v.668c.223-.274.458-.473.708-.593s.526-.181.831-.181c.668 0 1.119.233 1.354.699.129.255.193.619.193 1.094v3.02h-.804v-2.967c0-.286-.042-.518-.127-.693-.141-.293-.396-.439-.765-.439-.188 0-.341.019-.461.057-.217.064-.407.193-.571.387-.132.155-.218.315-.257.481-.04.165-.06.401-.06.71v2.465h-.792v-4.708zM14.794 5.76h1.688v.646h-.94v6.979h.94v.646h-1.688v-8.271zM20.835 6.487c.276.365.415.741.415 1.128h-.782c-.047-.249-.122-.444-.224-.585-.19-.264-.479-.396-.866-.396-.442 0-.794.204-1.055.613-.261.408-.406.994-.435 1.756.182-.267.41-.467.686-.598.252-.117.533-.176.844-.176.527 0 .987.168 1.38.505s.589.839.589 1.507c0 .572-.186 1.078-.558 1.519-.372.441-.902.661-1.591.661-.589 0-1.097-.223-1.525-.67-.428-.446-.642-1.198-.642-2.256 0-.783.095-1.446.286-1.991.366-1.043 1.036-1.564 2.008-1.564.703 0 1.193.183 1.47.547zm-.594 4.813c.207-.28.31-.61.31-.991 0-.322-.092-.629-.277-.921-.185-.291-.52-.437-1.006-.437-.34 0-.638.112-.894.338-.257.226-.385.565-.385 1.02 0 .398.116.733.35 1.004.232.271.556.406.969.406.416 0 .727-.14.933-.419zM22.355 10.845c.195-.401.575-.766 1.141-1.095l.844-.487c.378-.22.643-.407.795-.562.24-.244.36-.522.36-.837 0-.367-.11-.658-.33-.874s-.513-.323-.879-.323c-.542 0-.917.205-1.125.616-.111.221-.173.526-.185.917h-.804c.009-.548.11-.994.303-1.34.343-.609.948-.914 1.815-.914.721 0 1.247.194 1.58.584s.5.823.5 1.3c0 .504-.177.935-.532 1.292-.205.208-.573.46-1.103.756l-.602.334c-.287.158-.513.31-.677.452-.293.256-.478.538-.554.849h3.437v.747h-4.32c.029-.542.141-1.014.336-1.415zM26.95 13.385h.936v-6.979h-.936v-.646h1.688v8.271h-1.688v-.646zM30.241 7.615h.918v.957h-.918v-.957zm0 3.687h.918v.958h-.918v-.958zM36.732 8.647v.738h-4.583v-.738h4.583zm0 1.886v.751h-4.583v-.751h4.583z"/></g><path d="M48.563 4.222v1.065h-1.56v5.447h3.068l.169-2.574h1.105l-.169 3.641h-6.552v-1.066h1.248v-5.448h-1.248v-1.065h3.939zM59.288 10.93c-1.17.676-2.353 1.053-3.367 1.053-2.184 0-3.328-1.456-3.328-3.094 0-1.677 1.235-3.159 3.237-3.159 2.054 0 3.094 1.482 3.094 2.756 0 .3-.026.677-.039.793h-5.096c.117.469.416 1.587 2.106 1.587 1.079 0 2.171-.521 2.873-.937l.52 1.001zm-1.56-2.717c-.351-1.339-1.521-1.365-1.885-1.365-1.443 0-1.846 1.014-1.976 1.365h3.861zM63.097 5.911v.963c.546-.521 1.235-1.145 2.353-1.145.988 0 1.482.507 1.768.793l-1.157.884c-.143-.247-.39-.559-.832-.559-.845 0-2.028 1.352-2.132 1.456v2.431h2.405v1.066h-5.096v-1.066h1.56v-3.756h-1.443v-1.067h2.574zM69.688 5.911v.494c.793-.676 1.69-.676 1.937-.676 1.846 0 3.042 1.508 3.042 3.056 0 1.858-1.547 3.106-3.029 3.106-.403 0-1.248-.117-1.95-.715v1.534h1.872v1.066h-4.03v-1.066h1.027v-5.732h-1.027v-1.067h2.158zm1.923 4.862c1.001 0 1.859-.845 1.859-1.988 0-.91-.585-1.938-1.846-1.938-1.157 0-1.989.884-1.989 1.911.001 1.327 1.118 2.015 1.976 2.015zM81.273 14.245h-2.805v-10.531h2.805v1.092h-1.675v8.347h1.675z"/><path fill="#438958" d="M89.786 10.41h.102c.229 0 .391.061.485.182.096.12.12.293.073.518-.055.245-.155.422-.302.529-.146.108-.363.162-.65.162h-.597c-.211 0-.361-.04-.447-.121-.087-.08-.143-.226-.168-.438-.398.232-.807.41-1.228.533-.421.123-.833.184-1.235.184-.681 0-1.181-.169-1.498-.508-.317-.338-.413-.802-.286-1.39.135-.635.492-1.128 1.069-1.479.578-.351 1.322-.526 2.231-.526.203 0 .417.011.641.032.224.021.472.055.743.102l.025-.121c.084-.381.056-.671-.086-.869-.141-.2-.391-.3-.751-.3-.279 0-.658.104-1.136.311-.478.208-.819.312-1.022.312-.199 0-.348-.059-.447-.175-.1-.116-.128-.27-.086-.46.072-.343.38-.614.924-.815.543-.201 1.247-.302 2.11-.302.901 0 1.511.174 1.828.521s.387.936.209 1.765l-.501 2.353zm-1.276-1.224c-.203-.047-.39-.081-.562-.104-.171-.023-.333-.035-.485-.035-.465 0-.848.078-1.146.235-.299.156-.478.372-.537.646-.051.246-.005.434.136.562.142.129.372.193.689.193.292 0 .576-.042.851-.127s.557-.216.844-.394l.21-.976zM97.203 14.778h-6.5l.276-1.092h6.5z"/><path d="M103.614 9.617l-1.599 3.562h-1.404l1.131-3.562h1.872z"/><path fill="#438958" d="M118.713 6.507c.241-.178.512-.317.812-.419s.603-.152.908-.152c.88 0 1.538.291 1.974.873s.559 1.327.368 2.237c-.178.829-.611 1.522-1.301 2.079s-1.468.834-2.336.834c-.411 0-.752-.07-1.025-.212-.272-.142-.473-.354-.6-.638l-.089.418c-.021.085-.069.151-.143.2-.074.049-.17.073-.289.073h-.978c-.288 0-.481-.054-.581-.162-.099-.107-.122-.289-.066-.543.046-.224.141-.395.282-.511.142-.116.327-.175.556-.175h.102l1.174-5.51h-.102c-.229 0-.39-.06-.486-.181-.095-.12-.119-.295-.073-.523.055-.25.156-.43.301-.54.146-.109.365-.164.657-.164h1.187c.135 0 .227.032.273.098s.055.173.025.32l-.55 2.598zm1.238.78c-.415 0-.792.156-1.133.467-.341.312-.562.706-.664 1.184-.102.491-.051.893.152 1.203.203.312.514.467.933.467s.799-.156 1.14-.47c.34-.313.562-.713.663-1.2.102-.474.049-.867-.159-1.18-.206-.314-.517-.471-.932-.471zM129.031 14.778h-6.5l.276-1.092h6.5z"/><path d="M135.443 9.617l-1.599 3.562h-1.404l1.131-3.562h1.872z"/><path fill="#438958" d="M151.291 6.291h1.936c.292 0 .488.053.587.158.1.106.124.282.073.527-.051.25-.151.43-.302.539-.15.11-.369.166-.657.166h-1.936l-.343 1.625c-.097.457-.094.77.01.939.104.169.331.254.682.254.33 0 .74-.096 1.228-.286.489-.19.81-.286.962-.286.173 0 .308.069.403.207.095.138.124.304.085.498-.072.326-.432.623-1.079.892s-1.346.403-2.095.403c-.436 0-.806-.06-1.111-.178s-.529-.288-.673-.508c-.102-.169-.157-.372-.165-.609s.044-.633.159-1.188l.032-.139.343-1.625h-.597c-.288 0-.479-.056-.574-.166-.096-.109-.118-.289-.067-.539.055-.25.152-.427.292-.53s.355-.155.647-.155h.597l.317-1.485c.059-.292.162-.497.308-.616.146-.118.358-.178.638-.178s.467.06.562.178c.096.119.113.324.054.616l-.316 1.486zM160.86 14.778h-6.5l.276-1.092h6.5z"/><path d="M166.805 14.245h-2.812v-1.092h1.682v-8.347h-1.682v-1.092h2.812zM182.614 7.498c0 .688-.65 1.104-1.222 1.104-.585 0-1.222-.416-1.222-1.104 0-.65.585-1.105 1.222-1.105.625 0 1.222.442 1.222 1.105zm0 3.405c0 .702-.637 1.105-1.222 1.105-.572 0-1.222-.403-1.222-1.105 0-.715.676-1.104 1.222-1.104.559 0 1.222.389 1.222 1.104zM191.793 8.291h-5.199v-1.13h5.199v1.13zm0 2.418h-5.199v-1.13h5.199v1.13zM206.931 14.207h-1.137c-.508-.77-.966-1.604-1.374-2.501s-.612-1.82-.612-2.768c0-.944.186-1.833.559-2.669.372-.835.848-1.7 1.428-2.593h1.137c-.381.677-.795 1.522-1.241 2.536-.446 1.013-.67 1.922-.67 2.726 0 .965.203 1.874.609 2.726.405.853.839 1.7 1.301 2.543zM212.195 3.493h.702v7.241h2.158v1.066h-5.473v-1.066h2.184v-5.837l-1.885.845-.455-1.014 2.769-1.235zM220.423 8.367h5.199v1.136h-5.199z"/><path fill="#438958" d="M234.551 6.291h1.936c.293 0 .488.053.588.158.1.106.123.282.072.527-.051.25-.15.43-.301.539-.15.11-.369.166-.657.166h-1.937l-.342 1.625c-.098.457-.095.77.01.939.104.169.33.254.682.254.33 0 .74-.096 1.229-.286s.809-.286.961-.286c.174 0 .309.069.404.207.094.138.123.304.085.498-.071.326-.432.623-1.079.892s-1.346.403-2.095.403c-.437 0-.806-.06-1.11-.178s-.529-.288-.674-.508c-.102-.169-.156-.372-.164-.609-.009-.237.044-.633.158-1.188l.031-.139.344-1.625h-.598c-.287 0-.479-.056-.574-.166-.096-.109-.117-.289-.066-.539.055-.25.152-.427.292-.53s.355-.155.647-.155h.597l.317-1.485c.059-.292.162-.497.309-.616.145-.118.357-.178.637-.178s.467.06.562.178c.096.119.113.324.054.616l-.318 1.486z"/><path d="M242.212 8.938c0 .973-.206 1.907-.618 2.799-.413.893-.871 1.716-1.375 2.469h-1.13c.406-.694.826-1.51 1.261-2.447.434-.938.65-1.878.65-2.822 0-.96-.211-1.883-.632-2.768s-.848-1.716-1.279-2.495h1.13c.538.825 1.004 1.656 1.4 2.491.396.838.593 1.762.593 2.773zM254.235 8.875l-1.822.495 1.168 1.466-1.104.819-1.054-1.568-1.047 1.568-1.111-.819 1.174-1.466-1.822-.495.432-1.314 1.764.653-.076-1.898h1.378l-.076 1.898 1.765-.653z"/><path fill="#438958" d="M264.106 10.41h.102c.229 0 .391.061.485.182.096.12.119.293.073.518-.056.245-.155.422-.302.529-.146.108-.363.162-.65.162h-.597c-.212 0-.36-.04-.447-.121-.087-.08-.144-.226-.169-.438-.397.232-.807.41-1.228.533s-.833.184-1.235.184c-.681 0-1.18-.169-1.498-.508-.316-.338-.412-.802-.285-1.39.135-.635.492-1.128 1.069-1.479.578-.351 1.321-.526 2.231-.526.203 0 .417.011.641.032.225.021.473.055.743.102l.025-.121c.085-.381.056-.671-.086-.869-.14-.2-.39-.3-.75-.3-.279 0-.658.104-1.136.311-.479.208-.819.312-1.022.312-.198 0-.349-.059-.447-.175-.1-.116-.128-.27-.086-.46.071-.343.38-.614.924-.815s1.247-.302 2.11-.302c.901 0 1.511.174 1.828.521s.387.936.209 1.765l-.502 2.353zm-1.276-1.224c-.203-.047-.39-.081-.562-.104-.171-.023-.333-.035-.485-.035-.465 0-.848.078-1.146.235-.299.156-.478.372-.536.646-.051.246-.006.434.136.562s.372.193.688.193c.293 0 .576-.042.852-.127.274-.085.557-.216.844-.394l.209-.976z"/><path d="M278.053 9.503h-2.044v2.101h-1.13v-2.101h-2.025v-1.136h2.025v-2.089h1.13v2.089h2.044z"/><path fill="#438958" d="M290.406 6.291h1.936c.293 0 .488.053.588.158.1.106.123.282.072.527-.051.25-.15.43-.301.539-.15.11-.369.166-.657.166h-1.937l-.342 1.625c-.098.457-.095.77.01.939.104.169.33.254.682.254.33 0 .74-.096 1.229-.286s.809-.286.961-.286c.174 0 .309.069.404.207.094.138.123.304.085.498-.071.326-.432.623-1.079.892s-1.346.403-2.095.403c-.437 0-.806-.06-1.11-.178s-.529-.288-.674-.508c-.102-.169-.156-.372-.164-.609-.009-.237.044-.633.158-1.188l.031-.139.344-1.625h-.598c-.287 0-.479-.056-.574-.166-.096-.109-.117-.289-.066-.539.055-.25.152-.427.292-.53s.355-.155.647-.155h.597l.317-1.485c.059-.292.162-.497.309-.616.145-.118.357-.178.637-.178s.467.06.562.178c.096.119.113.324.054.616l-.318 1.486z"/><path d="M302.29 8.875l-1.822.495 1.168 1.466-1.105.819-1.053-1.568-1.047 1.568-1.112-.819 1.175-1.466-1.822-.495.432-1.314 1.764.653-.076-1.898h1.378l-.076 1.898 1.764-.653z"/><path fill="#438958" d="M309.26 6.507c.242-.178.513-.317.812-.419.301-.102.604-.152.908-.152.881 0 1.538.291 1.975.873.436.582.559 1.327.367 2.237-.178.829-.611 1.522-1.301 2.079s-1.469.834-2.336.834c-.41 0-.752-.07-1.025-.212-.272-.142-.473-.354-.6-.638l-.089.418c-.021.085-.069.151-.143.2-.074.049-.171.073-.289.073h-.978c-.287 0-.481-.054-.581-.162-.099-.107-.122-.289-.066-.543.046-.224.141-.395.282-.511.143-.116.327-.175.556-.175h.102l1.175-5.51h-.102c-.229 0-.391-.06-.486-.181-.095-.12-.119-.295-.072-.523.055-.25.155-.43.301-.54.146-.109.365-.164.657-.164h1.187c.136 0 .227.032.273.098s.055.173.025.32l-.552 2.598zm1.238.78c-.414 0-.793.156-1.133.467-.341.312-.562.706-.664 1.184-.102.491-.051.893.152 1.203.203.312.515.467.934.467s.799-.156 1.14-.47.562-.713.663-1.2c.102-.474.049-.867-.158-1.18-.208-.314-.52-.471-.934-.471z"/><path d="M318.665 9.604l-1.586 3.562h-1.404l1.118-3.562h1.872zm.065-2.145c0 .688-.637 1.104-1.223 1.104-.598 0-1.209-.429-1.209-1.104 0-.65.572-1.105 1.209-1.105.612 0 1.223.416 1.223 1.105z"/><path fill="none" d="M42 0h282v17h-282zM44 2h411v13h-411z"/><g fill="#454F99"><path d="M7.609 33.805h.883v6.455h-.883v-6.455zM9.807 35.553h.751v.668c.223-.274.458-.473.708-.593s.526-.181.831-.181c.668 0 1.119.233 1.354.699.129.255.193.619.193 1.094v3.02h-.804v-2.967c0-.286-.042-.518-.127-.693-.141-.293-.396-.439-.765-.439-.188 0-.341.019-.461.057-.217.064-.407.193-.571.387-.132.155-.218.315-.257.481-.04.165-.06.401-.06.71v2.465h-.792v-4.708zM14.794 33.76h1.688v.646h-.94v6.979h.94v.646h-1.688v-8.271zM20.835 34.487c.276.365.415.741.415 1.128h-.782c-.047-.249-.122-.444-.224-.585-.19-.264-.479-.396-.866-.396-.442 0-.794.204-1.055.613-.261.408-.406.994-.435 1.756.182-.267.41-.467.686-.598.252-.117.533-.176.844-.176.527 0 .987.168 1.38.505s.589.839.589 1.507c0 .572-.186 1.078-.558 1.519-.372.441-.902.661-1.591.661-.589 0-1.097-.223-1.525-.67-.428-.446-.642-1.198-.642-2.256 0-.783.095-1.446.286-1.991.366-1.043 1.036-1.564 2.008-1.564.703 0 1.193.183 1.47.547zm-.594 4.813c.207-.28.31-.61.31-.991 0-.322-.092-.629-.277-.921-.185-.291-.52-.437-1.006-.437-.34 0-.638.112-.894.338-.257.226-.385.565-.385 1.02 0 .398.116.733.35 1.004.232.271.556.406.969.406.416 0 .727-.14.933-.419zM22.457 39.818c-.336-.409-.503-.906-.503-1.492h.826c.035.407.111.703.229.888.205.331.576.497 1.112.497.416 0 .75-.111 1.002-.334s.378-.51.378-.861c0-.434-.133-.737-.397-.91-.266-.173-.634-.26-1.105-.26l-.16.003-.165.007v-.699l.207.018.18.004c.296 0 .539-.046.729-.141.334-.163.501-.457.501-.879 0-.312-.111-.555-.334-.725s-.482-.255-.778-.255c-.527 0-.892.176-1.094.527-.111.193-.174.469-.189.826h-.782c0-.469.094-.867.281-1.195.322-.586.889-.879 1.701-.879.642 0 1.138.143 1.49.429.352.285.527.699.527 1.241 0 .387-.104.7-.312.94-.129.149-.296.267-.501.352.331.091.589.266.775.525.186.259.279.576.279.951 0 .601-.198 1.09-.593 1.468s-.957.567-1.683.567c-.746.001-1.286-.204-1.621-.613zM26.95 41.385h.936v-6.979h-.936v-.646h1.688v8.271h-1.688v-.646zM30.241 35.615h.918v.957h-.918v-.957zm0 3.687h.918v.958h-.918v-.958zM36.732 36.647v.738h-4.583v-.738h4.583zm0 1.886v.751h-4.583v-.751h4.583z"/></g><path d="M48.134 32.222c1.053 0 1.56.221 1.95.559.416.364.689.884.689 1.521 0 .221 0 .949-.702 1.481.325.17 1.157.599 1.157 1.795 0 2.223-2.236 2.223-3.211 2.223h-3.575v-1.066h1.053v-5.447h-1.053v-1.065h3.692zm-1.508 1.065v2.041h1.417c.52 0 1.573-.013 1.573-1.092 0-.949-1.196-.949-1.508-.949h-1.482zm0 3.108v2.34h1.365c1.209 0 2.067-.091 2.067-1.092 0-1.222-1.495-1.248-2.119-1.248h-1.313zM59.288 38.93c-1.17.676-2.353 1.053-3.367 1.053-2.184 0-3.328-1.456-3.328-3.094 0-1.677 1.235-3.159 3.237-3.159 2.054 0 3.094 1.482 3.094 2.756 0 .3-.026.677-.039.793h-5.096c.117.469.416 1.587 2.106 1.587 1.079 0 2.171-.521 2.873-.937l.52 1.001zm-1.56-2.717c-.351-1.339-1.521-1.365-1.885-1.365-1.443 0-1.846 1.014-1.976 1.365h3.861zM66.217 33.911v.871l-3.731 3.952h2.6v-1.195h1.131v2.262h-5.434v-.936l3.692-3.888h-2.431v1.131h-1.131v-2.197h5.304zM73.718 37.461v2.34h-5.408v-1.066c.663-.559 2.496-2.184 3.562-3.25.546-.546.676-.936.676-1.442 0-.768-.546-1.404-1.482-1.404-.403 0-1.365.169-1.365 1.001l.026.272h-1.17v-1.132c1.001-1.222 2.145-1.287 2.548-1.287 1.456 0 2.626 1.157 2.626 2.587 0 1.235-.65 1.898-2.418 3.511l-1.261 1.144h2.574v-1.273h1.092zM81.273 42.245h-2.805v-10.531h2.805v1.092h-1.675v8.347h1.675z"/><path fill="#438958" d="M89.786 38.41h.102c.229 0 .391.061.485.182.096.12.12.293.073.518-.055.245-.155.422-.302.529-.146.108-.363.162-.65.162h-.597c-.211 0-.361-.04-.447-.121-.087-.08-.143-.226-.168-.438-.398.232-.807.41-1.228.533-.421.123-.833.184-1.235.184-.681 0-1.181-.169-1.498-.508-.317-.338-.413-.802-.286-1.39.135-.635.492-1.128 1.069-1.479.578-.351 1.322-.526 2.231-.526.203 0 .417.011.641.032.224.021.472.055.743.102l.025-.121c.084-.381.056-.671-.086-.869-.141-.2-.391-.3-.751-.3-.279 0-.658.104-1.136.311-.478.208-.819.312-1.022.312-.199 0-.348-.059-.447-.175-.1-.116-.128-.27-.086-.46.072-.343.38-.614.924-.815.543-.201 1.247-.302 2.11-.302.901 0 1.511.174 1.828.521s.387.936.209 1.765l-.501 2.353zm-1.276-1.224c-.203-.047-.39-.081-.562-.104-.171-.023-.333-.035-.485-.035-.465 0-.848.078-1.146.235-.299.156-.478.372-.537.646-.051.246-.005.434.136.562.142.129.372.193.689.193.292 0 .576-.042.851-.127s.557-.216.844-.394l.21-.976zM97.203 42.778h-6.5l.276-1.092h6.5z"/><path d="M103.614 37.617l-1.599 3.562h-1.404l1.131-3.562h1.872z"/><path fill="#438958" d="M118.713 34.507c.241-.178.512-.317.812-.419s.603-.152.908-.152c.88 0 1.538.291 1.974.873s.559 1.327.368 2.237c-.178.829-.611 1.522-1.301 2.079s-1.468.834-2.336.834c-.411 0-.752-.07-1.025-.212-.272-.142-.473-.354-.6-.638l-.089.418c-.021.085-.069.151-.143.2-.074.049-.17.073-.289.073h-.978c-.288 0-.481-.054-.581-.162-.099-.107-.122-.289-.066-.543.046-.224.141-.395.282-.511.142-.116.327-.175.556-.175h.102l1.174-5.51h-.102c-.229 0-.39-.06-.486-.181-.095-.12-.119-.295-.073-.523.055-.25.156-.43.301-.54.146-.109.365-.164.657-.164h1.187c.135 0 .227.032.273.098s.055.173.025.32l-.55 2.598zm1.238.78c-.415 0-.792.156-1.133.467-.341.312-.562.706-.664 1.184-.102.491-.051.893.152 1.203.203.312.514.467.933.467s.799-.156 1.14-.47c.34-.313.562-.713.663-1.2.102-.474.049-.867-.159-1.18-.206-.314-.517-.471-.932-.471zM129.031 42.778h-6.5l.276-1.092h6.5z"/><path d="M135.443 37.617l-1.599 3.562h-1.404l1.131-3.562h1.872z"/><path fill="#438958" d="M153.614 34.278c.089-.165.196-.289.321-.371.125-.083.271-.124.441-.124.229 0 .376.068.444.206s.065.376-.006.714l-.222 1.041c-.055.259-.148.449-.279.572-.131.122-.307.184-.527.184-.157 0-.28-.036-.371-.107-.091-.072-.175-.21-.251-.413-.106-.288-.281-.5-.527-.638s-.567-.207-.965-.207c-.495 0-.935.162-1.32.486-.385.323-.63.737-.736 1.24-.114.529-.042.955.216 1.276s.662.482 1.212.482c.5 0 1.025-.139 1.577-.416.553-.277.884-.415.994-.415.157 0 .274.06.352.181.079.12.099.271.061.454-.084.397-.462.753-1.133 1.066-.671.312-1.421.469-2.25.469-1.024 0-1.795-.287-2.314-.863-.518-.575-.682-1.315-.492-2.221.19-.885.666-1.621 1.425-2.209.759-.589 1.622-.883 2.586-.883.326 0 .635.04.927.121.291.081.571.206.837.375zM160.86 42.778h-6.5l.276-1.092h6.5z"/><path d="M167.271 37.617l-1.599 3.562h-1.404l1.131-3.562h1.872z"/><path fill="#438958" d="M183.12 34.291h1.936c.292 0 .488.053.587.158.1.106.124.282.073.527-.051.25-.151.43-.302.539-.15.11-.369.166-.657.166h-1.936l-.343 1.625c-.097.457-.094.77.01.939.104.169.331.254.682.254.33 0 .74-.096 1.228-.286.489-.19.81-.286.962-.286.173 0 .308.069.403.207.095.138.124.304.085.498-.072.326-.432.623-1.079.892s-1.346.403-2.095.403c-.436 0-.806-.06-1.111-.178s-.529-.288-.673-.508c-.102-.169-.157-.372-.165-.609s.044-.633.159-1.188l.032-.139.343-1.625h-.597c-.288 0-.479-.056-.574-.166-.096-.109-.118-.289-.067-.539.055-.25.152-.427.292-.53s.355-.155.647-.155h.597l.317-1.485c.059-.292.162-.497.308-.616.146-.118.358-.178.638-.178s.467.06.562.178c.096.119.113.324.054.616l-.316 1.486zM192.688 42.778h-6.5l.276-1.092h6.5z"/><path d="M198.633 42.245h-2.812v-1.092h1.682v-8.347h-1.682v-1.092h2.812zM214.443 35.498c0 .688-.65 1.104-1.222 1.104-.585 0-1.222-.416-1.222-1.104 0-.65.585-1.105 1.222-1.105.624 0 1.222.442 1.222 1.105zm0 3.405c0 .702-.637 1.105-1.222 1.105-.572 0-1.222-.403-1.222-1.105 0-.715.676-1.104 1.222-1.104.559 0 1.222.389 1.222 1.104zM223.622 36.291h-5.199v-1.13h5.199v1.13zm0 2.418h-5.199v-1.13h5.199v1.13zM65.166 48.472v1.065h-1.56v5.447h3.068l.169-2.574h1.105l-.169 3.641h-6.552v-1.066h1.248v-5.447h-1.248v-1.065h3.939zM75.891 55.18c-1.17.676-2.353 1.053-3.367 1.053-2.184 0-3.328-1.456-3.328-3.094 0-1.677 1.235-3.159 3.237-3.159 2.054 0 3.094 1.482 3.094 2.756 0 .3-.026.677-.039.793h-5.096c.117.469.416 1.587 2.106 1.587 1.079 0 2.171-.521 2.873-.937l.52 1.001zm-1.56-2.717c-.351-1.339-1.521-1.365-1.885-1.365-1.443 0-1.846 1.014-1.976 1.365h3.861zM79.699 50.161v.963c.546-.521 1.235-1.145 2.353-1.145.988 0 1.482.507 1.768.793l-1.157.884c-.143-.247-.39-.559-.832-.559-.845 0-2.028 1.352-2.132 1.456v2.431h2.405v1.066h-5.096v-1.066h1.56v-3.757h-1.443v-1.066h2.574zM86.29 50.161v.494c.793-.676 1.69-.676 1.937-.676 1.846 0 3.042 1.508 3.042 3.056 0 1.858-1.547 3.106-3.029 3.106-.403 0-1.248-.117-1.95-.715v1.534h1.872v1.066h-4.03v-1.066h1.027v-5.733h-1.027v-1.066h2.158zm1.924 4.862c1.001 0 1.859-.845 1.859-1.988 0-.91-.585-1.938-1.846-1.938-1.157 0-1.989.884-1.989 1.911 0 1.327 1.118 2.015 1.976 2.015zM97.876 58.495h-2.806v-10.531h2.806v1.092h-1.676v8.347h1.676zM104.172 48.472v1.065h-1.56v5.447h3.068l.169-2.574h1.105l-.169 3.641h-6.552v-1.066h1.248v-5.447h-1.248v-1.065h3.939zM114.897 55.18c-1.17.676-2.353 1.053-3.367 1.053-2.184 0-3.328-1.456-3.328-3.094 0-1.677 1.235-3.159 3.237-3.159 2.054 0 3.094 1.482 3.094 2.756 0 .3-.026.677-.039.793h-5.096c.117.469.416 1.587 2.106 1.587 1.079 0 2.171-.521 2.873-.937l.52 1.001zm-1.56-2.717c-.351-1.339-1.521-1.365-1.885-1.365-1.443 0-1.846 1.014-1.976 1.365h3.861zM118.706 50.161v.963c.546-.521 1.235-1.145 2.353-1.145.988 0 1.482.507 1.768.793l-1.157.884c-.143-.247-.39-.559-.832-.559-.845 0-2.028 1.352-2.132 1.456v2.431h2.405v1.066h-5.096v-1.066h1.56v-3.757h-1.443v-1.066h2.574zM125.296 50.161v.494c.793-.676 1.69-.676 1.937-.676 1.846 0 3.042 1.508 3.042 3.056 0 1.858-1.547 3.106-3.029 3.106-.403 0-1.248-.117-1.95-.715v1.534h1.872v1.066h-4.03v-1.066h1.027v-5.733h-1.027v-1.066h2.158zm1.924 4.862c1.001 0 1.859-.845 1.859-1.988 0-.91-.585-1.938-1.846-1.938-1.157 0-1.989.884-1.989 1.911.001 1.327 1.118 2.015 1.976 2.015zM136.882 58.495h-2.805v-10.531h2.805v1.092h-1.675v8.347h1.675z"/><path fill="#438958" d="M145.395 54.66h.102c.229 0 .391.061.485.182.096.12.12.293.073.518-.055.245-.155.422-.302.529-.146.108-.363.162-.65.162h-.597c-.211 0-.361-.04-.447-.121-.087-.08-.143-.226-.168-.438-.398.232-.807.41-1.228.533-.421.123-.833.184-1.235.184-.681 0-1.181-.169-1.498-.508-.317-.338-.413-.802-.286-1.39.135-.635.492-1.128 1.069-1.479.578-.351 1.322-.526 2.231-.526.203 0 .417.011.641.032.224.021.472.055.743.102l.025-.121c.084-.381.056-.671-.086-.869-.142-.199-.392-.299-.752-.299-.279 0-.658.104-1.136.311-.478.208-.819.312-1.022.312-.199 0-.348-.059-.447-.175-.1-.116-.128-.27-.086-.46.072-.343.38-.614.924-.815.543-.201 1.247-.302 2.11-.302.901 0 1.511.174 1.828.521s.387.936.209 1.765l-.5 2.352zm-1.276-1.224c-.203-.047-.39-.081-.562-.104-.171-.023-.333-.035-.485-.035-.465 0-.848.078-1.146.235-.299.156-.478.372-.537.646-.051.246-.005.434.136.562.142.129.372.193.689.193.292 0 .576-.042.851-.127s.557-.216.844-.394l.21-.976z"/><path d="M151.422 53.867l-1.599 3.562h-1.404l1.131-3.562h1.872z"/><path fill="#438958" d="M166.521 50.757c.241-.178.512-.317.812-.419s.603-.152.908-.152c.88 0 1.538.291 1.974.873s.559 1.327.368 2.237c-.178.829-.611 1.522-1.301 2.079s-1.468.834-2.336.834c-.411 0-.752-.07-1.025-.212-.272-.142-.473-.354-.6-.638l-.089.418c-.021.085-.069.151-.143.2-.074.049-.17.073-.289.073h-.978c-.288 0-.481-.054-.581-.162-.099-.107-.122-.289-.066-.543.046-.224.141-.395.282-.511.142-.116.327-.175.556-.175h.102l1.174-5.51h-.102c-.229 0-.39-.06-.486-.181-.095-.12-.119-.295-.073-.523.055-.25.156-.43.301-.54.146-.109.365-.164.657-.164h1.187c.135 0 .227.032.273.098s.055.173.025.32l-.55 2.598zm1.238.78c-.415 0-.792.156-1.133.467-.341.312-.562.706-.664 1.184-.102.491-.051.893.152 1.203.203.312.514.467.933.467s.799-.156 1.14-.47c.34-.313.562-.713.663-1.2.102-.474.049-.867-.159-1.18-.207-.314-.518-.471-.932-.471z"/><path d="M175.875 53.867l-1.599 3.562h-1.404l1.131-3.562h1.872z"/><path fill="#438958" d="M191.723 50.541h1.936c.292 0 .488.053.587.158.1.106.124.282.073.527-.051.25-.151.43-.302.539-.15.11-.369.166-.657.166h-1.936l-.343 1.625c-.097.457-.094.77.01.939.104.169.331.254.682.254.33 0 .74-.096 1.228-.286.489-.19.81-.286.962-.286.173 0 .308.069.403.207.095.138.124.304.085.498-.072.326-.432.623-1.079.892s-1.346.403-2.095.403c-.436 0-.806-.06-1.111-.178s-.529-.288-.673-.508c-.102-.169-.157-.372-.165-.609s.044-.633.159-1.188l.032-.139.343-1.625h-.597c-.288 0-.479-.056-.574-.166-.096-.109-.118-.289-.067-.539.055-.25.152-.427.292-.53s.355-.155.647-.155h.597l.317-1.485c.059-.292.162-.497.308-.616.146-.118.358-.178.638-.178s.467.06.562.178c.096.119.113.324.054.616l-.316 1.486z"/><path d="M199.435 58.495h-2.812v-1.092h1.682v-8.347h-1.682v-1.092h2.812zM207.703 53.867l-1.599 3.562h-1.404l1.131-3.562h1.872zM223.486 48.472v1.065h-1.56v5.447h3.068l.169-2.574h1.105l-.17 3.641h-6.552v-1.066h1.248v-5.447h-1.248v-1.065h3.94zM234.212 55.18c-1.17.676-2.353 1.053-3.367 1.053-2.185 0-3.328-1.456-3.328-3.094 0-1.677 1.235-3.159 3.237-3.159 2.054 0 3.094 1.482 3.094 2.756 0 .3-.025.677-.039.793h-5.096c.117.469.416 1.587 2.105 1.587 1.08 0 2.172-.521 2.873-.937l.521 1.001zm-1.56-2.717c-.352-1.339-1.521-1.365-1.886-1.365-1.442 0-1.846 1.014-1.976 1.365h3.862zM238.021 50.161v.963c.546-.521 1.235-1.145 2.353-1.145.988 0 1.482.507 1.769.793l-1.157.884c-.143-.247-.39-.559-.832-.559-.845 0-2.027 1.352-2.132 1.456v2.431h2.405v1.066h-5.096v-1.066h1.56v-3.757h-1.443v-1.066h2.573zM244.611 50.161v.494c.793-.676 1.689-.676 1.938-.676 1.846 0 3.041 1.508 3.041 3.056 0 1.858-1.547 3.106-3.028 3.106-.403 0-1.248-.117-1.95-.715v1.534h1.872v1.066h-4.03v-1.066h1.027v-5.733h-1.027v-1.066h2.157zm1.924 4.862c1.002 0 1.859-.845 1.859-1.988 0-.91-.585-1.938-1.846-1.938-1.157 0-1.989.884-1.989 1.911.001 1.327 1.119 2.015 1.976 2.015zM256.197 58.495h-2.805v-10.531h2.805v1.092h-1.676v8.347h1.676z"/><path fill="#438958" d="M261.809 50.757c.241-.178.512-.317.812-.419s.604-.152.908-.152c.88 0 1.537.291 1.974.873s.559 1.327.368 2.237c-.178.829-.611 1.522-1.301 2.079-.69.557-1.469.834-2.336.834-.411 0-.752-.07-1.025-.212s-.473-.354-.6-.638l-.09.418c-.021.085-.068.151-.143.2s-.17.073-.289.073h-.977c-.288 0-.482-.054-.582-.162-.099-.107-.121-.289-.066-.543.047-.224.141-.395.283-.511.142-.116.326-.175.555-.175h.102l1.175-5.51h-.102c-.229 0-.39-.06-.485-.181-.096-.12-.119-.295-.073-.523.056-.25.155-.43.302-.54.146-.109.365-.164.656-.164h1.188c.135 0 .227.032.273.098.046.065.055.173.025.32l-.552 2.598zm1.238.78c-.415 0-.793.156-1.133.467-.342.312-.562.706-.664 1.184-.102.491-.051.893.152 1.203.203.312.514.467.934.467.418 0 .799-.156 1.139-.47.341-.313.562-.713.664-1.2.102-.474.049-.867-.159-1.18-.209-.314-.519-.471-.933-.471z"/><path d="M271.162 53.867l-1.6 3.562h-1.404l1.132-3.562h1.872z"/><path fill="#438958" d="M289.334 50.528c.088-.165.195-.289.32-.371.125-.083.271-.124.441-.124.229 0 .376.068.443.206.068.138.066.376-.006.714l-.223 1.041c-.055.259-.147.449-.279.572-.131.122-.307.184-.526.184-.157 0-.28-.036-.371-.107-.091-.072-.175-.21-.251-.413-.105-.288-.281-.5-.527-.638-.245-.138-.566-.207-.965-.207-.494 0-.935.162-1.32.486-.385.323-.63.737-.736 1.24-.113.529-.042.955.217 1.276.258.321.662.482 1.212.482.499 0 1.025-.139 1.577-.416.553-.277.884-.415.994-.415.156 0 .273.06.352.181.078.12.099.271.061.454-.084.397-.463.753-1.133 1.066-.671.312-1.421.469-2.25.469-1.024 0-1.796-.287-2.314-.863-.518-.575-.682-1.315-.492-2.221.191-.885.666-1.621 1.426-2.209.76-.589 1.621-.883 2.586-.883.326 0 .635.04.928.121.289.081.568.206.836.375z"/><path d="M295.646 53.867l-1.6 3.562h-1.404l1.132-3.562h1.872z"/><path fill="#438958" d="M311.494 50.541h1.936c.293 0 .488.053.588.158.1.106.123.282.072.527-.051.25-.15.43-.301.539-.15.11-.369.166-.657.166h-1.937l-.342 1.625c-.098.457-.095.77.01.939.104.169.33.254.682.254.33 0 .74-.096 1.229-.286s.809-.286.961-.286c.174 0 .309.069.404.207.094.138.123.304.085.498-.071.326-.432.623-1.079.892s-1.346.403-2.095.403c-.437 0-.806-.06-1.11-.178s-.529-.288-.674-.508c-.102-.169-.156-.372-.164-.609-.009-.237.044-.633.158-1.188l.031-.139.344-1.625h-.598c-.287 0-.479-.056-.574-.166-.096-.109-.117-.289-.066-.539.055-.25.152-.427.292-.53s.355-.155.647-.155h.597l.317-1.485c.059-.292.162-.497.309-.616.145-.118.357-.178.637-.178s.467.06.562.178c.096.119.113.324.054.616l-.318 1.486z"/><path d="M319.207 58.495h-2.812v-1.092h1.682v-8.347h-1.682v-1.092h2.812zM327.475 53.867l-1.599 3.562h-1.404l1.132-3.562h1.871z"/><path fill="#438958" d="M343.322 50.541h1.937c.292 0 .487.053.587.158.1.106.124.282.073.527-.051.25-.151.43-.302.539-.15.11-.369.166-.656.166h-1.937l-.343 1.625c-.098.457-.094.77.01.939.104.169.331.254.682.254.33 0 .74-.096 1.229-.286.489-.19.81-.286.962-.286.173 0 .308.069.403.207.095.138.123.304.086.498-.072.326-.432.623-1.08.892-.646.269-1.346.403-2.094.403-.437 0-.807-.06-1.111-.178s-.529-.288-.673-.508c-.102-.169-.157-.372-.165-.609s.045-.633.158-1.188l.032-.139.343-1.625h-.597c-.288 0-.479-.056-.574-.166-.096-.109-.118-.289-.067-.539.056-.25.152-.427.293-.53.139-.104.355-.155.646-.155h.598l.316-1.485c.06-.292.162-.497.309-.616.146-.118.358-.178.638-.178s.467.06.562.178c.096.119.113.324.055.616l-.32 1.486z"/><path d="M351.035 58.495h-2.811v-1.092h1.681v-8.347h-1.681v-1.092h2.811zM359.355 53.854l-1.586 3.562h-1.404l1.117-3.562h1.873zm.065-2.145c0 .688-.637 1.104-1.222 1.104-.599 0-1.21-.429-1.21-1.104 0-.65.572-1.105 1.21-1.105.611 0 1.222.416 1.222 1.105z"/><path fill="none" d="M42 28h323v35h-323zM44 30h411v31h-411z"/></svg>