<svg xmlns="http://www.w3.org/2000/svg" width="413" height="400" viewBox="0 0 413 400"><path d="M9.176 4.222l.078 2.795h-1.053l-.156-1.73h-3.12v1.989h1.534v-.935h1.079v2.925h-1.079v-.923h-1.534v2.392h1.651v1.066h-3.77v-1.066h.988v-5.448h-.988v-1.065h6.37zM12.231 5.911v3.562c0 .494.104 1.392 1.066 1.392.793 0 1.235-.481 1.716-.963v-2.924h-1.066v-1.067h2.197v4.823h1.014v1.066h-2.145v-.403c-.65.469-1.313.585-1.703.585-.65 0-1.326-.272-1.677-.701-.325-.403-.533-.832-.533-1.808v-2.495h-1.014v-1.067h2.145zM22.059 3.377v7.357h2.184v1.066h-5.499v-1.066h2.184v-6.187l-2.028.13-.104-1.079 3.263-.221zM29.858 3.377v7.357h2.184v1.066h-5.499v-1.066h2.184v-6.187l-2.028.13-.104-1.079 3.263-.221zM39.895 4.092c-.026.286-.052.663-.052 1.118 0 .546.052 1.144.078 1.456l.026.312-1.027.143c-.091-.702-.247-2.003-1.768-2.003-1.196 0-1.677.716-1.677 1.262 0 .91 1.157 1.026 1.716 1.092.871.104 1.391.143 1.911.481.468.299.923.845.923 1.689 0 1.339-1.209 2.366-2.73 2.366-1.053 0-1.443-.403-1.755-.741l-.104.78h-1.053c.026-.26.039-.442.039-.871 0-.793-.065-1.664-.104-2.08h1.04c.091.975.507 1.794 1.768 1.794.767 0 1.729-.325 1.729-1.222 0-.807-.741-.962-1.534-1.04-.91-.091-3.016-.299-3.016-2.224 0-1.389 1.391-2.404 2.678-2.404 1.04 0 1.573.611 1.768.819l.104-.728h1.04zM45.485 5.911v4.823h2.171v1.066h-5.512v-1.066h2.21v-3.756h-1.859v-1.067h2.99zm-1.379-2.847h1.378v1.716h-1.378v-1.716zM50.658 5.911v.43c.221-.195.637-.611 1.248-.611.663 0 .962.468 1.066.611.299-.247.715-.611 1.378-.611 1.638 0 1.651 1.729 1.651 2.405v2.6h.599v1.066h-1.729v-3.666c0-.754 0-1.287-.572-1.287-.442 0-.715.377-.962.676v3.211h.767v1.066h-1.898v-3.718c0-.481 0-1.235-.572-1.235-.364 0-.663.273-.962.559v3.328h.897v1.066h-2.769v-1.066h.741v-3.757h-.741v-1.067h1.858zM58.887 5.911v.494c.793-.676 1.69-.676 1.937-.676 1.846 0 3.042 1.508 3.042 3.056 0 1.858-1.547 3.106-3.029 3.106-.403 0-1.248-.117-1.95-.715v1.534h1.872v1.066h-4.03v-1.066h1.027v-5.732h-1.027v-1.067h2.158zm1.925 4.862c1.001 0 1.859-.845 1.859-1.988 0-.91-.585-1.938-1.846-1.938-1.157 0-1.989.884-1.989 1.911-.001 1.327 1.117 2.015 1.976 2.015zM68.858 3.377v7.357h2.184v1.066h-5.499v-1.066h2.184v-6.187l-2.028.13-.104-1.079 3.263-.221zM76.684 5.911v4.823h2.171v1.066h-5.512v-1.066h2.21v-3.756h-1.859v-1.067h2.99zm-1.378-2.847h1.378v1.716h-1.378v-1.716zM82.404 6.042v-.455c0-.937.091-2.146 2.223-2.146.858 0 1.755.156 2.146.221l-.456 1.118c-.923-.194-1.547-.22-1.833-.22-.975 0-.949.351-.949 1.04v.442h2.678v1.065h-2.678v3.627h2.678v1.066h-5.123v-1.066h1.313v-3.627h-1.313v-1.065h1.314zM90.828 5.911v1.066h-.702l1.586 3.042 1.742-3.042h-.676v-1.066h2.795v1.066h-.819l-3.263 5.682h.975v1.065h-4.29v-1.065h2.015l.858-1.47-2.21-4.212h-.858v-1.066h2.847zM101.684 14.245h-2.806v-10.531h2.806v1.092h-1.676v8.347h1.676zM107.109 4.222c1.105 0 2.015.078 2.782 1.04.78.975.819 2.132.819 2.626 0 1.599-.559 2.587-1.105 3.12-.832.806-2.042.793-2.535.793h-3.354v-1.066h1.001v-5.448h-1.001v-1.065h3.393zm-1.261 1.065v5.447h1.222c.416 0 1.17 0 1.703-.532.429-.43.741-1.21.741-2.302 0-.845-.208-1.456-.507-1.885-.455-.663-.962-.729-1.885-.729h-1.274zM118.705 10.93c-1.17.676-2.353 1.053-3.367 1.053-2.184 0-3.328-1.456-3.328-3.094 0-1.677 1.235-3.159 3.237-3.159 2.054 0 3.094 1.482 3.094 2.756 0 .3-.026.677-.039.793h-5.096c.117.469.416 1.587 2.106 1.587 1.079 0 2.171-.521 2.873-.937l.52 1.001zm-1.56-2.717c-.351-1.339-1.521-1.365-1.885-1.365-1.443 0-1.846 1.014-1.976 1.365h3.861zM122.214 4.222v1.82h2.964v1.065h-2.964v2.185c0 .896-.013 1.573 1.014 1.573.767 0 1.378-.261 2.132-.572l.416-.169.429 1.026c-.676.312-1.82.832-2.873.832-.572 0-1.313-.182-1.703-.585-.533-.559-.546-1.326-.546-2.105v-2.185h-.858v-1.065h.858v-1.82h1.131zM132.889 14.245h-2.806v-10.531h2.806v1.092h-1.676v8.347h1.676zM140.538 14.207c-1.769 0-2.653-.646-2.653-1.936v-2.12c0-.444-.376-.667-1.13-.667v-1.092c.753 0 1.13-.22 1.13-.66v-2.12c0-1.291.884-1.936 2.653-1.936v1.079c-1.016 0-1.523.273-1.523.819v2.146c0 .503-.208.91-.622 1.219.415.338.622.747.622 1.225v2.146c0 .546.508.819 1.523.819v1.078zM148.339 14.207c-1.769 0-2.653-.646-2.653-1.936v-2.12c0-.444-.376-.667-1.13-.667v-1.092c.753 0 1.13-.22 1.13-.66v-2.12c0-1.291.884-1.936 2.653-1.936v1.079c-1.016 0-1.523.273-1.523.819v2.146c0 .503-.208.91-.622 1.219.415.338.622.747.622 1.225v2.146c0 .546.508.819 1.523.819v1.078z"/><path fill="#002CC3" d="M156.399 10.734h1.118v1.066h-2.25v-.624c-.429.312-1.105.806-2.145.806-1.378 0-2.275-1.014-2.275-2.027 0-.793.65-2.146 2.938-2.146.585 0 1.014.052 1.482.104 0-.455.013-1.157-1.274-1.157-.91 0-1.794.39-2.275.598l-.442-1.04c.793-.325 1.677-.676 2.73-.676 1.664 0 2.392.832 2.392 2.171v2.925zm-1.131-1.715c-.455-.064-.845-.143-1.352-.143-1.833 0-1.898.936-1.898 1.092 0 .481.533.897 1.092.897.26 0 1.157-.053 2.158-1.171v-.675z"/><path d="M163.031 9.617l-1.599 3.562h-1.404l1.131-3.562h1.872z"/><path fill="#002CC3" d="M176.461 3.377v3.197c.572-.468 1.183-.715 1.911-.715 1.69 0 3.081 1.365 3.081 3.042 0 1.521-1.234 3.029-3.028 3.029-.39 0-1.144-.052-1.963-.702v.572h-2.132v-1.066h1.001v-6.174l-1.001.052-.078-1.104 2.209-.131zm1.951 7.435c1.092 0 1.846-.884 1.846-1.911 0-1.053-.807-1.924-1.859-1.924-1.079 0-1.937.897-1.937 1.911-.001 1.028.845 1.924 1.95 1.924z"/><path d="M187.721 9.484c-.381 0-.664.056-.851.168-.186.112-.279.278-.279.498v2.12c0 1.291-.884 1.936-2.653 1.936v-1.079c1.016 0 1.523-.273 1.523-.819v-2.146c0-.478.208-.887.622-1.225-.207-.152-.362-.333-.466-.542-.104-.21-.156-.435-.156-.676v-2.145c0-.292-.12-.501-.361-.628s-.629-.19-1.162-.19v-1.08c.897 0 1.564.16 2 .479.436.319.653.805.653 1.457v2.12c0 .229.092.398.273.508.169.102.455.152.856.152v1.092zM194.859 9.617l-1.6 3.562h-1.404l1.132-3.562h1.872zM211.996 14.207c-1.769 0-2.653-.646-2.653-1.936v-2.12c0-.444-.377-.667-1.13-.667v-1.092c.753 0 1.13-.22 1.13-.66v-2.12c0-1.291.885-1.936 2.653-1.936v1.079c-1.016 0-1.523.273-1.523.819v2.146c0 .503-.207.91-.622 1.219.415.338.622.747.622 1.225v2.146c0 .546.508.819 1.523.819v1.078z"/><path fill="#002CC3" d="M216.092 3.377v3.197c.572-.468 1.183-.715 1.91-.715 1.69 0 3.082 1.365 3.082 3.042 0 1.521-1.235 3.029-3.029 3.029-.391 0-1.145-.052-1.963-.702v.572h-2.133v-1.066h1.002v-6.174l-1.002.052-.078-1.104 2.211-.131zm1.949 7.435c1.092 0 1.847-.884 1.847-1.911 0-1.053-.806-1.924-1.859-1.924-1.079 0-1.937.897-1.937 1.911 0 1.028.845 1.924 1.949 1.924z"/><path d="M226.688 9.617l-1.599 3.562h-1.404l1.132-3.562h1.871z"/><path fill="#002CC3" d="M244.824 5.834c-.038.351-.077.832-.077 1.3 0 .507.039.845.077 1.144l-1.092.144c-.117-.807-.221-1.573-1.703-1.573-1.846 0-2.158 1.443-2.158 2.002 0 .884.56 2.016 2.068 2.016 1 0 1.963-.65 2.717-1.184l.623.884c-.61.469-1.858 1.417-3.393 1.417-1.885 0-3.211-1.364-3.211-3.12 0-1.521 1.118-3.133 3.172-3.133.65 0 1.184.156 1.846.715l.117-.715 1.014.103z"/><path d="M251.378 9.484c-.381 0-.664.056-.851.168-.186.112-.279.278-.279.498v2.12c0 1.291-.884 1.936-2.653 1.936v-1.079c1.016 0 1.523-.273 1.523-.819v-2.146c0-.478.208-.887.622-1.225-.207-.152-.362-.333-.466-.542-.104-.21-.156-.435-.156-.676v-2.145c0-.292-.12-.501-.361-.628s-.629-.19-1.162-.19v-1.08c.897 0 1.563.16 2 .479.436.319.653.805.653 1.457v2.12c0 .229.091.398.273.508.169.102.455.152.856.152v1.092zM259.18 9.484c-.381 0-.664.056-.851.168-.187.112-.279.278-.279.498v2.12c0 1.291-.885 1.936-2.653 1.936v-1.079c1.016 0 1.523-.273 1.523-.819v-2.146c0-.478.207-.887.622-1.225-.208-.152-.363-.333-.467-.542-.104-.21-.155-.435-.155-.676v-2.145c0-.292-.121-.501-.362-.628s-.628-.19-1.161-.19v-1.08c.896 0 1.563.16 1.999.479.437.319.654.805.654 1.457v2.12c0 .229.091.398.272.508.17.102.455.152.857.152v1.092zM265.851 14.245h-2.812v-1.092h1.682v-8.347h-1.682v-1.092h2.812zM273.652 14.245h-2.812v-1.092h1.682v-8.347h-1.682v-1.092h2.812z"/><path fill="none" d="M0 0h279v17h-279zM2 2h411v13h-411z"/><path d="M3.301 34.175h5.199v.476h-5.199zM15.872 34.756h1.17v.624h-1.17v1.287h1.17v.611h-3.549v-.611h1.755v-1.287h-3.484v-.754l3.224-5.421h.884v5.551zm-.624 0v-4.797h-.026l-2.822 4.797h2.848zM24.507 31.688v.61h-1.079l1.144 3.939h.026l1.274-3.536h.455l1.287 3.588h.026l1.17-3.991h-1.092v-.61h2.21v.61h-.507l-1.456 4.979h-.675l-1.235-3.354-1.209 3.354h-.637l-1.469-4.979h-.56v-.61h2.327zM34.338 30.652v1.348h-3.601v-.489c.397-.342 1.819-1.597 2.566-2.354.443-.442.545-.775.545-1.199 0-.878-.803-1.229-1.274-1.229-.351 0-1.228.203-1.172.96h-.48v-.6c.684-.821 1.523-.821 1.671-.821.868 0 1.754.664 1.754 1.707 0 .397-.092.675-.314 1.025-.295.471-1.44 1.56-2.677 2.548v.019h2.548v-.914h.434zM45.437 42.636h-.413c-.656-1.435-1.148-2.854-1.476-4.256s-.492-2.72-.492-3.951c0-1.426.166-2.784.498-4.072s.822-2.669 1.47-4.142h.413c-.5 1.168-.928 2.467-1.286 3.897-.357 1.43-.536 2.865-.536 4.304 0 1.244.124 2.489.371 3.735s.731 2.742 1.451 4.485zM48.547 34.175h5.199v.476h-5.199zM59.973 29.205h.416v7.462h2.223v.611h-5.135v-.611h2.262v-6.708l-2.08.962-.26-.572 2.574-1.144zM73.349 34.651h-2.368v2.368h-.482v-2.368h-2.349v-.476h2.349v-2.355h.482v2.355h2.368zM80.129 31.688v.61h-1.079l1.144 3.939h.026l1.274-3.536h.455l1.287 3.588h.026l1.17-3.991h-1.092v-.61h2.21v.61h-.507l-1.456 4.979h-.676l-1.235-3.354-1.209 3.354h-.637l-1.469-4.979h-.559v-.61h2.327zM89.961 30.652v1.348h-3.601v-.489c.397-.342 1.819-1.597 2.566-2.354.443-.442.545-.775.545-1.199 0-.878-.803-1.229-1.274-1.229-.351 0-1.228.203-1.172.96h-.48v-.6c.684-.821 1.523-.821 1.671-.821.868 0 1.754.664 1.754 1.707 0 .397-.092.675-.314 1.025-.295.471-1.44 1.56-2.677 2.548v.019h2.548v-.914h.434zM95.825 34.429c0 1.299-.182 2.678-.546 4.135-.364 1.458-.836 2.815-1.416 4.072h-.413c.593-1.452 1.043-2.851 1.352-4.199.309-1.348.463-2.688.463-4.021 0-1.219-.133-2.479-.4-3.78s-.738-2.775-1.416-4.421h.413c.639 1.435 1.125 2.825 1.46 4.17s.503 2.694.503 4.044zM108.81 29.154c-.364.686-.748 1.533-1.152 2.542-.404 1.009-.606 1.916-.606 2.72 0 .931.173 1.84.521 2.726.347.887.734 1.734 1.162 2.542h-.419c-.495-.762-.922-1.598-1.282-2.507s-.54-1.831-.54-2.761c0-.961.189-1.881.568-2.761.378-.88.822-1.714 1.33-2.501h.418zM113.711 31.688v.61h-.793l1.625 1.625 1.625-1.625h-.754v-.61h2.392v.61h-.793l-2.041 2.055 2.34 2.313h.819v.611h-2.639v-.611h.923l-1.872-1.897-1.885 1.897h.91v.611h-2.561v-.611h.806l2.288-2.313-2.067-2.055h-.832v-.61h2.509zM122.828 38.013v1.348h-3.601v-.489c.397-.342 1.819-1.597 2.566-2.354.443-.442.545-.775.545-1.199 0-.878-.803-1.229-1.274-1.229-.351 0-1.228.203-1.172.96h-.48v-.6c.684-.821 1.523-.821 1.671-.821.868 0 1.754.664 1.754 1.707 0 .397-.092.675-.314 1.025-.295.471-1.44 1.56-2.677 2.548v.019h2.548v-.914h.434zM133.876 29.154c-.364.686-.748 1.533-1.152 2.542s-.606 1.916-.606 2.72c0 .931.173 1.84.521 2.726.347.887.734 1.734 1.162 2.542h-.419c-.495-.762-.923-1.598-1.282-2.507-.36-.91-.54-1.831-.54-2.761 0-.961.189-1.881.568-2.761s.822-1.714 1.33-2.501h.418zM137.037 34.175h5.199v.476h-5.199zM147.28 31.688v.61h-.897l2.054 3.952 2.262-3.952h-.884v-.61h2.379v.61h-.754l-3.64 6.357h1.157v.611h-3.9v-.611h2.002l1.001-1.729-2.418-4.629h-.793v-.61h2.431zM156.862 36.563c0 1.209-.249 2.926-1.754 2.926s-1.754-1.735-1.754-2.926c0-1.2.249-2.936 1.754-2.936s1.754 1.736 1.754 2.936zm-3.019-.009c0 .979.166 2.521 1.255 2.521 1.108 0 1.274-1.551 1.274-2.521 0-.979-.166-2.511-1.265-2.511-1.107 0-1.264 1.551-1.264 2.511zM167.877 34.651h-2.368v2.368h-.482v-2.368h-2.349v-.476h2.349v-2.355h.482v2.355h2.368zM174.921 31.688v.61h-.897l2.054 3.952 2.262-3.952h-.884v-.61h2.379v.61h-.754l-3.641 6.357h1.157v.611h-3.9v-.611h2.002l1.001-1.729-2.418-4.629h-.793v-.61h2.432zM182.768 33.628h.295v5.299h1.579v.434h-3.646v-.434h1.606v-4.764l-1.478.683-.185-.406 1.829-.812zM190.201 34.416c0 .939-.184 1.868-.552 2.787-.368.918-.789 1.746-1.264 2.482h-.419c.453-.876.846-1.724 1.178-2.542s.498-1.728.498-2.726c0-.961-.188-1.881-.564-2.761s-.772-1.714-1.188-2.501h.413c.512.779.956 1.612 1.333 2.501s.565 1.808.565 2.76zM203.319 34.651h-2.367v2.368h-.482v-2.368h-2.349v-.476h2.349v-2.355h.482v2.355h2.367zM210.663 31.688v.61h-.793l1.625 1.625 1.625-1.625h-.754v-.61h2.392v.61h-.793l-2.041 2.055 2.34 2.313h.82v.611h-2.64v-.611h.923l-1.872-1.897-1.885 1.897h.909v.611h-2.561v-.611h.807l2.287-2.313-2.066-2.055h-.832v-.61h2.509zM218.211 33.628h.295v5.299h1.578v.434h-3.646v-.434h1.606v-4.764l-1.478.683-.184-.406 1.829-.812zM230.827 29.154c-.364.686-.748 1.533-1.151 2.542-.404 1.009-.606 1.916-.606 2.72 0 .931.173 1.84.521 2.726.347.887.734 1.734 1.161 2.542h-.419c-.495-.762-.922-1.598-1.282-2.507-.359-.91-.539-1.831-.539-2.761 0-.961.189-1.881.567-2.761.379-.88.822-1.714 1.33-2.501h.418zM235.431 31.688v.61h-.897l2.055 3.952 2.262-3.952h-.884v-.61h2.379v.61h-.754l-3.64 6.357h1.156v.611h-3.9v-.611h2.002l1.002-1.729-2.418-4.629h-.794v-.61h2.431zM245.012 36.563c0 1.209-.248 2.926-1.754 2.926-1.504 0-1.754-1.735-1.754-2.926 0-1.2.25-2.936 1.754-2.936 1.506.001 1.754 1.736 1.754 2.936zm-3.018-.009c0 .979.166 2.521 1.255 2.521 1.108 0 1.274-1.551 1.274-2.521 0-.979-.166-2.511-1.266-2.511-1.107 0-1.263 1.551-1.263 2.511zM250.829 34.175h5.198v.476h-5.198zM263.072 31.688v.61h-.897l2.054 3.952 2.262-3.952h-.883v-.61h2.379v.61h-.754l-3.641 6.357h1.156v.611h-3.899v-.611h2.002l1.001-1.729-2.418-4.629h-.793v-.61h2.431zM272.487 38.013v1.348h-3.601v-.489c.396-.342 1.818-1.597 2.566-2.354.443-.442.545-.775.545-1.199 0-.878-.803-1.229-1.273-1.229-.352 0-1.229.203-1.173.96h-.48v-.6c.684-.821 1.523-.821 1.671-.821.868 0 1.754.664 1.754 1.707 0 .397-.092.675-.313 1.025-.296.471-1.44 1.56-2.677 2.548v.019h2.547v-.914h.434zM278.352 34.416c0 .939-.184 1.868-.552 2.787-.368.918-.789 1.746-1.264 2.482h-.419c.453-.876.846-1.724 1.178-2.542s.498-1.728.498-2.726c0-.961-.188-1.881-.564-2.761s-.772-1.714-1.188-2.501h.413c.512.779.956 1.612 1.333 2.501s.565 1.808.565 2.76zM291.471 34.651h-2.368v2.368h-.483v-2.368h-2.349v-.476h2.349v-2.355h.483v2.355h2.368zM298.813 31.688v.61h-.793l1.625 1.625 1.625-1.625h-.754v-.61h2.392v.61h-.793l-2.041 2.055 2.34 2.313h.82v.611h-2.64v-.611h.923l-1.872-1.897-1.885 1.897h.909v.611h-2.561v-.611h.807l2.287-2.313-2.066-2.055h-.832v-.61h2.509zM308.096 36.563c0 1.209-.248 2.926-1.754 2.926-1.504 0-1.754-1.735-1.754-2.926 0-1.2.25-2.936 1.754-2.936 1.506.001 1.754 1.736 1.754 2.936zm-3.018-.009c0 .979.166 2.521 1.255 2.521 1.108 0 1.274-1.551 1.274-2.521 0-.979-.166-2.511-1.266-2.511-1.107 0-1.263 1.551-1.263 2.511zM318.978 29.154c-.364.686-.748 1.533-1.152 2.542-.403 1.009-.605 1.916-.605 2.72 0 .931.173 1.84.521 2.726.347.887.733 1.734 1.161 2.542h-.419c-.495-.762-.923-1.598-1.282-2.507s-.539-1.831-.539-2.761c0-.961.189-1.881.567-2.761.379-.88.822-1.714 1.33-2.501h.418zM322.139 34.175h5.199v.476h-5.199zM332.382 31.688v.61h-.897l2.055 3.952 2.262-3.952h-.884v-.61h2.379v.61h-.754l-3.64 6.357h1.156v.611h-3.9v-.611h2.002l1.002-1.729-2.418-4.629h-.793v-.61h2.43zM340.229 33.628h.295v5.299h1.579v.434h-3.646v-.434h1.606v-4.764l-1.478.683-.185-.406 1.829-.812zM352.979 34.651h-2.368v2.368h-.482v-2.368h-2.349v-.476h2.349v-2.355h.482v2.355h2.368zM360.023 31.688v.61h-.896l2.054 3.952 2.262-3.952h-.884v-.61h2.379v.61h-.754l-3.641 6.357h1.157v.611h-3.899v-.611h2.002l1-1.729-2.418-4.629h-.793v-.61h2.431zM369.439 38.013v1.348h-3.602v-.489c.397-.342 1.819-1.597 2.566-2.354.443-.442.545-.775.545-1.199 0-.878-.803-1.229-1.273-1.229-.352 0-1.229.203-1.172.96h-.48v-.6c.684-.821 1.523-.821 1.67-.821.869 0 1.755.664 1.755 1.707 0 .397-.093.675-.313 1.025-.296.471-1.441 1.56-2.678 2.548v.019h2.548v-.914h.434zM375.304 34.416c0 .939-.185 1.868-.553 2.787-.368.918-.789 1.746-1.263 2.482h-.419c.453-.876.845-1.724 1.178-2.542.332-.819.498-1.728.498-2.726 0-.961-.188-1.881-.565-2.761-.376-.88-.771-1.714-1.187-2.501h.412c.513.779.957 1.612 1.333 2.501.377.887.566 1.808.566 2.76zM383.104 34.416c0 .939-.184 1.868-.552 2.787-.368.918-.789 1.746-1.264 2.482h-.419c.453-.876.846-1.724 1.178-2.542s.498-1.728.498-2.726c0-.961-.188-1.881-.564-2.761s-.772-1.714-1.188-2.501h.413c.512.779.956 1.612 1.333 2.501s.565 1.808.565 2.76zM391.08 30.652v1.348h-3.6v-.489c.396-.342 1.818-1.597 2.566-2.354.443-.442.545-.775.545-1.199 0-.878-.804-1.229-1.274-1.229-.351 0-1.228.203-1.173.96h-.48v-.6c.684-.821 1.523-.821 1.672-.821.867 0 1.754.664 1.754 1.707 0 .397-.092.675-.314 1.025-.295.471-1.439 1.56-2.677 2.548v.019h2.548v-.914h.433z"/><path fill="none" d="M0 23h395v23h-395zM2 25h411v19h-411z"/><path d="M7.916 75.843c-1.769 0-2.653-.646-2.653-1.936v-2.12c0-.444-.376-.667-1.13-.667v-1.092c.753 0 1.13-.22 1.13-.66v-2.12c0-1.291.884-1.936 2.653-1.936v1.079c-1.016 0-1.523.273-1.523.819v2.146c0 .503-.208.91-.622 1.219.415.338.622.747.622 1.225v2.146c0 .546.508.819 1.523.819v1.078zM13.972 67.242c0 .521-.185.966-.555 1.336-.371.371-.816.556-1.336.556s-.966-.185-1.336-.556c-.371-.37-.556-.815-.556-1.336s.185-.966.556-1.336c.37-.37.815-.555 1.336-.555s.966.185 1.336.555c.37.37.555.815.555 1.336zm2.837.736l-5.605 3.923-.584-.895 5.605-3.923.584.895zm-3.929-.736c0-.22-.078-.409-.235-.565-.157-.157-.345-.235-.565-.235s-.408.078-.565.235c-.157.156-.235.345-.235.565s.078.408.235.565c.157.156.345.235.565.235s.408-.079.565-.235c.157-.157.235-.345.235-.565zm4.329 4.5c0 .521-.185.966-.555 1.336-.371.37-.816.556-1.336.556s-.966-.186-1.336-.556c-.371-.37-.556-.815-.556-1.336s.185-.966.556-1.336c.37-.37.815-.555 1.336-.555s.966.185 1.336.555c.37.37.555.816.555 1.336zm-1.092 0c0-.22-.078-.408-.235-.565s-.345-.235-.565-.235-.408.078-.565.235-.235.345-.235.565c0 .22.078.408.235.565s.345.235.565.235.408-.078.565-.235.235-.345.235-.565zM31.477 65.61l-4.095 8.97-1.003-.451 4.095-8.976zM37.951 72.539c0 .689-.624 1.105-1.222 1.105-.585 0-1.222-.403-1.222-1.105 0-.688.637-1.104 1.222-1.104.559 0 1.222.403 1.222 1.104z"/><path fill="#002CC3" d="M51.16 67.547v1.066h-.962l.715 2.756h.026l1.014-2.756h.793l1.04 2.756h.026l.728-2.756h-.975v-1.066h2.639v1.066h-.546l-1.313 4.823h-1.027l-1.001-2.834h-.026l-.975 2.834h-.988l-1.326-4.823h-.598v-1.066h2.756z"/><path d="M61.075 70.003h6.163l-1.39-1.39.806-.806 2.742 2.755-2.742 2.773-.806-.806 1.39-1.39h-6.163zM77.791 65.129h.702v7.241h2.158v1.066h-5.473v-1.066h2.184v-5.837l-1.885.845-.455-1.014 2.769-1.235zM86.724 71.253l-1.599 3.562h-1.405l1.131-3.562h1.873zM102.115 67.242c0 .521-.185.966-.556 1.336-.37.371-.815.556-1.336.556s-.966-.185-1.336-.556c-.37-.37-.555-.815-.555-1.336s.185-.966.555-1.336c.37-.37.816-.555 1.336-.555s.966.185 1.336.555c.371.37.556.815.556 1.336zm2.837.736l-5.605 3.923-.584-.895 5.605-3.923.584.895zm-3.929-.736c0-.22-.079-.409-.235-.565-.157-.157-.345-.235-.565-.235-.22 0-.409.078-.565.235-.157.156-.235.345-.235.565s.078.408.235.565c.156.156.345.235.565.235.22 0 .408-.079.565-.235.156-.157.235-.345.235-.565zm4.329 4.5c0 .521-.185.966-.556 1.336-.37.37-.815.556-1.336.556s-.966-.186-1.336-.556-.555-.815-.555-1.336.185-.966.555-1.336c.37-.37.816-.555 1.336-.555s.966.185 1.336.555c.371.37.556.816.556 1.336zm-1.092 0c0-.22-.079-.408-.235-.565-.157-.157-.345-.235-.565-.235-.22 0-.409.078-.565.235-.157.157-.235.345-.235.565 0 .22.078.408.235.565.156.157.345.235.565.235.22 0 .408-.078.565-.235.157-.157.235-.345.235-.565zM119.62 65.61l-4.095 8.97-1.003-.451 4.095-8.976zM126.094 72.539c0 .689-.624 1.105-1.222 1.105-.585 0-1.222-.403-1.222-1.105 0-.688.637-1.104 1.222-1.104.559 0 1.222.403 1.222 1.104z"/><path fill="#002CC3" d="M135.878 67.547v1.066h-.962l.715 2.756h.026l1.014-2.756h.793l1.04 2.756h.026l.728-2.756h-.975v-1.066h2.639v1.066h-.546l-1.313 4.823h-1.027l-1.001-2.834h-.026l-.975 2.834h-.988l-1.326-4.823h-.598v-1.066h2.756z"/><path d="M145.793 70.003h6.164l-1.391-1.39.807-.806 2.742 2.755-2.742 2.773-.807-.806 1.391-1.39h-6.164zM165.174 69.367c0 1.561-.299 4.251-2.639 4.251-2.327 0-2.639-2.69-2.639-4.251 0-1.586.325-4.238 2.639-4.238 2.327 0 2.639 2.665 2.639 4.238zm-3.575-2.652c-.312.442-.52 1.534-.52 2.652 0 1.105.156 3.172 1.456 3.172 1.352 0 1.456-2.196 1.456-3.172 0-1.065-.13-3.159-1.456-3.159-.181 0-.597.053-.936.507zM171.557 72.539c0 .689-.624 1.105-1.222 1.105-.585 0-1.222-.403-1.222-1.105 0-.688.637-1.104 1.222-1.104.559 0 1.222.403 1.222 1.104zM180.396 65.312v1.118h-3.626v1.911c.169-.065.637-.234 1.261-.234 1.638 0 2.743 1.196 2.743 2.704 0 1.157-.74 2.808-2.898 2.808-.962 0-1.612-.26-2.691-.676l.403-1.053.117.052c.455.195 1.235.546 2.106.546 1.43 0 1.768-.962 1.768-1.638 0-.937-.637-1.664-1.638-1.664-.793 0-1.3.39-1.651.676l-.598-.338v-4.212h4.704zM187.045 71.253l-1.6 3.562h-1.404l1.131-3.562h1.873zM202.436 67.242c0 .521-.186.966-.556 1.336-.37.371-.815.556-1.336.556s-.966-.185-1.337-.556c-.37-.37-.555-.815-.555-1.336s.185-.966.555-1.336c.371-.37.816-.555 1.337-.555s.966.185 1.336.555c.37.37.556.815.556 1.336zm2.836.736l-5.604 3.923-.584-.895 5.604-3.923.584.895zm-3.928-.736c0-.22-.078-.409-.235-.565-.156-.157-.345-.235-.564-.235-.221 0-.409.078-.565.235-.156.156-.234.345-.234.565s.078.408.234.565c.156.156.345.235.565.235.22 0 .408-.079.564-.235.157-.157.235-.345.235-.565zm4.329 4.5c0 .521-.186.966-.556 1.336s-.815.556-1.336.556-.966-.186-1.336-.556c-.371-.37-.556-.815-.556-1.336s.185-.966.556-1.336c.37-.37.815-.555 1.336-.555s.966.185 1.336.555c.37.37.556.816.556 1.336zm-1.092 0c0-.22-.079-.408-.235-.565s-.345-.235-.564-.235c-.221 0-.408.078-.565.235-.156.157-.234.345-.234.565 0 .22.078.408.234.565.157.157.345.235.565.235.22 0 .408-.078.564-.235s.235-.345.235-.565zM219.94 65.61l-4.094 8.97-1.003-.451 4.095-8.976zM226.414 72.539c0 .689-.624 1.105-1.222 1.105-.585 0-1.222-.403-1.222-1.105 0-.688.637-1.104 1.222-1.104.559 0 1.222.403 1.222 1.104z"/><path fill="#002CC3" d="M236.198 67.547v1.066h-.962l.715 2.756h.026l1.015-2.756h.793l1.039 2.756h.026l.728-2.756h-.975v-1.066h2.639v1.066h-.545l-1.313 4.823h-1.027l-1.001-2.834h-.025l-.976 2.834h-.988l-1.325-4.823h-.599v-1.066h2.755z"/><path d="M246.113 70.003h6.164l-1.39-1.39.806-.806 2.743 2.755-2.743 2.773-.806-.806 1.39-1.39h-6.164zM262.83 65.129h.702v7.241h2.158v1.066h-5.474v-1.066h2.185v-5.837l-1.886.845-.455-1.014 2.77-1.235zM271.878 72.539c0 .689-.624 1.105-1.222 1.105-.586 0-1.223-.403-1.223-1.105 0-.688.637-1.104 1.223-1.104.559 0 1.222.403 1.222 1.104zM280.718 65.312v1.118h-3.627v1.911c.169-.065.637-.234 1.261-.234 1.639 0 2.743 1.196 2.743 2.704 0 1.157-.741 2.808-2.899 2.808-.961 0-1.611-.26-2.69-.676l.403-1.053.117.052c.454.195 1.234.546 2.105.546 1.43 0 1.768-.962 1.768-1.638 0-.937-.637-1.664-1.638-1.664-.793 0-1.3.39-1.651.676l-.598-.338v-4.212h4.706zM288.028 71.12c-.381 0-.665.056-.851.168-.187.112-.279.278-.279.499v2.12c0 1.291-.885 1.936-2.653 1.936v-1.079c1.016 0 1.523-.273 1.523-.819v-2.146c0-.478.207-.887.622-1.225-.208-.152-.363-.333-.467-.543s-.155-.435-.155-.676v-2.145c0-.292-.121-.501-.362-.628s-.628-.19-1.161-.19v-1.079c.896 0 1.563.16 1.999.479.436.32.654.805.654 1.457v2.12c0 .229.091.397.272.508.169.102.455.152.857.152v1.091z"/><path fill="none" d="M0 61h293v18h-293zM2 63h411v14h-411z"/><path d="M7.853 104.323c-.338-.009-.645-.056-.917-.143-.273-.086-.518-.217-.733-.39-.203-.161-.356-.354-.46-.581-.104-.227-.156-.479-.156-.758v-4.666c0-.428-.109-.769-.327-1.025-.218-.256-.573-.409-1.063-.46v-.489c.47-.051.819-.189 1.047-.416.229-.226.343-.583.343-1.069v-4.666c0-.279.05-.527.149-.743.1-.216.255-.415.467-.597.203-.173.442-.302.717-.384s.586-.132.933-.149v.444c-.305.017-.569.068-.793.152s-.398.175-.521.273c-.148.114-.263.254-.346.419-.082.165-.124.347-.124.546v4.691c0 .474-.107.855-.321 1.143-.213.288-.5.487-.86.597.334.11.615.299.841.568.226.269.339.661.339 1.178v4.691c0 .182.037.355.111.521.074.165.194.313.359.444.157.123.347.22.571.292.224.072.472.116.743.133v.444zM16.171 94.976c0 1.703-.351 4.121-2.47 4.121s-2.47-2.443-2.47-4.121c0-1.689.351-4.134 2.47-4.134s2.47 2.444 2.47 4.134zm-4.251-.013c0 1.378.234 3.549 1.768 3.549 1.56 0 1.794-2.184 1.794-3.549 0-1.378-.234-3.536-1.781-3.536-1.56 0-1.781 2.183-1.781 3.536zM22.244 97.186l-1.417 3.146h-.923l.988-3.146h1.352zM36.774 94.976c0 1.703-.351 4.121-2.47 4.121s-2.47-2.443-2.47-4.121c0-1.689.351-4.134 2.47-4.134s2.47 2.444 2.47 4.134zm-4.251-.013c0 1.378.234 3.549 1.768 3.549 1.56 0 1.794-2.184 1.794-3.549 0-1.378-.234-3.536-1.781-3.536-1.56 0-1.781 2.183-1.781 3.536zM43.105 98.252c0 .546-.52.884-1.001.884-.455 0-1.001-.312-1.001-.884 0-.546.52-.884 1.001-.884.494 0 1.001.351 1.001.884zM52.348 91.037v.61l-2.522 7.268h-.754l2.626-7.268h-3.822v1.196h-.637v-1.807h5.109zM59.784 91.037v.624h-3.757v2.626c.403-.169.884-.364 1.573-.364 1.573 0 2.562 1.145 2.562 2.548 0 1.04-.637 2.626-2.73 2.626-.923 0-1.56-.233-2.444-.585l.234-.585c.403.183 1.248.521 2.158.521 1.417 0 2.08-.858 2.08-1.95 0-1.053-.715-1.963-1.963-1.963-.663 0-1.196.221-1.729.624l-.325-.183v-3.938h4.341zM70.975 90.79c-.364.686-.748 1.533-1.152 2.542-.404 1.009-.606 1.916-.606 2.72 0 .931.173 1.84.521 2.726.347.887.734 1.734 1.162 2.542h-.42c-.495-.762-.923-1.598-1.282-2.507-.36-.91-.54-1.83-.54-2.761 0-.96.189-1.881.568-2.761.379-.88.822-1.714 1.33-2.501h.419zM75.877 93.325v.61h-.793l1.625 1.625 1.625-1.625h-.754v-.61h2.392v.61h-.793l-2.041 2.055 2.34 2.313h.819v.611h-2.639v-.611h.923l-1.872-1.897-1.885 1.897h.91v.611h-2.561v-.611h.806l2.288-2.313-2.067-2.054h-.832v-.61h2.509zM84.994 99.649v1.348h-3.601v-.489c.397-.342 1.819-1.597 2.566-2.354.443-.442.545-.775.545-1.199 0-.878-.803-1.229-1.274-1.229-.351 0-1.228.203-1.172.96h-.48v-.6c.684-.821 1.523-.821 1.671-.821.868 0 1.754.664 1.754 1.707 0 .397-.092.675-.314 1.025-.295.471-1.44 1.56-2.677 2.548v.019h2.548v-.914h.434zM96.041 90.79c-.364.686-.748 1.533-1.152 2.542-.404 1.009-.606 1.916-.606 2.72 0 .931.174 1.84.521 2.726.347.887.734 1.734 1.162 2.542h-.419c-.495-.762-.922-1.598-1.282-2.507-.359-.91-.54-1.83-.54-2.761 0-.96.189-1.881.568-2.761.378-.88.822-1.714 1.33-2.501h.418zM99.202 95.811h5.199v.476h-5.199zM109.445 93.325v.61h-.897l2.054 3.952 2.262-3.952h-.884v-.61h2.379v.61h-.754l-3.64 6.357h1.157v.611h-3.9v-.611h2.002l1.001-1.729-2.418-4.629h-.793v-.61h2.431zM119.027 98.2c0 1.209-.249 2.926-1.754 2.926s-1.754-1.735-1.754-2.926c0-1.2.249-2.936 1.754-2.936s1.754 1.736 1.754 2.936zm-3.019-.01c0 .979.166 2.521 1.255 2.521 1.108 0 1.274-1.551 1.274-2.521 0-.979-.166-2.511-1.265-2.511-1.107.001-1.264 1.551-1.264 2.511zM130.042 96.287h-2.367v2.368h-.483v-2.368h-2.348v-.476h2.348v-2.355h.483v2.355h2.367zM137.087 93.325v.61h-.897l2.054 3.952 2.262-3.952h-.884v-.61h2.379v.61h-.754l-3.64 6.357h1.157v.611h-3.9v-.611h2.002l1.001-1.729-2.418-4.629h-.793v-.61h2.431zM144.933 95.265h.295v5.299h1.579v.434h-3.646v-.434h1.606v-4.764l-1.477.683-.185-.406 1.828-.812zM152.367 96.052c0 .939-.184 1.868-.552 2.787-.368.918-.79 1.746-1.263 2.482h-.419c.453-.876.845-1.724 1.177-2.542.333-.819.499-1.728.499-2.726 0-.96-.188-1.881-.565-2.761-.377-.88-.772-1.714-1.187-2.501h.413c.512.778.956 1.612 1.333 2.501.376.888.564 1.808.564 2.76zM165.485 96.287h-2.367v2.368h-.483v-2.368h-2.348v-.476h2.348v-2.355h.483v2.355h2.367zM172.829 93.325v.61h-.793l1.625 1.625 1.625-1.625h-.754v-.61h2.392v.61h-.793l-2.041 2.055 2.34 2.313h.819v.611h-2.639v-.611h.923l-1.872-1.897-1.885 1.897h.91v.611h-2.561v-.611h.806l2.288-2.313-2.067-2.055h-.832v-.61h2.509zM180.376 95.265h.296v5.299h1.578v.434h-3.646v-.434h1.605v-4.764l-1.477.683-.185-.406 1.829-.812zM192.993 90.79c-.364.686-.748 1.533-1.152 2.542s-.606 1.916-.606 2.72c0 .931.174 1.84.521 2.726.347.887.734 1.734 1.162 2.542h-.419c-.495-.762-.923-1.598-1.282-2.507-.36-.91-.54-1.83-.54-2.761 0-.96.189-1.881.568-2.761.379-.88.822-1.714 1.33-2.501h.418zM197.596 93.325v.61h-.896l2.054 3.952 2.262-3.952h-.884v-.61h2.379v.61h-.754l-3.641 6.357h1.157v.611h-3.899v-.611h2.002l1-1.729-2.418-4.629h-.793v-.61h2.431zM207.178 98.2c0 1.209-.25 2.926-1.754 2.926-1.506 0-1.754-1.735-1.754-2.926 0-1.2.248-2.936 1.754-2.936 1.504.001 1.754 1.736 1.754 2.936zm-3.02-.01c0 .979.166 2.521 1.256 2.521 1.107 0 1.273-1.551 1.273-2.521 0-.979-.166-2.511-1.264-2.511-1.108.001-1.265 1.551-1.265 2.511zM212.994 95.811h5.199v.476h-5.199zM225.237 93.325v.61h-.897l2.055 3.952 2.262-3.952h-.884v-.61h2.379v.61h-.754l-3.64 6.357h1.156v.611h-3.9v-.611h2.002l1.002-1.729-2.418-4.629h-.793v-.61h2.43zM234.652 99.649v1.348h-3.6v-.489c.396-.342 1.818-1.597 2.566-2.354.443-.442.545-.775.545-1.199 0-.878-.804-1.229-1.274-1.229-.351 0-1.228.203-1.173.96h-.48v-.6c.684-.821 1.523-.821 1.672-.821.867 0 1.754.664 1.754 1.707 0 .397-.092.675-.314 1.025-.295.471-1.439 1.56-2.677 2.548v.019h2.548v-.914h.433zM240.518 96.052c0 .939-.185 1.868-.553 2.787-.368.918-.789 1.746-1.263 2.482h-.419c.453-.876.845-1.724 1.178-2.542.332-.819.498-1.728.498-2.726 0-.96-.188-1.881-.565-2.761-.376-.88-.771-1.714-1.187-2.501h.412c.513.778.957 1.612 1.333 2.501.377.888.566 1.808.566 2.76zM253.636 96.287h-2.368v2.368h-.483v-2.368h-2.348v-.476h2.348v-2.355h.483v2.355h2.368zM260.979 93.325v.61h-.793l1.625 1.625 1.625-1.625h-.754v-.61h2.393v.61h-.793l-2.041 2.055 2.34 2.313h.819v.611h-2.64v-.611h.924l-1.873-1.897-1.885 1.897h.91v.611h-2.561v-.611h.806l2.288-2.313-2.066-2.055h-.832v-.61h2.508zM270.262 98.2c0 1.209-.249 2.926-1.754 2.926s-1.754-1.735-1.754-2.926c0-1.2.249-2.936 1.754-2.936s1.754 1.736 1.754 2.936zm-3.019-.01c0 .979.166 2.521 1.255 2.521 1.108 0 1.274-1.551 1.274-2.521 0-.979-.166-2.511-1.265-2.511-1.107.001-1.264 1.551-1.264 2.511zM281.144 90.79c-.364.686-.748 1.533-1.152 2.542s-.606 1.916-.606 2.72c0 .931.174 1.84.521 2.726.347.887.734 1.734 1.162 2.542h-.419c-.495-.762-.923-1.598-1.282-2.507-.36-.91-.54-1.83-.54-2.761 0-.96.189-1.881.568-2.761.379-.88.822-1.714 1.33-2.501h.418zM284.305 95.811h5.198v.476h-5.198zM294.547 93.325v.61h-.896l2.055 3.952 2.262-3.952h-.885v-.61h2.379v.61h-.754l-3.64 6.357h1.157v.611h-3.9v-.611h2.002l1.001-1.729-2.418-4.629h-.793v-.61h2.43zM302.394 95.265h.296v5.299h1.578v.434h-3.646v-.434h1.605v-4.764l-1.477.683-.185-.406 1.829-.812zM315.145 96.287h-2.369v2.368h-.482v-2.368h-2.349v-.476h2.349v-2.355h.482v2.355h2.369zM322.189 93.325v.61h-.897l2.054 3.952 2.262-3.952h-.883v-.61h2.379v.61h-.754l-3.641 6.357h1.156v.611h-3.899v-.611h2.002l1.001-1.729-2.418-4.629h-.793v-.61h2.431zM331.604 99.649v1.348h-3.601v-.489c.396-.342 1.818-1.597 2.566-2.354.443-.442.545-.775.545-1.199 0-.878-.803-1.229-1.273-1.229-.352 0-1.229.203-1.173.96h-.48v-.6c.684-.821 1.523-.821 1.671-.821.868 0 1.754.664 1.754 1.707 0 .397-.092.675-.313 1.025-.296.471-1.44 1.56-2.677 2.548v.019h2.547v-.914h.434zM337.469 96.052c0 .939-.184 1.868-.552 2.787-.368.918-.79 1.746-1.264 2.482h-.419c.453-.876.846-1.724 1.178-2.542s.498-1.728.498-2.726c0-.96-.188-1.881-.564-2.761-.377-.88-.772-1.714-1.188-2.501h.413c.512.778.956 1.612 1.333 2.501.376.888.565 1.808.565 2.76zM345.271 96.052c0 .939-.185 1.868-.553 2.787-.368.918-.789 1.746-1.263 2.482h-.419c.452-.876.845-1.724 1.178-2.542.332-.819.498-1.728.498-2.726 0-.96-.188-1.881-.565-2.761-.376-.88-.772-1.714-1.187-2.501h.412c.513.778.957 1.612 1.333 2.501.377.888.566 1.808.566 2.76zM353.246 92.288v1.348h-3.601v-.489c.397-.342 1.819-1.597 2.566-2.354.443-.442.545-.775.545-1.199 0-.878-.804-1.229-1.274-1.229-.351 0-1.228.203-1.172.96h-.48v-.6c.684-.821 1.523-.821 1.671-.821.868 0 1.755.664 1.755 1.707 0 .397-.093.675-.314 1.025-.295.471-1.44 1.56-2.678 2.548v.019h2.549v-.914h.433zM359.568 97.186l-1.417 3.146h-.923l.988-3.146h1.352zM11.603 116.669h5.199v.476h-5.199zM23.029 111.7h.416v7.462h2.223v.611h-5.135v-.611h2.262v-6.708l-2.08.962-.26-.572 2.574-1.144zM30.829 111.7h.416v7.462h2.223v.611h-5.135v-.611h2.262v-6.708l-2.08.962-.26-.572 2.574-1.144zM39.604 119.11c0 .546-.52.884-1.001.884-.455 0-1.001-.312-1.001-.884 0-.546.52-.884 1.001-.884.493.001 1.001.351 1.001.884zM48.638 117.875v1.898h-5.07v-.689c.559-.48 2.561-2.249 3.614-3.314.624-.624.767-1.092.767-1.69 0-1.235-1.131-1.729-1.794-1.729-.494 0-1.729.285-1.651 1.352h-.676v-.845c.962-1.157 2.145-1.157 2.353-1.157 1.222 0 2.47.936 2.47 2.405 0 .559-.13.949-.442 1.442-.416.663-2.028 2.197-3.77 3.589v.025h3.588v-1.287h.611zM56.282 111.896v.624h-3.757v2.626c.403-.169.884-.364 1.573-.364 1.573 0 2.561 1.145 2.561 2.548 0 1.04-.637 2.626-2.73 2.626-.923 0-1.56-.233-2.444-.585l.234-.585c.403.183 1.248.521 2.158.521 1.417 0 2.08-.858 2.08-1.95 0-1.053-.715-1.963-1.963-1.963-.663 0-1.196.221-1.729.624l-.325-.183v-3.938h4.342zM67.475 111.648c-.364.686-.748 1.533-1.152 2.542-.404 1.009-.606 1.916-.606 2.72 0 .931.173 1.84.521 2.727.347.886.734 1.734 1.162 2.542h-.42c-.495-.762-.923-1.598-1.282-2.507-.36-.91-.54-1.83-.54-2.761 0-.96.189-1.881.568-2.761.379-.88.822-1.714 1.33-2.501h.419zM72.377 114.184v.61h-.793l1.625 1.625 1.625-1.625h-.754v-.61h2.392v.61h-.793l-2.041 2.055 2.34 2.313h.819v.611h-2.639v-.611h.923l-1.872-1.897-1.885 1.897h.91v.611h-2.561v-.611h.806l2.288-2.313-2.067-2.055h-.832v-.61h2.509zM81.494 120.508v1.348h-3.601v-.489c.397-.342 1.819-1.597 2.566-2.354.443-.442.545-.775.545-1.199 0-.878-.803-1.229-1.274-1.229-.351 0-1.228.203-1.172.96h-.48v-.6c.684-.821 1.523-.821 1.671-.821.868 0 1.754.664 1.754 1.707 0 .397-.092.675-.314 1.025-.295.471-1.44 1.56-2.677 2.548v.019h2.548v-.914h.434zM92.541 111.648c-.364.686-.748 1.533-1.152 2.542-.404 1.009-.606 1.916-.606 2.72 0 .931.174 1.84.521 2.727.347.886.734 1.734 1.162 2.542h-.419c-.495-.762-.922-1.598-1.282-2.507-.359-.91-.54-1.83-.54-2.761 0-.96.189-1.881.568-2.761.378-.88.822-1.714 1.33-2.501h.418zM95.702 116.669h5.199v.476h-5.199zM105.945 114.184v.61h-.897l2.054 3.952 2.262-3.952h-.884v-.61h2.379v.61h-.754l-3.64 6.357h1.157v.611h-3.9v-.611h2.002l1.001-1.729-2.418-4.629h-.793v-.61h2.431zM115.527 119.059c0 1.209-.249 2.926-1.754 2.926s-1.754-1.735-1.754-2.926c0-1.2.249-2.936 1.754-2.936s1.754 1.735 1.754 2.936zm-3.019-.01c0 .979.166 2.521 1.255 2.521 1.108 0 1.274-1.551 1.274-2.521 0-.979-.166-2.511-1.265-2.511-1.107 0-1.264 1.551-1.264 2.511zM126.542 117.146h-2.367v2.367h-.483v-2.367h-2.348v-.477h2.348v-2.355h.483v2.355h2.367zM133.587 114.184v.61h-.897l2.054 3.952 2.262-3.952h-.884v-.61h2.379v.61h-.754l-3.64 6.357h1.157v.611h-3.9v-.611h2.002l1.001-1.729-2.418-4.629h-.793v-.61h2.431zM141.433 116.123h.295v5.299h1.579v.434h-3.646v-.434h1.606v-4.764l-1.477.683-.185-.406 1.828-.812zM148.867 116.911c0 .939-.184 1.869-.552 2.787-.368.918-.79 1.746-1.263 2.482h-.419c.453-.876.845-1.723 1.177-2.542.333-.819.499-1.728.499-2.727 0-.96-.188-1.881-.565-2.761-.377-.88-.772-1.714-1.187-2.501h.413c.512.779.956 1.612 1.333 2.501.376.888.564 1.808.564 2.761zM161.985 117.146h-2.367v2.367h-.483v-2.367h-2.348v-.477h2.348v-2.355h.483v2.355h2.367zM169.329 114.184v.61h-.793l1.625 1.625 1.625-1.625h-.754v-.61h2.392v.61h-.793l-2.041 2.055 2.34 2.313h.819v.611h-2.639v-.611h.923l-1.872-1.897-1.885 1.897h.91v.611h-2.561v-.611h.806l2.288-2.313-2.067-2.055h-.832v-.61h2.509zM176.876 116.123h.295v5.299h1.579v.434h-3.646v-.434h1.606v-4.764l-1.477.683-.185-.406 1.828-.812zM189.493 111.648c-.364.686-.748 1.533-1.152 2.542s-.606 1.916-.606 2.72c0 .931.174 1.84.521 2.727.347.886.734 1.734 1.162 2.542h-.419c-.495-.762-.923-1.598-1.282-2.507-.36-.91-.54-1.83-.54-2.761 0-.96.189-1.881.568-2.761.379-.88.822-1.714 1.33-2.501h.418zM194.096 114.184v.61h-.896l2.054 3.952 2.262-3.952h-.884v-.61h2.379v.61h-.754l-3.641 6.357h1.157v.611h-3.899v-.611h2.002l1-1.729-2.418-4.629h-.793v-.61h2.431zM203.678 119.059c0 1.209-.25 2.926-1.754 2.926-1.506 0-1.754-1.735-1.754-2.926 0-1.2.248-2.936 1.754-2.936 1.504 0 1.754 1.735 1.754 2.936zm-3.02-.01c0 .979.166 2.521 1.256 2.521 1.107 0 1.273-1.551 1.273-2.521 0-.979-.166-2.511-1.264-2.511-1.108 0-1.265 1.551-1.265 2.511zM209.494 116.669h5.199v.476h-5.199zM221.737 114.184v.61h-.897l2.055 3.952 2.262-3.952h-.884v-.61h2.379v.61h-.754l-3.64 6.357h1.156v.611h-3.9v-.611h2.002l1.002-1.729-2.418-4.629h-.793v-.61h2.43zM231.152 120.508v1.348h-3.6v-.489c.396-.342 1.818-1.597 2.566-2.354.443-.442.545-.775.545-1.199 0-.878-.804-1.229-1.274-1.229-.351 0-1.228.203-1.173.96h-.48v-.6c.684-.821 1.523-.821 1.672-.821.867 0 1.754.664 1.754 1.707 0 .397-.092.675-.314 1.025-.295.471-1.439 1.56-2.677 2.548v.019h2.548v-.914h.433zM237.018 116.911c0 .939-.185 1.869-.553 2.787-.368.918-.789 1.746-1.263 2.482h-.419c.453-.876.845-1.723 1.178-2.542.332-.819.498-1.728.498-2.727 0-.96-.188-1.881-.565-2.761-.376-.88-.771-1.714-1.187-2.501h.412c.513.779.957 1.612 1.333 2.501.377.888.566 1.808.566 2.761zM250.136 117.146h-2.368v2.367h-.483v-2.367h-2.348v-.477h2.348v-2.355h.483v2.355h2.368zM257.479 114.184v.61h-.793l1.625 1.625 1.625-1.625h-.754v-.61h2.393v.61h-.793l-2.041 2.055 2.34 2.313h.819v.611h-2.64v-.611h.924l-1.873-1.897-1.885 1.897h.91v.611h-2.561v-.611h.806l2.288-2.313-2.066-2.055h-.832v-.61h2.508zM266.762 119.059c0 1.209-.249 2.926-1.754 2.926s-1.754-1.735-1.754-2.926c0-1.2.249-2.936 1.754-2.936s1.754 1.735 1.754 2.936zm-3.019-.01c0 .979.166 2.521 1.255 2.521 1.108 0 1.274-1.551 1.274-2.521 0-.979-.166-2.511-1.265-2.511-1.107 0-1.264 1.551-1.264 2.511zM277.644 111.648c-.364.686-.748 1.533-1.152 2.542s-.606 1.916-.606 2.72c0 .931.174 1.84.521 2.727.347.886.734 1.734 1.162 2.542h-.419c-.495-.762-.923-1.598-1.282-2.507-.36-.91-.54-1.83-.54-2.761 0-.96.189-1.881.568-2.761.379-.88.822-1.714 1.33-2.501h.418zM280.805 116.669h5.198v.476h-5.198zM291.047 114.184v.61h-.896l2.055 3.952 2.262-3.952h-.885v-.61h2.379v.61h-.754l-3.64 6.357h1.157v.611h-3.9v-.611h2.002l1.001-1.729-2.418-4.629h-.793v-.61h2.43zM298.894 116.123h.296v5.299h1.578v.434h-3.646v-.434h1.605v-4.764l-1.477.683-.185-.406 1.829-.812zM311.645 117.146h-2.369v2.367h-.482v-2.367h-2.349v-.477h2.349v-2.355h.482v2.355h2.369zM318.689 114.184v.61h-.897l2.054 3.952 2.262-3.952h-.883v-.61h2.379v.61h-.754l-3.641 6.357h1.156v.611h-3.899v-.611h2.002l1.001-1.729-2.418-4.629h-.793v-.61h2.431zM328.104 120.508v1.348h-3.601v-.489c.396-.342 1.818-1.597 2.566-2.354.443-.442.545-.775.545-1.199 0-.878-.803-1.229-1.273-1.229-.352 0-1.229.203-1.173.96h-.48v-.6c.684-.821 1.523-.821 1.671-.821.868 0 1.754.664 1.754 1.707 0 .397-.092.675-.313 1.025-.296.471-1.44 1.56-2.677 2.548v.019h2.547v-.914h.434zM333.969 116.911c0 .939-.184 1.869-.552 2.787-.368.918-.79 1.746-1.264 2.482h-.419c.453-.876.846-1.723 1.178-2.542s.498-1.728.498-2.727c0-.96-.188-1.881-.564-2.761-.377-.88-.772-1.714-1.188-2.501h.413c.512.779.956 1.612 1.333 2.501.376.888.565 1.808.565 2.761zM341.771 116.911c0 .939-.185 1.869-.553 2.787-.368.918-.789 1.746-1.263 2.482h-.419c.452-.876.845-1.723 1.178-2.542.332-.819.498-1.728.498-2.727 0-.96-.188-1.881-.565-2.761-.376-.88-.772-1.714-1.187-2.501h.412c.513.779.957 1.612 1.333 2.501.377.888.566 1.808.566 2.761zM349.746 113.147v1.348h-3.601v-.489c.397-.342 1.819-1.597 2.566-2.354.443-.442.545-.775.545-1.199 0-.878-.804-1.229-1.274-1.229-.351 0-1.228.203-1.172.96h-.48v-.6c.684-.821 1.523-.821 1.671-.821.868 0 1.755.664 1.755 1.707 0 .397-.093.675-.314 1.025-.295.471-1.44 1.56-2.678 2.548v.019h2.549v-.914h.433zM357.032 117.158c-.47.03-.818.178-1.047.444s-.343.614-.343 1.041v4.666c0 .258-.055.508-.162.749-.108.241-.26.438-.454.59-.207.165-.451.295-.733.391-.281.095-.587.143-.917.143v-.444c.305-.025.567-.078.787-.159s.392-.169.515-.267c.173-.14.297-.281.371-.425s.111-.324.111-.54v-4.691c0-.376.084-.72.254-1.031.169-.311.478-.549.927-.714-.402-.14-.699-.356-.893-.65-.192-.294-.288-.657-.288-1.089v-4.691c0-.199-.038-.375-.114-.53-.076-.155-.199-.299-.368-.435-.174-.14-.373-.241-.597-.305-.225-.063-.46-.104-.705-.121v-.444c.313 0 .62.052.921.156.3.104.539.229.717.377.199.165.354.36.464.584.109.225.165.476.165.755v4.666c0 .406.104.744.313 1.013.21.269.568.426 1.076.473v.488z"/><path fill="none" d="M0 84h365v45h-365zM2 86h411v41h-411z"/><path d="M6.16 150.881c.923 0 1.469.078 1.976.364.715.402 1.222 1.234 1.222 2.093 0 .767-.429 1.586-1.027 1.924-.702.403-1.17.429-2.691.429h-.455v1.703h1.846v1.066h-3.978v-1.066h1.001v-5.447h-1.001v-1.065h3.107zm-.975 1.065v2.679h.468c1.378 0 1.677-.104 1.989-.273.195-.104.52-.494.52-1.053 0-.533-.299-.962-.611-1.131-.26-.144-.52-.222-1.378-.222h-.988zM14.259 150.036v7.357h2.184v1.066h-5.499v-1.066h2.184v-6.188l-2.028.13-.104-1.079 3.263-.22zM21.5 152.298c2.184 0 3.367 1.534 3.367 3.172 0 1.561-1.105 3.172-3.367 3.172-2.197 0-3.367-1.547-3.367-3.172 0-1.716 1.261-3.172 3.367-3.172zm0 5.226c1.469 0 2.171-1.041 2.171-2.055s-.702-2.054-2.171-2.054c-1.43 0-2.171.987-2.171 2.054 0 1.053.741 2.055 2.171 2.055zM28.598 150.881v1.82h2.964v1.065h-2.964v2.185c0 .896-.013 1.573 1.014 1.573.767 0 1.378-.261 2.132-.572l.416-.169.429 1.026c-.676.312-1.82.832-2.873.832-.572 0-1.313-.182-1.703-.585-.533-.559-.546-1.326-.546-2.105v-2.185h-.858v-1.065h.858v-1.82h1.131zM39.407 163.869h-2.939v-16.536h2.939v1.092h-1.809v14.352h1.809zM42.308 155.026h5.199v1.136h-5.199zM55.099 155.21h1.248v1.104h-1.248v1.079h1.248v1.066h-4.069v-1.066h1.69v-1.079h-3.588v-1.04l3.146-5.122h1.573v5.058zm-1.131 0v-4.03h-.026l-2.418 4.03h2.444z"/><path fill="#3C7D91" d="M64.139 152.57v1.066h-.962l.715 2.756h.026l1.014-2.756h.793l1.04 2.756h.026l.728-2.756h-.975v-1.066h2.639v1.066h-.546l-1.313 4.823h-1.027l-1.001-2.834h-.026l-.975 2.834h-.988l-1.326-4.823h-.598v-1.066h2.756z"/><path d="M74.02 151.52v1.662h-3.84v-.757c.471-.397 1.772-1.551 2.53-2.308.388-.388.48-.665.48-1.025 0-.544-.388-.997-1.052-.997-.287 0-.97.12-.97.711l.019.194h-.831v-.804c.71-.867 1.523-.914 1.809-.914 1.034 0 1.865.822 1.865 1.838 0 .877-.461 1.348-1.717 2.492l-.896.812h1.828v-.905h.775zM85.471 163.818h-1.104c-.757-1.629-1.294-3.124-1.609-4.485-.315-1.36-.473-2.601-.473-3.723 0-1.214.161-2.47.482-3.768.322-1.297.855-2.779 1.6-4.446h1.104c-.681 1.608-1.181 3.06-1.498 4.354s-.476 2.577-.476 3.847c0 1.168.133 2.366.4 3.593s.791 2.77 1.574 4.628zM88.1 155.026h5.198v1.136h-5.198zM99.473 150.152h.702v7.241h2.158v1.066h-5.473v-1.066h2.184v-5.837l-1.885.845-.455-1.014 2.769-1.235zM112.9 156.163h-2.044v2.101h-1.129v-2.101h-2.025v-1.137h2.025v-2.088h1.129v2.088h2.044z"/><path fill="#3C7D91" d="M120.307 152.57v1.066h-.962l.715 2.756h.026l1.014-2.756h.793l1.04 2.756h.026l.728-2.756h-.975v-1.066h2.639v1.066h-.546l-1.313 4.823h-1.027l-1.001-2.834h-.026l-.975 2.834h-.988l-1.326-4.823h-.598v-1.066h2.756z"/><path d="M130.188 151.52v1.662h-3.84v-.757c.471-.397 1.772-1.551 2.53-2.308.388-.388.48-.665.48-1.025 0-.544-.388-.997-1.052-.997-.287 0-.97.12-.97.711l.019.194h-.831v-.804c.71-.867 1.523-.914 1.809-.914 1.034 0 1.865.822 1.865 1.838 0 .877-.461 1.348-1.717 2.492l-.896.812h1.828v-.905h.775zM136.253 155.61c0 1.32-.184 2.677-.552 4.069s-.878 2.771-1.53 4.139h-1.104c.665-1.612 1.16-3.058 1.485-4.335s.489-2.573.489-3.885c0-1.341-.157-2.638-.47-3.888s-.814-2.688-1.504-4.313h1.104c.732 1.608 1.262 3.09 1.59 4.446.328 1.356.492 2.612.492 3.767zM144.547 156.276l-1.599 3.562h-1.404l1.131-3.562h1.872zM161.684 160.866c-1.769 0-2.653-.646-2.653-1.936v-2.12c0-.444-.376-.667-1.13-.667v-1.092c.753 0 1.13-.22 1.13-.66v-2.12c0-1.291.884-1.936 2.653-1.936v1.079c-1.016 0-1.523.273-1.523.819v2.146c0 .503-.208.91-.622 1.219.415.338.622.747.622 1.225v2.146c0 .546.508.819 1.523.819v1.078z"/><path fill="#3C7D91" d="M166.674 152.57v1.066h-.962l.715 2.756h.026l1.014-2.756h.793l1.04 2.756h.026l.728-2.756h-.975v-1.066h2.639v1.066h-.546l-1.313 4.823h-1.027l-1.001-2.834h-.026l-.975 2.834h-.988l-1.326-4.823h-.598v-1.066h2.756z"/><path d="M177.074 156.276l-1.599 3.562h-1.404l1.131-3.562h1.872zM189.596 155.026h5.198v1.136h-5.198zM200.97 150.152h.702v7.241h2.158v1.066h-5.473v-1.066h2.184v-5.837l-1.885.845-.455-1.014 2.769-1.235zM210.018 157.562c0 .689-.624 1.105-1.222 1.105-.585 0-1.222-.403-1.222-1.105 0-.688.637-1.104 1.222-1.104.558 0 1.222.403 1.222 1.104zM216.569 150.152h.702v7.241h2.158v1.066h-5.473v-1.066h2.184v-5.837l-1.885.845-.455-1.014 2.769-1.235zM225.505 156.276l-1.599 3.562h-1.404l1.131-3.562h1.872zM240.6 150.152h.702v7.241h2.158v1.066h-5.474v-1.066h2.185v-5.837l-1.886.845-.455-1.014 2.77-1.235zM249.647 157.562c0 .689-.624 1.105-1.222 1.105-.586 0-1.223-.403-1.223-1.105 0-.688.637-1.104 1.223-1.104.559 0 1.222.403 1.222 1.104zM256.199 150.152h.702v7.241h2.158v1.066h-5.474v-1.066h2.185v-5.837l-1.886.845-.455-1.014 2.77-1.235zM265.798 156.144c-.381 0-.664.056-.851.168-.187.112-.279.278-.279.499v2.12c0 1.291-.885 1.936-2.653 1.936v-1.079c1.016 0 1.523-.273 1.523-.819v-2.146c0-.478.207-.887.622-1.225-.207-.152-.363-.333-.467-.543s-.155-.435-.155-.676v-2.146c0-.292-.121-.501-.362-.628s-.628-.19-1.161-.19v-1.079c.897 0 1.563.16 1.999.479.437.32.654.805.654 1.457v2.12c0 .229.091.398.272.508.17.102.455.152.857.152v1.092zM272.469 163.869h-2.939v-1.092h1.809v-14.352h-1.809v-1.092h2.939z"/><path fill="none" d="M0 144h278v23h-278zM2 146h411v19h-411z"/><path stroke="#5E81B5" stroke-width="1.6" stroke-linecap="square" stroke-miterlimit="3.25" fill="none" d="M10.18 386.649l.106-.834.106-.832.211-1.656.422-3.286.846-6.465 1.691-12.508 3.383-23.373.115-.754.114-.752.229-1.497.458-2.964.917-5.815 1.834-11.181 3.667-20.615.107-.567.107-.566.214-1.126.428-2.229.856-4.368 1.712-8.384.107-.508.107-.507.213-1.008.429-1.996.856-3.905 1.711-7.476.105-.444.105-.443.21-.879.42-1.74.839-3.402 1.678-6.5.105-.392.105-.392.21-.778.419-1.538.84-3.003 1.678-5.719.114-.374.113-.372.228-.739.455-1.459.911-2.836 1.82-5.353.114-.321.114-.319.228-.634.455-1.247.91-2.419 1.821-4.541.106-.252.106-.252.212-.499.425-.982.85-1.902 1.699-3.562.106-.212.106-.211.213-.418.424-.821.85-1.584 1.699-2.94.115-.189.115-.187.23-.37.461-.724.92-1.384.115-.167.116-.165.23-.329.46-.639.921-1.219.115-.146.115-.146.23-.287.46-.559.921-1.06 1.842-1.888.112-.106.114-.105.225-.207.452-.4.904-.747.114-.089.112-.088.226-.172.452-.331.904-.611.113-.072.113-.07.226-.139.452-.265.113-.063.113-.063.226-.122.452-.233.113-.056.113-.055.226-.106M65.16 188.439l.452-.201.113-.048.113-.047.226-.091.452-.171.105-.037.106-.037.211-.071.421-.133.105-.031.106-.03.21-.059.422-.107.106-.024.105-.024.211-.046.105-.021.105-.021.211-.04.106-.018.105-.018.211-.033.105-.016.106-.014.21-.028.106-.012.105-.012.106-.011.105-.01.106-.009.105-.009.105-.008.105-.007.106-.007.105-.006.106-.004.105-.005.105-.003.106-.003.105-.003.106-.001.105-.001h.106l.105.001.105.002.106.002.105.003.105.003.106.005.105.004.106.006.105.007.105.007.106.008.105.008.211.019.114.011.115.013.228.027.115.015.114.015.228.033.115.018.114.019.228.04.458.088.114.024.114.025.229.052.457.113.114.03.114.031.229.064.457.137.114.036.114.036.229.076.458.16.914.353.114.047.114.049.229.097.457.205.914.44.107.054.107.055.213.111.427.229.853.484 1.707 1.069.107.071.107.072.213.145.427.296.853.615 1.707 1.32.105.084.105.085.209.172M87.822 194.153l.418.348.837.715 1.673 1.508 3.347 3.295.114.117.113.118.227.238.454.479.908.976 1.816 2.017 3.631 4.269 6.777 8.614 7.346 9.919 7.212 9.909 6.725 9.062 7.295 9.31 6.808 7.943.116.127.115.127.231.252.461.502.922.99 1.844 1.926 3.689 3.618.114.106.113.106.226.21.453.417.905.818 1.811 1.573.113.096.114.095.226.19.453.374.905.733 1.811 1.4.105.079.106.079.211.156.422.308.845.603 1.689 1.144.106.068.105.069.212.136.422.268.845.52 1.689.978.115.063.114.063.229.124.458.245.915.469.115.057.114.056.229.112.458.219.916.418.115.051.114.05.229.098.458.193.916.367 1.832.655.106.035.107.035.214.068.427.131.855.247.107.029.107.029.214.057.427.108.855.2.107.024.107.023.214.045.427.085.107.021.107.02.214.039.427.073.107.018.107.017.214.033.428.062.107.015.106.014.214.027.427.051.106.011.104.011.21.021.105.01.104.01.21.018.105.009.104.008.21.015M180.326 285.917l.105.008.105.007.209.012.105.006.105.005.105.005.104.005.106.004.104.004.105.004.105.003.104.003.105.002.104.003.106.002.104.001.105.001.105.001.105.001h.104l.105-.001h.105l.105-.001.104-.002.106-.001.104-.002.105-.003.105-.003.105-.002.104-.004.105-.004.105-.004.105-.005.21-.01.104-.005.105-.006.21-.013.104-.007.105-.007.21-.016.104-.008.105-.009.209-.019.419-.041.115-.012.113-.013.227-.026.456-.059.113-.015.113-.016.228-.034.455-.071.113-.018.114-.02.227-.039.455-.085.909-.189.114-.026.114-.025.227-.053.454-.111.91-.242.114-.032.113-.032.228-.067.455-.137.909-.294.106-.036.106-.036.212-.074.424-.151.849-.321 1.697-.707.107-.047.105-.048.212-.096.425-.196.849-.409 1.697-.884.115-.063.114-.063.231-.128.46-.26.92-.54 1.839-1.154.115-.076.115-.076.23-.152.46-.31.919-.638 1.84-1.347.113-.086.113-.086.225-.173.452-.35.903-.718 1.806-1.5 3.612-3.251.105-.099M214.526 270.13l.105-.1.211-.2.421-.405.842-.821 1.684-1.692 3.369-3.572 7.307-8.514 6.821-8.702 6.687-8.994 7.255-9.968 6.769-9.17 7.339-9.389.106-.131.108-.13.214-.26.428-.517.857-1.023 1.713-1.997 3.426-3.779.105-.111.105-.11.209-.22.42-.436.84-.857 1.68-1.647.105-.1.105-.099.21-.198.42-.392.84-.764 1.679-1.454.115-.094.113-.095.227-.187.456-.367.911-.712.114-.086.114-.086.228-.17.455-.334.911-.643.114-.078.113-.077.228-.152.456-.298.911-.569 1.821-1.021.107-.055.106-.053.212-.107.426-.206.85-.384.106-.045.106-.045.212-.087.426-.169.85-.308.106-.035.107-.036.212-.068.425-.129.107-.031.105-.029.213-.059.425-.108.106-.026.107-.025.213-.047.105-.023.107-.022.213-.043.106-.02.105-.02.213-.037.107-.017.106-.017.212-.032.115-.016.116-.015.115-.014.115-.014.115-.013.116-.012.23-.021.115-.01.115-.008.116-.008.114-.007.115-.006.115-.005.116-.005.115-.004.115-.002.115-.002.116-.002h.115l.115.001.115.001.116.003M293.644 186.967l.114.003.115.004.115.005.116.006.115.007.115.007.115.009.115.009.116.01.115.011.115.012.115.013.116.014.115.015.114.015.231.034.115.019.115.019.231.041.46.093.116.026.114.027.23.056.461.123.116.034.115.034.23.072.46.154.114.04.113.041.225.085.454.183.112.047.113.049.227.101.452.213.113.055.112.057.227.116.452.245.904.537.114.072.113.073.226.149.452.31.905.67.112.089.114.09.226.182.452.379.905.809.105.099.106.1.21.203.422.417.844.883.106.115.105.115.211.235.422.482.844 1.013.105.131.106.132.21.268.422.548.844 1.148 1.688 2.505.114.18.114.181.229.367.458.749.914 1.563 1.83 3.391.114.223.114.226.229.455.458.926.915 1.923 1.829 4.13.107.253.107.254.214.512.426 1.041.854 2.146 1.709 4.556.106.297.107.298.214.601.426 1.217.855 2.505 1.708 5.289.104.337.105.338.21.68.419 1.377.837 2.826 1.675 5.937.104.384.105.385M330.061 246.372l.209.775.418 1.57.838 3.213 1.674 6.728.114.471.114.473.226.951.455 1.926.909 3.945 1.816 8.265 3.634 18.088.106.56.106.561.212 1.128.423 2.279.849 4.648 1.695 9.662 3.391 20.829.118.764.118.766.237 1.541.473 3.111.947 6.347 1.892 13.199.118.848.118.849.237 1.709.473 3.449.947 7.031.118.89.118.895.236 1.796.474 3.625.118.914.118.916.237 1.841.118.923.118.928.119.93.118.933"/><path stroke="#666" stroke-width=".2" stroke-miterlimit="3.25" fill="none" d="M9.5 285.5v-2M25.5 285.5v-4"/><path fill="none" d="M2 174h360v224h-360zM0 172h364v228h-364zM2 174h411v224h-411z"/><path fill="#666" d="M16.027 294.534h4.736v.82h-4.736z"/><g fill="#666"><path d="M25.04 297.547h-.879v-5.601c-.211.202-.489.403-.833.605s-.652.354-.925.454v-.85c.492-.231.921-.511 1.289-.84s.628-.647.781-.957h.566v7.189zM27.784 297.547v-1.001h1.001v1.001h-1.001zM30.069 294.017c0-.847.087-1.527.261-2.044.174-.516.433-.913.776-1.193s.775-.42 1.296-.42c.384 0 .721.077 1.011.232.29.154.529.377.718.668.189.292.337.646.444 1.064.107.419.161.982.161 1.692 0 .84-.086 1.518-.259 2.034-.172.516-.431.914-.774 1.195-.343.282-.777.423-1.301.423-.69 0-1.232-.247-1.626-.742-.471-.595-.707-1.565-.707-2.909zm.904 0c0 1.175.138 1.957.413 2.347.275.389.614.583 1.018.583s.743-.195 1.018-.586.413-1.172.413-2.344c0-1.179-.138-1.961-.413-2.349s-.618-.581-1.028-.581c-.404 0-.726.171-.967.513-.303.436-.454 1.242-.454 2.417z"/></g><path fill="none" d="M13 286h25v16h-25zM14 287h23v14h-23zM2 174h360v224h-360zM0 172h364v228h-364zM2 174h411v224h-411z"/><path stroke="#666" stroke-width=".2" stroke-miterlimit="3.25" fill="none" d="M41.5 285.5v-2M56.5 285.5v-2M72.5 285.5v-2M88.5 285.5v-2M103.5 285.5v-4"/><path fill="none" d="M2 174h360v224h-360zM0 172h364v228h-364zM2 174h411v224h-411z"/><path fill="#666" d="M94.354 294.534h4.736v.82h-4.736z"/><g fill="#666"><path d="M100.057 294.017c0-.847.087-1.527.261-2.044.174-.516.433-.913.776-1.193s.775-.42 1.296-.42c.384 0 .721.077 1.011.232.29.154.529.377.718.668.189.292.337.646.444 1.064.107.419.161.982.161 1.692 0 .84-.086 1.518-.259 2.034-.172.516-.431.914-.774 1.195-.343.282-.777.423-1.301.423-.69 0-1.232-.247-1.626-.742-.471-.595-.707-1.565-.707-2.909zm.903 0c0 1.175.138 1.957.413 2.347.275.389.614.583 1.018.583s.743-.195 1.018-.586.413-1.172.413-2.344c0-1.179-.138-1.961-.413-2.349s-.618-.581-1.028-.581c-.404 0-.726.171-.967.513-.302.436-.454 1.242-.454 2.417zM106.112 297.547v-1.001h1.001v1.001h-1.001zM108.397 295.672l.923-.078c.068.449.227.787.476 1.014.249.226.549.339.901.339.423 0 .781-.159 1.074-.479s.439-.742.439-1.27c0-.501-.141-.896-.422-1.187s-.65-.435-1.106-.435c-.283 0-.539.064-.767.192-.228.129-.407.296-.537.501l-.825-.107.693-3.677h3.56v.84h-2.856l-.386 1.924c.43-.3.88-.449 1.353-.449.625 0 1.152.217 1.582.649s.645.989.645 1.67c0 .647-.189 1.208-.566 1.68-.459.579-1.085.869-1.88.869-.651 0-1.183-.183-1.594-.547s-.648-.847-.707-1.449z"/></g><path fill="none" d="M91 286h25v16h-25zM92 287h23v14h-23zM2 174h360v224h-360zM0 172h364v228h-364zM2 174h411v224h-411z"/><path stroke="#666" stroke-width=".2" stroke-miterlimit="3.25" fill="none" d="M119.5 285.5v-2M135.5 285.5v-2M150.5 285.5v-2M166.5 285.5v-2M182.5 285.5v-4M197.5 285.5v-2M213.5 285.5v-2M228.5 285.5v-2M244.5 285.5v-2M260.5 285.5v-4"/><path fill="none" d="M2 174h360v224h-360zM0 172h364v228h-364zM2 174h411v224h-411z"/><g fill="#666"><path d="M253.791 294.017c0-.847.088-1.527.262-2.044.174-.516.434-.913.776-1.193s.775-.42 1.296-.42c.385 0 .722.077 1.012.232.289.154.528.377.717.668.189.292.338.646.445 1.064.107.419.16.982.16 1.692 0 .84-.086 1.518-.258 2.034-.173.516-.432.914-.774 1.195-.343.282-.777.423-1.302.423-.689 0-1.231-.247-1.625-.742-.473-.595-.709-1.565-.709-2.909zm.904 0c0 1.175.137 1.957.412 2.347.275.389.614.583 1.018.583s.744-.195 1.019-.586.413-1.172.413-2.344c0-1.179-.139-1.961-.413-2.349s-.618-.581-1.028-.581c-.403 0-.726.171-.967.513-.303.436-.454 1.242-.454 2.417zM259.846 297.547v-1.001h1.002v1.001h-1.002zM262.131 295.672l.924-.078c.068.449.227.787.476 1.014.249.226.55.339.901.339.423 0 .781-.159 1.074-.479s.439-.742.439-1.27c0-.501-.141-.896-.423-1.187s-.65-.435-1.106-.435c-.283 0-.538.064-.766.192-.229.129-.407.296-.537.501l-.826-.107.693-3.677h3.561v.84h-2.857l-.385 1.924c.43-.3.88-.449 1.352-.449.625 0 1.152.217 1.582.649s.645.989.645 1.67c0 .647-.188 1.208-.566 1.68-.459.579-1.085.869-1.879.869-.651 0-1.184-.183-1.595-.547s-.649-.847-.707-1.449z"/></g><path fill="none" d="M251 286h19v16h-19zM252 287h17v14h-17zM2 174h360v224h-360zM0 172h364v228h-364zM2 174h411v224h-411z"/><path stroke="#666" stroke-width=".2" stroke-miterlimit="3.25" fill="none" d="M275.5 285.5v-2M291.5 285.5v-2M307.5 285.5v-2M322.5 285.5v-2M338.5 285.5v-4"/><path fill="none" d="M2 174h360v224h-360zM0 172h364v228h-364zM2 174h411v224h-411z"/><g fill="#666"><path d="M335.43 297.547h-.879v-5.601c-.211.202-.489.403-.832.605-.344.202-.652.354-.926.454v-.85c.492-.231.922-.511 1.289-.84s.629-.647.781-.957h.566v7.189zM338.174 297.547v-1.001h1.001v1.001h-1.001zM340.459 294.017c0-.847.087-1.527.262-2.044.174-.516.433-.913.775-1.193.344-.28.775-.42 1.297-.42.385 0 .721.077 1.011.232.29.154.528.377.718.668.189.292.337.646.444 1.064.107.419.161.982.161 1.692 0 .84-.086 1.518-.259 2.034-.173.516-.431.914-.774 1.195-.343.282-.777.423-1.301.423-.689 0-1.232-.247-1.626-.742-.472-.595-.708-1.565-.708-2.909zm.903 0c0 1.175.138 1.957.413 2.347.274.389.613.583 1.018.583s.743-.195 1.018-.586c.275-.391.413-1.172.413-2.344 0-1.179-.138-1.961-.413-2.349-.274-.388-.617-.581-1.027-.581-.404 0-.727.171-.967.513-.303.436-.455 1.242-.455 2.417z"/></g><path fill="none" d="M329 286h19v16h-19zM330 287h17v14h-17zM2 174h360v224h-360zM0 172h364v228h-364zM2 174h411v224h-411z"/><path stroke="#666" stroke-width=".2" stroke-miterlimit="3.25" fill="none" d="M354.5 285.5v-2M2.5 285.5h359M182.5 394.5h2M182.5 384.5h4"/><path fill="none" d="M2 174h360v224h-360zM0 172h364v228h-364zM2 174h411v224h-411z"/><path fill="#666" d="M159.811 384.979h4.736v.82h-4.736z"/><g fill="#666"><path d="M168.824 387.992h-.879v-5.601c-.211.202-.489.403-.833.605s-.652.354-.925.454v-.85c.492-.231.921-.511 1.289-.84s.628-.647.781-.957h.566v7.189zM171.568 387.992v-1.001h1.001v1.001h-1.001zM173.854 384.462c0-.847.087-1.527.261-2.044.174-.516.433-.913.776-1.193s.775-.42 1.296-.42c.384 0 .721.077 1.011.232.29.154.529.377.718.668.189.292.337.646.444 1.064.107.419.161.982.161 1.692 0 .84-.086 1.518-.259 2.034-.172.516-.431.914-.774 1.195-.343.282-.777.423-1.301.423-.69 0-1.232-.247-1.626-.742-.472-.595-.707-1.564-.707-2.909zm.903 0c0 1.175.138 1.957.413 2.347.275.389.614.583 1.018.583s.743-.195 1.018-.586.413-1.172.413-2.344c0-1.179-.138-1.961-.413-2.349s-.618-.581-1.028-.581c-.404 0-.726.171-.967.513-.303.436-.454 1.242-.454 2.417z"/></g><path fill="none" d="M157 376h24v17h-24zM158 377h22v15h-22zM2 174h360v224h-360zM0 172h364v228h-364zM2 174h411v224h-411z"/><path stroke="#666" stroke-width=".2" stroke-miterlimit="3.25" fill="none" d="M182.5 374.5h2M182.5 364.5h2M182.5 354.5h2M182.5 344.5h2M182.5 335.5h4"/><path fill="none" d="M2 174h360v224h-360zM0 172h364v228h-364zM2 174h411v224h-411z"/><path fill="#666" d="M159.811 335.463h4.736v.82h-4.736z"/><g fill="#666"><path d="M165.514 334.946c0-.847.087-1.527.261-2.044.174-.516.433-.913.776-1.193s.775-.42 1.296-.42c.384 0 .721.077 1.011.232.29.154.529.377.718.668.189.292.337.646.444 1.064.107.419.161.982.161 1.692 0 .84-.086 1.518-.259 2.034-.172.516-.431.914-.774 1.195-.343.282-.777.423-1.301.423-.69 0-1.232-.247-1.626-.742-.471-.594-.707-1.564-.707-2.909zm.903 0c0 1.175.138 1.957.413 2.347.275.389.614.583 1.018.583s.743-.195 1.018-.586.413-1.172.413-2.344c0-1.179-.138-1.961-.413-2.349s-.618-.581-1.028-.581c-.404 0-.726.171-.967.513-.303.437-.454 1.242-.454 2.417zM171.568 338.477v-1.001h1.001v1.001h-1.001zM173.854 336.602l.923-.078c.068.449.227.787.476 1.014.249.226.549.339.901.339.423 0 .781-.159 1.074-.479s.439-.742.439-1.27c0-.501-.141-.896-.422-1.187s-.65-.435-1.106-.435c-.283 0-.539.064-.767.192-.228.129-.407.296-.537.501l-.825-.107.693-3.677h3.56v.84h-2.856l-.386 1.924c.43-.3.88-.449 1.353-.449.625 0 1.152.217 1.582.649s.645.989.645 1.67c0 .647-.189 1.208-.566 1.68-.459.579-1.085.869-1.88.869-.651 0-1.183-.183-1.594-.547s-.649-.847-.707-1.449z"/></g><path fill="none" d="M157 327h24v16h-24zM158 328h22v14h-22zM2 174h360v224h-360zM0 172h364v228h-364zM2 174h411v224h-411z"/><path stroke="#666" stroke-width=".2" stroke-miterlimit="3.25" fill="none" d="M182.5 325.5h2M182.5 315.5h2M182.5 305.5h2M182.5 295.5h2M182.5 285.5h4M182.5 275.5h2M182.5 265.5h2M182.5 255.5h2M182.5 245.5h2M182.5 235.5h4"/><path fill="none" d="M2 174h360v224h-360zM0 172h364v228h-364zM2 174h411v224h-411z"/><g fill="#666"><path d="M165.514 235.915c0-.847.087-1.527.261-2.044.174-.516.433-.913.776-1.193s.775-.42 1.296-.42c.384 0 .721.077 1.011.232.29.154.529.377.718.668.189.292.337.646.444 1.064.107.419.161.982.161 1.692 0 .84-.086 1.518-.259 2.034-.172.516-.431.914-.774 1.195-.343.282-.777.423-1.301.423-.69 0-1.232-.247-1.626-.742-.471-.595-.707-1.564-.707-2.909zm.903 0c0 1.175.138 1.957.413 2.347.275.389.614.583 1.018.583s.743-.195 1.018-.586.413-1.172.413-2.344c0-1.179-.138-1.961-.413-2.349s-.618-.581-1.028-.581c-.404 0-.726.171-.967.513-.303.437-.454 1.242-.454 2.417zM171.568 239.445v-1.001h1.001v1.001h-1.001zM173.854 237.57l.923-.078c.068.449.227.787.476 1.014.249.226.549.339.901.339.423 0 .781-.159 1.074-.479s.439-.742.439-1.27c0-.501-.141-.896-.422-1.187s-.65-.435-1.106-.435c-.283 0-.539.064-.767.192-.228.129-.407.296-.537.501l-.825-.107.693-3.677h3.56v.84h-2.856l-.386 1.924c.43-.3.88-.449 1.353-.449.625 0 1.152.217 1.582.649s.645.989.645 1.67c0 .647-.189 1.208-.566 1.68-.459.579-1.085.869-1.88.869-.651 0-1.183-.183-1.594-.547s-.649-.846-.707-1.449z"/></g><path fill="none" d="M163 228h18v16h-18zM164 229h16v14h-16zM2 174h360v224h-360zM0 172h364v228h-364zM2 174h411v224h-411z"/><path stroke="#666" stroke-width=".2" stroke-miterlimit="3.25" fill="none" d="M182.5 226.5h2M182.5 216.5h2M182.5 206.5h2M182.5 196.5h2M182.5 186.5h4"/><path fill="none" d="M2 174h360v224h-360zM0 172h364v228h-364zM2 174h411v224h-411z"/><g fill="#666"><path d="M168.824 189.929h-.879v-5.601c-.211.202-.489.403-.833.605s-.652.354-.925.454v-.85c.492-.231.921-.511 1.289-.84s.628-.647.781-.957h.566v7.189zM171.568 189.929v-1.001h1.001v1.001h-1.001zM173.854 186.398c0-.847.087-1.527.261-2.044.174-.516.433-.913.776-1.193s.775-.42 1.296-.42c.384 0 .721.077 1.011.232.29.154.529.377.718.668.189.292.337.646.444 1.064.107.419.161.982.161 1.692 0 .84-.086 1.518-.259 2.034-.172.516-.431.914-.774 1.195-.343.282-.777.423-1.301.423-.69 0-1.232-.247-1.626-.742-.472-.594-.707-1.564-.707-2.909zm.903 0c0 1.175.138 1.957.413 2.347.275.389.614.583 1.018.583s.743-.195 1.018-.586.413-1.172.413-2.344c0-1.179-.138-1.961-.413-2.349s-.618-.581-1.028-.581c-.404 0-.726.171-.967.513-.303.437-.454 1.243-.454 2.417z"/></g><path fill="none" d="M163 178h18v17h-18zM164 179h16v15h-16zM2 174h360v224h-360zM0 172h364v228h-364zM2 174h411v224h-411z"/><path stroke="#666" stroke-width=".2" stroke-miterlimit="3.25" fill="none" d="M182.5 176.5h2M182.5 397.5v-222"/><path fill="none" d="M2 174h360v224h-360zM0 172h364v228h-364zM2 174h411v224h-411z"/></svg>