<svg xmlns="http://www.w3.org/2000/svg" width="450" height="477" viewBox="0 0 450 477"><g fill="#454F99"><path d="M11.609 6.555h.883v6.455h-.883v-6.455zM13.807 8.303h.751v.668c.223-.274.458-.473.708-.593s.526-.181.831-.181c.668 0 1.119.233 1.354.699.129.255.193.619.193 1.094v3.02h-.804v-2.967c0-.286-.042-.518-.127-.693-.141-.293-.396-.439-.765-.439-.188 0-.341.019-.461.057-.217.064-.407.193-.571.387-.132.155-.218.315-.257.481-.04.165-.06.401-.06.71v2.465h-.791v-4.708zM18.794 6.51h1.688v.646h-.94v6.979h.94v.646h-1.688v-8.271zM25.439 6.822v.689c-.202.197-.471.538-.806 1.024-.336.486-.632 1.011-.89 1.573-.255.548-.448 1.048-.58 1.498-.085.291-.195.758-.33 1.402h-.875c.199-1.201.639-2.396 1.318-3.586.401-.697.823-1.299 1.266-1.807h-3.48v-.793h4.377zM30.444 6.822v.689c-.202.197-.471.538-.806 1.024-.336.486-.632 1.011-.89 1.573-.255.548-.448 1.048-.58 1.498-.085.291-.195.758-.33 1.402h-.875c.199-1.201.639-2.396 1.318-3.586.401-.697.823-1.299 1.266-1.807h-3.48v-.793h4.377zM30.95 14.135h.936v-6.979h-.936v-.646h1.688v8.271h-1.688v-.646zM34.241 8.365h.918v.957h-.918v-.957zm0 3.687h.918v.958h-.918v-.958zM40.732 9.397v.738h-4.583v-.738h4.583zm0 1.886v.751h-4.583v-.751h4.583z"/></g><path d="M52.16 4.972c.923 0 1.469.078 1.976.364.715.402 1.222 1.234 1.222 2.093 0 .767-.429 1.586-1.027 1.924-.702.403-1.17.429-2.691.429h-.455v1.703h1.846v1.066h-3.978v-1.066h1.001v-5.448h-1.001v-1.065h3.107zm-.975 1.065v2.679h.468c1.378 0 1.677-.104 1.989-.273.195-.104.52-.494.52-1.053 0-.533-.299-.962-.611-1.131-.26-.144-.52-.222-1.378-.222h-.988zM61.975 11.484h1.118v1.066h-2.25v-.624c-.429.312-1.105.806-2.145.806-1.378 0-2.275-1.014-2.275-2.027 0-.793.65-2.146 2.938-2.146.585 0 1.014.052 1.482.104 0-.455.013-1.157-1.274-1.157-.91 0-1.794.39-2.275.598l-.442-1.04c.793-.325 1.677-.676 2.73-.676 1.664 0 2.392.832 2.392 2.171v2.925zm-1.131-1.715c-.455-.064-.845-.143-1.352-.143-1.833 0-1.898.936-1.898 1.092 0 .481.533.897 1.092.897.26 0 1.157-.053 2.158-1.171v-.675zM67.097 6.661v.963c.546-.521 1.235-1.145 2.353-1.145.988 0 1.482.507 1.768.793l-1.157.884c-.143-.247-.39-.559-.832-.559-.845 0-2.028 1.352-2.132 1.456v2.431h2.405v1.066h-5.096v-1.066h1.56v-3.756h-1.443v-1.067h2.574zM77.575 11.484h1.118v1.066h-2.25v-.624c-.429.312-1.105.806-2.145.806-1.378 0-2.275-1.014-2.275-2.027 0-.793.65-2.146 2.938-2.146.585 0 1.014.052 1.482.104 0-.455.013-1.157-1.274-1.157-.91 0-1.794.39-2.275.598l-.442-1.04c.793-.325 1.677-.676 2.73-.676 1.664 0 2.392.832 2.392 2.171v2.925zm-1.132-1.715c-.455-.064-.845-.143-1.352-.143-1.833 0-1.898.936-1.898 1.092 0 .481.533.897 1.092.897.26 0 1.157-.053 2.158-1.171v-.675zM81.059 6.661v.43c.221-.195.637-.611 1.248-.611.663 0 .962.468 1.066.611.299-.247.715-.611 1.378-.611 1.638 0 1.651 1.729 1.651 2.405v2.6h.598v1.066h-1.729v-3.666c0-.754 0-1.287-.572-1.287-.442 0-.715.377-.962.676v3.211h.767v1.066h-1.898v-3.718c0-.481 0-1.235-.572-1.235-.364 0-.663.273-.962.559v3.328h.897v1.066h-2.769v-1.066h.741v-3.757h-.741v-1.067h1.859zM94.488 11.68c-1.17.676-2.353 1.053-3.367 1.053-2.184 0-3.328-1.456-3.328-3.094 0-1.677 1.235-3.159 3.237-3.159 2.054 0 3.094 1.482 3.094 2.756 0 .3-.026.677-.039.793h-5.096c.117.469.416 1.587 2.106 1.587 1.079 0 2.171-.521 2.873-.937l.52 1.001zm-1.56-2.717c-.351-1.339-1.521-1.365-1.885-1.365-1.443 0-1.846 1.014-1.976 1.365h3.861zM97.998 4.972v1.82h2.964v1.065h-2.964v2.185c0 .896-.013 1.573 1.014 1.573.767 0 1.378-.261 2.132-.572l.416-.169.429 1.026c-.676.312-1.82.832-2.874.832-.572 0-1.313-.182-1.703-.585-.533-.559-.546-1.326-.546-2.105v-2.185h-.858v-1.065h.858v-1.82h1.132zM106.096 6.661v.963c.546-.521 1.235-1.145 2.353-1.145.988 0 1.482.507 1.768.793l-1.157.884c-.143-.247-.39-.559-.832-.559-.845 0-2.028 1.352-2.132 1.456v2.431h2.405v1.066h-5.096v-1.066h1.56v-3.756h-1.443v-1.067h2.574zM114.884 6.661v4.823h2.171v1.066h-5.512v-1.066h2.21v-3.756h-1.859v-1.067h2.99zm-1.378-2.847h1.378v1.716h-1.378v-1.716zM125.115 6.584c-.039.351-.078.832-.078 1.3 0 .507.039.845.078 1.144l-1.092.144c-.117-.807-.221-1.573-1.703-1.573-1.846 0-2.158 1.443-2.158 2.002 0 .884.559 2.016 2.067 2.016 1.001 0 1.963-.65 2.717-1.184l.624.884c-.611.469-1.859 1.417-3.393 1.417-1.885 0-3.211-1.364-3.211-3.12 0-1.521 1.118-3.133 3.172-3.133.65 0 1.183.156 1.846.715l.117-.715 1.014.103zM130.159 4.972c.923 0 1.469.078 1.976.364.715.402 1.222 1.234 1.222 2.093 0 .767-.429 1.586-1.027 1.924-.702.403-1.17.429-2.691.429h-.455v1.703h1.846v1.066h-3.978v-1.066h1.001v-5.448h-1.001v-1.065h3.107zm-.975 1.065v2.679h.468c1.378 0 1.677-.104 1.989-.273.195-.104.52-.494.52-1.053 0-.533-.299-.962-.611-1.131-.26-.144-.52-.222-1.378-.222h-.988zM138.258 4.127v7.357h2.184v1.066h-5.499v-1.066h2.184v-6.187l-2.028.13-.104-1.079 3.263-.221zM145.499 6.389c2.184 0 3.367 1.534 3.367 3.172 0 1.561-1.105 3.172-3.367 3.172-2.197 0-3.367-1.547-3.367-3.172 0-1.716 1.261-3.172 3.367-3.172zm0 5.226c1.469 0 2.171-1.041 2.171-2.055s-.702-2.054-2.171-2.054c-1.43 0-2.171.987-2.171 2.054 0 1.053.741 2.055 2.171 2.055zM152.597 4.972v1.82h2.964v1.065h-2.964v2.185c0 .896-.013 1.573 1.014 1.573.767 0 1.378-.261 2.132-.572l.416-.169.429 1.026c-.676.312-1.82.832-2.873.832-.572 0-1.313-.182-1.703-.585-.533-.559-.546-1.326-.546-2.105v-2.185h-.858v-1.065h.858v-1.82h1.131zM163.286 14.995h-2.806v-10.531h2.806v1.092h-1.676v8.347h1.676zM170.935 14.957c-1.769 0-2.653-.646-2.653-1.936v-2.121c0-.444-.377-.667-1.13-.667v-1.091c.753 0 1.13-.22 1.13-.66v-2.12c0-1.291.884-1.936 2.653-1.936v1.079c-1.016 0-1.523.273-1.523.819v2.146c0 .503-.208.91-.622 1.219.415.338.622.747.622 1.225v2.146c0 .546.508.819 1.523.819v1.078zM77.038 21.222c1.053 0 1.56.221 1.95.559.416.364.689.884.689 1.521 0 .221 0 .949-.702 1.481.325.17 1.157.599 1.157 1.795 0 2.223-2.236 2.223-3.211 2.223h-3.575v-1.066h1.053v-5.447h-1.053v-1.065h3.692zm-1.508 1.065v2.041h1.417c.52 0 1.573-.013 1.573-1.092 0-.949-1.196-.949-1.508-.949h-1.482zm0 3.108v2.34h1.365c1.209 0 2.067-.091 2.067-1.092 0-1.222-1.495-1.248-2.119-1.248h-1.313zM88.192 27.93c-1.17.676-2.353 1.053-3.367 1.053-2.184 0-3.328-1.456-3.328-3.094 0-1.677 1.235-3.159 3.237-3.159 2.054 0 3.094 1.482 3.094 2.756 0 .3-.026.677-.039.793h-5.096c.117.469.416 1.587 2.106 1.587 1.079 0 2.171-.521 2.873-.937l.52 1.001zm-1.56-2.717c-.351-1.339-1.521-1.365-1.885-1.365-1.443 0-1.846 1.014-1.976 1.365h3.861zM95.121 22.911v.871l-3.731 3.952h2.6v-1.195h1.131v2.262h-5.434v-.936l3.692-3.888h-2.431v1.131h-1.131v-2.197h5.304zM102.622 26.461v2.34h-5.408v-1.066c.663-.559 2.496-2.184 3.562-3.25.546-.546.676-.936.676-1.442 0-.768-.546-1.404-1.482-1.404-.403 0-1.365.169-1.365 1.001l.026.272h-1.17v-1.132c1.001-1.222 2.145-1.287 2.548-1.287 1.456 0 2.626 1.157 2.626 2.587 0 1.235-.65 1.898-2.418 3.511l-1.261 1.144h2.574v-1.273h1.092zM110.177 31.245h-2.805v-10.531h2.805v1.092h-1.676v8.347h1.676zM118.449 24.731c0 1.561-.299 4.251-2.639 4.251-2.327 0-2.639-2.69-2.639-4.251 0-1.586.325-4.238 2.639-4.238 2.327 0 2.639 2.665 2.639 4.238zm-3.575-2.652c-.312.442-.52 1.534-.52 2.652 0 1.105.156 3.172 1.456 3.172 1.352 0 1.456-2.196 1.456-3.172 0-1.065-.13-3.159-1.456-3.159-.182 0-.598.053-.936.507zM124.717 26.617l-1.599 3.562h-1.404l1.131-3.562h1.872zM136.795 28.242l.442-1.04c.572.285 1.404.676 2.21.676.754 0 1.586-.455 1.586-1.47 0-.87-.611-1.378-1.586-1.378-.052 0-.286 0-.676.026v-1.079c.65-.013 1.872-.026 1.872-1.248 0-.806-.702-1.104-1.248-1.104-.585 0-.936.207-1.898.806l-.572-.937c.819-.546 1.534-1.001 2.483-1.001 1.196 0 2.392.832 2.392 2.185 0 .962-.468 1.417-.741 1.689.728.416 1.131 1.209 1.131 2.028 0 1.586-1.261 2.587-2.782 2.587-.819 0-1.43-.26-2.093-.532l-.52-.208zM152.448 25.875l-1.822.495 1.168 1.466-1.104.819-1.054-1.568-1.047 1.568-1.111-.819 1.174-1.466-1.821-.495.431-1.314 1.765.653-.076-1.898h1.377l-.076 1.898 1.765-.653z"/><path fill="#002CC3" d="M158.645 22.911v1.066h-.962l.715 2.756h.026l1.014-2.756h.793l1.04 2.756h.026l.728-2.756h-.975v-1.066h2.639v1.066h-.546l-1.313 4.823h-1.027l-1.001-2.834h-.026l-.975 2.834h-.988l-1.326-4.823h-.598v-1.066h2.756z"/><path d="M169.045 26.617l-1.599 3.562h-1.404l1.131-3.562h1.872zM184.14 20.493h.702v7.241h2.158v1.066h-5.473v-1.066h2.184v-5.837l-1.885.845-.455-1.014 2.769-1.235zM194.604 24.731c0 1.561-.299 4.251-2.639 4.251-2.327 0-2.639-2.69-2.639-4.251 0-1.586.325-4.238 2.639-4.238 2.327 0 2.639 2.665 2.639 4.238zm-3.575-2.652c-.312.442-.52 1.534-.52 2.652 0 1.105.156 3.172 1.456 3.172 1.352 0 1.456-2.196 1.456-3.172 0-1.065-.13-3.159-1.456-3.159-.181 0-.597.053-.936.507zM200.874 26.617l-1.599 3.562h-1.404l1.131-3.562h1.872z"/><path fill="#3C7D91" d="M215.292 21.222v1.82h2.964v1.065h-2.964v2.185c0 .896-.013 1.573 1.014 1.573.767 0 1.378-.261 2.132-.572l.416-.169.429 1.026c-.676.312-1.82.832-2.873.832-.572 0-1.313-.182-1.703-.585-.533-.559-.546-1.326-.546-2.105v-2.185h-.858v-1.065h.858v-1.82h1.131z"/><path d="M224.434 31.245h-2.812v-1.092h1.682v-8.347h-1.682v-1.092h2.812zM236.146 20.974l-4.094 8.969-1.003-.45 4.094-8.976zM243.633 21.222c1.053 0 1.56.221 1.949.559.416.364.689.884.689 1.521 0 .221 0 .949-.702 1.481.325.17 1.157.599 1.157 1.795 0 2.223-2.236 2.223-3.211 2.223h-3.576v-1.066h1.054v-5.447h-1.054v-1.065h3.694zm-1.509 1.065v2.041h1.417c.52 0 1.573-.013 1.573-1.092 0-.949-1.196-.949-1.508-.949h-1.482zm0 3.108v2.34h1.365c1.209 0 2.067-.091 2.067-1.092 0-1.222-1.496-1.248-2.119-1.248h-1.313zM254.786 27.93c-1.17.676-2.353 1.053-3.367 1.053-2.185 0-3.328-1.456-3.328-3.094 0-1.677 1.235-3.159 3.237-3.159 2.054 0 3.094 1.482 3.094 2.756 0 .3-.025.677-.039.793h-5.096c.117.469.416 1.587 2.105 1.587 1.08 0 2.172-.521 2.873-.937l.521 1.001zm-1.559-2.717c-.352-1.339-1.521-1.365-1.886-1.365-1.442 0-1.846 1.014-1.976 1.365h3.862zM261.715 22.911v.871l-3.73 3.952h2.6v-1.195h1.131v2.262h-5.434v-.936l3.691-3.888h-2.431v1.131h-1.132v-2.197h5.305zM269.216 26.461v2.34h-5.408v-1.066c.663-.559 2.496-2.184 3.562-3.25.547-.546.677-.936.677-1.442 0-.768-.546-1.404-1.482-1.404-.403 0-1.364.169-1.364 1.001l.025.272h-1.17v-1.132c1.001-1.222 2.145-1.287 2.548-1.287 1.456 0 2.626 1.157 2.626 2.587 0 1.235-.65 1.898-2.418 3.511l-1.261 1.144h2.573v-1.273h1.092zM276.771 31.245h-2.805v-10.531h2.805v1.092h-1.675v8.347h1.675zM282.379 20.493h.701v7.241h2.158v1.066h-5.473v-1.066h2.184v-5.837l-1.885.845-.455-1.014 2.77-1.235zM291.311 26.617l-1.599 3.562h-1.404l1.132-3.562h1.871z"/><path fill="#002CC3" d="M305.637 22.911v1.066h-.962l.716 2.756h.025l1.014-2.756h.793l1.041 2.756h.025l.729-2.756h-.976v-1.066h2.64v1.066h-.547l-1.312 4.823h-1.027l-1.001-2.834h-.026l-.975 2.834h-.988l-1.326-4.823h-.598v-1.066h2.755z"/><path d="M316.037 26.617l-1.6 3.562h-1.404l1.131-3.562h1.873zM331.131 20.493h.703v7.241h2.158v1.066h-5.474v-1.066h2.185v-5.837l-1.886.845-.455-1.014 2.769-1.235zM340.063 26.617l-1.599 3.562h-1.404l1.131-3.562h1.872z"/><path fill="#3C7D91" d="M354.482 21.222v1.82h2.964v1.065h-2.964v2.185c0 .896-.014 1.573 1.014 1.573.768 0 1.379-.261 2.133-.572l.416-.169.429 1.026c-.677.312-1.82.832-2.873.832-.572 0-1.313-.182-1.703-.585-.533-.559-.546-1.326-.546-2.105v-2.185h-.858v-1.065h.858v-1.82h1.13z"/><path d="M363.624 31.245h-2.812v-1.092h1.682v-8.347h-1.682v-1.092h2.812zM371.893 26.617l-1.6 3.562h-1.404l1.131-3.562h1.873zM77.038 37.472c1.053 0 1.56.221 1.95.559.416.364.689.884.689 1.521 0 .221 0 .949-.702 1.481.325.17 1.157.599 1.157 1.795 0 2.223-2.236 2.223-3.211 2.223h-3.575v-1.066h1.053v-5.447h-1.053v-1.065h3.692zm-1.508 1.065v2.041h1.417c.52 0 1.573-.013 1.573-1.092 0-.949-1.196-.949-1.508-.949h-1.482zm0 3.108v2.34h1.365c1.209 0 2.067-.091 2.067-1.092 0-1.222-1.495-1.248-2.119-1.248h-1.313zM88.192 44.18c-1.17.676-2.353 1.053-3.367 1.053-2.184 0-3.328-1.456-3.328-3.094 0-1.677 1.235-3.159 3.237-3.159 2.054 0 3.094 1.482 3.094 2.756 0 .3-.026.677-.039.793h-5.096c.117.469.416 1.587 2.106 1.587 1.079 0 2.171-.521 2.873-.937l.52 1.001zm-1.56-2.717c-.351-1.339-1.521-1.365-1.885-1.365-1.443 0-1.846 1.014-1.976 1.365h3.861zM95.121 39.161v.871l-3.731 3.952h2.6v-1.195h1.131v2.262h-5.434v-.936l3.692-3.888h-2.431v1.131h-1.131v-2.197h5.304zM102.622 42.711v2.34h-5.408v-1.066c.663-.559 2.496-2.184 3.562-3.25.546-.546.676-.936.676-1.442 0-.768-.546-1.404-1.482-1.404-.403 0-1.365.169-1.365 1.001l.026.272h-1.17v-1.132c1.001-1.222 2.145-1.287 2.548-1.287 1.456 0 2.626 1.157 2.626 2.587 0 1.235-.65 1.898-2.418 3.511l-1.261 1.144h2.574v-1.273h1.092zM110.177 47.495h-2.805v-10.531h2.805v1.092h-1.676v8.347h1.676zM118.449 40.981c0 1.561-.299 4.251-2.639 4.251-2.327 0-2.639-2.69-2.639-4.251 0-1.586.325-4.238 2.639-4.238 2.327 0 2.639 2.665 2.639 4.238zm-3.575-2.652c-.312.442-.52 1.534-.52 2.652 0 1.105.156 3.172 1.456 3.172 1.352 0 1.456-2.196 1.456-3.172 0-1.065-.13-3.159-1.456-3.159-.182 0-.598.053-.936.507zM124.717 42.867l-1.599 3.562h-1.404l1.131-3.562h1.872zM139.812 36.743h.702v7.241h2.158v1.066h-5.473v-1.066h2.184v-5.837l-1.885.845-.455-1.014 2.769-1.235zM150.276 40.981c0 1.561-.299 4.251-2.639 4.251-2.327 0-2.639-2.69-2.639-4.251 0-1.586.325-4.238 2.639-4.238 2.327 0 2.639 2.665 2.639 4.238zm-3.575-2.652c-.312.442-.52 1.534-.52 2.652 0 1.105.156 3.172 1.456 3.172 1.352 0 1.456-2.196 1.456-3.172 0-1.065-.13-3.159-1.456-3.159-.181 0-.597.053-.936.507zM160.25 42.125l-1.822.495 1.168 1.466-1.105.819-1.053-1.568-1.048 1.568-1.111-.819 1.175-1.466-1.822-.495.431-1.314 1.765.653-.076-1.898h1.377l-.076 1.898 1.765-.653z"/><path fill="#002CC3" d="M166.446 39.161v1.066h-.962l.715 2.756h.026l1.014-2.756h.793l1.04 2.756h.026l.728-2.756h-.975v-1.066h2.639v1.066h-.546l-1.313 4.823h-1.027l-1.001-2.834h-.026l-.975 2.834h-.988l-1.326-4.823h-.598v-1.066h2.756z"/><path d="M176.846 42.867l-1.599 3.562h-1.404l1.131-3.562h1.872zM194.606 40.981c0 1.561-.299 4.251-2.639 4.251-2.327 0-2.639-2.69-2.639-4.251 0-1.586.325-4.238 2.639-4.238 2.327 0 2.639 2.665 2.639 4.238zm-3.575-2.652c-.312.442-.52 1.534-.52 2.652 0 1.105.156 3.172 1.456 3.172 1.352 0 1.456-2.196 1.456-3.172 0-1.065-.13-3.159-1.456-3.159-.182 0-.598.053-.936.507zM200.874 42.867l-1.599 3.562h-1.404l1.131-3.562h1.872z"/><path fill="#3C7D91" d="M215.292 37.472v1.82h2.964v1.065h-2.964v2.185c0 .896-.013 1.573 1.014 1.573.767 0 1.378-.261 2.132-.572l.416-.169.429 1.026c-.676.312-1.82.832-2.873.832-.572 0-1.313-.182-1.703-.585-.533-.559-.546-1.326-.546-2.105v-2.185h-.858v-1.065h.858v-1.82h1.131z"/><path d="M224.434 47.495h-2.812v-1.092h1.682v-8.347h-1.682v-1.092h2.812zM236.146 37.224l-4.094 8.969-1.003-.45 4.094-8.976zM243.633 37.472c1.053 0 1.56.221 1.949.559.416.364.689.884.689 1.521 0 .221 0 .949-.702 1.481.325.17 1.157.599 1.157 1.795 0 2.223-2.236 2.223-3.211 2.223h-3.576v-1.066h1.054v-5.447h-1.054v-1.065h3.694zm-1.509 1.065v2.041h1.417c.52 0 1.573-.013 1.573-1.092 0-.949-1.196-.949-1.508-.949h-1.482zm0 3.108v2.34h1.365c1.209 0 2.067-.091 2.067-1.092 0-1.222-1.496-1.248-2.119-1.248h-1.313zM254.786 44.18c-1.17.676-2.353 1.053-3.367 1.053-2.185 0-3.328-1.456-3.328-3.094 0-1.677 1.235-3.159 3.237-3.159 2.054 0 3.094 1.482 3.094 2.756 0 .3-.025.677-.039.793h-5.096c.117.469.416 1.587 2.105 1.587 1.08 0 2.172-.521 2.873-.937l.521 1.001zm-1.559-2.717c-.352-1.339-1.521-1.365-1.886-1.365-1.442 0-1.846 1.014-1.976 1.365h3.862zM261.715 39.161v.871l-3.73 3.952h2.6v-1.195h1.131v2.262h-5.434v-.936l3.691-3.888h-2.431v1.131h-1.132v-2.197h5.305zM269.216 42.711v2.34h-5.408v-1.066c.663-.559 2.496-2.184 3.562-3.25.547-.546.677-.936.677-1.442 0-.768-.546-1.404-1.482-1.404-.403 0-1.364.169-1.364 1.001l.025.272h-1.17v-1.132c1.001-1.222 2.145-1.287 2.548-1.287 1.456 0 2.626 1.157 2.626 2.587 0 1.235-.65 1.898-2.418 3.511l-1.261 1.144h2.573v-1.273h1.092zM276.771 47.495h-2.805v-10.531h2.805v1.092h-1.675v8.347h1.675zM282.379 36.743h.701v7.241h2.158v1.066h-5.473v-1.066h2.184v-5.837l-1.885.845-.455-1.014 2.77-1.235zM291.311 42.867l-1.599 3.562h-1.404l1.132-3.562h1.871z"/><path fill="#002CC3" d="M305.637 39.161v1.066h-.962l.716 2.756h.025l1.014-2.756h.793l1.041 2.756h.025l.729-2.756h-.976v-1.066h2.64v1.066h-.547l-1.312 4.823h-1.027l-1.001-2.834h-.026l-.975 2.834h-.988l-1.326-4.823h-.598v-1.066h2.755z"/><path d="M316.037 42.867l-1.6 3.562h-1.404l1.131-3.562h1.873zM331.131 36.743h.703v7.241h2.158v1.066h-5.474v-1.066h2.185v-5.837l-1.886.845-.455-1.014 2.769-1.235zM340.063 42.867l-1.599 3.562h-1.404l1.131-3.562h1.872z"/><path fill="#3C7D91" d="M354.482 37.472v1.82h2.964v1.065h-2.964v2.185c0 .896-.014 1.573 1.014 1.573.768 0 1.379-.261 2.133-.572l.416-.169.429 1.026c-.677.312-1.82.832-2.873.832-.572 0-1.313-.182-1.703-.585-.533-.559-.546-1.326-.546-2.105v-2.185h-.858v-1.065h.858v-1.82h1.13z"/><path d="M363.624 47.495h-2.812v-1.092h1.682v-8.347h-1.682v-1.092h2.812zM372.556 42.734c-.381 0-.665.056-.851.168-.187.112-.279.278-.279.498v2.12c0 1.291-.885 1.936-2.653 1.936v-1.079c1.016 0 1.523-.273 1.523-.819v-2.146c0-.478.207-.887.622-1.225-.208-.152-.363-.333-.467-.542-.104-.21-.155-.435-.155-.676v-2.146c0-.292-.121-.501-.362-.628s-.628-.19-1.161-.19v-1.079c.896 0 1.563.16 1.999.479.436.319.654.805.654 1.457v2.12c0 .229.091.398.272.508.169.102.455.152.857.152v1.092zM385.138 37.224l-4.095 8.969-1.003-.45 4.095-8.976zM391.611 44.153c0 .689-.624 1.105-1.222 1.105-.585 0-1.222-.403-1.222-1.105 0-.688.637-1.104 1.222-1.104.559 0 1.222.403 1.222 1.104z"/><path fill="#002CC3" d="M67.708 55.411v1.066h-.962l.715 2.756h.026l1.014-2.756h.793l1.04 2.756h.026l.728-2.756h-.975v-1.066h2.639v1.066h-.546l-1.313 4.823h-1.027l-1.001-2.834h-.026l-.975 2.834h-.988l-1.326-4.823h-.598v-1.066h2.756z"/><path d="M77.623 57.867h6.163l-1.39-1.39.806-.807 2.742 2.755-2.742 2.774-.806-.806 1.39-1.39h-6.163zM97.004 57.231c0 1.561-.299 4.251-2.639 4.251-2.327 0-2.639-2.69-2.639-4.251 0-1.586.325-4.238 2.639-4.238 2.327 0 2.639 2.665 2.639 4.238zm-3.575-2.652c-.312.442-.52 1.534-.52 2.652 0 1.105.156 3.172 1.456 3.172 1.352 0 1.456-2.196 1.456-3.172 0-1.065-.13-3.159-1.456-3.159-.182 0-.598.053-.936.507zM103.387 60.403c0 .689-.624 1.105-1.222 1.105-.585 0-1.222-.403-1.222-1.105 0-.688.637-1.104 1.222-1.104.559 0 1.222.403 1.222 1.104zM112.227 53.176v1.118h-3.627v1.911c.169-.065.637-.234 1.261-.234 1.638 0 2.743 1.196 2.743 2.704 0 1.157-.741 2.808-2.899 2.808-.962 0-1.612-.26-2.691-.676l.403-1.053.117.052c.455.195 1.235.546 2.106.546 1.43 0 1.768-.962 1.768-1.638 0-.937-.637-1.664-1.638-1.664-.793 0-1.3.39-1.651.676l-.598-.338v-4.212h4.706zM118.874 59.117l-1.599 3.562h-1.404l1.131-3.562h1.872zM136.011 63.707c-1.769 0-2.653-.646-2.653-1.936v-2.12c0-.444-.377-.667-1.13-.667v-1.092c.753 0 1.13-.22 1.13-.66v-2.12c0-1.291.884-1.936 2.653-1.936v1.079c-1.016 0-1.523.273-1.523.819v2.146c0 .503-.208.91-.622 1.219.415.338.622.747.622 1.225v2.146c0 .546.508.819 1.523.819v1.078z"/><path fill="#3C7D91" d="M141.094 53.722v1.82h2.964v1.065h-2.964v2.185c0 .896-.013 1.573 1.014 1.573.767 0 1.378-.261 2.132-.572l.416-.169.429 1.026c-.676.312-1.82.832-2.873.832-.572 0-1.313-.182-1.703-.585-.533-.559-.546-1.326-.546-2.105v-2.185h-.858v-1.065h.858v-1.82h1.131z"/><path d="M150.703 59.117l-1.599 3.562h-1.404l1.131-3.562h1.872zM163.225 57.867h5.199v1.136h-5.199zM176.887 53.176v1.118h-3.627v1.911c.169-.065.637-.234 1.261-.234 1.638 0 2.743 1.196 2.743 2.704 0 1.157-.741 2.808-2.899 2.808-.962 0-1.612-.26-2.691-.676l.403-1.053.117.052c.455.195 1.235.546 2.106.546 1.43 0 1.768-.962 1.768-1.638 0-.937-.637-1.664-1.638-1.664-.793 0-1.3.39-1.651.676l-.598-.338v-4.212h4.706zM183.531 59.117l-1.599 3.562h-1.404l1.131-3.562h1.872zM200.914 53.176v1.118h-3.627v1.911c.169-.065.637-.234 1.261-.234 1.638 0 2.743 1.196 2.743 2.704 0 1.157-.741 2.808-2.899 2.808-.962 0-1.612-.26-2.691-.676l.403-1.053.117.052c.455.195 1.235.546 2.106.546 1.43 0 1.768-.962 1.768-1.638 0-.937-.637-1.664-1.638-1.664-.793 0-1.3.39-1.651.676l-.598-.338v-4.212h4.706zM208.222 58.984c-.381 0-.665.056-.851.168-.187.112-.279.278-.279.498v2.12c0 1.291-.885 1.936-2.653 1.936v-1.079c1.016 0 1.523-.273 1.523-.819v-2.146c0-.478.207-.887.622-1.225-.208-.152-.363-.333-.467-.542-.104-.21-.155-.435-.155-.676v-2.146c0-.292-.121-.501-.362-.628s-.628-.19-1.162-.19v-1.079c.897 0 1.563.16 2 .479.436.319.654.805.654 1.457v2.12c0 .229.091.398.273.508.169.102.455.152.857.152v1.092zM214.893 63.745h-2.812v-1.092h1.682v-8.347h-1.682v-1.092h2.812z"/><path fill="none" d="M46 0h351v68h-351zM48 2h411v64h-411z"/><g fill="#454F99"><path d="M12.229 272.115c.428.572.642 1.303.642 2.193 0 .964-.245 1.766-.734 2.404-.574.75-1.393 1.125-2.457 1.125-.993 0-1.774-.328-2.342-.984-.507-.633-.76-1.434-.76-2.4 0-.872.217-1.619.65-2.24.557-.797 1.38-1.195 2.47-1.195 1.139 0 1.983.366 2.531 1.097zm-.771 4.115c.344-.553.517-1.188.517-1.906 0-.76-.199-1.371-.596-1.834-.397-.464-.939-.695-1.628-.695-.668 0-1.213.229-1.635.688s-.633 1.136-.633 2.029c0 .716.181 1.319.543 1.811.361.491.948.736 1.76.736.77.001 1.327-.276 1.672-.829zM14.598 272.941v3.125c0 .24.037.437.111.589.137.281.392.422.766.422.536 0 .901-.246 1.096-.738.105-.264.158-.625.158-1.085v-2.312h.791v4.707h-.747l.009-.694c-.101.179-.226.329-.375.452-.296.246-.655.369-1.078.369-.659 0-1.107-.224-1.346-.672-.129-.24-.194-.561-.194-.963v-3.199h.809zM18.97 271.628h.8v1.313h.751v.646h-.751v3.072c0 .164.056.273.167.329.062.032.164.048.308.048l.123-.002.154-.016v.629l-.284.057-.318.018c-.369 0-.62-.094-.751-.283-.132-.188-.198-.434-.198-.736v-3.115h-.637v-.646h.637v-1.314zM21.295 271.148h1.688v.646h-.94v6.979h.94v.646h-1.688v-8.271zM27.939 271.461v.689c-.202.197-.471.538-.806 1.024-.336.486-.632 1.011-.89 1.573-.255.548-.448 1.048-.58 1.498-.085.291-.195.758-.33 1.402h-.875c.199-1.201.639-2.396 1.318-3.586.401-.697.823-1.299 1.266-1.807h-3.48v-.795h4.377zM32.945 271.461v.689c-.202.197-.471.538-.806 1.024-.336.486-.632 1.011-.89 1.573-.255.548-.448 1.048-.58 1.498-.085.291-.195.758-.33 1.402h-.875c.199-1.201.639-2.396 1.318-3.586.401-.697.823-1.299 1.266-1.807h-3.48v-.795h4.377zM33.45 278.773h.936v-6.979h-.936v-.646h1.688v8.271h-1.688v-.646zM40.732 274.036v.738h-4.583v-.738h4.583zm0 1.886v.751h-4.583v-.751h4.583z"/></g><path stroke="#5E81B5" stroke-width="1.6" stroke-linecap="square" stroke-miterlimit="3.25" fill="none" d="M214.722 454.483l-.028-.009-.027-.01-.056-.02-.111-.038-.224-.078-.453-.159-.929-.332-2.135-.783-2.152-.822-2.277-.904-2.681-1.11-2.723-1.181-3.227-1.467-3.484-1.668-3.574-1.802-4.282-2.284-4.435-2.51-4.821-2.904-5.845-3.767-6.122-4.251-7.484-5.642-8.34-6.908-8.793-8.059-10.774-11.102-11.283-13.349-.201-.257-.202-.257-.404-.519-.811-1.05-1.638-2.157-3.336-4.548-.211-.295-.211-.297-.423-.596-.85-1.21-1.713-2.486-3.472-5.246-.215-.334-.214-.336-.432-.676-.863-1.371-1.736-2.816-3.496-5.941-.22-.386-.219-.387-.439-.78-.879-1.581-1.758-3.248-3.511-6.856-.204-.415-.203-.417-.408-.839-.813-1.698-1.617-3.483-3.188-7.321-.197-.474-.195-.476-.392-.958-.777-1.937-1.534-3.973-2.96-8.34-.195-.585-.194-.587-.384-1.181-.759-2.395-1.468-4.911-.179-.625-.177-.628-.352-1.264-.688-2.56-1.312-5.246-.157-.668-.156-.67-.307-1.349-.596-2.729-.144-.689-.143-.692-.281-1.391-.54-2.815-.13-.71-.129-.713-.25-1.434-.477-2.901-.114-.731-.112-.735-.217-1.476-.407-2.986-.09-.702-.087-.705-.168-1.417-.081-.712-.079-.714-.151-1.435-.072-.721-.07-.723-.132-1.453-.062-.729-.06-.732-.114-1.47M67.486 255.179l-.052-.739-.05-.74-.048-.743-.045-.745-.042-.747-.04-.749-.071-1.504-.032-.756-.028-.757-.026-.76-.023-.761-.02-.764-.017-.766-.015-.767-.011-.77-.008-.771-.006-.774-.002-.775.001-.778.004-.78.007-.781.01-.782.014-.785.017-.787.02-.788.023-.791.028-.792.03-.794.034-.796.037-.798.04-.799.045-.801.048-.802.051-.804.055-.806.059-.807.062-.809.136-1.622.074-.814.077-.815.167-1.634.382-3.284.104-.808.107-.809.227-1.622.119-.813.124-.813.26-1.631.136-.817.14-.817.294-1.639.64-3.285.171-.823.176-.824.365-1.65.786-3.305.208-.827.213-.828.44-1.657.94-3.314.248-.829.252-.828.52-1.659 1.103-3.312.288-.828.294-.826.604-1.654 1.274-3.298.331-.823.338-.822.692-1.641 1.451-3.271 3.178-6.478.46-.871.466-.869.955-1.73 1.995-3.434.517-.852.524-.849 1.068-1.689 2.226-3.343.575-.828.581-.823 1.186-1.638 2.461-3.229 5.278-6.257.693-.762.701-.756 1.423-1.498 2.936-2.932.753-.72.76-.714 1.542-1.41 3.172-2.748.812-.672.818-.665 1.659-1.311 3.403-2.54 7.143-4.738M128.501 117.113l.862-.521.867-.515 1.753-1.008 3.574-1.931.907-.465.913-.458 1.843-.893 3.749-1.695.95-.405.956-.396 1.925-.77 3.912-1.444.99-.341.994-.332 2.003-.64 4.059-1.179 1.026-.274 1.029-.265 2.072-.504 1.041-.239 1.046-.231 2.103-.434 1.057-.204 1.06-.195 2.132-.363 1.071-.169 1.074-.159 2.157-.292 1.084-.132 1.086-.124 1.09-.114 1.092-.105 1.095-.096 1.098-.087 1.1-.078 1.103-.069 1.105-.059 1.107-.051 1.11-.041 1.112-.032 1.114-.023 1.116-.014 1.118-.004 1.12.005 1.216.015 1.217.026 1.22.037 1.221.048 1.223.058 1.224.07 1.226.08 1.227.09 1.228.101 1.229.113 1.23.123 1.231.133 1.232.144 1.233.155 2.466.341 1.233.186 1.234.197 2.468.425 1.234.228 1.233.239 2.466.507 1.233.27 1.23.279 2.461.589 4.909 1.297 1.223.349 1.222.359 2.44.746 4.857 1.606 1.208.425 1.207.435 2.405.895 4.779 1.899 1.188.497 1.185.505 2.36 1.036 4.679 2.171 9.177 4.722 1.109.612 1.104.62 2.195 1.259 4.338 2.599 8.452 5.495 1.034.713 1.028.719 2.043 1.453 4.023 2.97 7.785 6.165.947.791.942.794 1.867 1.601 3.665 3.245 7.047 6.651 12.938 13.788.706.819M331.753 171.457l.701.819 1.387 1.643 2.709 3.299 5.166 6.632.622.832.617.832 1.219 1.664 2.376 3.331 4.509 6.658.541.831.536.831 1.057 1.661 2.057 3.314 3.882 6.594 6.882 12.991.424.869.421.866.827 1.729 1.592 3.435 2.957 6.777.349.838.345.836.675 1.665 1.297 3.305 2.39 6.498.28.801.276.8.541 1.59 1.033 3.154 1.887 6.185.219.762.216.759.421 1.511.802 2.989 1.446 5.853.155.673.153.669.298 1.333.564 2.637.135.654.132.652.256 1.294.485 2.564.115.635.113.632.219 1.258.411 2.49.717 4.868.081.598.078.596.151 1.185.278 2.342.064.58.063.579.12 1.148.219 2.272.051.562.048.56.092 1.113.043.554.042.55.078 1.096.037.545.036.543.065 1.078.031.536.029.533.053 1.062.025.518.022.514.021.513.02.511.018.508.017.508.016.505.015.502.012.501.012.499.01.497.009.495.008.493.007.491.005.489.004.487.003.485.002.483v.48l-.001.48-.002.477-.003.476-.004.473-.006.471-.006.47-.007.468-.009.466-.01.464-.011.462-.012.459-.013.459M389.966 328.106l-.014.456-.015.456-.016.452-.035.9-.02.446-.02.447-.043.884-.023.441-.024.437-.051.871-.112 1.721-.031.426-.031.424-.064.843-.14 1.665-.037.412-.038.41-.078.815-.164 1.611-.047.432-.048.431-.098.855-.205 1.688-.052.417-.055.415-.11.825-.23 1.629-.059.402-.06.401-.121.796-.252 1.571-.533 3.059-.07.375-.069.373-.142.741-.289 1.462-.601 2.847-1.289 5.4-.078.303-.08.302-.157.6-.32 1.185-.651 2.314-1.35 4.406-.086.266-.087.264-.173.527-.348 1.04-.704 2.031-1.435 3.87-.098.253-.098.252-.198.502-.394.989-.795 1.93-1.603 3.666-3.224 6.634-.094.18-.094.18-.188.358-.376.708-.75 1.382-1.492 2.645-2.947 4.84-.089.139-.088.139-.179.276-.356.547-.707 1.072-1.4 2.054-2.737 3.784-5.625 6.943-4.843 5.231-4.811 4.629-4.308 3.73-3.679 2.908-3.652 2.658-3.126 2.107-2.824 1.779-2.823 1.667-2.43 1.35-.041.022-.04.022-.082.044-.162.086-.321.172-.633.334-.039.021-.039.02-.078.04-.155.081-.309.16-.038.02-.038.019-.076.039-.153.079-.038.019-.038.02-.075.039M320.828 450.219l-.038.018-.038.02-.037.018-.038.02"/><path fill="none" d="M48 79h360v396h-360zM48 75h360v400h-360zM46 73h364v404h-364zM48 75h411v400h-411z"/><path stroke="#666" stroke-width=".2" stroke-miterlimit="3.25" fill="none" d="M59.5 190.5v-3M73.5 190.5v-4M87.5 190.5v-3M100.5 190.5v-3M114.5 190.5v-3M128.5 190.5v-4"/><path fill="none" d="M48 75h360v400h-360zM46 73h364v404h-364zM48 75h411v400h-411z"/><path fill="#666" d="M130.287 201.349v.845h-4.731c-.006-.212.028-.415.103-.61.121-.322.313-.64.579-.952s.648-.674 1.15-1.084c.778-.638 1.304-1.144 1.577-1.516.273-.373.41-.726.41-1.058 0-.349-.125-.642-.374-.882-.249-.238-.574-.358-.974-.358-.423 0-.762.127-1.016.381s-.382.605-.386 1.055l-.903-.093c.062-.674.294-1.188.698-1.541.404-.353.946-.529 1.626-.529.687 0 1.23.19 1.631.571s.601.853.601 1.416c0 .286-.059.568-.176.845s-.312.568-.583.874-.724.726-1.355 1.26c-.527.442-.866.743-1.016.901-.15.157-.273.316-.371.476h3.51z"/><path fill="none" d="M123 191h10v16h-10zM124 192h8v14h-8zM48 75h360v400h-360zM46 73h364v404h-364zM48 75h411v400h-411z"/><path stroke="#666" stroke-width=".2" stroke-miterlimit="3.25" fill="none" d="M141.5 190.5v-3M155.5 190.5v-3M168.5 190.5v-3M182.5 190.5v-4"/><path fill="none" d="M48 75h360v400h-360zM46 73h364v404h-364zM48 75h411v400h-411z"/><path fill="#666" d="M183.012 202.193v-1.714h-3.105v-.806l3.267-4.639h.718v4.639h.967v.806h-.967v1.714h-.88zm0-2.519v-3.228l-2.241 3.228h2.241z"/><path fill="none" d="M177 191h11v16h-11zM178 192h9v14h-9zM48 75h360v400h-360zM46 73h364v404h-364zM48 75h411v400h-411z"/><path stroke="#666" stroke-width=".2" stroke-miterlimit="3.25" fill="none" d="M196.5 190.5v-3M209.5 190.5v-3M223.5 190.5v-3M237.5 190.5v-4"/><path fill="none" d="M48 75h360v400h-360zM46 73h364v404h-364zM48 75h411v400h-411z"/><path fill="#666" d="M239.283 196.788l-.875.068c-.078-.345-.188-.596-.332-.752-.237-.251-.53-.376-.879-.376-.279 0-.525.078-.736.234-.277.202-.495.496-.654.884-.16.388-.243.939-.25 1.655.212-.322.471-.562.777-.718.306-.156.626-.234.961-.234.586 0 1.086.216 1.497.647.411.431.618.988.618 1.672 0 .449-.098.867-.291 1.252-.193.387-.46.682-.799.887-.338.205-.723.308-1.152.308-.732 0-1.329-.27-1.791-.808-.463-.539-.693-1.427-.693-2.664 0-1.384.255-2.39.766-3.018.446-.547 1.047-.82 1.803-.82.562 0 1.023.158 1.384.474s.574.752.646 1.309zm-3.59 3.086c0 .303.064.593.193.869s.309.487.539.632c.231.146.475.218.729.218.371 0 .689-.149.957-.449.267-.3.4-.706.4-1.221 0-.495-.133-.885-.396-1.169-.264-.285-.596-.428-.996-.428-.396 0-.733.143-1.01.428-.277.284-.416.658-.416 1.12z"/><path fill="none" d="M232 191h10v16h-10zM233 192h8v14h-8zM48 75h360v400h-360zM46 73h364v404h-364zM48 75h411v400h-411z"/><path stroke="#666" stroke-width=".2" stroke-miterlimit="3.25" fill="none" d="M250.5 190.5v-3M264.5 190.5v-3M277.5 190.5v-3M291.5 190.5v-4"/><path fill="none" d="M48 75h360v400h-360zM46 73h364v404h-364zM48 75h411v400h-411z"/><path fill="#666" d="M290.602 198.312c-.364-.134-.635-.324-.811-.571s-.264-.544-.264-.889c0-.521.188-.959.562-1.313.374-.354.872-.532 1.494-.532.625 0 1.127.182 1.508.545.381.362.572.805.572 1.325 0 .332-.088.621-.262.866-.174.246-.438.436-.793.569.439.144.773.374 1.003.693s.345.7.345 1.143c0 .612-.217 1.126-.65 1.543-.433.417-1.002.625-1.709.625-.706 0-1.275-.209-1.709-.628-.433-.418-.648-.939-.648-1.564 0-.466.117-.855.354-1.17.236-.314.572-.528 1.008-.642zm-.459 1.816c0 .251.061.493.179.728s.296.416.53.545c.234.128.486.192.756.192.42 0 .768-.135 1.041-.405s.41-.613.41-1.03c0-.423-.141-.773-.423-1.05s-.634-.415-1.058-.415c-.413 0-.756.137-1.027.41s-.408.615-.408 1.025zm.283-3.306c0 .339.109.615.328.83.218.215.501.322.85.322.338 0 .615-.106.832-.32.217-.213.324-.474.324-.783 0-.322-.111-.594-.334-.812-.223-.221-.5-.33-.832-.33-.336 0-.614.107-.836.322-.221.215-.332.471-.332.771z"/><path fill="none" d="M286 191h11v16h-11zM287 192h9v14h-9zM48 75h360v400h-360zM46 73h364v404h-364zM48 75h411v400h-411z"/><path stroke="#666" stroke-width=".2" stroke-miterlimit="3.25" fill="none" d="M305.5 190.5v-3M318.5 190.5v-3M332.5 190.5v-3M346.5 190.5v-4"/><path fill="none" d="M48 75h360v400h-360zM46 73h364v404h-364zM48 75h411v400h-411z"/><g fill="#666"><path d="M344.307 202.193h-.879v-5.601c-.211.202-.489.403-.832.605-.344.202-.652.354-.926.454v-.85c.492-.231.922-.511 1.289-.84s.629-.647.781-.957h.566v7.189zM346.558 198.663c0-.847.087-1.527.261-2.044.175-.516.434-.913.777-1.193s.775-.42 1.296-.42c.384 0 .722.077 1.011.232.289.154.529.377.718.668.188.292.337.646.444 1.064.107.419.161.982.161 1.692 0 .84-.087 1.518-.259 2.034-.172.516-.431.914-.773 1.195-.344.282-.777.423-1.302.423-.69 0-1.231-.247-1.626-.742-.473-.594-.708-1.564-.708-2.909zm.903 0c0 1.175.138 1.957.412 2.347.275.389.615.583 1.019.583s.743-.195 1.019-.586c.274-.391.412-1.172.412-2.344 0-1.179-.138-1.961-.412-2.349-.275-.388-.618-.581-1.028-.581-.403 0-.726.171-.967.513-.304.437-.455 1.242-.455 2.417z"/></g><path fill="none" d="M338 191h16v16h-16zM339 192h14v14h-14zM48 75h360v400h-360zM46 73h364v404h-364zM48 75h411v400h-411z"/><path stroke="#666" stroke-width=".2" stroke-miterlimit="3.25" fill="none" d="M359.5 190.5v-3M373.5 190.5v-3M387.5 190.5v-3M400.5 190.5v-4"/><path fill="none" d="M48 75h360v400h-360zM46 73h364v404h-364zM48 75h411v400h-411z"/><g fill="#666"><path d="M398.834 202.193h-.879v-5.601c-.211.202-.489.403-.832.605-.344.202-.652.354-.926.454v-.85c.492-.231.922-.511 1.289-.84s.629-.647.781-.957h.566v7.189zM405.704 201.349v.845h-4.731c-.006-.212.027-.415.103-.61.12-.322.313-.64.579-.952.265-.312.648-.674 1.149-1.084.778-.638 1.304-1.144 1.577-1.516.273-.373.41-.726.41-1.058 0-.349-.125-.642-.373-.882-.25-.238-.574-.358-.975-.358-.424 0-.762.127-1.016.381s-.383.605-.386 1.055l-.903-.093c.062-.674.295-1.188.698-1.541.403-.353.946-.529 1.626-.529.688 0 1.23.19 1.631.571s.601.853.601 1.416c0 .286-.059.568-.176.845s-.312.568-.583.874c-.272.306-.725.726-1.355 1.26-.527.442-.865.743-1.016.901-.15.157-.273.316-.371.476h3.511z"/></g><path fill="none" d="M393 191h16v16h-16zM394 192h14v14h-14zM48 75h360v400h-360zM46 73h364v404h-364zM48 75h411v400h-411z"/><path stroke="#666" stroke-width=".2" stroke-miterlimit="3.25" fill="none" d="M48.5 190.5h359M73.5 462.5h4"/><path fill="none" d="M48 75h360v400h-360zM46 73h364v404h-364zM48 75h411v400h-411z"/><path fill="#666" d="M54.095 463.231h4.736v.82h-4.736z"/><g fill="#666"><path d="M63.108 466.244h-.879v-5.601c-.211.202-.489.403-.833.605s-.652.354-.925.454v-.85c.492-.231.921-.511 1.289-.84s.628-.647.781-.957h.566v7.189zM65.359 462.714c0-.847.087-1.527.261-2.044.174-.516.433-.913.776-1.193s.775-.42 1.296-.42c.384 0 .721.077 1.011.232.29.154.529.377.718.668.189.292.337.646.444 1.064.107.419.161.982.161 1.692 0 .84-.086 1.518-.259 2.034-.172.516-.431.914-.774 1.195-.343.282-.777.423-1.301.423-.69 0-1.232-.247-1.626-.742-.471-.595-.707-1.564-.707-2.909zm.904 0c0 1.175.138 1.957.413 2.347.275.389.614.583 1.018.583s.743-.195 1.018-.586.413-1.172.413-2.344c0-1.179-.138-1.961-.413-2.349s-.618-.581-1.028-.581c-.404 0-.726.171-.967.513-.303.436-.454 1.242-.454 2.417z"/></g><path fill="none" d="M51 455h22v16h-22zM52 456h20v14h-20zM48 75h360v400h-360zM46 73h364v404h-364zM48 75h411v400h-411z"/><path stroke="#666" stroke-width=".2" stroke-miterlimit="3.25" fill="none" d="M73.5 449.5h2M73.5 435.5h2M73.5 421.5h2M73.5 408.5h4"/><path fill="none" d="M48 75h360v400h-360zM46 73h364v404h-364zM48 75h411v400h-411z"/><path fill="#666" d="M59.656 408.704h4.736v.82h-4.736zM66.712 407.835c-.365-.134-.635-.324-.811-.571s-.264-.544-.264-.889c0-.521.187-.959.562-1.313s.873-.532 1.494-.532c.625 0 1.128.182 1.509.545.381.362.571.805.571 1.325 0 .332-.087.621-.261.866-.174.246-.438.436-.793.569.439.144.774.374 1.003.693s.344.7.344 1.143c0 .612-.216 1.126-.649 1.543s-1.002.625-1.709.625-1.276-.209-1.709-.628c-.433-.418-.649-.939-.649-1.564 0-.466.118-.855.354-1.17.235-.314.572-.528 1.008-.642zm-.459 1.816c0 .251.06.493.178.728s.295.416.53.545c.234.128.487.192.757.192.42 0 .767-.135 1.04-.405s.41-.613.41-1.03c0-.423-.141-.773-.422-1.05s-.634-.415-1.057-.415c-.414 0-.756.137-1.028.41s-.408.615-.408 1.025zm.283-3.305c0 .339.109.615.327.83s.501.322.85.322c.338 0 .616-.106.833-.32.216-.213.325-.474.325-.783 0-.322-.111-.594-.334-.812-.223-.221-.5-.33-.833-.33-.335 0-.614.107-.835.322s-.333.471-.333.771z"/><path fill="none" d="M57 400h16v16h-16zM58 401h14v14h-14zM48 75h360v400h-360zM46 73h364v404h-364zM48 75h411v400h-411z"/><path stroke="#666" stroke-width=".2" stroke-miterlimit="3.25" fill="none" d="M73.5 394.5h2M73.5 380.5h2M73.5 367.5h2M73.5 353.5h4"/><path fill="none" d="M48 75h360v400h-360zM46 73h364v404h-364zM48 75h411v400h-411z"/><path fill="#666" d="M59.656 354.177h4.736v.82h-4.736zM69.92 351.784l-.874.068c-.078-.345-.189-.596-.332-.752-.238-.251-.531-.376-.879-.376-.28 0-.526.078-.737.234-.277.202-.495.496-.654.884s-.243.939-.249 1.655c.211-.322.47-.562.776-.718s.626-.234.962-.234c.586 0 1.085.216 1.497.647.412.431.618.988.618 1.672 0 .449-.097.867-.291 1.252-.194.387-.46.682-.798.887s-.723.308-1.152.308c-.732 0-1.33-.27-1.792-.808-.462-.539-.693-1.427-.693-2.664 0-1.384.255-2.39.767-3.018.446-.547 1.046-.82 1.802-.82.563 0 1.024.158 1.384.474s.573.753.645 1.309zm-3.589 3.086c0 .303.064.593.193.869s.309.487.54.632c.231.146.474.218.728.218.371 0 .69-.149.957-.449s.4-.706.4-1.221c0-.495-.132-.885-.396-1.169-.264-.285-.596-.428-.996-.428-.397 0-.734.143-1.011.428-.277.284-.415.658-.415 1.12z"/><path fill="none" d="M57 346h16v16h-16zM58 347h14v14h-14zM48 75h360v400h-360zM46 73h364v404h-364zM48 75h411v400h-411z"/><path stroke="#666" stroke-width=".2" stroke-miterlimit="3.25" fill="none" d="M73.5 340.5h2M73.5 326.5h2M73.5 312.5h2M73.5 299.5h4"/><path fill="none" d="M48 75h360v400h-360zM46 73h364v404h-364zM48 75h411v400h-411z"/><path fill="#666" d="M59.656 299.649h4.736v.82h-4.736zM68.177 302.662v-1.714h-3.105v-.806l3.267-4.639h.718v4.639h.967v.806h-.967v1.714h-.88zm0-2.519v-3.228l-2.241 3.228h2.241z"/><path fill="none" d="M57 291h16v16h-16zM58 292h14v14h-14zM48 75h360v400h-360zM46 73h364v404h-364zM48 75h411v400h-411z"/><path stroke="#666" stroke-width=".2" stroke-miterlimit="3.25" fill="none" d="M73.5 285.5h2M73.5 271.5h2M73.5 258.5h2M73.5 244.5h4"/><path fill="none" d="M48 75h360v400h-360zM46 73h364v404h-364zM48 75h411v400h-411z"/><path fill="#666" d="M59.656 245.122h4.736v.82h-4.736zM69.979 247.29v.845h-4.731c-.006-.212.028-.415.103-.61.121-.322.313-.64.579-.952s.648-.674 1.15-1.084c.778-.638 1.304-1.144 1.577-1.516.273-.373.41-.726.41-1.058 0-.349-.125-.642-.374-.882-.249-.238-.574-.358-.974-.358-.423 0-.762.127-1.016.381s-.382.605-.386 1.055l-.903-.093c.062-.674.294-1.188.698-1.541.404-.353.946-.529 1.626-.529.687 0 1.23.19 1.631.571s.601.853.601 1.416c0 .286-.059.568-.176.845s-.312.568-.583.874-.724.726-1.355 1.26c-.527.442-.866.743-1.016.901-.15.157-.273.316-.371.476h3.51z"/><path fill="none" d="M57 237h16v16h-16zM58 238h14v14h-14zM48 75h360v400h-360zM46 73h364v404h-364zM48 75h411v400h-411z"/><path stroke="#666" stroke-width=".2" stroke-miterlimit="3.25" fill="none" d="M73.5 231.5h2M73.5 217.5h2M73.5 203.5h2M73.5 190.5h4M73.5 176.5h2M73.5 162.5h2M73.5 149.5h2M73.5 135.5h4"/><path fill="none" d="M48 75h360v400h-360zM46 73h364v404h-364zM48 75h411v400h-411z"/><path fill="#666" d="M69.979 138.235v.845h-4.731c-.006-.212.028-.415.103-.61.121-.322.313-.64.579-.952s.648-.674 1.15-1.084c.778-.638 1.304-1.144 1.577-1.516.273-.373.41-.726.41-1.058 0-.349-.125-.642-.374-.882-.249-.238-.574-.358-.974-.358-.423 0-.762.127-1.016.381s-.382.605-.386 1.055l-.903-.093c.062-.674.294-1.188.698-1.541.404-.353.946-.529 1.626-.529.687 0 1.23.19 1.631.571s.601.853.601 1.416c0 .286-.059.568-.176.845s-.312.568-.583.874-.724.726-1.355 1.26c-.527.442-.866.743-1.016.901-.15.157-.273.316-.371.476h3.51z"/><path fill="none" d="M62 128h11v16h-11zM63 129h9v14h-9zM48 75h360v400h-360zM46 73h364v404h-364zM48 75h411v400h-411z"/><path stroke="#666" stroke-width=".2" stroke-miterlimit="3.25" fill="none" d="M73.5 121.5h2M73.5 108.5h2M73.5 94.5h2M73.5 81.5h4"/><path fill="none" d="M48 75h360v400h-360zM46 73h364v404h-364zM48 75h411v400h-411z"/><path fill="#666" d="M68.177 84.553v-1.714h-3.105v-.806l3.267-4.639h.718v4.639h.967v.806h-.967v1.714h-.88zm0-2.52v-3.228l-2.241 3.228h2.241z"/><path fill="none" d="M62 73h11v16h-11zM63 74h9v14h-9zM48 75h360v400h-360zM46 73h364v404h-364zM48 75h411v400h-411z"/><path stroke="#666" stroke-width=".2" stroke-miterlimit="3.25" fill="none" d="M73.5 473.5v-394"/><path fill="none" d="M48 75h360v400h-360zM46 73h364v404h-364zM48 75h411v400h-411z"/></svg>