<svg xmlns="http://www.w3.org/2000/svg" xmlns:xlink="http://www.w3.org/1999/xlink" width="413" height="509" viewBox="0 0 413 509"><path d="M6.16 4.222c.923 0 1.469.077 1.976.363.715.403 1.222 1.235 1.222 2.094 0 .767-.429 1.586-1.026 1.924-.703.403-1.171.428-2.692.428h-.455v1.703h1.846v1.066h-3.978v-1.065h1.001v-5.448h-1.001v-1.065h3.107zm-.975 1.065v2.679h.468c1.378 0 1.678-.104 1.989-.272.195-.105.52-.495.52-1.054 0-.533-.3-.962-.611-1.132-.26-.144-.521-.222-1.378-.222h-.988zM15.975 10.734h1.118v1.066h-2.25v-.623c-.429.312-1.105.806-2.146.806-1.378 0-2.274-1.014-2.274-2.027 0-.793.649-2.146 2.938-2.146.585 0 1.015.052 1.482.104 0-.455.013-1.157-1.274-1.157-.909 0-1.794.391-2.274.599l-.442-1.04c.793-.325 1.677-.676 2.73-.676 1.664 0 2.392.832 2.392 2.171v2.923zm-1.131-1.715c-.455-.064-.845-.144-1.352-.144-1.833 0-1.898.937-1.898 1.093 0 .48.533.896 1.092.896.26 0 1.157-.053 2.158-1.171v-.674zM21.097 5.911v.963c.546-.521 1.235-1.145 2.354-1.145.987 0 1.481.507 1.768.793l-1.157.884c-.143-.247-.39-.559-.832-.559-.845 0-2.027 1.352-2.132 1.456v2.431h2.405v1.066h-5.097v-1.065h1.561v-3.757h-1.443v-1.067h2.573zM31.575 10.734h1.117v1.066h-2.25v-.623c-.429.312-1.104.806-2.145.806-1.378 0-2.275-1.014-2.275-2.027 0-.793.65-2.146 2.938-2.146.585 0 1.014.052 1.481.104 0-.455.014-1.157-1.273-1.157-.91 0-1.794.391-2.275.599l-.441-1.04c.793-.325 1.677-.676 2.729-.676 1.664 0 2.393.832 2.393 2.171l.001 2.923zm-1.132-1.715c-.455-.064-.845-.144-1.352-.144-1.833 0-1.898.937-1.898 1.093 0 .48.533.896 1.093.896.26 0 1.156-.053 2.157-1.171v-.674zM35.059 5.911v.43c.221-.194.637-.61 1.248-.61.663 0 .962.468 1.066.61.299-.246.715-.61 1.378-.61 1.638 0 1.65 1.729 1.65 2.405v2.6h.599v1.066h-1.729v-3.667c0-.755 0-1.287-.571-1.287-.442 0-.716.377-.963.676v3.211h.768v1.066h-1.898v-3.718c0-.48 0-1.234-.571-1.234-.364 0-.663.272-.963.559v3.328h.897v1.066h-2.77v-1.066h.74v-3.758h-.74v-1.067h1.859zM48.488 10.93c-1.17.676-2.353 1.053-3.366 1.053-2.185 0-3.328-1.456-3.328-3.094 0-1.678 1.234-3.159 3.236-3.159 2.055 0 3.095 1.481 3.095 2.756 0 .3-.026.677-.039.793h-5.097c.117.469.416 1.587 2.106 1.587 1.079 0 2.171-.521 2.873-.937l.52 1.001zm-1.56-2.717c-.351-1.339-1.521-1.364-1.885-1.364-1.443 0-1.847 1.014-1.977 1.364h3.862zM51.998 4.222v1.819h2.964v1.065h-2.964v2.185c0 .896-.014 1.573 1.014 1.573.767 0 1.378-.261 2.132-.572l.416-.169.429 1.026c-.676.312-1.819.832-2.873.832-.572 0-1.313-.183-1.703-.585-.533-.56-.546-1.326-.546-2.105v-2.184h-.858v-1.065h.858v-1.82h1.131zM60.096 5.911v.963c.546-.521 1.235-1.145 2.354-1.145.987 0 1.481.507 1.768.793l-1.158.884c-.143-.247-.39-.559-.832-.559-.845 0-2.027 1.352-2.132 1.456v2.431h2.405v1.066h-5.097v-1.065h1.561v-3.757h-1.443v-1.067h2.574zM68.884 5.911v4.823h2.171v1.066h-5.512v-1.065h2.21v-3.757h-1.859v-1.067h2.99zm-1.378-2.847h1.378v1.716h-1.378v-1.716zM79.115 5.834c-.038.352-.077.832-.077 1.3 0 .508.039.846.077 1.145l-1.092.144c-.117-.807-.221-1.572-1.703-1.572-1.846 0-2.157 1.442-2.157 2.002 0 .884.559 2.016 2.066 2.016 1.001 0 1.963-.65 2.717-1.184l.624.884c-.61.469-1.858 1.417-3.393 1.417-1.885 0-3.211-1.364-3.211-3.12 0-1.521 1.118-3.133 3.172-3.133.65 0 1.183.156 1.846.715l.117-.715 1.014.101zM84.159 4.222c.923 0 1.469.077 1.976.363.715.402 1.222 1.234 1.222 2.094 0 .767-.429 1.586-1.026 1.924-.702.402-1.17.429-2.691.429h-.455v1.703h1.846v1.066h-3.978v-1.066h1.001v-5.448h-1.001v-1.065h3.106zm-.975 1.065v2.679h.468c1.378 0 1.678-.104 1.989-.272.195-.104.521-.494.521-1.053 0-.533-.3-.962-.611-1.132-.26-.144-.521-.222-1.378-.222h-.989zM92.258 3.377v7.357h2.184v1.066h-5.499v-1.065h2.185v-6.188l-2.028.131-.104-1.079 3.262-.222zM99.499 5.639c2.184 0 3.367 1.533 3.367 3.172 0 1.561-1.105 3.172-3.367 3.172-2.197 0-3.367-1.547-3.367-3.172 0-1.716 1.261-3.172 3.367-3.172zm0 5.226c1.469 0 2.171-1.041 2.171-2.055 0-1.015-.702-2.055-2.171-2.055-1.431 0-2.171.987-2.171 2.055 0 1.053.741 2.055 2.171 2.055zM106.597 4.222v1.819h2.964v1.065h-2.964v2.185c0 .896-.013 1.573 1.014 1.573.768 0 1.378-.261 2.133-.572l.416-.169.429 1.026c-.676.312-1.82.832-2.873.832-.572 0-1.313-.183-1.703-.585-.533-.56-.546-1.326-.546-2.105v-2.184h-.858v-1.065h.858v-1.82h1.13zM117.286 14.245h-2.806v-10.531h2.806v1.092h-1.676v8.347h1.676zM124.935 14.207c-1.769 0-2.652-.646-2.652-1.936v-2.12c0-.444-.378-.667-1.131-.667v-1.092c.753 0 1.131-.221 1.131-.66v-2.12c0-1.291.884-1.936 2.652-1.936v1.078c-1.016 0-1.522.273-1.522.819v2.147c0 .503-.208.909-.622 1.219.415.338.622.747.622 1.225v2.146c0 .546.508.818 1.522.818v1.079zM31.038 20.472c1.053 0 1.56.221 1.949.559.416.364.689.884.689 1.521 0 .221 0 .948-.702 1.48.325.17 1.157.599 1.157 1.795 0 2.224-2.236 2.224-3.211 2.224h-3.575v-1.066h1.053v-5.447h-1.053v-1.064l3.693-.002zm-1.508 1.065v2.041h1.417c.521 0 1.573-.013 1.573-1.092 0-.949-1.195-.949-1.508-.949h-1.482zm0 3.108v2.34h1.365c1.209 0 2.067-.091 2.067-1.092 0-1.223-1.495-1.248-2.119-1.248h-1.313zM42.192 27.18c-1.17.676-2.353 1.053-3.366 1.053-2.185 0-3.328-1.456-3.328-3.094 0-1.678 1.234-3.159 3.236-3.159 2.055 0 3.095 1.481 3.095 2.756 0 .3-.026.677-.039.793h-5.097c.117.469.416 1.587 2.106 1.587 1.079 0 2.171-.521 2.873-.937l.52 1.001zm-1.56-2.717c-.352-1.339-1.521-1.364-1.885-1.364-1.443 0-1.847 1.014-1.977 1.364h3.862zM49.121 22.161v.871l-3.731 3.952h2.6v-1.195h1.132v2.263h-5.435v-.937l3.692-3.888h-2.432v1.131h-1.131v-2.197h5.305zM56.622 25.711v2.341h-5.408v-1.066c.663-.559 2.496-2.184 3.562-3.25.546-.546.677-.937.677-1.442 0-.768-.547-1.403-1.482-1.403-.403 0-1.365.169-1.365 1.001l.026.271h-1.17v-1.133c1.001-1.222 2.145-1.287 2.548-1.287 1.456 0 2.626 1.157 2.626 2.587 0 1.235-.65 1.898-2.418 3.511l-1.261 1.145h2.573v-1.273l1.092-.002zM64.177 30.495h-2.805v-10.531h2.805v1.092h-1.676v8.347h1.676zM72.449 23.981c0 1.561-.3 4.251-2.64 4.251-2.327 0-2.639-2.69-2.639-4.251 0-1.586.325-4.238 2.639-4.238 2.328 0 2.64 2.665 2.64 4.238zm-3.575-2.652c-.312.442-.521 1.534-.521 2.652 0 1.104.156 3.172 1.456 3.172 1.353 0 1.456-2.196 1.456-3.172 0-1.065-.13-3.159-1.456-3.159-.181 0-.597.053-.935.507zM78.717 25.867l-1.599 3.562h-1.404l1.131-3.562h1.872zM90.795 27.492l.441-1.04c.572.285 1.404.676 2.21.676.755 0 1.587-.455 1.587-1.47 0-.87-.611-1.378-1.587-1.378-.052 0-.285 0-.676.026v-1.079c.65-.014 1.872-.026 1.872-1.248 0-.807-.702-1.104-1.248-1.104-.585 0-.936.207-1.897.807l-.572-.938c.819-.546 1.534-1.001 2.483-1.001 1.195 0 2.392.832 2.392 2.186 0 .962-.468 1.417-.741 1.688.729.416 1.131 1.209 1.131 2.028 0 1.586-1.261 2.587-2.781 2.587-.819 0-1.431-.26-2.094-.532l-.52-.208zM106.448 25.125l-1.822.495 1.168 1.466-1.104.819-1.054-1.568-1.047 1.568-1.111-.819 1.174-1.466-1.821-.495.431-1.314 1.765.653-.076-1.898h1.377l-.076 1.898 1.765-.653z"/><path fill="#002CC3" d="M112.645 22.161v1.066h-.962l.715 2.756h.026l1.014-2.756h.793l1.04 2.756h.026l.728-2.756h-.975v-1.066h2.639v1.066h-.546l-1.312 4.822h-1.027l-1.001-2.834h-.026l-.975 2.834h-.988l-1.326-4.822h-.598v-1.066h2.755z"/><path d="M123.045 25.867l-1.6 3.562h-1.403l1.131-3.562h1.872zM138.14 19.743h.702v7.241h2.158v1.065h-5.474v-1.065h2.185v-5.837l-1.885.845-.455-1.014 2.769-1.235zM148.604 23.981c0 1.561-.299 4.251-2.639 4.251-2.327 0-2.639-2.69-2.639-4.251 0-1.586.324-4.238 2.639-4.238 2.327 0 2.639 2.665 2.639 4.238zm-3.575-2.652c-.312.442-.52 1.534-.52 2.652 0 1.104.156 3.172 1.456 3.172 1.352 0 1.456-2.196 1.456-3.172 0-1.065-.13-3.159-1.456-3.159-.181 0-.597.053-.936.507zM154.874 25.867l-1.6 3.562h-1.403l1.131-3.562h1.872z"/><path fill="#3C7D91" d="M169.292 20.472v1.819h2.964v1.065h-2.964v2.185c0 .896-.014 1.573 1.014 1.573.767 0 1.378-.261 2.132-.572l.416-.169.43 1.026c-.677.312-1.82.832-2.873.832-.572 0-1.313-.183-1.703-.585-.533-.56-.546-1.326-.546-2.105v-2.185h-.858v-1.065h.858v-1.819h1.13z"/><path d="M178.434 30.495h-2.812v-1.092h1.682v-8.347h-1.682v-1.092h2.812zM190.146 20.224l-4.094 8.969-1.003-.45 4.094-8.976zM197.632 20.472c1.053 0 1.56.221 1.95.559.416.364.688.884.688 1.521 0 .221 0 .948-.702 1.48.325.17 1.157.599 1.157 1.795 0 2.224-2.236 2.224-3.211 2.224h-3.575v-1.066h1.054v-5.447h-1.054v-1.064l3.693-.002zm-1.508 1.065v2.041h1.417c.52 0 1.572-.013 1.572-1.092 0-.949-1.195-.949-1.508-.949h-1.481zm0 3.108v2.34h1.364c1.209 0 2.067-.091 2.067-1.092 0-1.223-1.495-1.248-2.119-1.248h-1.312zM208.786 27.18c-1.17.676-2.354 1.053-3.367 1.053-2.185 0-3.328-1.456-3.328-3.094 0-1.678 1.235-3.159 3.237-3.159 2.054 0 3.094 1.481 3.094 2.756 0 .3-.026.677-.039.793h-5.096c.116.469.416 1.587 2.105 1.587 1.079 0 2.171-.521 2.873-.937l.521 1.001zm-1.56-2.717c-.351-1.339-1.521-1.364-1.885-1.364-1.443 0-1.846 1.014-1.977 1.364h3.862zM215.715 22.161v.871l-3.731 3.952h2.601v-1.195h1.131v2.263h-5.435v-.937l3.692-3.888h-2.431v1.131h-1.131v-2.197h5.304zM223.216 25.711v2.341h-5.408v-1.066c.663-.559 2.496-2.184 3.562-3.25.546-.546.676-.937.676-1.442 0-.768-.546-1.403-1.482-1.403-.402 0-1.365.169-1.365 1.001l.026.271h-1.17v-1.133c1.001-1.222 2.146-1.287 2.548-1.287 1.456 0 2.626 1.157 2.626 2.587 0 1.235-.649 1.898-2.418 3.511l-1.261 1.145h2.574v-1.273l1.092-.002zM230.771 30.495h-2.805v-10.531h2.805v1.092h-1.675v8.347h1.675zM236.378 19.743h.702v7.241h2.157v1.065h-5.473v-1.065h2.185v-5.837l-1.886.845-.455-1.014 2.77-1.235zM245.311 25.867l-1.599 3.562h-1.404l1.131-3.562h1.872z"/><path fill="#002CC3" d="M259.637 22.161v1.066h-.962l.716 2.756h.025l1.014-2.756h.793l1.041 2.756h.025l.729-2.756h-.976v-1.066h2.64v1.066h-.547l-1.312 4.822h-1.026l-1.001-2.834h-.026l-.975 2.834h-.988l-1.326-4.822h-.598v-1.066h2.754z"/><path d="M270.037 25.867l-1.601 3.562h-1.403l1.131-3.562h1.873zM285.131 19.743h.703v7.241h2.157v1.065h-5.474v-1.065h2.185v-5.837l-1.886.845-.455-1.014 2.77-1.235zM294.063 25.867l-1.599 3.562h-1.404l1.131-3.562h1.872z"/><path fill="#3C7D91" d="M308.482 20.472v1.819h2.964v1.065h-2.964v2.185c0 .896-.014 1.573 1.014 1.573.769 0 1.38-.261 2.134-.572l.416-.169.429 1.026c-.677.312-1.82.832-2.873.832-.572 0-1.313-.183-1.703-.585-.533-.56-.546-1.326-.546-2.105v-2.185h-.858v-1.065h.858v-1.819h1.129z"/><path d="M317.623 30.495h-2.811v-1.092h1.681v-8.347h-1.681v-1.092h2.811zM325.893 25.867l-1.6 3.562h-1.404l1.131-3.562h1.873zM31.038 36.722c1.053 0 1.56.221 1.949.559.416.364.689.884.689 1.521 0 .221 0 .948-.702 1.48.325.17 1.157.599 1.157 1.795 0 2.224-2.236 2.224-3.211 2.224h-3.575v-1.066h1.053v-5.447h-1.053v-1.064l3.693-.002zm-1.508 1.065v2.041h1.417c.521 0 1.573-.013 1.573-1.092 0-.949-1.195-.949-1.508-.949h-1.482zm0 3.108v2.34h1.365c1.209 0 2.067-.091 2.067-1.092 0-1.223-1.495-1.248-2.119-1.248h-1.313zM42.192 43.43c-1.17.676-2.353 1.053-3.366 1.053-2.185 0-3.328-1.456-3.328-3.094 0-1.678 1.234-3.159 3.236-3.159 2.055 0 3.095 1.481 3.095 2.756 0 .3-.026.677-.039.793h-5.097c.117.469.416 1.587 2.106 1.587 1.079 0 2.171-.521 2.873-.937l.52 1.001zm-1.56-2.717c-.352-1.339-1.521-1.364-1.885-1.364-1.443 0-1.847 1.014-1.977 1.364h3.862zM49.121 38.411v.871l-3.731 3.952h2.6v-1.195h1.132v2.263h-5.435v-.937l3.692-3.888h-2.432v1.131h-1.131v-2.197h5.305zM56.622 41.961v2.341h-5.408v-1.066c.663-.559 2.496-2.184 3.562-3.25.546-.546.677-.937.677-1.442 0-.768-.547-1.403-1.482-1.403-.403 0-1.365.169-1.365 1.001l.026.271h-1.17v-1.133c1.001-1.222 2.145-1.287 2.548-1.287 1.456 0 2.626 1.157 2.626 2.587 0 1.235-.65 1.898-2.418 3.511l-1.261 1.145h2.573v-1.273l1.092-.002zM64.177 46.745h-2.805v-10.531h2.805v1.092h-1.676v8.347h1.676zM72.449 40.231c0 1.561-.3 4.251-2.64 4.251-2.327 0-2.639-2.69-2.639-4.251 0-1.586.325-4.238 2.639-4.238 2.328 0 2.64 2.665 2.64 4.238zm-3.575-2.652c-.312.442-.521 1.534-.521 2.652 0 1.104.156 3.172 1.456 3.172 1.353 0 1.456-2.196 1.456-3.172 0-1.065-.13-3.159-1.456-3.159-.181 0-.597.053-.935.507zM78.717 42.117l-1.599 3.562h-1.404l1.131-3.562h1.872zM93.812 35.993h.702v7.241h2.158v1.066h-5.473v-1.065h2.184v-5.837l-1.885.845-.455-1.014 2.769-1.236zM104.276 40.231c0 1.561-.299 4.251-2.639 4.251-2.327 0-2.639-2.69-2.639-4.251 0-1.586.324-4.238 2.639-4.238 2.327 0 2.639 2.665 2.639 4.238zm-3.575-2.652c-.312.442-.521 1.534-.521 2.652 0 1.104.156 3.172 1.456 3.172 1.352 0 1.456-2.196 1.456-3.172 0-1.065-.13-3.159-1.456-3.159-.18 0-.596.053-.935.507zM114.25 41.375l-1.822.495 1.168 1.466-1.105.819-1.053-1.568-1.048 1.568-1.111-.819 1.175-1.466-1.822-.495.431-1.314 1.765.653-.076-1.898h1.377l-.076 1.898 1.765-.653z"/><path fill="#002CC3" d="M120.446 38.411v1.066h-.962l.716 2.756h.025l1.014-2.756h.794l1.039 2.756h.026l.729-2.756h-.976v-1.066h2.639v1.066h-.546l-1.312 4.822h-1.027l-1.001-2.834h-.025l-.976 2.834h-.988l-1.325-4.822h-.599v-1.066h2.755z"/><path d="M130.846 42.117l-1.599 3.562h-1.404l1.131-3.562h1.872zM148.606 40.231c0 1.561-.299 4.251-2.639 4.251-2.327 0-2.639-2.69-2.639-4.251 0-1.586.324-4.238 2.639-4.238 2.327 0 2.639 2.665 2.639 4.238zm-3.575-2.652c-.312.442-.52 1.534-.52 2.652 0 1.104.156 3.172 1.456 3.172 1.352 0 1.456-2.196 1.456-3.172 0-1.065-.13-3.159-1.456-3.159-.182 0-.598.053-.936.507zM154.874 42.117l-1.6 3.562h-1.403l1.131-3.562h1.872z"/><path fill="#3C7D91" d="M169.292 36.722v1.819h2.964v1.065h-2.964v2.185c0 .896-.014 1.573 1.014 1.573.767 0 1.378-.261 2.132-.572l.416-.169.43 1.026c-.677.312-1.82.832-2.873.832-.572 0-1.313-.183-1.703-.585-.533-.56-.546-1.326-.546-2.105v-2.185h-.858v-1.065h.858v-1.819h1.13z"/><path d="M178.434 46.745h-2.812v-1.092h1.682v-8.347h-1.682v-1.092h2.812zM190.146 36.474l-4.094 8.969-1.003-.45 4.094-8.976zM197.632 36.722c1.053 0 1.56.221 1.95.559.416.364.688.884.688 1.521 0 .221 0 .948-.702 1.48.325.17 1.157.599 1.157 1.795 0 2.224-2.236 2.224-3.211 2.224h-3.575v-1.066h1.054v-5.447h-1.054v-1.064l3.693-.002zm-1.508 1.065v2.041h1.417c.52 0 1.572-.013 1.572-1.092 0-.949-1.195-.949-1.508-.949h-1.481zm0 3.108v2.34h1.364c1.209 0 2.067-.091 2.067-1.092 0-1.223-1.495-1.248-2.119-1.248h-1.312zM208.786 43.43c-1.17.676-2.354 1.053-3.367 1.053-2.185 0-3.328-1.456-3.328-3.094 0-1.678 1.235-3.159 3.237-3.159 2.054 0 3.094 1.481 3.094 2.756 0 .3-.026.677-.039.793h-5.096c.116.469.416 1.587 2.105 1.587 1.079 0 2.171-.521 2.873-.937l.521 1.001zm-1.56-2.717c-.351-1.339-1.521-1.364-1.885-1.364-1.443 0-1.846 1.014-1.977 1.364h3.862zM215.715 38.411v.871l-3.731 3.952h2.601v-1.195h1.131v2.263h-5.435v-.937l3.692-3.888h-2.431v1.131h-1.131v-2.197h5.304zM223.216 41.961v2.341h-5.408v-1.066c.663-.559 2.496-2.184 3.562-3.25.546-.546.676-.937.676-1.442 0-.768-.546-1.403-1.482-1.403-.402 0-1.365.169-1.365 1.001l.026.271h-1.17v-1.133c1.001-1.222 2.146-1.287 2.548-1.287 1.456 0 2.626 1.157 2.626 2.587 0 1.235-.649 1.898-2.418 3.511l-1.261 1.145h2.574v-1.273l1.092-.002zM230.771 46.745h-2.805v-10.531h2.805v1.092h-1.675v8.347h1.675zM236.378 35.993h.702v7.241h2.157v1.066h-5.473v-1.065h2.185v-5.837l-1.886.845-.455-1.014 2.77-1.236zM245.311 42.117l-1.599 3.562h-1.404l1.131-3.562h1.872z"/><path fill="#002CC3" d="M259.637 38.411v1.066h-.962l.716 2.756h.025l1.014-2.756h.793l1.041 2.756h.025l.729-2.756h-.976v-1.066h2.64v1.066h-.547l-1.312 4.822h-1.026l-1.001-2.834h-.026l-.975 2.834h-.988l-1.326-4.822h-.598v-1.066h2.754z"/><path d="M270.037 42.117l-1.601 3.562h-1.403l1.131-3.562h1.873zM285.131 35.993h.703v7.241h2.157v1.066h-5.474v-1.065h2.185v-5.837l-1.886.845-.455-1.014 2.77-1.236zM294.063 42.117l-1.599 3.562h-1.404l1.131-3.562h1.872z"/><path fill="#3C7D91" d="M308.482 36.722v1.819h2.964v1.065h-2.964v2.185c0 .896-.014 1.573 1.014 1.573.769 0 1.38-.261 2.134-.572l.416-.169.429 1.026c-.677.312-1.82.832-2.873.832-.572 0-1.313-.183-1.703-.585-.533-.56-.546-1.326-.546-2.105v-2.185h-.858v-1.065h.858v-1.819h1.129z"/><path d="M317.623 46.745h-2.811v-1.092h1.681v-8.347h-1.681v-1.092h2.811zM326.556 41.984c-.381 0-.665.056-.852.168s-.278.278-.278.498v2.12c0 1.291-.886 1.936-2.653 1.936v-1.079c1.016 0 1.523-.272 1.523-.818v-2.146c0-.478.207-.887.622-1.225-.208-.152-.363-.333-.468-.542-.104-.21-.154-.436-.154-.676v-2.146c0-.292-.121-.501-.362-.628s-.628-.19-1.161-.19v-1.078c.896 0 1.563.159 1.999.479s.654.805.654 1.457v2.12c0 .229.091.397.271.508.169.103.455.152.857.152l.002 1.09zM339.138 36.474l-4.095 8.969-1.004-.45 4.096-8.976zM345.611 43.403c0 .688-.624 1.104-1.222 1.104-.585 0-1.222-.402-1.222-1.104 0-.688.637-1.104 1.222-1.104.559 0 1.222.403 1.222 1.104z"/><path fill="#002CC3" d="M21.708 54.661v1.066h-.962l.715 2.756h.025l1.015-2.756h.793l1.04 2.756h.025l.729-2.756h-.976v-1.066h2.64v1.066h-.546l-1.313 4.822h-1.026l-1.001-2.834h-.026l-.976 2.834h-.987l-1.326-4.822h-.598v-1.066h2.755z"/><path d="M31.623 57.117h6.163l-1.39-1.39.806-.807 2.742 2.755-2.742 2.774-.806-.806 1.39-1.39h-6.163zM48.339 52.243h.702v7.241h2.158v1.065h-5.474v-1.065h2.185v-5.837l-1.886.845-.455-1.014 2.77-1.235zM57.387 59.653c0 .688-.624 1.104-1.222 1.104-.585 0-1.223-.402-1.223-1.104 0-.688.638-1.104 1.223-1.104.559 0 1.222.403 1.222 1.104zM66.227 52.427v1.117h-3.627v1.911c.169-.064.637-.233 1.261-.233 1.639 0 2.743 1.195 2.743 2.703 0 1.157-.741 2.809-2.898 2.809-.962 0-1.612-.26-2.691-.676l.403-1.054.117.053c.454.194 1.234.546 2.105.546 1.43 0 1.769-.962 1.769-1.639 0-.937-.638-1.664-1.639-1.664-.793 0-1.3.391-1.65.677l-.599-.338v-4.213l4.706.001zM72.874 58.367l-1.6 3.562h-1.403l1.131-3.562h1.872zM90.011 62.957c-1.769 0-2.653-.646-2.653-1.936v-2.121c0-.444-.377-.667-1.13-.667v-1.092c.753 0 1.13-.221 1.13-.66v-2.12c0-1.291.885-1.937 2.653-1.937v1.079c-1.016 0-1.523.273-1.523.819v2.146c0 .503-.208.909-.621 1.219.414.338.621.747.621 1.225v2.146c0 .546.509.818 1.523.818v1.081z"/><path fill="#3C7D91" d="M95.094 52.972v1.819h2.964v1.065h-2.964v2.185c0 .896-.013 1.573 1.014 1.573.768 0 1.378-.261 2.133-.572l.415-.169.43 1.026c-.676.312-1.82.832-2.873.832-.572 0-1.313-.183-1.703-.585-.533-.56-.546-1.326-.546-2.105v-2.185h-.858v-1.065h.858v-1.819h1.13z"/><path d="M104.703 58.367l-1.6 3.562h-1.403l1.131-3.562h1.872zM117.225 57.117h5.199v1.136h-5.199zM131.043 58.211v2.341h-5.408v-1.066c.663-.559 2.496-2.184 3.562-3.25.547-.546.677-.937.677-1.442 0-.768-.546-1.403-1.482-1.403-.403 0-1.365.169-1.365 1.001l.026.271h-1.17v-1.133c1.001-1.222 2.145-1.287 2.548-1.287 1.456 0 2.626 1.157 2.626 2.587 0 1.235-.649 1.898-2.418 3.511l-1.261 1.145h2.574v-1.273l1.091-.002zM137.646 59.653c0 .688-.624 1.104-1.222 1.104-.585 0-1.222-.402-1.222-1.104 0-.688.637-1.104 1.222-1.104.559 0 1.222.403 1.222 1.104zM141.689 54.558c0-1.301 1.131-2.314 2.535-2.314 1.391 0 2.535 1.001 2.535 2.314 0 .546-.195 1.273-.897 1.833.755.52 1.04 1.312 1.04 1.911 0 1.104-.896 2.431-2.678 2.431-1.769 0-2.678-1.326-2.678-2.418 0-.715.39-1.481 1.04-1.924-.819-.663-.897-1.456-.897-1.833zm1.027 3.783c0 .688.65 1.312 1.508 1.312s1.508-.61 1.508-1.312c0-.649-.546-1.325-1.508-1.325-1.001-.001-1.508.701-1.508 1.325zm.143-3.771c0 .729.65 1.312 1.365 1.312.702 0 1.365-.56 1.365-1.312 0-.767-.637-1.222-1.365-1.222-.741.001-1.365.481-1.365 1.222zM153.134 58.367l-1.599 3.562h-1.404l1.131-3.562h1.872zM168.229 52.243h.702v7.241h2.158v1.065h-5.473v-1.065h2.184v-5.837l-1.885.845-.455-1.014 2.769-1.235zM178.693 56.481c0 1.561-.299 4.251-2.639 4.251-2.327 0-2.639-2.69-2.639-4.251 0-1.586.324-4.238 2.639-4.238 2.327 0 2.639 2.665 2.639 4.238zm-3.575-2.652c-.312.442-.521 1.534-.521 2.652 0 1.104.156 3.172 1.456 3.172 1.352 0 1.456-2.196 1.456-3.172 0-1.065-.13-3.159-1.456-3.159-.18 0-.596.053-.935.507zM185.625 58.234c-.381 0-.664.056-.852.168-.186.112-.278.278-.278.498v2.12c0 1.291-.885 1.936-2.653 1.936v-1.079c1.016 0 1.522-.272 1.522-.818v-2.146c0-.478.208-.887.622-1.225-.207-.152-.361-.333-.466-.542-.104-.21-.156-.436-.156-.676v-2.146c0-.292-.119-.501-.36-.628s-.629-.19-1.162-.19v-1.078c.896 0 1.563.159 2 .479.436.319.653.805.653 1.457v2.12c0 .229.091.397.272.508.169.103.455.152.856.152l.002 1.09zM192.297 62.995h-2.813v-1.092h1.683v-8.347h-1.683v-1.092h2.813z"/><path fill="none" d="M-40 0h351v67h-351zM-38 2h411v63h-411z"/><defs><path id="a" d="M82 74h181v433h-181z"/></defs><clipPath id="b"><use xlink:href="#a" overflow="visible"/></clipPath><g clip-path="url(#b)"><defs><path id="c" d="M-20-62h559v783h-559z"/></defs><defs><path id="e" d="M-20-62h559v783h-559z"/></defs><defs><path id="g" d="M-20-62h559v783h-559z"/></defs><defs><path id="i" d="M-20-62h559v783h-559z"/></defs><defs><path id="k" d="M-20-62h559v783h-559z"/></defs><clipPath id="d"><use xlink:href="#c" overflow="visible"/></clipPath><clipPath id="f" clip-path="url(#d)"><use xlink:href="#e" overflow="visible"/></clipPath><clipPath id="h" clip-path="url(#f)"><use xlink:href="#g" overflow="visible"/></clipPath><clipPath id="j" clip-path="url(#h)"><use xlink:href="#i" overflow="visible"/></clipPath><clipPath id="l" clip-path="url(#j)"><use xlink:href="#k" overflow="visible"/></clipPath><path clip-path="url(#l)" stroke="#5E81B5" stroke-width="1.6" stroke-linecap="square" stroke-miterlimit="3.25" fill="none" d="M186.997 256.692l.015-.035.014-.035.03-.07.058-.145.12-.295.248-.621.533-1.383 1.365-3.837 1.638-5.128 2.142-7.507 3.392-13.448 5.292-23.803 12.91-65.848.341-1.824.349-1.869.723-3.877 1.55-8.365 3.614-19.67 10.342-57.269.849-4.753.882-4.939 1.869-10.483 4.221-23.758 11.099-62.873 46.735-267.722 4.965-28.577 5.438-31.315 12.594-72.582 35.295-203.682 11.99-69.25 13.843-79.993 35.295-204.035 131.883-763.006 60.886-352.412 85.722-496.242 129.657-750.678 219.029-1268.231 449.432-2602.527 1446.959-8379.335-27796.037 160970.527 22790.113-131980.217 1074.507-6222.408 381.06-2206.575 313.753-1816.599 213.788-1237.289 26.998-156.155 22.138-128.006 34.148-197.36 44.368-256.145 46.419-267.176 38.897-221.835 1.582-8.922 1.504-8.471 2.799-15.721 4.883-27.302 7.657-42.334 10.268-55.228.497-2.608.485-2.532.934-4.853 1.737-8.936 3.039-15.289 4.825-23.065.243-1.111.24-1.089.468-2.115.9-3.997 1.667-7.158.197-.825.195-.81.384-1.577.742-2.995 1.398-5.414.168-.627.166-.617.327-1.205.64-2.293 1.219-4.168 2.256-6.913.132-.37.13-.364.261-.712.514-1.359 1.004-2.482.124-.289.123-.284.245-.556.487-1.059.958-1.923.119-.224.119-.218.236-.428.472-.813.117-.194.117-.19.234-.371.468-.704.117-.168.116-.164M187.981 374.985l.233-.319.467-.603.116-.142.117-.14.233-.27.467-.507.127-.13.127-.126.255-.242.127-.116.127-.114.256-.216.128-.104.129-.101.257-.191.517-.345.13-.079.13-.075.262-.143.13-.066.132-.064.263-.119.133-.054.133-.052.133-.049.134-.046.133-.044.135-.04.134-.037.135-.034.136-.031.137-.03.136-.025.137-.022.138-.021.138-.017.138-.014.139-.012.14-.008.14-.006.14-.002h.141l.142.002.143.006.143.009.143.011.144.014.145.018.146.02.146.023.147.025.148.029.148.032.149.034.149.037.151.04.303.09.153.049.153.052.31.113.145.057.147.058.295.126.599.284.152.079.153.08.308.169.627.369.159.099.16.102.323.213.658.459 1.37 1.059.176.148.178.148.359.308.733.653 1.535 1.468 3.381 3.636.246.283.249.288.505.593 1.039 1.248 2.213 2.765 5.065 6.79 13.933 20.707.542.844.551.86 1.128 1.768 2.372 3.745 5.271 8.432 13.315 21.784.989 1.641 1.012 1.679 2.095 3.485 4.495 7.506 10.448 17.575 29.585 50.389 2.24 3.841M307.155 536.571l2.316 3.973 4.873 8.367 10.838 18.646 27.398 47.296 4.118 7.125 4.31 7.457 9.242 16.004 21.451 37.197 60.453 105.046 9.958 17.326 10.687 18.596 23.906 41.622 61.281 106.758 19.093 33.279 21.073 36.735 49.454 86.235 143.55 250.424 50.488 88.099 59.427 103.713 157.238 274.445 107.069 186.902 136.444 238.199 427.661 746.659 363.384 634.476 584.338 1020.305 1094.852 1911.752 2793.353 4877.643 22111.988 38611.509-40104.009-70028.968 6778.971 11837.265 1777.549 3103.866 869.037 1517.435 482.747 842.902 519.844 907.621 445.562 777.793 313.118 546.291 190.666 332.04 106.235 183.854 54.439 92.408 20.723 33.812 10.197 15.855 5.848 8.658 4.311 6.073 2.911 3.9 2.19 2.798 1.872 2.282 1.411 1.641 1.261 1.401 1.034 1.099.823.838.771.754.628.59.544.493.525.458.437.368.426.347.36.283.321.245.318.235.272.194.271.188.244.165.212.139.213.136.185.115.17.102.172.102.151.087.002.001.003.002.005.002.01.006.02.012.04.023.003.001.002.001.005.003.01.005.02.011.002.001.002.002.005.002.01.006.003.001.001.002.005.002.003.002.002.001.003.002h.002"/><path clip-path="url(#l)" stroke="#666" stroke-width=".2" stroke-miterlimit="3.25" fill="none" d="M86.5 394.5v-2M95.5 394.5v-4"/></g><path clip-path="url(#b)" fill="none" d="M80 72h185v437h-185z"/><path clip-path="url(#b)" fill="#666" d="M87.273 403.895h4.736v.82h-4.736z"/><g clip-path="url(#b)" fill="#666"><path d="M97.595 406.062v.845h-4.731c-.006-.212.028-.415.104-.609.121-.322.312-.641.579-.952.266-.312.647-.674 1.149-1.084.778-.639 1.305-1.145 1.577-1.517.273-.372.41-.726.41-1.058 0-.349-.125-.642-.374-.882-.249-.238-.574-.358-.974-.358-.423 0-.763.127-1.017.381s-.382.605-.386 1.056l-.903-.093c.062-.675.295-1.188.698-1.541.404-.354.946-.529 1.626-.529.688 0 1.23.189 1.631.571.401.381.602.853.602 1.415 0 .286-.06.568-.176.846-.117.277-.312.567-.583.874-.271.306-.725.726-1.355 1.26-.527.442-.866.743-1.016.901-.15.156-.273.315-.371.476l3.51-.002zM98.538 403.378c0-.848.087-1.527.261-2.044s.433-.913.776-1.193.774-.42 1.296-.42c.384 0 .721.077 1.011.231s.529.377.718.668c.189.292.337.646.444 1.064.106.419.161.981.161 1.692 0 .84-.086 1.518-.26 2.033-.172.517-.431.914-.773 1.195-.343.282-.777.423-1.301.423-.69 0-1.232-.247-1.626-.742-.472-.594-.707-1.563-.707-2.907zm.903 0c0 1.175.139 1.956.413 2.347.275.389.614.583 1.019.583.403 0 .742-.195 1.018-.586.275-.392.413-1.172.413-2.344 0-1.18-.138-1.962-.413-2.35s-.618-.581-1.028-.581c-.403 0-.726.171-.967.514-.304.435-.455 1.241-.455 2.417z"/></g><path clip-path="url(#b)" fill="none" d="M84 395h22v17h-22zM85 396h20v15h-20zM82 74h181v433h-181zM80 72h185v437h-185z"/><path clip-path="url(#b)" stroke="#666" stroke-width=".2" stroke-miterlimit="3.25" fill="none" d="M103.5 394.5v-2M111.5 394.5v-2M120.5 394.5v-2M128.5 394.5v-2M137.5 394.5v-4"/><path clip-path="url(#b)" fill="none" d="M82 74h181v433h-181zM80 72h185v437h-185z"/><path clip-path="url(#b)" fill="#666" d="M129.15 403.895h4.736v.82h-4.736z"/><g clip-path="url(#b)" fill="#666"><path d="M138.164 406.907h-.879v-5.601c-.211.202-.489.402-.833.604-.345.202-.652.354-.926.454v-.85c.492-.231.922-.511 1.289-.84.368-.329.628-.647.781-.957h.566l.002 7.19zM140.415 403.378c0-.848.087-1.527.261-2.044s.433-.913.776-1.193.774-.42 1.296-.42c.384 0 .721.077 1.011.231s.529.377.718.668c.189.292.337.646.444 1.064.106.419.161.981.161 1.692 0 .84-.086 1.518-.26 2.033-.172.517-.431.914-.773 1.195-.343.282-.777.423-1.301.423-.69 0-1.232-.247-1.626-.742-.472-.594-.707-1.563-.707-2.907zm.903 0c0 1.175.139 1.956.413 2.347.275.389.614.583 1.019.583.403 0 .743-.195 1.018-.586.275-.392.413-1.172.413-2.344 0-1.18-.138-1.962-.413-2.35-.274-.388-.618-.581-1.028-.581-.403 0-.726.171-.967.514-.304.435-.455 1.241-.455 2.417z"/></g><path clip-path="url(#b)" fill="none" d="M126 395h22v17h-22zM127 396h20v15h-20zM82 74h181v433h-181zM80 72h185v437h-185z"/><path clip-path="url(#b)" stroke="#666" stroke-width=".2" stroke-miterlimit="3.25" fill="none" d="M145.5 394.5v-2M153.5 394.5v-2M162.5 394.5v-2M170.5 394.5v-2M178.5 394.5v-4M187.5 394.5v-2M195.5 394.5v-2M204.5 394.5v-2M212.5 394.5v-2M220.5 394.5v-4"/><path clip-path="url(#b)" fill="none" d="M82 74h181v433h-181zM80 72h185v437h-185z"/><g clip-path="url(#b)" fill="#666"><path d="M218.997 406.907h-.879v-5.601c-.212.202-.489.402-.833.604-.345.202-.652.354-.926.454v-.85c.492-.231.921-.511 1.289-.84s.628-.647.781-.957h.566l.002 7.19zM221.248 403.378c0-.848.087-1.527.261-2.044s.433-.913.776-1.193.774-.42 1.296-.42c.384 0 .721.077 1.011.231s.529.377.718.668c.189.292.337.646.444 1.064.106.419.161.981.161 1.692 0 .84-.086 1.518-.26 2.033-.172.517-.431.914-.773 1.195-.343.282-.777.423-1.301.423-.69 0-1.232-.247-1.626-.742-.472-.594-.707-1.563-.707-2.907zm.903 0c0 1.175.139 1.956.413 2.347.275.389.614.583 1.019.583.403 0 .743-.195 1.018-.586.275-.392.413-1.172.413-2.344 0-1.18-.138-1.962-.413-2.35-.274-.388-.618-.581-1.028-.581-.403 0-.726.171-.967.514-.304.435-.455 1.241-.455 2.417z"/></g><path clip-path="url(#b)" fill="none" d="M213 395h16v17h-16zM214 396h14v15h-14zM82 74h181v433h-181zM80 72h185v437h-185z"/><path clip-path="url(#b)" stroke="#666" stroke-width=".2" stroke-miterlimit="3.25" fill="none" d="M229.5 394.5v-2M237.5 394.5v-2M245.5 394.5v-2M254.5 394.5v-2M82.5 394.5h180M178.5 499.5h3M178.5 478.5h4"/><path clip-path="url(#b)" fill="none" d="M82 74h181v433h-181zM80 72h185v437h-185z"/><path clip-path="url(#b)" fill="#666" d="M159.545 479.062h4.735v.82h-4.735z"/><g clip-path="url(#b)" fill="#666"><path d="M169.867 481.229v.845h-4.731c-.006-.212.028-.415.103-.609.121-.322.313-.641.579-.952.267-.312.648-.674 1.15-1.084.778-.638 1.304-1.145 1.577-1.517.272-.373.41-.726.41-1.058 0-.349-.125-.642-.374-.882-.249-.238-.574-.358-.975-.358-.423 0-.762.127-1.016.381-.254.255-.382.605-.386 1.056l-.903-.094c.062-.674.294-1.188.698-1.541.403-.353.945-.528 1.626-.528.687 0 1.229.189 1.631.571.401.381.601.853.601 1.416 0 .285-.059.567-.176.845-.117.276-.312.567-.583.874-.271.306-.724.726-1.354 1.26-.527.442-.866.743-1.017.901-.149.156-.272.315-.371.476l3.511-.002zM170.81 478.545c0-.848.087-1.527.261-2.045.175-.516.434-.912.776-1.192s.775-.42 1.296-.42c.384 0 .721.077 1.011.231s.529.377.719.668c.188.292.337.646.443 1.064.107.419.161.982.161 1.691 0 .841-.086 1.519-.259 2.034-.172.517-.431.914-.774 1.195-.343.282-.776.423-1.301.423-.689 0-1.231-.247-1.626-.742-.472-.594-.707-1.563-.707-2.907zm.903 0c0 1.175.138 1.957.413 2.347.274.389.613.583 1.018.583s.743-.195 1.019-.586c.274-.392.413-1.172.413-2.344 0-1.18-.139-1.961-.413-2.35-.275-.388-.618-.581-1.028-.581-.404 0-.726.171-.967.514-.304.435-.455 1.241-.455 2.417z"/></g><path clip-path="url(#b)" fill="none" d="M156 471h22v16h-22zM157 472h20v14h-20zM82 74h181v433h-181zM80 72h185v437h-185z"/><path clip-path="url(#b)" stroke="#666" stroke-width=".2" stroke-miterlimit="3.25" fill="none" d="M178.5 457.5h3M178.5 436.5h3M178.5 415.5h3M178.5 394.5h4M178.5 373.5h3M178.5 352.5h3M178.5 332.5h3M178.5 311.5h4"/><path clip-path="url(#b)" fill="none" d="M82 74h181v433h-181zM80 72h185v437h-185z"/><g clip-path="url(#b)" fill="#666"><path d="M169.867 313.723v.845h-4.731c-.006-.212.028-.415.103-.61.121-.321.313-.64.579-.952.267-.312.648-.674 1.15-1.084.778-.638 1.304-1.144 1.577-1.516.272-.373.41-.726.41-1.058 0-.35-.125-.643-.374-.883-.249-.237-.574-.357-.975-.357-.423 0-.762.127-1.016.381s-.382.605-.386 1.055l-.903-.093c.062-.674.294-1.188.698-1.541.403-.353.945-.529 1.626-.529.687 0 1.229.19 1.631.571s.601.854.601 1.416c0 .286-.059.568-.176.845-.117.277-.312.568-.583.874-.271.307-.724.727-1.354 1.261-.527.441-.866.743-1.017.9-.149.157-.272.316-.371.477l3.511-.002zM170.81 311.037c0-.847.087-1.526.261-2.044.175-.516.434-.913.776-1.193.343-.279.775-.42 1.296-.42.384 0 .721.077 1.011.232.29.154.529.377.719.668.188.292.337.646.443 1.064.107.419.161.981.161 1.691 0 .84-.086 1.519-.259 2.034-.172.516-.431.914-.774 1.195s-.776.423-1.301.423c-.689 0-1.231-.247-1.626-.742-.472-.593-.707-1.563-.707-2.908zm.903 0c0 1.175.138 1.957.413 2.347.274.39.613.583 1.018.583s.743-.194 1.019-.586c.274-.391.413-1.172.413-2.344 0-1.179-.139-1.961-.413-2.349-.275-.389-.618-.581-1.028-.581-.404 0-.726.171-.967.513-.304.437-.455 1.242-.455 2.417z"/></g><path clip-path="url(#b)" fill="none" d="M162 303h16v16h-16zM163 304h14v14h-14zM82 74h181v433h-181zM80 72h185v437h-185z"/><path clip-path="url(#b)" stroke="#666" stroke-width=".2" stroke-miterlimit="3.25" fill="none" d="M178.5 290.5h3M178.5 269.5h3M178.5 248.5h3M178.5 227.5h4"/><path clip-path="url(#b)" fill="none" d="M82 74h181v433h-181zM80 72h185v437h-185z"/><g clip-path="url(#b)" fill="#666"><path d="M168.065 230.814v-1.714h-3.104v-.807l3.267-4.639h.718v4.639h.968v.807h-.968v1.714h-.881zm0-2.519v-3.228l-2.24 3.228h2.24zM170.81 227.284c0-.847.087-1.527.261-2.044.175-.516.434-.913.776-1.193.343-.279.775-.42 1.296-.42.384 0 .721.077 1.011.232.29.154.529.377.719.668.188.292.337.646.443 1.063.107.42.161.982.161 1.692 0 .84-.086 1.519-.259 2.034-.172.516-.431.914-.774 1.195s-.776.423-1.301.423c-.689 0-1.231-.247-1.626-.742-.472-.593-.707-1.563-.707-2.908zm.903 0c0 1.175.138 1.957.413 2.347.274.39.613.583 1.018.583s.743-.194 1.019-.586c.274-.391.413-1.172.413-2.344 0-1.179-.139-1.961-.413-2.349-.275-.389-.618-.581-1.028-.581-.404 0-.726.171-.967.513-.304.437-.455 1.242-.455 2.417z"/></g><path clip-path="url(#b)" fill="none" d="M162 219h16v16h-16zM163 220h14v14h-14zM82 74h181v433h-181zM80 72h185v437h-185z"/><path clip-path="url(#b)" stroke="#666" stroke-width=".2" stroke-miterlimit="3.25" fill="none" d="M178.5 206.5h3M178.5 185.5h3M178.5 164.5h3M178.5 143.5h4"/><path clip-path="url(#b)" fill="none" d="M82 74h181v433h-181zM80 72h185v437h-185z"/><g clip-path="url(#b)" fill="#666"><path d="M169.809 141.656l-.874.068c-.078-.346-.188-.597-.332-.752-.238-.251-.531-.376-.879-.376-.28 0-.526.077-.737.233-.276.202-.494.496-.653.884-.159.389-.243.939-.249 1.655.211-.322.47-.562.775-.718.307-.156.626-.234.962-.234.587 0 1.086.216 1.497.647.412.431.618.988.618 1.672 0 .449-.097.867-.291 1.252-.193.387-.46.682-.798.887s-.723.309-1.152.309c-.731 0-1.329-.271-1.792-.809-.462-.539-.692-1.427-.692-2.664 0-1.384.255-2.39.767-3.018.446-.547 1.046-.82 1.802-.82.563 0 1.024.158 1.385.475.358.316.571.753.643 1.309zm-3.589 3.086c0 .303.064.593.193.869s.309.487.54.632c.23.146.474.218.728.218.371 0 .69-.148.957-.448.267-.301.4-.706.4-1.222 0-.495-.133-.885-.396-1.169-.264-.285-.596-.428-.996-.428-.396 0-.733.143-1.011.428-.277.284-.415.658-.415 1.12zM170.81 143.531c0-.847.087-1.527.261-2.044.175-.516.434-.913.776-1.193.343-.279.775-.42 1.296-.42.384 0 .721.077 1.011.232.29.154.529.377.719.668.188.292.337.646.443 1.063.107.419.161.982.161 1.692 0 .84-.086 1.518-.259 2.034-.172.516-.431.914-.774 1.195s-.776.423-1.301.423c-.689 0-1.231-.247-1.626-.742-.472-.593-.707-1.563-.707-2.908zm.903 0c0 1.175.138 1.957.413 2.347.274.39.613.583 1.018.583s.743-.194 1.019-.586c.274-.391.413-1.172.413-2.344 0-1.179-.139-1.961-.413-2.349-.275-.389-.618-.581-1.028-.581-.404 0-.726.171-.967.513-.304.438-.455 1.242-.455 2.417z"/></g><path clip-path="url(#b)" fill="none" d="M162 136h16v16h-16zM163 137h14v14h-14zM82 74h181v433h-181zM80 72h185v437h-185z"/><path clip-path="url(#b)" stroke="#666" stroke-width=".2" stroke-miterlimit="3.25" fill="none" d="M178.5 122.5h3M178.5 101.5h3M178.5 80.5h3M178.5 506.5v-431"/><path clip-path="url(#b)" fill="none" d="M82 74h181v433h-181zM80 72h185v437h-185z"/></svg>