<svg xmlns="http://www.w3.org/2000/svg" width="480.397" height="39.024" viewBox="0 0 480.397 39.024"><path fill="none" d="M44.397-132.054h402v134h-402z"/><g fill="#454F99"><path d="M10.007 7.869h.883v6.455h-.883v-6.455zM12.204 9.617h.751v.668c.223-.274.458-.473.708-.593s.526-.181.831-.181c.668 0 1.119.233 1.354.699.129.255.193.619.193 1.094v3.02h-.804v-2.967c0-.286-.042-.518-.127-.693-.141-.293-.396-.439-.765-.439-.188 0-.341.019-.461.057-.217.064-.407.193-.571.387-.132.155-.218.315-.257.481-.04.165-.06.401-.06.71v2.465h-.791v-4.708zM17.192 7.824h1.688v.646h-.94v6.979h.94v.646h-1.688v-8.271zM20.242 12.721c.053.451.262.763.628.936.188.088.404.132.65.132.469 0 .816-.149 1.042-.448s.338-.63.338-.993c0-.439-.134-.779-.402-1.02-.268-.24-.589-.36-.964-.36-.272 0-.506.053-.701.158-.195.105-.361.252-.499.439l-.686-.039.479-3.389h3.27v.765h-2.676l-.268 1.749c.146-.111.286-.194.417-.25.234-.098.505-.146.813-.146.577 0 1.066.187 1.468.558.401.373.602.844.602 1.416 0 .595-.184 1.119-.552 1.572-.368.455-.954.682-1.76.682-.513 0-.966-.145-1.36-.433-.394-.289-.614-.731-.661-1.329h.822zM28.842 8.137v.689c-.202.197-.471.538-.806 1.024-.336.486-.632 1.011-.89 1.573-.255.548-.448 1.048-.58 1.498-.085.291-.195.758-.33 1.402h-.875c.199-1.201.639-2.396 1.318-3.586.401-.697.823-1.299 1.266-1.807h-3.48v-.793h4.377zM29.347 15.449h.936v-6.978h-.936v-.647h1.688v8.271h-1.688v-.646zM32.639 9.68h.918v.957h-.918v-.957zm0 3.686h.918v.958h-.918v-.958zM39.129 10.712v.738h-4.583v-.738h4.583zm0 1.886v.751h-4.583v-.751h4.583z"/></g><path d="M49.522 7.011c.935 0 1.705.066 2.354.88.66.825.693 1.805.693 2.223 0 1.354-.473 2.189-.935 2.641-.704.682-1.728.671-2.146.671h-2.838v-.902h.847v-4.611h-.847v-.902h2.872zm-1.067.902v4.609h1.034c.352 0 .99 0 1.441-.451.363-.362.627-1.022.627-1.947 0-.715-.176-1.231-.429-1.595-.385-.562-.814-.616-1.595-.616h-1.078zM59.334 12.688c-.99.572-1.991.892-2.85.892-1.848 0-2.816-1.232-2.816-2.619 0-1.419 1.045-2.673 2.74-2.673 1.738 0 2.618 1.254 2.618 2.332 0 .253-.022.572-.033.671h-4.313c.099.396.352 1.343 1.782 1.343.913 0 1.837-.44 2.432-.792l.44.846zm-1.32-2.299c-.297-1.134-1.287-1.155-1.595-1.155-1.221 0-1.562.858-1.672 1.155h3.267zM62.304 7.011v1.54h2.508v.902h-2.508v1.849c0 .759-.011 1.331.858 1.331.649 0 1.166-.22 1.804-.484l.352-.143.363.869c-.572.264-1.541.704-2.432.704-.484 0-1.111-.154-1.441-.495-.451-.474-.462-1.122-.462-1.782v-1.849h-.726v-.902h.726v-1.54h.958zM71.335 15.492h-2.374v-8.91h2.374v.924h-1.418v7.062h1.418zM77.808 15.46c-1.497 0-2.245-.546-2.245-1.638v-1.794c0-.376-.319-.564-.956-.564v-.924c.637 0 .956-.186.956-.559v-1.793c0-1.092.749-1.638 2.245-1.638v.913c-.859 0-1.289.23-1.289.692v1.815c0 .427-.175.771-.526 1.031.351.287.526.632.526 1.037v1.815c0 .462.43.692 1.289.692v.915zM84.409 15.46c-1.497 0-2.245-.546-2.245-1.638v-1.794c0-.376-.319-.564-.956-.564v-.924c.637 0 .956-.186.956-.559v-1.793c0-1.092.749-1.638 2.245-1.638v.913c-.859 0-1.289.23-1.289.692v1.815c0 .427-.175.771-.526 1.031.351.287.526.632.526 1.037v1.815c0 .462.43.692 1.289.692v.915zM91.229 12.522h.946v.902h-1.903v-.528c-.363.265-.935.683-1.815.683-1.166 0-1.925-.858-1.925-1.717 0-.671.55-1.815 2.486-1.815.495 0 .858.045 1.254.089 0-.386.011-.979-1.078-.979-.77 0-1.518.33-1.925.506l-.374-.88c.671-.275 1.419-.572 2.311-.572 1.408 0 2.024.704 2.024 1.837v2.474zm-.957-1.452c-.385-.055-.715-.121-1.144-.121-1.551 0-1.606.792-1.606.925 0 .406.451.759.924.759.22 0 .979-.044 1.826-.99v-.573zM96.841 11.576l-1.354 3.015h-1.188l.957-3.015h1.585zM107.974 6.296v2.706c.484-.396 1.001-.604 1.617-.604 1.43 0 2.607 1.154 2.607 2.574 0 1.287-1.045 2.563-2.563 2.563-.33 0-.968-.044-1.662-.595v.484h-1.804v-.902h.847v-5.225l-.847.044-.066-.935 1.871-.11zm1.651 6.293c.924 0 1.562-.748 1.562-1.617 0-.892-.682-1.629-1.573-1.629-.913 0-1.639.76-1.639 1.617-.001.869.714 1.629 1.65 1.629zM117.501 11.464c-.322 0-.562.048-.72.143-.158.095-.236.235-.236.422v1.794c0 1.092-.749 1.638-2.245 1.638v-.913c.859 0 1.289-.23 1.289-.692v-1.815c0-.405.175-.75.526-1.037-.176-.129-.307-.281-.395-.459-.088-.177-.131-.368-.131-.572v-1.818c0-.247-.102-.424-.306-.531s-.532-.161-.983-.161v-.913c.759 0 1.323.135 1.692.405.369.271.553.682.553 1.232v1.794c0 .193.077.337.231.43.143.086.385.129.725.129v.924zM123.542 11.576l-1.354 3.015h-1.188l.957-3.015h1.585zM137.811 15.46c-1.497 0-2.245-.546-2.245-1.638v-1.794c0-.376-.319-.564-.956-.564v-.924c.637 0 .956-.186.956-.559v-1.793c0-1.092.748-1.638 2.245-1.638v.913c-.859 0-1.289.23-1.289.692v1.815c0 .427-.176.771-.526 1.031.351.287.526.632.526 1.037v1.815c0 .462.43.692 1.289.692v.915zM141.276 6.296v2.706c.484-.396 1.001-.604 1.617-.604 1.43 0 2.607 1.154 2.607 2.574 0 1.287-1.045 2.563-2.563 2.563-.33 0-.968-.044-1.662-.595v.484h-1.804v-.902h.847v-5.225l-.847.044-.066-.935 1.871-.11zm1.651 6.293c.924 0 1.562-.748 1.562-1.617 0-.892-.682-1.629-1.573-1.629-.913 0-1.639.76-1.639 1.617-.001.869.715 1.629 1.65 1.629zM150.243 11.576l-1.354 3.015h-1.188l.957-3.015h1.585zM165.359 8.375c-.033.297-.066.704-.066 1.101 0 .429.033.715.066.968l-.924.121c-.099-.683-.187-1.331-1.441-1.331-1.562 0-1.826 1.221-1.826 1.694 0 .748.473 1.705 1.75 1.705.847 0 1.661-.55 2.299-1.001l.528.748c-.517.396-1.573 1.199-2.871 1.199-1.595 0-2.718-1.155-2.718-2.641 0-1.287.946-2.651 2.685-2.651.55 0 1.001.132 1.562.605l.099-.605.857.088zM170.903 11.464c-.322 0-.562.048-.72.143-.157.095-.236.235-.236.422v1.794c0 1.092-.748 1.638-2.245 1.638v-.913c.859 0 1.289-.23 1.289-.692v-1.815c0-.405.176-.75.526-1.037-.175-.129-.307-.281-.395-.459-.088-.177-.132-.368-.132-.572v-1.818c0-.247-.102-.424-.306-.531s-.532-.161-.983-.161v-.913c.759 0 1.323.135 1.692.405.369.271.553.682.553 1.232v1.794c0 .193.077.337.231.43.144.086.385.129.725.129v.924zM177.505 11.464c-.322 0-.562.048-.72.143-.158.095-.236.235-.236.422v1.794c0 1.092-.749 1.638-2.245 1.638v-.913c.859 0 1.289-.23 1.289-.692v-1.815c0-.405.175-.75.526-1.037-.176-.129-.307-.281-.395-.459-.088-.177-.131-.368-.131-.572v-1.818c0-.247-.102-.424-.306-.531s-.532-.161-.983-.161v-.913c.759 0 1.323.135 1.692.405.369.271.553.682.553 1.232v1.794c0 .193.077.337.231.43.143.086.385.129.725.129v.924zM183.15 15.492h-2.379v-.924h1.423v-7.062h-1.423v-.924h2.379z"/><path fill="none" d="M44.397 2.946h144v16h-144zM46.397 4.946h427v13h-427z"/><g fill="#454F99"><path d="M10.626 24.791c.428.572.642 1.303.642 2.193 0 .964-.245 1.766-.734 2.404-.574.75-1.393 1.125-2.457 1.125-.993 0-1.774-.328-2.342-.984-.507-.633-.76-1.434-.76-2.4 0-.872.217-1.619.65-2.24.557-.797 1.38-1.195 2.47-1.195 1.14-.001 1.984.366 2.531 1.097zm-.771 4.115c.344-.553.517-1.188.517-1.906 0-.76-.199-1.371-.596-1.834-.397-.464-.939-.695-1.628-.695-.668 0-1.213.229-1.635.688s-.633 1.136-.633 2.029c0 .716.181 1.319.543 1.811.361.491.948.736 1.76.736.771 0 1.328-.276 1.672-.829zM12.995 25.617v3.125c0 .24.037.437.111.589.137.281.392.422.766.422.536 0 .901-.246 1.096-.738.105-.264.158-.625.158-1.085v-2.312h.791v4.707h-.747l.009-.694c-.101.179-.226.329-.375.452-.296.246-.655.369-1.078.369-.659 0-1.107-.224-1.346-.672-.129-.24-.194-.561-.194-.963v-3.199h.809zM17.368 24.304h.8v1.313h.751v.646h-.751v3.072c0 .164.056.273.167.329.062.032.164.048.308.048l.123-.002.154-.016v.629l-.284.057-.318.018c-.369 0-.62-.094-.751-.283-.132-.188-.198-.434-.198-.736v-3.115h-.639v-.646h.637v-1.314zM19.692 23.824h1.688v.646h-.94v6.979h.94v.646h-1.688v-8.271zM22.742 28.721c.053.451.262.763.628.936.188.088.404.132.65.132.469 0 .816-.149 1.042-.448s.338-.63.338-.993c0-.439-.134-.779-.402-1.02-.268-.24-.589-.36-.964-.36-.272 0-.506.053-.701.158-.195.105-.361.252-.499.439l-.686-.039.479-3.389h3.27v.765h-2.676l-.268 1.749c.146-.111.286-.194.417-.25.234-.098.505-.146.813-.146.577 0 1.066.187 1.468.558.401.373.602.844.602 1.416 0 .595-.184 1.119-.552 1.572-.368.455-.954.682-1.76.682-.513 0-.966-.145-1.36-.433-.394-.289-.614-.731-.661-1.329h.822zM31.342 24.137v.689c-.202.197-.471.538-.806 1.024-.336.486-.632 1.011-.89 1.573-.255.548-.448 1.048-.58 1.498-.085.291-.195.758-.33 1.402h-.875c.199-1.201.639-2.396 1.318-3.586.401-.697.823-1.299 1.266-1.807h-3.48v-.795h4.377zM31.848 31.449h.936v-6.979h-.936v-.646h1.688v8.271h-1.688v-.646zM39.129 26.712v.738h-4.583v-.738h4.583zm0 1.886v.751h-4.583v-.751h4.583z"/></g><path d="M51.788 26.092c0 1.44-.297 3.487-2.09 3.487s-2.09-2.068-2.09-3.487c0-1.431.297-3.499 2.09-3.499s2.09 2.068 2.09 3.499zm-3.597-.012c0 1.166.198 3.004 1.496 3.004 1.32 0 1.518-1.849 1.518-3.004 0-1.166-.198-2.992-1.507-2.992-1.32 0-1.507 1.849-1.507 2.992z"/><path fill="none" d="M44.397 18.946h11v16h-11zM46.397 20.946h434v13h-434z"/></svg>